%TF.GenerationSoftware,KiCad,Pcbnew,10.0.2*%
%TF.CreationDate,2026-06-10T08:14:39-04:00*%
%TF.ProjectId,MUSTV Motherboard,4d555354-5620-44d6-9f74-686572626f61,rev?*%
%TF.SameCoordinates,Original*%
%TF.FileFunction,Copper,L4,Bot*%
%TF.FilePolarity,Positive*%
%FSLAX46Y46*%
G04 Gerber Fmt 4.6, Leading zero omitted, Abs format (unit mm)*
G04 Created by KiCad (PCBNEW 10.0.2) date 2026-06-10 08:14:39*
%MOMM*%
%LPD*%
G01*
G04 APERTURE LIST*
G04 Aperture macros list*
%AMRoundRect*
0 Rectangle with rounded corners*
0 $1 Rounding radius*
0 $2 $3 $4 $5 $6 $7 $8 $9 X,Y pos of 4 corners*
0 Add a 4 corners polygon primitive as box body*
4,1,4,$2,$3,$4,$5,$6,$7,$8,$9,$2,$3,0*
0 Add four circle primitives for the rounded corners*
1,1,$1+$1,$2,$3*
1,1,$1+$1,$4,$5*
1,1,$1+$1,$6,$7*
1,1,$1+$1,$8,$9*
0 Add four rect primitives between the rounded corners*
20,1,$1+$1,$2,$3,$4,$5,0*
20,1,$1+$1,$4,$5,$6,$7,0*
20,1,$1+$1,$6,$7,$8,$9,0*
20,1,$1+$1,$8,$9,$2,$3,0*%
G04 Aperture macros list end*
%TA.AperFunction,ComponentPad*%
%ADD10R,1.700000X1.700000*%
%TD*%
%TA.AperFunction,ComponentPad*%
%ADD11C,1.700000*%
%TD*%
%TA.AperFunction,SMDPad,CuDef*%
%ADD12RoundRect,0.150000X-0.150000X0.587500X-0.150000X-0.587500X0.150000X-0.587500X0.150000X0.587500X0*%
%TD*%
%TA.AperFunction,SMDPad,CuDef*%
%ADD13R,1.150000X0.600000*%
%TD*%
%TA.AperFunction,SMDPad,CuDef*%
%ADD14R,1.150000X0.300000*%
%TD*%
%TA.AperFunction,SMDPad,CuDef*%
%ADD15R,1.250000X1.550000*%
%TD*%
%TA.AperFunction,SMDPad,CuDef*%
%ADD16R,1.500000X1.550000*%
%TD*%
%TA.AperFunction,ComponentPad*%
%ADD17O,1.700000X1.950000*%
%TD*%
%TA.AperFunction,ComponentPad*%
%ADD18RoundRect,0.250000X-0.600000X-0.725000X0.600000X-0.725000X0.600000X0.725000X-0.600000X0.725000X0*%
%TD*%
%TA.AperFunction,ComponentPad*%
%ADD19R,1.000000X1.000000*%
%TD*%
%TA.AperFunction,ComponentPad*%
%ADD20C,1.000000*%
%TD*%
%TA.AperFunction,ComponentPad*%
%ADD21C,1.950000*%
%TD*%
%TA.AperFunction,ComponentPad*%
%ADD22RoundRect,0.250000X0.600000X0.725000X-0.600000X0.725000X-0.600000X-0.725000X0.600000X-0.725000X0*%
%TD*%
%TA.AperFunction,ComponentPad*%
%ADD23R,1.905000X2.000000*%
%TD*%
%TA.AperFunction,ComponentPad*%
%ADD24O,1.905000X2.000000*%
%TD*%
%TA.AperFunction,ComponentPad*%
%ADD25R,1.651000X1.651000*%
%TD*%
%TA.AperFunction,ComponentPad*%
%ADD26C,1.651000*%
%TD*%
%TA.AperFunction,SMDPad,CuDef*%
%ADD27RoundRect,0.237500X0.237500X-0.250000X0.237500X0.250000X-0.237500X0.250000X-0.237500X-0.250000X0*%
%TD*%
%TA.AperFunction,SMDPad,CuDef*%
%ADD28RoundRect,0.237500X-0.300000X-0.237500X0.300000X-0.237500X0.300000X0.237500X-0.300000X0.237500X0*%
%TD*%
%TA.AperFunction,SMDPad,CuDef*%
%ADD29RoundRect,0.225000X0.225000X0.375000X-0.225000X0.375000X-0.225000X-0.375000X0.225000X-0.375000X0*%
%TD*%
%TA.AperFunction,SMDPad,CuDef*%
%ADD30RoundRect,0.237500X0.237500X-0.300000X0.237500X0.300000X-0.237500X0.300000X-0.237500X-0.300000X0*%
%TD*%
%TA.AperFunction,SMDPad,CuDef*%
%ADD31RoundRect,0.237500X0.250000X0.237500X-0.250000X0.237500X-0.250000X-0.237500X0.250000X-0.237500X0*%
%TD*%
%TA.AperFunction,SMDPad,CuDef*%
%ADD32RoundRect,0.237500X-0.250000X-0.237500X0.250000X-0.237500X0.250000X0.237500X-0.250000X0.237500X0*%
%TD*%
%TA.AperFunction,SMDPad,CuDef*%
%ADD33R,1.625600X2.184400*%
%TD*%
%TA.AperFunction,SMDPad,CuDef*%
%ADD34RoundRect,0.237500X0.300000X0.237500X-0.300000X0.237500X-0.300000X-0.237500X0.300000X-0.237500X0*%
%TD*%
%TA.AperFunction,SMDPad,CuDef*%
%ADD35RoundRect,0.237500X-0.237500X0.250000X-0.237500X-0.250000X0.237500X-0.250000X0.237500X0.250000X0*%
%TD*%
%TA.AperFunction,SMDPad,CuDef*%
%ADD36RoundRect,0.125000X0.125000X0.125000X-0.125000X0.125000X-0.125000X-0.125000X0.125000X-0.125000X0*%
%TD*%
%TA.AperFunction,SMDPad,CuDef*%
%ADD37RoundRect,0.087500X0.087500X-0.537500X0.087500X0.537500X-0.087500X0.537500X-0.087500X-0.537500X0*%
%TD*%
%TA.AperFunction,SMDPad,CuDef*%
%ADD38RoundRect,0.162500X0.617500X0.162500X-0.617500X0.162500X-0.617500X-0.162500X0.617500X-0.162500X0*%
%TD*%
%TA.AperFunction,SMDPad,CuDef*%
%ADD39RoundRect,0.237500X-0.237500X0.300000X-0.237500X-0.300000X0.237500X-0.300000X0.237500X0.300000X0*%
%TD*%
%TA.AperFunction,SMDPad,CuDef*%
%ADD40RoundRect,0.150000X0.512500X0.150000X-0.512500X0.150000X-0.512500X-0.150000X0.512500X-0.150000X0*%
%TD*%
%TA.AperFunction,SMDPad,CuDef*%
%ADD41RoundRect,0.250000X0.450000X-0.400000X0.450000X0.400000X-0.450000X0.400000X-0.450000X-0.400000X0*%
%TD*%
%TA.AperFunction,SMDPad,CuDef*%
%ADD42RoundRect,0.250000X0.450000X-0.350000X0.450000X0.350000X-0.450000X0.350000X-0.450000X-0.350000X0*%
%TD*%
%TA.AperFunction,SMDPad,CuDef*%
%ADD43RoundRect,0.137500X-0.600000X-0.137500X0.600000X-0.137500X0.600000X0.137500X-0.600000X0.137500X0*%
%TD*%
%TA.AperFunction,SMDPad,CuDef*%
%ADD44RoundRect,0.137500X-0.137500X-0.600000X0.137500X-0.600000X0.137500X0.600000X-0.137500X0.600000X0*%
%TD*%
%TA.AperFunction,SMDPad,CuDef*%
%ADD45RoundRect,0.075000X0.075000X-0.662500X0.075000X0.662500X-0.075000X0.662500X-0.075000X-0.662500X0*%
%TD*%
%TA.AperFunction,SMDPad,CuDef*%
%ADD46RoundRect,0.075000X0.662500X-0.075000X0.662500X0.075000X-0.662500X0.075000X-0.662500X-0.075000X0*%
%TD*%
%TA.AperFunction,ViaPad*%
%ADD47C,0.600000*%
%TD*%
%TA.AperFunction,ViaPad*%
%ADD48C,0.500000*%
%TD*%
%TA.AperFunction,ViaPad*%
%ADD49C,1.000000*%
%TD*%
%TA.AperFunction,Conductor*%
%ADD50C,0.200000*%
%TD*%
%TA.AperFunction,Conductor*%
%ADD51C,0.400000*%
%TD*%
%TA.AperFunction,Conductor*%
%ADD52C,0.500000*%
%TD*%
%TA.AperFunction,Conductor*%
%ADD53C,0.100000*%
%TD*%
G04 APERTURE END LIST*
D10*
%TO.P,J15,1,Pin_1_1*%
%TO.N,unconnected-(J15-Pin_1-Pad1)*%
X175335000Y-41785000D03*
D11*
%TO.P,J15,2,Pin_2_2*%
%TO.N,/EN_IN*%
X175335000Y-44325000D03*
%TO.P,J15,3,Pin_3_3*%
%TO.N,Net-(J15-Pin_3)*%
X175335000Y-46865000D03*
%TO.P,J15,4,Pin_4_4*%
%TO.N,/FIX_OUT*%
X175335000Y-49405000D03*
%TO.P,J15,5,Pin_5_5*%
%TO.N,/GPS_TX*%
X175335000Y-51945000D03*
%TO.P,J15,6,Pin_6_6*%
%TO.N,/GPS_RX*%
X175335000Y-54485000D03*
%TO.P,J15,7,Pin_7_7*%
%TO.N,GND*%
X175335000Y-57025000D03*
%TO.P,J15,8,Pin_8_8*%
%TO.N,+5V*%
X175335000Y-59565000D03*
%TO.P,J15,9,Pin_9_9*%
%TO.N,/PPS*%
X175335000Y-62105000D03*
%TD*%
D10*
%TO.P,J5,1,Pin_1_1*%
%TO.N,GND*%
X115325000Y-52025000D03*
D11*
%TO.P,J5,2,Pin_2_2*%
%TO.N,+5V*%
X115325000Y-54565000D03*
%TO.P,J5,3,Pin_3_3*%
%TO.N,/SCL*%
X115325000Y-57105000D03*
%TO.P,J5,4,Pin_4_4*%
%TO.N,/SDA*%
X115325000Y-59645000D03*
%TD*%
D10*
%TO.P,J3,1,Pin_1_1*%
%TO.N,/MISO2*%
X160095000Y-54055000D03*
D11*
%TO.P,J3,2,Pin_2_2*%
%TO.N,+5V*%
X162635000Y-54055000D03*
%TO.P,J3,3,Pin_3_3*%
%TO.N,/SCK2*%
X160095000Y-56595000D03*
%TO.P,J3,4,Pin_4_4*%
%TO.N,/MOSI2*%
X162635000Y-56595000D03*
%TO.P,J3,5,Pin_5_5*%
%TO.N,/RESET2*%
X160095000Y-59135000D03*
%TO.P,J3,6,Pin_6_6*%
%TO.N,GND*%
X162635000Y-59135000D03*
%TD*%
D10*
%TO.P,J13,1,Pin_1_1*%
%TO.N,+5V*%
X149090000Y-61590000D03*
D11*
%TO.P,J13,2,Pin_2_2*%
%TO.N,GND*%
X149090000Y-59050000D03*
%TO.P,J13,3,Pin_3_3*%
%TO.N,/HALL_EFFECT(SYS)*%
X149090000Y-56510000D03*
%TD*%
D10*
%TO.P,J16,1,Pin_1_1*%
%TO.N,/MISO*%
X133475000Y-71285000D03*
D11*
%TO.P,J16,2,Pin_2_2*%
%TO.N,+5V*%
X133475000Y-73825000D03*
%TO.P,J16,3,Pin_3_3*%
%TO.N,/SCK*%
X130935000Y-71285000D03*
%TO.P,J16,4,Pin_4_4*%
%TO.N,/MOSI*%
X130935000Y-73825000D03*
%TO.P,J16,5,Pin_5_5*%
%TO.N,/RESET*%
X128395000Y-71285000D03*
%TO.P,J16,6,Pin_6_6*%
%TO.N,GND*%
X128395000Y-73825000D03*
%TD*%
D12*
%TO.P,U4,1,G_1*%
%TO.N,Net-(U4-G)*%
X165100000Y-50800000D03*
%TO.P,U4,2,S_2*%
%TO.N,Vusb*%
X167000000Y-50800000D03*
%TO.P,U4,3,D_3*%
%TO.N,+5V*%
X166050000Y-52675000D03*
%TD*%
D10*
%TO.P,J4,1,Pin_1_1*%
%TO.N,+5V*%
X152105000Y-52755000D03*
D11*
%TO.P,J4,2,Pin_2_2*%
%TO.N,GND*%
X149565000Y-52755000D03*
%TO.P,J4,3,Pin_3_3*%
%TO.N,/HALL_EFFECT(MOT)*%
X147025000Y-52755000D03*
%TD*%
D10*
%TO.P,J10,1,Pin_1_1*%
%TO.N,+5V*%
X152105000Y-48755000D03*
D11*
%TO.P,J10,2,Pin_2_2*%
%TO.N,GND*%
X149565000Y-48755000D03*
%TO.P,J10,3,Pin_3_3*%
%TO.N,/HALL_EFFECT(MOT)_2*%
X147025000Y-48755000D03*
%TD*%
D13*
%TO.P,J1,A1_B12,GND_1_A1_B12*%
%TO.N,GND*%
X170225000Y-67602500D03*
%TO.P,J1,A4_B9,VBUS_1_A4_B9*%
%TO.N,Net-(D2-A1)*%
X170225000Y-68402500D03*
D14*
%TO.P,J1,A5,CC1_A5*%
%TO.N,Net-(J1-CC1)*%
X170225000Y-69552500D03*
%TO.P,J1,A6,DP1_A6*%
%TO.N,/USB_D+*%
X170225000Y-70552500D03*
%TO.P,J1,A7,DN1_A7*%
%TO.N,/USB_D-*%
X170225000Y-71052500D03*
%TO.P,J1,A8,SBU1_A8*%
%TO.N,unconnected-(J1-SBU1-PadA8)*%
X170225000Y-72052500D03*
D13*
%TO.P,J1,B1_A12,GND_2_B1_A12*%
%TO.N,GND*%
X170225000Y-74002500D03*
%TO.P,J1,B4_A9,VBUS_2_B4_A9*%
%TO.N,Net-(D2-A1)*%
X170225000Y-73202500D03*
D14*
%TO.P,J1,B5,CC2_B5*%
%TO.N,Net-(J1-CC2)*%
X170225000Y-72552500D03*
%TO.P,J1,B6,DP2_B6*%
%TO.N,/USB_D+*%
X170225000Y-71552500D03*
%TO.P,J1,B7,DN2_B7*%
%TO.N,/USB_D-*%
X170225000Y-70052500D03*
%TO.P,J1,B8,SBU2_B8*%
%TO.N,unconnected-(J1-SBU2-PadB8)*%
X170225000Y-69052500D03*
D15*
%TO.P,J1,SH1,SH1_SH1*%
%TO.N,GND*%
X170875000Y-65707500D03*
%TO.P,J1,SH2,SH2_SH2*%
X170875000Y-75897500D03*
D16*
%TO.P,J1,SH3,SH3_SH3*%
X174800000Y-65707500D03*
%TO.P,J1,SH4,SH4_SH4*%
X174800000Y-75897500D03*
%TD*%
D17*
%TO.P,J6,4,Pin_4_4*%
%TO.N,GND*%
X115300000Y-66600000D03*
%TO.P,J6,3,Pin_3_3*%
%TO.N,/SDA*%
X112800000Y-66600000D03*
%TO.P,J6,2,Pin_2_2*%
%TO.N,/SCL*%
X110300000Y-66600000D03*
D18*
%TO.P,J6,1,Pin_1_1*%
%TO.N,+5V*%
X107800000Y-66600000D03*
%TD*%
D19*
%TO.P,J8,1,Pin_1_1*%
%TO.N,+3V3*%
X115575000Y-34600000D03*
D20*
%TO.P,J8,2,Pin_2_2*%
%TO.N,/SCL_Press*%
X114325000Y-34600000D03*
%TO.P,J8,3,Pin_3_3*%
%TO.N,/SDA_Press*%
X113075000Y-34600000D03*
%TO.P,J8,4,Pin_4_4*%
%TO.N,GND*%
X111825000Y-34600000D03*
%TD*%
D19*
%TO.P,J2,1,Pin_1_1*%
%TO.N,+3V3*%
X106900000Y-34600000D03*
D20*
%TO.P,J2,2,Pin_2_2*%
%TO.N,/SCL_Temp*%
X105650000Y-34600000D03*
%TO.P,J2,3,Pin_3_3*%
%TO.N,/SDA_Temp*%
X104400000Y-34600000D03*
%TO.P,J2,4,Pin_4_4*%
%TO.N,GND*%
X103150000Y-34600000D03*
%TD*%
D11*
%TO.P,Y1,1,1_1*%
%TO.N,Net-(U3-XTAL1)*%
X147700000Y-74200000D03*
%TO.P,Y1,2,2_2*%
%TO.N,GND*%
X147700000Y-71700000D03*
%TO.P,Y1,3,3_3*%
%TO.N,Net-(U3-PC0{slash}XTAL2)*%
X147700000Y-69200000D03*
%TD*%
D18*
%TO.P,J9,1,Pin_1_1*%
%TO.N,+5V*%
X94100000Y-66600000D03*
D17*
%TO.P,J9,2,Pin_2_2*%
%TO.N,/SCL*%
X96600000Y-66600000D03*
%TO.P,J9,3,Pin_3_3*%
%TO.N,/SDA*%
X99100000Y-66600000D03*
%TO.P,J9,4,Pin_4_4*%
%TO.N,GND*%
X101600000Y-66600000D03*
%TD*%
D21*
%TO.P,J7,1,1_1*%
%TO.N,GND*%
X167800000Y-34250000D03*
%TO.P,J7,2,2_2*%
%TO.N,VIN*%
X162800000Y-34250000D03*
%TD*%
D10*
%TO.P,J11,1,Pin_1_1*%
%TO.N,/TX_Charging*%
X137420000Y-77200000D03*
D11*
%TO.P,J11,2,Pin_2_2*%
%TO.N,/RX_Charging*%
X139960000Y-77200000D03*
%TO.P,J11,3,Pin_3_3*%
%TO.N,GND*%
X142500000Y-77200000D03*
%TD*%
D10*
%TO.P,J12,1,Pin_1_1*%
%TO.N,/MOTOR_STEP*%
X147975000Y-77075000D03*
D11*
%TO.P,J12,2,Pin_2_2*%
%TO.N,/MOTOR_DIR*%
X150515000Y-77075000D03*
%TO.P,J12,3,Pin_3_3*%
%TO.N,GND*%
X153055000Y-77075000D03*
%TD*%
D22*
%TO.P,J18,1,Pin_1_1*%
%TO.N,+5V*%
X142475000Y-40275000D03*
D17*
%TO.P,J18,2,Pin_2_2*%
%TO.N,/SCL*%
X139975000Y-40275000D03*
%TO.P,J18,3,Pin_3_3*%
%TO.N,/SDA*%
X137475000Y-40275000D03*
%TO.P,J18,4,Pin_4_4*%
%TO.N,GND*%
X134975000Y-40275000D03*
%TD*%
D10*
%TO.P,J14,1,Pin_1_1*%
%TO.N,/BT_STATE*%
X142145000Y-48755000D03*
D11*
%TO.P,J14,2,Pin_2_2*%
%TO.N,/BT_RX*%
X139605000Y-48755000D03*
%TO.P,J14,3,Pin_3_3*%
%TO.N,/BT_TX*%
X137065000Y-48755000D03*
%TO.P,J14,4,Pin_4_4*%
%TO.N,GND*%
X134525000Y-48755000D03*
%TO.P,J14,5,Pin_5_5*%
%TO.N,+5V*%
X131985000Y-48755000D03*
%TO.P,J14,6,Pin_6_6*%
%TO.N,/BT_EN*%
X129445000Y-48755000D03*
%TD*%
%TO.P,Y2,1,1_1*%
%TO.N,Net-(U10-XTAL1)*%
X122105000Y-59602500D03*
%TO.P,Y2,2,2_2*%
%TO.N,GND*%
X122105000Y-62102500D03*
%TO.P,Y2,3,3_3*%
%TO.N,Net-(U10-XTAL2)*%
X122105000Y-64602500D03*
%TD*%
D23*
%TO.P,U7,1,VI_1*%
%TO.N,VIN*%
X155500000Y-32600000D03*
D24*
%TO.P,U7,2,GND_2*%
%TO.N,GND*%
X152960000Y-32600000D03*
%TO.P,U7,3,VO_3*%
%TO.N,+5V*%
X150420000Y-32600000D03*
%TD*%
D25*
%TO.P,C10,1*%
%TO.N,Net-(J15-Pin_3)*%
X168987050Y-44825000D03*
D26*
%TO.P,C10,2*%
%TO.N,GND*%
X158979450Y-44825000D03*
%TD*%
D27*
%TO.P,R14,1*%
%TO.N,/TX0*%
X148815000Y-66367500D03*
%TO.P,R14,2*%
%TO.N,Net-(U3-PD2)*%
X148815000Y-64542500D03*
%TD*%
%TO.P,R7,1*%
%TO.N,Net-(U1-EN)*%
X106590000Y-39462500D03*
%TO.P,R7,2*%
%TO.N,+3V3*%
X106590000Y-37637500D03*
%TD*%
D28*
%TO.P,C18,1*%
%TO.N,+3V3*%
X78667501Y-63555000D03*
%TO.P,C18,2*%
%TO.N,GND*%
X80392501Y-63555000D03*
%TD*%
D29*
%TO.P,D3,1,K_1*%
%TO.N,+5V*%
X166255000Y-69902500D03*
%TO.P,D3,2,A_2*%
%TO.N,/RESET2*%
X162955000Y-69902500D03*
%TD*%
D27*
%TO.P,R16,1*%
%TO.N,/RX0*%
X147245000Y-66387500D03*
%TO.P,R16,2*%
%TO.N,Net-(U3-PD3)*%
X147245000Y-64562500D03*
%TD*%
D30*
%TO.P,C13,1*%
%TO.N,Net-(U10-AREF)*%
X145725000Y-65137500D03*
%TO.P,C13,2*%
%TO.N,GND*%
X145725000Y-63412500D03*
%TD*%
D31*
%TO.P,R11,1*%
%TO.N,+5V*%
X165283250Y-72002500D03*
%TO.P,R11,2*%
%TO.N,/RESET2*%
X163458250Y-72002500D03*
%TD*%
D32*
%TO.P,R13,1*%
%TO.N,Net-(U3-D-)*%
X164705000Y-75302500D03*
%TO.P,R13,2*%
%TO.N,/USB_D-*%
X166530000Y-75302500D03*
%TD*%
D30*
%TO.P,C9,1*%
%TO.N,+3V3*%
X119615000Y-33197500D03*
%TO.P,C9,2*%
%TO.N,GND*%
X119615000Y-31472500D03*
%TD*%
D33*
%TO.P,D1,1,K_1*%
%TO.N,Vusb*%
X167100000Y-55970800D03*
%TO.P,D1,2,A_2*%
%TO.N,Net-(D1-A)*%
X167100000Y-59679200D03*
%TD*%
D28*
%TO.P,C6,1*%
%TO.N,/RESET*%
X152042500Y-55402500D03*
%TO.P,C6,2*%
%TO.N,Net-(U3-~{HWB}{slash}PD7)*%
X153767500Y-55402500D03*
%TD*%
D34*
%TO.P,C5,1*%
%TO.N,+5V*%
X151940000Y-73600000D03*
%TO.P,C5,2*%
%TO.N,GND*%
X150215000Y-73600000D03*
%TD*%
D27*
%TO.P,R9,1*%
%TO.N,Net-(U3-XTAL1)*%
X143700000Y-72412500D03*
%TO.P,R9,2*%
%TO.N,Net-(U3-PC0{slash}XTAL2)*%
X143700000Y-70587500D03*
%TD*%
D35*
%TO.P,R28,1*%
%TO.N,+5V*%
X172750000Y-41962500D03*
%TO.P,R28,2*%
%TO.N,/EN_IN*%
X172750000Y-43787500D03*
%TD*%
D32*
%TO.P,R12,1*%
%TO.N,Net-(U3-D+)*%
X164692500Y-73702500D03*
%TO.P,R12,2*%
%TO.N,/USB_D+*%
X166517500Y-73702500D03*
%TD*%
D35*
%TO.P,R15,1*%
%TO.N,GND*%
X157405000Y-54590000D03*
%TO.P,R15,2*%
%TO.N,Net-(U3-~{HWB}{slash}PD7)*%
X157405000Y-56415000D03*
%TD*%
%TO.P,R5,1*%
%TO.N,VIN*%
X153805000Y-41542500D03*
%TO.P,R5,2*%
%TO.N,Net-(U2-+)*%
X153805000Y-43367500D03*
%TD*%
%TO.P,R1,1*%
%TO.N,+5V*%
X168005000Y-67592500D03*
%TO.P,R1,2*%
%TO.N,Net-(J1-CC1)*%
X168005000Y-69417500D03*
%TD*%
D36*
%TO.P,D6,1,K_1*%
%TO.N,Net-(D6-K)*%
X162125000Y-46975000D03*
%TO.P,D6,2,A_2*%
%TO.N,+3V3*%
X159925000Y-46975000D03*
%TD*%
D37*
%TO.P,U1,1,GND_1*%
%TO.N,GND*%
X105290000Y-42370000D03*
%TO.P,U1,2,VREF1_2*%
%TO.N,+5V*%
X104790000Y-42370000D03*
%TO.P,U1,3,SCL1_3*%
%TO.N,/SCL*%
X104290000Y-42370000D03*
%TO.P,U1,4,SDA1_4*%
%TO.N,/SDA*%
X103790000Y-42370000D03*
%TO.P,U1,5,SDA2_5*%
%TO.N,/SDA_Temp*%
X103790000Y-39570000D03*
%TO.P,U1,6,SCL2_6*%
%TO.N,/SCL_Temp*%
X104290000Y-39570000D03*
%TO.P,U1,7,VREF2_7*%
%TO.N,Net-(U1-EN)*%
X104790000Y-39570000D03*
%TO.P,U1,8,EN_8*%
X105290000Y-39570000D03*
%TD*%
D30*
%TO.P,C11,1*%
%TO.N,Net-(J15-Pin_3)*%
X171275000Y-46812500D03*
%TO.P,C11,2*%
%TO.N,GND*%
X171275000Y-45087500D03*
%TD*%
D38*
%TO.P,U6,1,VIN_1*%
%TO.N,+5V*%
X124150000Y-33250000D03*
%TO.P,U6,2,GND_2*%
%TO.N,GND*%
X124150000Y-34200000D03*
%TO.P,U6,3,ON/~{OFF}_3*%
%TO.N,+5V*%
X124150000Y-35150000D03*
%TO.P,U6,4,BP_4*%
%TO.N,unconnected-(U6-BP-Pad4)*%
X121450000Y-35150000D03*
%TO.P,U6,5,VOUT_5*%
%TO.N,+3V3*%
X121450000Y-33250000D03*
%TD*%
D39*
%TO.P,C19,1*%
%TO.N,+5V*%
X120505000Y-70292500D03*
%TO.P,C19,2*%
%TO.N,GND*%
X120505000Y-72017500D03*
%TD*%
D28*
%TO.P,C3,1*%
%TO.N,Net-(U3-UCAP)*%
X161142500Y-73902500D03*
%TO.P,C3,2*%
%TO.N,GND*%
X162867500Y-73902500D03*
%TD*%
D40*
%TO.P,U11,1,+_1*%
%TO.N,/PIN26*%
X124592500Y-70255000D03*
%TO.P,U11,2,V-_2*%
%TO.N,GND*%
X124592500Y-71205000D03*
%TO.P,U11,3,-_3*%
%TO.N,Net-(U11--)*%
X124592500Y-72155000D03*
%TO.P,U11,4*%
X122317500Y-72155000D03*
%TO.P,U11,5,V+_5*%
%TO.N,+5V*%
X122317500Y-70255000D03*
%TD*%
D10*
%TO.P,U8,1,VDD_1*%
%TO.N,+3V3*%
X80400000Y-47200000D03*
D11*
%TO.P,U8,2,RST_2*%
%TO.N,unconnected-(U8-RST-Pad2)*%
X80400000Y-44660000D03*
%TO.P,U8,3,RXD_3*%
%TO.N,Net-(U8-RXD)*%
X80400000Y-42120000D03*
%TO.P,U8,4,TXD_4*%
%TO.N,/RF_TX*%
X80400000Y-39580000D03*
%TO.P,U8,5,GND_5*%
%TO.N,GND*%
X80400000Y-37040000D03*
%TD*%
D39*
%TO.P,C17,1*%
%TO.N,+5V*%
X138000000Y-69637500D03*
%TO.P,C17,2*%
%TO.N,GND*%
X138000000Y-71362500D03*
%TD*%
D27*
%TO.P,R4,1*%
%TO.N,+5V*%
X168500000Y-75912500D03*
%TO.P,R4,2*%
%TO.N,Net-(J1-CC2)*%
X168500000Y-74087500D03*
%TD*%
D41*
%TO.P,D2,1,A1_1*%
%TO.N,Net-(D2-A1)*%
X166255000Y-64855000D03*
%TO.P,D2,2,A2_2*%
%TO.N,GND*%
X166255000Y-61955000D03*
%TD*%
D31*
%TO.P,R24,1*%
%TO.N,/RF_RX*%
X84712500Y-43600000D03*
%TO.P,R24,2*%
%TO.N,GND*%
X82887500Y-43600000D03*
%TD*%
D42*
%TO.P,FB1,1*%
%TO.N,Net-(D2-A1)*%
X168400000Y-64905000D03*
%TO.P,FB1,2*%
%TO.N,Net-(D1-A)*%
X168400000Y-62905000D03*
%TD*%
D30*
%TO.P,C4,1*%
%TO.N,+5V*%
X150305000Y-67967500D03*
%TO.P,C4,2*%
%TO.N,GND*%
X150305000Y-66242500D03*
%TD*%
D37*
%TO.P,U5,1,GND_1*%
%TO.N,GND*%
X113140374Y-41207834D03*
%TO.P,U5,2,VREF1_2*%
%TO.N,+5V*%
X112640374Y-41207834D03*
%TO.P,U5,3,SCL1_3*%
%TO.N,/SCL*%
X112140374Y-41207834D03*
%TO.P,U5,4,SDA1_4*%
%TO.N,/SDA*%
X111640374Y-41207834D03*
%TO.P,U5,5,SDA2_5*%
%TO.N,/SDA_Press*%
X111640374Y-38407834D03*
%TO.P,U5,6,SCL2_6*%
%TO.N,/SCL_Press*%
X112140374Y-38407834D03*
%TO.P,U5,7,VREF2_7*%
%TO.N,Net-(U5-EN)*%
X112640374Y-38407834D03*
%TO.P,U5,8,EN_8*%
X113140374Y-38407834D03*
%TD*%
D39*
%TO.P,C8,1*%
%TO.N,+5V*%
X125915000Y-35572500D03*
%TO.P,C8,2*%
%TO.N,GND*%
X125915000Y-37297500D03*
%TD*%
D34*
%TO.P,C2,1*%
%TO.N,Net-(U2-+)*%
X151062500Y-40730000D03*
%TO.P,C2,2*%
%TO.N,GND*%
X149337500Y-40730000D03*
%TD*%
D39*
%TO.P,C16,1*%
%TO.N,+5V*%
X139500000Y-69637500D03*
%TO.P,C16,2*%
%TO.N,GND*%
X139500000Y-71362500D03*
%TD*%
D27*
%TO.P,R21,1*%
%TO.N,Net-(U5-EN)*%
X114460374Y-39190334D03*
%TO.P,R21,2*%
%TO.N,+3V3*%
X114460374Y-37365334D03*
%TD*%
D40*
%TO.P,U2,1,+_1*%
%TO.N,Net-(U2-+)*%
X151595000Y-42760000D03*
%TO.P,U2,2,V-_2*%
%TO.N,GND*%
X151595000Y-43710000D03*
%TO.P,U2,3,-_3*%
%TO.N,+3V3*%
X151595000Y-44660000D03*
%TO.P,U2,4*%
%TO.N,Net-(U4-G)*%
X149320000Y-44660000D03*
%TO.P,U2,5,V+_5*%
%TO.N,+5V*%
X149320000Y-42760000D03*
%TD*%
D39*
%TO.P,C15,1*%
%TO.N,+5V*%
X141000000Y-69637500D03*
%TO.P,C15,2*%
%TO.N,GND*%
X141000000Y-71362500D03*
%TD*%
D31*
%TO.P,R25,1*%
%TO.N,Net-(J15-Pin_3)*%
X166337500Y-46925000D03*
%TO.P,R25,2*%
%TO.N,Net-(D6-K)*%
X164512500Y-46925000D03*
%TD*%
D43*
%TO.P,U3,1,XTAL1_1*%
%TO.N,Net-(U3-XTAL1)*%
X152242500Y-71555000D03*
%TO.P,U3,2,PC0/XTAL2_2*%
%TO.N,Net-(U3-PC0{slash}XTAL2)*%
X152242500Y-70755000D03*
%TO.P,U3,3,GND_3*%
%TO.N,GND*%
X152242500Y-69955000D03*
%TO.P,U3,4,VCC_4*%
%TO.N,+5V*%
X152242500Y-69155000D03*
%TO.P,U3,5,PC2_5*%
%TO.N,unconnected-(U3-PC2-Pad5)*%
X152242500Y-68355000D03*
%TO.P,U3,6,PD0_6*%
%TO.N,unconnected-(U3-PD0-Pad6)*%
X152242500Y-67555000D03*
%TO.P,U3,7,PD1_7*%
%TO.N,unconnected-(U3-PD1-Pad7)*%
X152242500Y-66755000D03*
%TO.P,U3,8,PD2_8*%
%TO.N,Net-(U3-PD2)*%
X152242500Y-65955000D03*
D44*
%TO.P,U3,9,PD3_9*%
%TO.N,Net-(U3-PD3)*%
X153605000Y-64592500D03*
%TO.P,U3,10,PD4_10*%
%TO.N,Net-(D5-K)*%
X154405000Y-64592500D03*
%TO.P,U3,11,PD5_11*%
%TO.N,Net-(D4-K)*%
X155205000Y-64592500D03*
%TO.P,U3,12,PD6_12*%
%TO.N,unconnected-(U3-PD6-Pad12)*%
X156005000Y-64592500D03*
%TO.P,U3,13,~{HWB}/PD7_13*%
%TO.N,Net-(U3-~{HWB}{slash}PD7)*%
X156805000Y-64592500D03*
%TO.P,U3,14,PB0_14*%
%TO.N,unconnected-(U3-PB0-Pad14)*%
X157605000Y-64592500D03*
%TO.P,U3,15,PB1_15*%
%TO.N,/SCK2*%
X158405000Y-64592500D03*
%TO.P,U3,16,PB2_16*%
%TO.N,/MOSI2*%
X159205000Y-64592500D03*
D43*
%TO.P,U3,17,PB3_17*%
%TO.N,/MISO2*%
X160567500Y-65955000D03*
%TO.P,U3,18,PB4_18*%
%TO.N,unconnected-(U3-PB4-Pad18)*%
X160567500Y-66755000D03*
%TO.P,U3,19,PB5_19*%
%TO.N,unconnected-(U3-PB5-Pad19)*%
X160567500Y-67555000D03*
%TO.P,U3,20,PB6_20*%
%TO.N,unconnected-(U3-PB6-Pad20)*%
X160567500Y-68355000D03*
%TO.P,U3,21,PB7_21*%
%TO.N,unconnected-(U3-PB7-Pad21)*%
X160567500Y-69155000D03*
%TO.P,U3,22,PC7_22*%
%TO.N,unconnected-(U3-PC7-Pad22)*%
X160567500Y-69955000D03*
%TO.P,U3,23,PC6_23*%
%TO.N,unconnected-(U3-PC6-Pad23)*%
X160567500Y-70755000D03*
%TO.P,U3,24,PC1/~{RESET}_24*%
%TO.N,/RESET2*%
X160567500Y-71555000D03*
D44*
%TO.P,U3,25,PC5_25*%
%TO.N,unconnected-(U3-PC5-Pad25)*%
X159205000Y-72917500D03*
%TO.P,U3,26,PC4_26*%
%TO.N,unconnected-(U3-PC4-Pad26)*%
X158405000Y-72917500D03*
%TO.P,U3,27,UCAP_27*%
%TO.N,Net-(U3-UCAP)*%
X157605000Y-72917500D03*
%TO.P,U3,28,UGND_28*%
%TO.N,GND*%
X156805000Y-72917500D03*
%TO.P,U3,29,D+_29*%
%TO.N,Net-(U3-D+)*%
X156005000Y-72917500D03*
%TO.P,U3,30,D-_30*%
%TO.N,Net-(U3-D-)*%
X155205000Y-72917500D03*
%TO.P,U3,31,UVCC_31*%
%TO.N,+5V*%
X154405000Y-72917500D03*
%TO.P,U3,32,AVCC_32*%
X153605000Y-72917500D03*
%TD*%
D45*
%TO.P,U10,1,PG5_1*%
%TO.N,unconnected-(U10-PG5-Pad1)*%
X142105000Y-67565000D03*
%TO.P,U10,2,PE0_2*%
%TO.N,/RX0*%
X141605000Y-67565000D03*
%TO.P,U10,3,PE1_3*%
%TO.N,/TX0*%
X141105000Y-67565000D03*
%TO.P,U10,4,PE2_4*%
%TO.N,unconnected-(U10-PE2-Pad4)*%
X140605000Y-67565000D03*
%TO.P,U10,5,PE3_5*%
%TO.N,unconnected-(U10-PE3-Pad5)*%
X140105000Y-67565000D03*
%TO.P,U10,6,PE4_6*%
%TO.N,/TOP_END*%
X139605000Y-67565000D03*
%TO.P,U10,7,PE5_7*%
%TO.N,/BOTTOM_END*%
X139105000Y-67565000D03*
%TO.P,U10,8,PE6_8*%
%TO.N,unconnected-(U10-PE6-Pad8)*%
X138605000Y-67565000D03*
%TO.P,U10,9,PE7_9*%
%TO.N,unconnected-(U10-PE7-Pad9)*%
X138105000Y-67565000D03*
%TO.P,U10,10,VCC_10*%
%TO.N,+5V*%
X137605000Y-67565000D03*
%TO.P,U10,11,GND_11*%
%TO.N,GND*%
X137105000Y-67565000D03*
%TO.P,U10,12,PH0_12*%
%TO.N,/RX_Charging*%
X136605000Y-67565000D03*
%TO.P,U10,13,PH1_13*%
%TO.N,/TX_Charging*%
X136105000Y-67565000D03*
%TO.P,U10,14,PH2_14*%
%TO.N,unconnected-(U10-PH2-Pad14)*%
X135605000Y-67565000D03*
%TO.P,U10,15,PH3_15*%
%TO.N,unconnected-(U10-PH3-Pad15)*%
X135105000Y-67565000D03*
%TO.P,U10,16,PH4_16*%
%TO.N,unconnected-(U10-PH4-Pad16)*%
X134605000Y-67565000D03*
%TO.P,U10,17,PH5_17*%
%TO.N,/MOTOR_DIR*%
X134105000Y-67565000D03*
%TO.P,U10,18,PH6_18*%
%TO.N,/MOTOR_STEP*%
X133605000Y-67565000D03*
%TO.P,U10,19,PB0_19*%
%TO.N,/SD_CS*%
X133105000Y-67565000D03*
%TO.P,U10,20,PB1_20*%
%TO.N,/SCK*%
X132605000Y-67565000D03*
%TO.P,U10,21,PB2_21*%
%TO.N,/MOSI*%
X132105000Y-67565000D03*
%TO.P,U10,22,PB3_22*%
%TO.N,/MISO*%
X131605000Y-67565000D03*
%TO.P,U10,23,PB4_23*%
%TO.N,unconnected-(U10-PB4-Pad23)*%
X131105000Y-67565000D03*
%TO.P,U10,24,PB5_24*%
%TO.N,unconnected-(U10-PB5-Pad24)*%
X130605000Y-67565000D03*
%TO.P,U10,25,PB6_25*%
%TO.N,unconnected-(U10-PB6-Pad25)*%
X130105000Y-67565000D03*
D46*
%TO.P,U10,26,PB7_26*%
%TO.N,/PIN26*%
X128442500Y-65902500D03*
%TO.P,U10,27,PH7_27*%
%TO.N,unconnected-(U10-PH7-Pad27)*%
X128442500Y-65402500D03*
%TO.P,U10,28,PG3_28*%
%TO.N,unconnected-(U10-PG3-Pad28)*%
X128442500Y-64902500D03*
%TO.P,U10,29,PG4_29*%
%TO.N,unconnected-(U10-PG4-Pad29)*%
X128442500Y-64402500D03*
%TO.P,U10,30,~{RESET}_30*%
%TO.N,/RESET*%
X128442500Y-63902500D03*
%TO.P,U10,31,VCC_31*%
%TO.N,+5V*%
X128442500Y-63402500D03*
%TO.P,U10,32,GND_32*%
%TO.N,GND*%
X128442500Y-62902500D03*
%TO.P,U10,33,XTAL2_33*%
%TO.N,Net-(U10-XTAL2)*%
X128442500Y-62402500D03*
%TO.P,U10,34,XTAL1_34*%
%TO.N,Net-(U10-XTAL1)*%
X128442500Y-61902500D03*
%TO.P,U10,35,PL0_35*%
%TO.N,/FIX_OUT*%
X128442500Y-61402500D03*
%TO.P,U10,36,PL1_36*%
%TO.N,Net-(U10-PL1)*%
X128442500Y-60902500D03*
%TO.P,U10,37,PL2_37*%
%TO.N,unconnected-(U10-PL2-Pad37)*%
X128442500Y-60402500D03*
%TO.P,U10,38,PL3_38*%
%TO.N,unconnected-(U10-PL3-Pad38)*%
X128442500Y-59902500D03*
%TO.P,U10,39,PL4_39*%
%TO.N,unconnected-(U10-PL4-Pad39)*%
X128442500Y-59402500D03*
%TO.P,U10,40,PL5_40*%
%TO.N,unconnected-(U10-PL5-Pad40)*%
X128442500Y-58902500D03*
%TO.P,U10,41,PL6_41*%
%TO.N,unconnected-(U10-PL6-Pad41)*%
X128442500Y-58402500D03*
%TO.P,U10,42,PL7_42*%
%TO.N,unconnected-(U10-PL7-Pad42)*%
X128442500Y-57902500D03*
%TO.P,U10,43,PD0_43*%
%TO.N,/SCL*%
X128442500Y-57402500D03*
%TO.P,U10,44,PD1_44*%
%TO.N,/SDA*%
X128442500Y-56902500D03*
%TO.P,U10,45,PD2_45*%
%TO.N,/RF_TX*%
X128442500Y-56402500D03*
%TO.P,U10,46,PD3_46*%
%TO.N,/RF_RX*%
X128442500Y-55902500D03*
%TO.P,U10,47,PD4_47*%
%TO.N,unconnected-(U10-PD4-Pad47)*%
X128442500Y-55402500D03*
%TO.P,U10,48,PD5_48*%
%TO.N,unconnected-(U10-PD5-Pad48)*%
X128442500Y-54902500D03*
%TO.P,U10,49,PD6_49*%
%TO.N,unconnected-(U10-PD6-Pad49)*%
X128442500Y-54402500D03*
%TO.P,U10,50,PD7_50*%
%TO.N,unconnected-(U10-PD7-Pad50)*%
X128442500Y-53902500D03*
D45*
%TO.P,U10,51,PG0_51*%
%TO.N,/HALL_EFFECT(SYS)*%
X130105000Y-52240000D03*
%TO.P,U10,52,PG1_52*%
%TO.N,unconnected-(U10-PG1-Pad52)*%
X130605000Y-52240000D03*
%TO.P,U10,53,PC0_53*%
%TO.N,unconnected-(U10-PC0-Pad53)*%
X131105000Y-52240000D03*
%TO.P,U10,54,PC1_54*%
%TO.N,unconnected-(U10-PC1-Pad54)*%
X131605000Y-52240000D03*
%TO.P,U10,55,PC2_55*%
%TO.N,unconnected-(U10-PC2-Pad55)*%
X132105000Y-52240000D03*
%TO.P,U10,56,PC3_56*%
%TO.N,unconnected-(U10-PC3-Pad56)*%
X132605000Y-52240000D03*
%TO.P,U10,57,PC4_57*%
%TO.N,unconnected-(U10-PC4-Pad57)*%
X133105000Y-52240000D03*
%TO.P,U10,58,PC5_58*%
%TO.N,unconnected-(U10-PC5-Pad58)*%
X133605000Y-52240000D03*
%TO.P,U10,59,PC6_59*%
%TO.N,unconnected-(U10-PC6-Pad59)*%
X134105000Y-52240000D03*
%TO.P,U10,60,PC7_60*%
%TO.N,unconnected-(U10-PC7-Pad60)*%
X134605000Y-52240000D03*
%TO.P,U10,61,VCC_61*%
%TO.N,+5V*%
X135105000Y-52240000D03*
%TO.P,U10,62,GND_62*%
%TO.N,GND*%
X135605000Y-52240000D03*
%TO.P,U10,63,PJ0_63*%
%TO.N,/BT_TX*%
X136105000Y-52240000D03*
%TO.P,U10,64,PJ1_64*%
%TO.N,/BT_RX*%
X136605000Y-52240000D03*
%TO.P,U10,65,PJ2_65*%
%TO.N,/BT_EN*%
X137105000Y-52240000D03*
%TO.P,U10,66,PJ3_66*%
%TO.N,/BT_STATE*%
X137605000Y-52240000D03*
%TO.P,U10,67,PJ4_67*%
%TO.N,unconnected-(U10-PJ4-Pad67)*%
X138105000Y-52240000D03*
%TO.P,U10,68,PJ5_68*%
%TO.N,unconnected-(U10-PJ5-Pad68)*%
X138605000Y-52240000D03*
%TO.P,U10,69,PJ6_69*%
%TO.N,unconnected-(U10-PJ6-Pad69)*%
X139105000Y-52240000D03*
%TO.P,U10,70,PG2_70*%
%TO.N,unconnected-(U10-PG2-Pad70)*%
X139605000Y-52240000D03*
%TO.P,U10,71,PA7_71*%
%TO.N,/HALL_EFFECT(MOT)_2*%
X140105000Y-52240000D03*
%TO.P,U10,72,PA6_72*%
%TO.N,/HALL_EFFECT(MOT)*%
X140605000Y-52240000D03*
%TO.P,U10,73,PA5_73*%
%TO.N,unconnected-(U10-PA5-Pad73)*%
X141105000Y-52240000D03*
%TO.P,U10,74,PA4_74*%
%TO.N,unconnected-(U10-PA4-Pad74)*%
X141605000Y-52240000D03*
%TO.P,U10,75,PA3_75*%
%TO.N,unconnected-(U10-PA3-Pad75)*%
X142105000Y-52240000D03*
D46*
%TO.P,U10,76,PA2_76*%
%TO.N,/PPS*%
X143767500Y-53902500D03*
%TO.P,U10,77,PA1_77*%
%TO.N,/GPS_RX*%
X143767500Y-54402500D03*
%TO.P,U10,78,PA0_78*%
%TO.N,/GPS_TX*%
X143767500Y-54902500D03*
%TO.P,U10,79,PJ7_79*%
%TO.N,unconnected-(U10-PJ7-Pad79)*%
X143767500Y-55402500D03*
%TO.P,U10,80,VCC_80*%
%TO.N,+5V*%
X143767500Y-55902500D03*
%TO.P,U10,81,GND_81*%
%TO.N,GND*%
X143767500Y-56402500D03*
%TO.P,U10,82,PK7_82*%
%TO.N,unconnected-(U10-PK7-Pad82)*%
X143767500Y-56902500D03*
%TO.P,U10,83,PK6_83*%
%TO.N,unconnected-(U10-PK6-Pad83)*%
X143767500Y-57402500D03*
%TO.P,U10,84,PK5_84*%
%TO.N,unconnected-(U10-PK5-Pad84)*%
X143767500Y-57902500D03*
%TO.P,U10,85,PK4_85*%
%TO.N,unconnected-(U10-PK4-Pad85)*%
X143767500Y-58402500D03*
%TO.P,U10,86,PK3_86*%
%TO.N,unconnected-(U10-PK3-Pad86)*%
X143767500Y-58902500D03*
%TO.P,U10,87,PK2_87*%
%TO.N,unconnected-(U10-PK2-Pad87)*%
X143767500Y-59402500D03*
%TO.P,U10,88,PK1_88*%
%TO.N,unconnected-(U10-PK1-Pad88)*%
X143767500Y-59902500D03*
%TO.P,U10,89,PK0_89*%
%TO.N,unconnected-(U10-PK0-Pad89)*%
X143767500Y-60402500D03*
%TO.P,U10,90,PF7_90*%
%TO.N,unconnected-(U10-PF7-Pad90)*%
X143767500Y-60902500D03*
%TO.P,U10,91,PF6_91*%
%TO.N,unconnected-(U10-PF6-Pad91)*%
X143767500Y-61402500D03*
%TO.P,U10,92,PF5_92*%
%TO.N,unconnected-(U10-PF5-Pad92)*%
X143767500Y-61902500D03*
%TO.P,U10,93,PF4_93*%
%TO.N,unconnected-(U10-PF4-Pad93)*%
X143767500Y-62402500D03*
%TO.P,U10,94,PF3_94*%
%TO.N,unconnected-(U10-PF3-Pad94)*%
X143767500Y-62902500D03*
%TO.P,U10,95,PF2_95*%
%TO.N,unconnected-(U10-PF2-Pad95)*%
X143767500Y-63402500D03*
%TO.P,U10,96,PF1_96*%
%TO.N,/RF_INT*%
X143767500Y-63902500D03*
%TO.P,U10,97,PF0_97*%
%TO.N,unconnected-(U10-PF0-Pad97)*%
X143767500Y-64402500D03*
%TO.P,U10,98,AREF_98*%
%TO.N,Net-(U10-AREF)*%
X143767500Y-64902500D03*
%TO.P,U10,99,GND_99*%
%TO.N,GND*%
X143767500Y-65402500D03*
%TO.P,U10,100,AVCC_100*%
%TO.N,+5V*%
X143767500Y-65902500D03*
%TD*%
D35*
%TO.P,R30,1*%
%TO.N,Net-(U10-XTAL1)*%
X119105000Y-61190000D03*
%TO.P,R30,2*%
%TO.N,Net-(U10-XTAL2)*%
X119105000Y-63015000D03*
%TD*%
D31*
%TO.P,R26,1*%
%TO.N,/RF_RX*%
X84712500Y-42100000D03*
%TO.P,R26,2*%
%TO.N,Net-(U8-RXD)*%
X82887500Y-42100000D03*
%TD*%
D32*
%TO.P,R6,1*%
%TO.N,Net-(U2-+)*%
X154042500Y-44967500D03*
%TO.P,R6,2*%
%TO.N,GND*%
X155867500Y-44967500D03*
%TD*%
D47*
%TO.N,+5V*%
X143767500Y-67751000D03*
X145805000Y-59805000D03*
X103010000Y-43142500D03*
X105220931Y-43495000D03*
X122255000Y-68255000D03*
X172750000Y-41300000D03*
X124100000Y-59500000D03*
X170190000Y-58780000D03*
X124785000Y-54292500D03*
X112520374Y-43240334D03*
X168005000Y-67592500D03*
X166000000Y-72000000D03*
X139500000Y-69637500D03*
X168500000Y-75912500D03*
X149320000Y-42760000D03*
X150455000Y-65142500D03*
X125815000Y-34235000D03*
X123755000Y-66105000D03*
X165750000Y-53362500D03*
X127200000Y-63402500D03*
X154800000Y-57442500D03*
X145100000Y-55900000D03*
X135100000Y-51000000D03*
D48*
%TO.N,GND*%
X107737500Y-43012500D03*
D47*
X162855000Y-73102500D03*
X120505000Y-72802500D03*
X174800000Y-75897500D03*
X131900000Y-65665000D03*
X90225001Y-51200000D03*
X130105000Y-62902500D03*
X157405000Y-53855000D03*
X97225001Y-57600000D03*
X170800000Y-74600000D03*
X142670000Y-65402500D03*
X124570000Y-34170000D03*
X150280000Y-74300000D03*
X156767500Y-71755000D03*
X114480374Y-40920334D03*
X125930000Y-38037500D03*
X148600000Y-40700000D03*
X153267500Y-69955000D03*
X139500000Y-72100000D03*
X170225000Y-67602500D03*
X150295000Y-66305000D03*
X84100000Y-63400000D03*
X118500000Y-74100000D03*
X145725000Y-63412500D03*
X82887500Y-43600000D03*
X137105000Y-66205000D03*
X130020000Y-58900000D03*
X170215000Y-52775000D03*
X114102946Y-42365843D03*
X138000000Y-72137500D03*
X80392501Y-63555000D03*
X170875000Y-75897500D03*
X166315000Y-61885000D03*
X170875000Y-65707500D03*
X125555000Y-71205000D03*
X174800000Y-65707500D03*
X105779902Y-42379999D03*
X171300000Y-44350000D03*
X142500000Y-56700000D03*
X94025001Y-51100000D03*
X119695000Y-31522500D03*
X141000000Y-72100000D03*
X155905000Y-44255000D03*
X135567500Y-53886750D03*
%TO.N,/RESET*%
X150705000Y-55402500D03*
X130105000Y-63902500D03*
%TO.N,Net-(U10-PL1)*%
X130142500Y-60603963D03*
%TO.N,+3V3*%
X115115000Y-37600000D03*
X108170000Y-34510000D03*
X109680000Y-37600000D03*
X86925001Y-57600000D03*
X116420000Y-34530000D03*
X101620000Y-37750000D03*
X106590000Y-37637500D03*
X107284002Y-37728958D03*
D49*
X118415000Y-33235000D03*
D47*
X78667501Y-63555000D03*
%TO.N,/SCL_Press*%
X113485375Y-37340573D03*
%TO.N,/SDA_Press*%
X111682500Y-37300000D03*
%TO.N,/SCK*%
X119364528Y-77054000D03*
X90260001Y-57545000D03*
X127505000Y-75555000D03*
X96660001Y-53005000D03*
%TO.N,/MOSI*%
X121845000Y-76505000D03*
%TO.N,/SD_CS*%
X133050000Y-69150000D03*
%TO.N,/SDA*%
X112500000Y-54000000D03*
X124825000Y-57745000D03*
X103010000Y-41317500D03*
X109700000Y-39500000D03*
X111030374Y-41365334D03*
%TO.N,/MISO*%
X130725605Y-68995605D03*
X122275000Y-77455000D03*
%TO.N,/SCL_Temp*%
X105087500Y-37680000D03*
%TO.N,/SDA_Temp*%
X103485000Y-37735000D03*
%TO.N,Net-(U5-EN)*%
X115190374Y-39047834D03*
%TO.N,/HALL_EFFECT(SYS)*%
X139980000Y-57117500D03*
%TO.N,/SCL*%
X112605000Y-39955000D03*
X127305612Y-57502500D03*
X104499942Y-41279294D03*
%TO.N,Net-(D4-K)*%
X155758250Y-62630000D03*
%TO.N,Net-(U11--)*%
X124805000Y-73005000D03*
%TO.N,/FIX_OUT*%
X130285000Y-61455000D03*
%TO.N,/GPS_TX*%
X141750000Y-59950000D03*
%TO.N,/GPS_RX*%
X141100000Y-62350000D03*
%TO.N,/PPS*%
X144100000Y-53400000D03*
%TO.N,Net-(U1-EN)*%
X106990000Y-41040000D03*
%TO.N,/TX_Charging*%
X136100000Y-70000000D03*
%TO.N,/RX_Charging*%
X136800000Y-69300000D03*
%TO.N,/BT_EN*%
X137105000Y-53455000D03*
%TO.N,Net-(D5-K)*%
X153805000Y-62630000D03*
%TO.N,/USB_D+*%
X171687801Y-71677196D03*
X172305000Y-70602500D03*
%TO.N,/RF_RX*%
X124500000Y-47100000D03*
X126440000Y-49100000D03*
%TD*%
%TO.N,/SDA*%
D50*
X101300000Y-68800000D02*
X99100000Y-66600000D01*
X110600000Y-68800000D02*
X101300000Y-68800000D01*
X112800000Y-66600000D02*
X110600000Y-68800000D01*
%TO.N,GND*%
X170800000Y-74577500D02*
X170225000Y-74002500D01*
X170800000Y-74600000D02*
X170800000Y-74577500D01*
%TO.N,Net-(D2-A1)*%
X168780000Y-64930000D02*
X168755000Y-64905000D01*
X168780000Y-67580000D02*
X168780000Y-64930000D01*
X169602500Y-68402500D02*
X168780000Y-67580000D01*
X171597043Y-68477500D02*
X171220406Y-68477500D01*
X173307000Y-70187457D02*
X171597043Y-68477500D01*
X173307000Y-72062943D02*
X173307000Y-70187457D01*
X172743943Y-72626000D02*
X173307000Y-72062943D01*
X171220406Y-68477500D02*
X171145406Y-68402500D01*
X171145406Y-68402500D02*
X169602500Y-68402500D01*
X172231500Y-72626000D02*
X172743943Y-72626000D01*
X170300000Y-73127500D02*
X171730000Y-73127500D01*
X171730000Y-73127500D02*
X172231500Y-72626000D01*
%TO.N,/USB_D-*%
X172553943Y-70001500D02*
X172056057Y-70001500D01*
X172906000Y-70353557D02*
X172553943Y-70001500D01*
X172906000Y-70851443D02*
X172906000Y-70353557D01*
X172553943Y-71203500D02*
X172906000Y-70851443D01*
X172056057Y-70001500D02*
X172005057Y-70052500D01*
X171905057Y-71052500D02*
X172056057Y-71203500D01*
X169855000Y-71052500D02*
X171905057Y-71052500D01*
X169805000Y-71102500D02*
X169855000Y-71052500D01*
X169297500Y-71102500D02*
X169805000Y-71102500D01*
X167305000Y-74527500D02*
X167305000Y-73095000D01*
X167305000Y-73095000D02*
X169297500Y-71102500D01*
X172056057Y-71203500D02*
X172553943Y-71203500D01*
X172005057Y-70052500D02*
X170225000Y-70052500D01*
X166530000Y-75302500D02*
X167305000Y-74527500D01*
%TO.N,/USB_D+*%
X171563105Y-71552500D02*
X170225000Y-71552500D01*
X171687801Y-71677196D02*
X171563105Y-71552500D01*
%TO.N,Net-(J1-CC1)*%
X168140000Y-69552500D02*
X168005000Y-69417500D01*
X170225000Y-69552500D02*
X168140000Y-69552500D01*
%TO.N,/USB_D-*%
X166530000Y-75390000D02*
X166530000Y-74977500D01*
%TO.N,/USB_D+*%
X170175000Y-70602500D02*
X170225000Y-70552500D01*
X169197500Y-70602500D02*
X170175000Y-70602500D01*
X166517500Y-73282500D02*
X169197500Y-70602500D01*
X166517500Y-73702500D02*
X166517500Y-73282500D01*
X170275000Y-70602500D02*
X170225000Y-70552500D01*
X172305000Y-70602500D02*
X170275000Y-70602500D01*
%TO.N,Net-(J1-CC2)*%
X168500000Y-73500000D02*
X169447500Y-72552500D01*
X169447500Y-72552500D02*
X170225000Y-72552500D01*
X168500000Y-74087500D02*
X168500000Y-73500000D01*
%TO.N,Net-(U3-XTAL1)*%
X146302500Y-74200000D02*
X144515000Y-72412500D01*
X147807500Y-74200000D02*
X146302500Y-74200000D01*
X144515000Y-72412500D02*
X143700000Y-72412500D01*
X150452500Y-71555000D02*
X147807500Y-74200000D01*
X152242500Y-71555000D02*
X150452500Y-71555000D01*
%TO.N,+5V*%
X125815000Y-34235000D02*
X124830000Y-33250000D01*
X105220931Y-43495000D02*
X105205000Y-43495000D01*
X143767500Y-55902500D02*
X145097500Y-55902500D01*
X124900000Y-35150000D02*
X124150000Y-35150000D01*
X120355000Y-70142500D02*
X120505000Y-70292500D01*
X104790000Y-43080000D02*
X104790000Y-42370000D01*
X146192134Y-65976000D02*
X145257866Y-65976000D01*
D51*
X165283250Y-72002500D02*
X165283250Y-71533250D01*
D50*
X137605000Y-68502500D02*
X138000000Y-68897500D01*
X138000000Y-69637500D02*
X139500000Y-69637500D01*
X125492500Y-35150000D02*
X125915000Y-35572500D01*
X153605000Y-72917500D02*
X154405000Y-72917500D01*
X105205000Y-43495000D02*
X104790000Y-43080000D01*
X145191866Y-65910000D02*
X143775000Y-65910000D01*
X137605000Y-67565000D02*
X137605000Y-68502500D01*
X146569134Y-65599000D02*
X146192134Y-65976000D01*
X147451000Y-65599000D02*
X146569134Y-65599000D01*
D51*
X165283250Y-70711750D02*
X166092500Y-69902500D01*
D50*
X145257866Y-65976000D02*
X145191866Y-65910000D01*
X153868500Y-71991500D02*
X153868500Y-69628500D01*
X152242500Y-69155000D02*
X151467500Y-69155000D01*
X135100000Y-52235000D02*
X135105000Y-52240000D01*
X124830000Y-33250000D02*
X124150000Y-33250000D01*
X150305000Y-67967500D02*
X151081000Y-67191500D01*
X120542500Y-70255000D02*
X120505000Y-70292500D01*
X151081000Y-65712866D02*
X150510634Y-65142500D01*
X153395000Y-69155000D02*
X152242500Y-69155000D01*
X122317500Y-70255000D02*
X122317500Y-68317500D01*
X122317500Y-70255000D02*
X120542500Y-70255000D01*
X125815000Y-34235000D02*
X124900000Y-35150000D01*
X153868500Y-69628500D02*
X153395000Y-69155000D01*
X127200000Y-63402500D02*
X128442500Y-63402500D01*
X151467500Y-69155000D02*
X150367500Y-68055000D01*
X165285750Y-72000000D02*
X165283250Y-72002500D01*
X150455000Y-65142500D02*
X150266500Y-65331000D01*
X147719000Y-65331000D02*
X147451000Y-65599000D01*
X122317500Y-68317500D02*
X122255000Y-68255000D01*
X166000000Y-72000000D02*
X165285750Y-72000000D01*
X143775000Y-65910000D02*
X143767500Y-65902500D01*
X105220931Y-43495000D02*
X105110931Y-43385000D01*
X143767500Y-67751000D02*
X143767500Y-65902500D01*
X150266500Y-65331000D02*
X147719000Y-65331000D01*
X124150000Y-35150000D02*
X125492500Y-35150000D01*
D51*
X165283250Y-72002500D02*
X165283250Y-70711750D01*
D50*
X145097500Y-55902500D02*
X145100000Y-55900000D01*
X150510634Y-65142500D02*
X150455000Y-65142500D01*
X152005000Y-73855000D02*
X153868500Y-71991500D01*
X103252500Y-43385000D02*
X103010000Y-43142500D01*
X135100000Y-51000000D02*
X135100000Y-52235000D01*
X138000000Y-68897500D02*
X138000000Y-69637500D01*
X112640374Y-41207834D02*
X112640374Y-43120334D01*
X105110931Y-43385000D02*
X103252500Y-43385000D01*
X151081000Y-67191500D02*
X151081000Y-65712866D01*
X139500000Y-69637500D02*
X141000000Y-69637500D01*
X112640374Y-43120334D02*
X112520374Y-43240334D01*
%TO.N,GND*%
X142602500Y-56402500D02*
X143767500Y-56402500D01*
X151595000Y-43710000D02*
X150950000Y-43710000D01*
X125915000Y-37302500D02*
X125915000Y-37297500D01*
X153281000Y-71880056D02*
X152337056Y-72824000D01*
X135567500Y-53402500D02*
X135605000Y-53365000D01*
X162867500Y-73902500D02*
X162867500Y-73115000D01*
D51*
X133980000Y-48210000D02*
X134525000Y-48755000D01*
D50*
X153281000Y-69968500D02*
X153281000Y-71880056D01*
X155867500Y-44967500D02*
X155867500Y-44292500D01*
X150991000Y-72824000D02*
X150215000Y-73600000D01*
X150950000Y-43710000D02*
X150283500Y-43043500D01*
X150283500Y-43043500D02*
X150283500Y-41676000D01*
X150305000Y-66242500D02*
X150305000Y-66295000D01*
X150305000Y-66295000D02*
X150295000Y-66305000D01*
X119645000Y-31472500D02*
X119695000Y-31522500D01*
X156805000Y-72917500D02*
X156805000Y-71792500D01*
X119615000Y-31472500D02*
X119645000Y-31472500D01*
X142500000Y-56700000D02*
X142500000Y-56505000D01*
X162867500Y-73115000D02*
X162855000Y-73102500D01*
X125930000Y-38037500D02*
X125930000Y-37317500D01*
X124540000Y-34200000D02*
X124570000Y-34170000D01*
X137105000Y-67565000D02*
X137105000Y-66205000D01*
X150280000Y-74300000D02*
X150280000Y-73855000D01*
X142500000Y-56505000D02*
X142602500Y-56402500D01*
X124150000Y-34200000D02*
X124540000Y-34200000D01*
X128442500Y-62902500D02*
X130105000Y-62902500D01*
X152242500Y-69955000D02*
X153267500Y-69955000D01*
X135567500Y-53886750D02*
X135567500Y-53402500D01*
X135605000Y-53365000D02*
X135605000Y-52240000D01*
X113140374Y-41403271D02*
X114102946Y-42365843D01*
X156805000Y-71792500D02*
X156767500Y-71755000D01*
X166255000Y-61945000D02*
X166315000Y-61885000D01*
X166255000Y-61955000D02*
X166255000Y-61945000D01*
X152337056Y-72824000D02*
X150991000Y-72824000D01*
X155867500Y-44292500D02*
X155905000Y-44255000D01*
X125930000Y-37317500D02*
X125915000Y-37302500D01*
X150283500Y-41676000D02*
X149337500Y-40730000D01*
X105290000Y-42370000D02*
X105769903Y-42370000D01*
X137105000Y-66205000D02*
X137100000Y-66200000D01*
X125555000Y-71205000D02*
X124592500Y-71205000D01*
X142670000Y-65402500D02*
X143767500Y-65402500D01*
X105769903Y-42370000D02*
X105779902Y-42379999D01*
X153267500Y-69955000D02*
X153281000Y-69968500D01*
X113140374Y-41207834D02*
X113140374Y-41403271D01*
%TO.N,/HALL_EFFECT(MOT)_2*%
X140805000Y-50355000D02*
X140105000Y-51055000D01*
X145425000Y-50355000D02*
X140805000Y-50355000D01*
X147025000Y-48755000D02*
X145425000Y-50355000D01*
X140105000Y-51055000D02*
X140105000Y-52240000D01*
%TO.N,/RESET*%
X128878824Y-71062500D02*
X128725000Y-71062500D01*
X129481000Y-70199000D02*
X129481000Y-64526500D01*
X152042500Y-55402500D02*
X150705000Y-55402500D01*
X128395000Y-71285000D02*
X129481000Y-70199000D01*
X130105000Y-63902500D02*
X128442500Y-63902500D01*
X129481000Y-64526500D02*
X130105000Y-63902500D01*
%TO.N,Net-(U10-PL1)*%
X130142500Y-60603963D02*
X129843963Y-60902500D01*
X129843963Y-60902500D02*
X128442500Y-60902500D01*
%TO.N,+3V3*%
X126381722Y-34735000D02*
X126163529Y-34735000D01*
X126595861Y-36195861D02*
X126690000Y-36101722D01*
X126690000Y-36101722D02*
X126690000Y-35043278D01*
X159925000Y-46975000D02*
X159115002Y-46975000D01*
D52*
X121450000Y-33250000D02*
X119667500Y-33250000D01*
D50*
X151595000Y-44660000D02*
X151086968Y-44660000D01*
X134459000Y-44059000D02*
X126595861Y-36195861D01*
X123336424Y-32625000D02*
X123180712Y-32780712D01*
X124963576Y-32625000D02*
X123336424Y-32625000D01*
X114880334Y-37365334D02*
X115115000Y-37600000D01*
X114460374Y-37365334D02*
X114880334Y-37365334D01*
X118452500Y-33197500D02*
X118415000Y-33235000D01*
X125230000Y-32891424D02*
X124963576Y-32625000D01*
X152939999Y-46004999D02*
X151595000Y-44660000D01*
X159115002Y-46975000D02*
X158145001Y-46004999D01*
X123180712Y-32780712D02*
X123024000Y-32624000D01*
X119667500Y-33250000D02*
X119615000Y-33197500D01*
X125780686Y-33635000D02*
X125230000Y-33084314D01*
D52*
X119615000Y-33197500D02*
X118452500Y-33197500D01*
D50*
X126415000Y-34483529D02*
X126415000Y-33986471D01*
X126415000Y-33986471D02*
X126063529Y-33635000D01*
X151086968Y-44660000D02*
X150485968Y-44059000D01*
X126163529Y-34735000D02*
X126415000Y-34483529D01*
X123024000Y-32624000D02*
X120188500Y-32624000D01*
X158145001Y-46004999D02*
X152939999Y-46004999D01*
X126690000Y-35043278D02*
X126381722Y-34735000D01*
X126063529Y-33635000D02*
X125780686Y-33635000D01*
X125230000Y-33084314D02*
X125230000Y-32891424D01*
X150485968Y-44059000D02*
X134459000Y-44059000D01*
X120188500Y-32624000D02*
X119615000Y-33197500D01*
%TO.N,/SCL_Press*%
X112140374Y-38407834D02*
X112140374Y-37730986D01*
X112140374Y-37730986D02*
X112530787Y-37340573D01*
X112530787Y-37340573D02*
X113485375Y-37340573D01*
%TO.N,/SDA_Press*%
X111640374Y-38407834D02*
X111640374Y-37342126D01*
X111640374Y-37342126D02*
X111682500Y-37300000D01*
%TO.N,/SCK*%
X132556000Y-68580840D02*
X132250000Y-68886840D01*
X132556000Y-67614000D02*
X132556000Y-68580840D01*
X132250000Y-70077500D02*
X131265000Y-71062500D01*
X132605000Y-67565000D02*
X132556000Y-67614000D01*
X119364528Y-77054000D02*
X119425000Y-77054000D01*
X92120001Y-57545000D02*
X90260001Y-57545000D01*
X120874000Y-75605000D02*
X127455000Y-75605000D01*
X119425000Y-77054000D02*
X120874000Y-75605000D01*
X96660001Y-53005000D02*
X92120001Y-57545000D01*
X132250000Y-68886840D02*
X132250000Y-70077500D01*
X127455000Y-75605000D02*
X127505000Y-75555000D01*
%TO.N,/MOSI*%
X129665000Y-72002500D02*
X129665000Y-70904740D01*
X128362500Y-76505000D02*
X131265000Y-73602500D01*
X121845000Y-76505000D02*
X128362500Y-76505000D01*
X129665000Y-70904740D02*
X132105000Y-68464740D01*
X131265000Y-73602500D02*
X129665000Y-72002500D01*
X132105000Y-68464740D02*
X132105000Y-67565000D01*
%TO.N,/SD_CS*%
X133105000Y-69095000D02*
X133105000Y-67565000D01*
X133050000Y-69150000D02*
X133105000Y-69095000D01*
%TO.N,/SDA*%
X126165000Y-57490000D02*
X126752500Y-56902500D01*
X109700000Y-39500000D02*
X111030374Y-40830374D01*
X124825000Y-57745000D02*
X125080000Y-57490000D01*
X125080000Y-57490000D02*
X126165000Y-57490000D01*
X103790000Y-42097500D02*
X103010000Y-41317500D01*
X111030374Y-40830374D02*
X111030374Y-41365334D01*
X103790000Y-42370000D02*
X103790000Y-42097500D01*
X111640374Y-41219626D02*
X111494666Y-41365334D01*
X126752500Y-56902500D02*
X128442500Y-56902500D01*
X111640374Y-41207834D02*
X111640374Y-41219626D01*
X111494666Y-41365334D02*
X111030374Y-41365334D01*
X115325000Y-59645000D02*
X112500000Y-56820000D01*
X112500000Y-56820000D02*
X112500000Y-54000000D01*
%TO.N,/MISO*%
X131605000Y-67565000D02*
X131605000Y-68397640D01*
X133475000Y-71285000D02*
X132086000Y-72674000D01*
X132086000Y-74301760D02*
X128932760Y-77455000D01*
X132086000Y-72674000D02*
X132086000Y-74301760D01*
X128932760Y-77455000D02*
X122275000Y-77455000D01*
X131007035Y-68995605D02*
X130725605Y-68995605D01*
X131605000Y-68397640D02*
X131007035Y-68995605D01*
%TO.N,/SCL_Temp*%
X104290000Y-39570000D02*
X104290000Y-38477500D01*
X104290000Y-38477500D02*
X105087500Y-37680000D01*
%TO.N,/SDA_Temp*%
X103485000Y-37735000D02*
X103485000Y-39265000D01*
X103485000Y-39265000D02*
X103790000Y-39570000D01*
%TO.N,Net-(U5-EN)*%
X112640374Y-38407834D02*
X113140374Y-38407834D01*
D53*
X113140374Y-38407834D02*
X113677874Y-38407834D01*
D50*
X115170374Y-39042834D02*
X115185374Y-39042834D01*
D53*
X113677874Y-38407834D02*
X114460374Y-39190334D01*
D50*
X115185374Y-39042834D02*
X115190374Y-39047834D01*
%TO.N,/HALL_EFFECT(SYS)*%
X130154000Y-53060324D02*
X130154000Y-52615000D01*
X134248676Y-57155000D02*
X130154000Y-53060324D01*
X139980000Y-57117500D02*
X139942500Y-57155000D01*
X139942500Y-57155000D02*
X134248676Y-57155000D01*
%TO.N,/HALL_EFFECT(MOT)*%
X145125000Y-50855000D02*
X141205000Y-50855000D01*
X147025000Y-52755000D02*
X145125000Y-50855000D01*
X141205000Y-50868676D02*
X140605000Y-51468676D01*
X140605000Y-51468676D02*
X140605000Y-52240000D01*
X141205000Y-50855000D02*
X141205000Y-50868676D01*
%TO.N,/MISO2*%
X161246000Y-55206000D02*
X160095000Y-54055000D01*
X163786000Y-62736500D02*
X163786000Y-55880240D01*
X160567500Y-65955000D02*
X163786000Y-62736500D01*
X163786000Y-55880240D02*
X163111760Y-55206000D01*
X163111760Y-55206000D02*
X161246000Y-55206000D01*
%TO.N,/SCK2*%
X158405000Y-58285000D02*
X160095000Y-56595000D01*
X158405000Y-64592500D02*
X158405000Y-58285000D01*
%TO.N,/MOSI2*%
X161484000Y-57746000D02*
X162635000Y-56595000D01*
X159856240Y-57746000D02*
X161484000Y-57746000D01*
X158944000Y-58658240D02*
X159856240Y-57746000D01*
X158944000Y-59611760D02*
X158944000Y-58658240D01*
X159205000Y-59872760D02*
X158944000Y-59611760D01*
X159205000Y-64592500D02*
X159205000Y-59872760D01*
%TO.N,/RESET2*%
X159495000Y-71555000D02*
X160567500Y-71555000D01*
X163458250Y-72002500D02*
X163458250Y-70243250D01*
X160095000Y-59135000D02*
X160095000Y-65066056D01*
X159500000Y-65661056D02*
X159500000Y-71550000D01*
X160567500Y-71555000D02*
X163010750Y-71555000D01*
X163010750Y-71555000D02*
X163458250Y-72002500D01*
X163458250Y-70243250D02*
X163117500Y-69902500D01*
X159500000Y-71550000D02*
X159495000Y-71555000D01*
X163117500Y-69902500D02*
X162930000Y-69715000D01*
X160095000Y-65066056D02*
X159500000Y-65661056D01*
%TO.N,/SCL*%
X104290000Y-41489236D02*
X104499942Y-41279294D01*
X104290000Y-42370000D02*
X104290000Y-41489236D01*
X127405612Y-57402500D02*
X128442500Y-57402500D01*
X127305612Y-57502500D02*
X127405612Y-57402500D01*
X112140374Y-40419626D02*
X112605000Y-39955000D01*
X112140374Y-41207834D02*
X112140374Y-40419626D01*
%TO.N,Net-(D4-K)*%
X155205000Y-63183250D02*
X155758250Y-62630000D01*
X155205000Y-64592500D02*
X155205000Y-63183250D01*
%TO.N,Net-(U3-PC0{slash}XTAL2)*%
X146407500Y-70600000D02*
X147753750Y-69253750D01*
X147753750Y-69253750D02*
X149255000Y-70755000D01*
X149255000Y-70755000D02*
X152242500Y-70755000D01*
X143700000Y-70587500D02*
X143712500Y-70600000D01*
X143712500Y-70600000D02*
X146407500Y-70600000D01*
%TO.N,Net-(U11--)*%
X124592500Y-72792500D02*
X124805000Y-73005000D01*
X124592500Y-72155000D02*
X124592500Y-72792500D01*
X122317500Y-72155000D02*
X124592500Y-72155000D01*
%TO.N,/EN_IN*%
X174797500Y-43787500D02*
X175335000Y-44325000D01*
X172750000Y-43787500D02*
X174797500Y-43787500D01*
%TO.N,Net-(J15-Pin_3)*%
X175335000Y-46865000D02*
X171327500Y-46865000D01*
X171275000Y-46812500D02*
X169900000Y-46812500D01*
X168987050Y-45899550D02*
X169900000Y-46812500D01*
X169900000Y-46812500D02*
X166450000Y-46812500D01*
X171327500Y-46865000D02*
X171275000Y-46812500D01*
X168987050Y-44825000D02*
X168987050Y-45899550D01*
X166450000Y-46812500D02*
X166337500Y-46925000D01*
%TO.N,/FIX_OUT*%
X130285000Y-61455000D02*
X130232500Y-61402500D01*
X130232500Y-61402500D02*
X128442500Y-61402500D01*
%TO.N,/GPS_TX*%
X141750000Y-56148676D02*
X141750000Y-59950000D01*
X143767500Y-54902500D02*
X142996176Y-54902500D01*
X142996176Y-54902500D02*
X141750000Y-56148676D01*
%TO.N,/GPS_RX*%
X143767500Y-54402500D02*
X142897500Y-54402500D01*
X141100000Y-56200000D02*
X141100000Y-62350000D01*
X142897500Y-54402500D02*
X141100000Y-56200000D01*
%TO.N,/PPS*%
X144100000Y-53570000D02*
X143767500Y-53902500D01*
X144100000Y-53400000D02*
X144100000Y-53570000D01*
%TO.N,Net-(U1-EN)*%
X105290000Y-39570000D02*
X104790000Y-39570000D01*
X106990000Y-41040000D02*
X106990000Y-39862500D01*
X106990000Y-39862500D02*
X106590000Y-39462500D01*
X105397500Y-39462500D02*
X105290000Y-39570000D01*
X106590000Y-39462500D02*
X105397500Y-39462500D01*
%TO.N,VIN*%
D52*
X153805000Y-34295000D02*
X155500000Y-32600000D01*
X153805000Y-41542500D02*
X153805000Y-34295000D01*
%TO.N,/TX_Charging*%
D50*
X136105000Y-69995000D02*
X136105000Y-67565000D01*
X136100000Y-70000000D02*
X136105000Y-69995000D01*
%TO.N,/RX_Charging*%
X136605000Y-69105000D02*
X136800000Y-69300000D01*
X136605000Y-67565000D02*
X136605000Y-69105000D01*
%TO.N,/MOTOR_STEP*%
X133605000Y-68705000D02*
X133605000Y-67565000D01*
X144775000Y-77075000D02*
X143151000Y-75451000D01*
X143151000Y-75451000D02*
X138751000Y-75451000D01*
X135100000Y-71800000D02*
X135100000Y-70200000D01*
X138751000Y-75451000D02*
X135100000Y-71800000D01*
X135100000Y-70200000D02*
X133605000Y-68705000D01*
X147975000Y-77075000D02*
X144775000Y-77075000D01*
%TO.N,/MOTOR_DIR*%
X148840000Y-75400000D02*
X145900000Y-75400000D01*
X145900000Y-75400000D02*
X145550000Y-75050000D01*
X134105000Y-68605000D02*
X134105000Y-67565000D01*
X135500000Y-70000000D02*
X134105000Y-68605000D01*
X145550000Y-75050000D02*
X139000000Y-75050000D01*
X135500000Y-71550000D02*
X135500000Y-70000000D01*
X139000000Y-75050000D02*
X135500000Y-71550000D01*
X150515000Y-77075000D02*
X148840000Y-75400000D01*
%TO.N,/BT_STATE*%
X137605000Y-52240000D02*
X137605000Y-51468676D01*
X139167676Y-49906000D02*
X140994000Y-49906000D01*
X140994000Y-49906000D02*
X142145000Y-48755000D01*
X137605000Y-51468676D02*
X139167676Y-49906000D01*
%TO.N,/BT_RX*%
X139318676Y-48755000D02*
X136605000Y-51468676D01*
X136605000Y-51468676D02*
X136605000Y-52240000D01*
X139605000Y-48755000D02*
X139318676Y-48755000D01*
%TO.N,/BT_TX*%
X136105000Y-49715000D02*
X136105000Y-52240000D01*
X137065000Y-48755000D02*
X136105000Y-49715000D01*
%TO.N,/BT_EN*%
X137155000Y-52290000D02*
X137105000Y-52240000D01*
X137105000Y-53455000D02*
X137105000Y-52240000D01*
%TO.N,Net-(U10-XTAL1)*%
X124405000Y-61902500D02*
X122105000Y-59602500D01*
X128442500Y-61902500D02*
X124405000Y-61902500D01*
X120517500Y-61190000D02*
X119105000Y-61190000D01*
X122105000Y-59602500D02*
X120517500Y-61190000D01*
%TO.N,Net-(U10-XTAL2)*%
X124305000Y-62402500D02*
X122105000Y-64602500D01*
X120517500Y-63015000D02*
X122105000Y-64602500D01*
X119105000Y-63015000D02*
X120517500Y-63015000D01*
X128442500Y-62402500D02*
X124305000Y-62402500D01*
%TO.N,Net-(D5-K)*%
X154405000Y-63230000D02*
X153805000Y-62630000D01*
X154405000Y-64592500D02*
X154405000Y-63230000D01*
%TO.N,/TX0*%
X145295500Y-69004500D02*
X141706076Y-69004500D01*
X147882500Y-67300000D02*
X147000000Y-67300000D01*
X147000000Y-67300000D02*
X145295500Y-69004500D01*
X141706076Y-69004500D02*
X141105000Y-68403424D01*
X141120000Y-67550000D02*
X141105000Y-67565000D01*
X148815000Y-66367500D02*
X147882500Y-67300000D01*
X141105000Y-68403424D02*
X141105000Y-67565000D01*
%TO.N,Net-(U3-PD2)*%
X150830000Y-64542500D02*
X152242500Y-65955000D01*
X148815000Y-64542500D02*
X150830000Y-64542500D01*
%TO.N,/RX0*%
X145029000Y-68603500D02*
X141872176Y-68603500D01*
X141872176Y-68603500D02*
X141605000Y-68336324D01*
X147245000Y-66387500D02*
X145029000Y-68603500D01*
X141605000Y-68336324D02*
X141605000Y-67565000D01*
%TO.N,Net-(U3-PD3)*%
X153605000Y-64592500D02*
X152766500Y-63754000D01*
X148053500Y-63754000D02*
X147245000Y-64562500D01*
X152766500Y-63754000D02*
X148053500Y-63754000D01*
%TO.N,Net-(U10-AREF)*%
X145667500Y-64902500D02*
X145905000Y-64665000D01*
X143767500Y-64902500D02*
X145667500Y-64902500D01*
%TO.N,Net-(U4-G)*%
X150140000Y-46700000D02*
X149320000Y-45880000D01*
X154300000Y-46700000D02*
X150140000Y-46700000D01*
X149320000Y-45880000D02*
X149320000Y-44660000D01*
X165275000Y-51512500D02*
X159112500Y-51512500D01*
X159112500Y-51512500D02*
X154300000Y-46700000D01*
%TO.N,Vusb*%
X167100000Y-55900000D02*
X167175000Y-55825000D01*
X167175000Y-55825000D02*
X167175000Y-51512500D01*
X167100000Y-55970800D02*
X167100000Y-55225000D01*
X167100000Y-55970800D02*
X167100000Y-55900000D01*
%TO.N,Net-(U3-D-)*%
X155205000Y-73655000D02*
X155205000Y-72917500D01*
X156705000Y-75155000D02*
X155205000Y-73655000D01*
X164705000Y-75402500D02*
X164457500Y-75155000D01*
X164457500Y-75155000D02*
X156705000Y-75155000D01*
%TO.N,Net-(D1-A)*%
X168755000Y-61613600D02*
X167100000Y-59958600D01*
X167100000Y-59958600D02*
X167100000Y-59679200D01*
X168755000Y-62905000D02*
X168755000Y-61613600D01*
%TO.N,Net-(U3-~{HWB}{slash}PD7)*%
X156805000Y-57015000D02*
X157405000Y-56415000D01*
X156805000Y-64592500D02*
X156805000Y-57015000D01*
X157405000Y-56415000D02*
X156795750Y-57024250D01*
X154767500Y-56402500D02*
X153767500Y-55402500D01*
X157392500Y-56402500D02*
X157405000Y-56415000D01*
X157392500Y-56402500D02*
X154767500Y-56402500D01*
%TO.N,Net-(D2-A1)*%
X166305000Y-64905000D02*
X166255000Y-64855000D01*
X168755000Y-64905000D02*
X166305000Y-64905000D01*
%TO.N,Net-(U3-D+)*%
X157205000Y-74755000D02*
X163640000Y-74755000D01*
X156005000Y-72917500D02*
X156005000Y-73654999D01*
X156104999Y-73654999D02*
X157205000Y-74755000D01*
X163640000Y-74755000D02*
X164692500Y-73702500D01*
X156005000Y-73654999D02*
X156104999Y-73654999D01*
X164692500Y-73727500D02*
X164692500Y-73702500D01*
%TO.N,Net-(U2-+)*%
X151097500Y-40725000D02*
X151097500Y-40702500D01*
X153197500Y-42760000D02*
X151595000Y-42760000D01*
D51*
X153905000Y-43630000D02*
X153905000Y-44830000D01*
D50*
X153805000Y-43367500D02*
X153197500Y-42760000D01*
X151062500Y-40730000D02*
X151062500Y-42227500D01*
X153905000Y-44830000D02*
X154042500Y-44967500D01*
X151097500Y-40702500D02*
X151105000Y-40695000D01*
X151062500Y-42227500D02*
X151595000Y-42760000D01*
%TO.N,Net-(D6-K)*%
X164337500Y-46975000D02*
X164412500Y-46900000D01*
X162125000Y-46975000D02*
X164337500Y-46975000D01*
%TO.N,Net-(U3-UCAP)*%
X158082056Y-73956000D02*
X157605000Y-73478944D01*
X161089000Y-73956000D02*
X158082056Y-73956000D01*
X161142500Y-73902500D02*
X161089000Y-73956000D01*
X157605000Y-73478944D02*
X157605000Y-72917500D01*
%TO.N,/PIN26*%
X124592500Y-70255000D02*
X128442500Y-66405000D01*
X128442500Y-66405000D02*
X128442500Y-65902500D01*
%TO.N,Net-(U8-RXD)*%
X80020000Y-42100000D02*
X80000000Y-42120000D01*
X82887500Y-42100000D02*
X80020000Y-42100000D01*
%TO.N,/RF_TX*%
X124100000Y-45500000D02*
X92100000Y-45500000D01*
X86180000Y-39580000D02*
X80000000Y-39580000D01*
X125810000Y-55110057D02*
X125810000Y-47210000D01*
X127102443Y-56402500D02*
X125810000Y-55110057D01*
X125810000Y-47210000D02*
X124100000Y-45500000D01*
X92100000Y-45500000D02*
X86180000Y-39580000D01*
X128442500Y-56402500D02*
X127102443Y-56402500D01*
%TO.N,/RF_RX*%
X123400000Y-46000000D02*
X124500000Y-47100000D01*
X84712500Y-43600000D02*
X89200000Y-43600000D01*
X84712500Y-43600000D02*
X84712500Y-42100000D01*
X126440000Y-55172957D02*
X126440000Y-49100000D01*
X91600000Y-46000000D02*
X123400000Y-46000000D01*
X89200000Y-43600000D02*
X91600000Y-46000000D01*
X128442500Y-55902500D02*
X127169543Y-55902500D01*
X127169543Y-55902500D02*
X126440000Y-55172957D01*
%TO.N,GND*%
X174800000Y-75897500D02*
X175455000Y-75897500D01*
%TD*%
M02*
