%TF.GenerationSoftware,KiCad,Pcbnew,10.0.2*%
%TF.CreationDate,2026-06-10T08:14:39-04:00*%
%TF.ProjectId,MUSTV Motherboard,4d555354-5620-44d6-9f74-686572626f61,rev?*%
%TF.SameCoordinates,Original*%
%TF.FileFunction,Soldermask,Bot*%
%TF.FilePolarity,Negative*%
%FSLAX46Y46*%
G04 Gerber Fmt 4.6, Leading zero omitted, Abs format (unit mm)*
G04 Created by KiCad (PCBNEW 10.0.2) date 2026-06-10 08:14:39*
%MOMM*%
%LPD*%
G01*
G04 APERTURE LIST*
G04 Aperture macros list*
%AMRoundRect*
0 Rectangle with rounded corners*
0 $1 Rounding radius*
0 $2 $3 $4 $5 $6 $7 $8 $9 X,Y pos of 4 corners*
0 Add a 4 corners polygon primitive as box body*
4,1,4,$2,$3,$4,$5,$6,$7,$8,$9,$2,$3,0*
0 Add four circle primitives for the rounded corners*
1,1,$1+$1,$2,$3*
1,1,$1+$1,$4,$5*
1,1,$1+$1,$6,$7*
1,1,$1+$1,$8,$9*
0 Add four rect primitives between the rounded corners*
20,1,$1+$1,$2,$3,$4,$5,0*
20,1,$1+$1,$4,$5,$6,$7,0*
20,1,$1+$1,$6,$7,$8,$9,0*
20,1,$1+$1,$8,$9,$2,$3,0*%
G04 Aperture macros list end*
%ADD10R,1.700000X1.700000*%
%ADD11C,1.700000*%
%ADD12RoundRect,0.150000X-0.150000X0.587500X-0.150000X-0.587500X0.150000X-0.587500X0.150000X0.587500X0*%
%ADD13C,0.650000*%
%ADD14RoundRect,0.100000X-0.575000X0.300000X-0.575000X-0.300000X0.575000X-0.300000X0.575000X0.300000X0*%
%ADD15RoundRect,0.100000X-0.575000X0.150000X-0.575000X-0.150000X0.575000X-0.150000X0.575000X0.150000X0*%
%ADD16RoundRect,0.090000X-0.575000X0.150000X-0.575000X-0.150000X0.575000X-0.150000X0.575000X0.150000X0*%
%ADD17RoundRect,0.090000X-0.575000X0.300000X-0.575000X-0.300000X0.575000X-0.300000X0.575000X0.300000X0*%
%ADD18RoundRect,0.102000X-0.575000X0.150000X-0.575000X-0.150000X0.575000X-0.150000X0.575000X0.150000X0*%
%ADD19RoundRect,0.102000X-0.625000X0.775000X-0.625000X-0.775000X0.625000X-0.775000X0.625000X0.775000X0*%
%ADD20RoundRect,0.102000X-0.750000X0.775000X-0.750000X-0.775000X0.750000X-0.775000X0.750000X0.775000X0*%
%ADD21O,1.700000X1.950000*%
%ADD22RoundRect,0.250000X-0.600000X-0.725000X0.600000X-0.725000X0.600000X0.725000X-0.600000X0.725000X0*%
%ADD23R,1.000000X1.000000*%
%ADD24C,1.000000*%
%ADD25C,2.154000*%
%ADD26RoundRect,0.250000X0.600000X0.725000X-0.600000X0.725000X-0.600000X-0.725000X0.600000X-0.725000X0*%
%ADD27R,1.905000X2.000000*%
%ADD28O,1.905000X2.000000*%
%ADD29R,1.651000X1.651000*%
%ADD30C,1.651000*%
%ADD31RoundRect,0.237500X0.237500X-0.250000X0.237500X0.250000X-0.237500X0.250000X-0.237500X-0.250000X0*%
%ADD32RoundRect,0.237500X-0.300000X-0.237500X0.300000X-0.237500X0.300000X0.237500X-0.300000X0.237500X0*%
%ADD33RoundRect,0.225000X0.225000X0.375000X-0.225000X0.375000X-0.225000X-0.375000X0.225000X-0.375000X0*%
%ADD34RoundRect,0.237500X0.237500X-0.300000X0.237500X0.300000X-0.237500X0.300000X-0.237500X-0.300000X0*%
%ADD35RoundRect,0.237500X0.250000X0.237500X-0.250000X0.237500X-0.250000X-0.237500X0.250000X-0.237500X0*%
%ADD36RoundRect,0.237500X-0.250000X-0.237500X0.250000X-0.237500X0.250000X0.237500X-0.250000X0.237500X0*%
%ADD37R,1.625600X2.184400*%
%ADD38RoundRect,0.237500X0.300000X0.237500X-0.300000X0.237500X-0.300000X-0.237500X0.300000X-0.237500X0*%
%ADD39RoundRect,0.237500X-0.237500X0.250000X-0.237500X-0.250000X0.237500X-0.250000X0.237500X0.250000X0*%
%ADD40RoundRect,0.125000X0.125000X0.125000X-0.125000X0.125000X-0.125000X-0.125000X0.125000X-0.125000X0*%
%ADD41RoundRect,0.087500X0.087500X-0.537500X0.087500X0.537500X-0.087500X0.537500X-0.087500X-0.537500X0*%
%ADD42RoundRect,0.162500X0.617500X0.162500X-0.617500X0.162500X-0.617500X-0.162500X0.617500X-0.162500X0*%
%ADD43RoundRect,0.237500X-0.237500X0.300000X-0.237500X-0.300000X0.237500X-0.300000X0.237500X0.300000X0*%
%ADD44RoundRect,0.150000X0.512500X0.150000X-0.512500X0.150000X-0.512500X-0.150000X0.512500X-0.150000X0*%
%ADD45RoundRect,0.250000X0.450000X-0.400000X0.450000X0.400000X-0.450000X0.400000X-0.450000X-0.400000X0*%
%ADD46RoundRect,0.250000X0.450000X-0.350000X0.450000X0.350000X-0.450000X0.350000X-0.450000X-0.350000X0*%
%ADD47RoundRect,0.137500X-0.600000X-0.137500X0.600000X-0.137500X0.600000X0.137500X-0.600000X0.137500X0*%
%ADD48RoundRect,0.137500X-0.137500X-0.600000X0.137500X-0.600000X0.137500X0.600000X-0.137500X0.600000X0*%
%ADD49RoundRect,0.075000X0.075000X-0.662500X0.075000X0.662500X-0.075000X0.662500X-0.075000X-0.662500X0*%
%ADD50RoundRect,0.075000X0.662500X-0.075000X0.662500X0.075000X-0.662500X0.075000X-0.662500X-0.075000X0*%
G04 APERTURE END LIST*
D10*
%TO.C,J15*%
X175335000Y-41785000D03*
D11*
X175335000Y-44325000D03*
X175335000Y-46865000D03*
X175335000Y-49405000D03*
X175335000Y-51945000D03*
X175335000Y-54485000D03*
X175335000Y-57025000D03*
X175335000Y-59565000D03*
X175335000Y-62105000D03*
%TD*%
D10*
%TO.C,J5*%
X115325000Y-52025000D03*
D11*
X115325000Y-54565000D03*
X115325000Y-57105000D03*
X115325000Y-59645000D03*
%TD*%
D10*
%TO.C,J3*%
X160095000Y-54055000D03*
D11*
X162635000Y-54055000D03*
X160095000Y-56595000D03*
X162635000Y-56595000D03*
X160095000Y-59135000D03*
X162635000Y-59135000D03*
%TD*%
D10*
%TO.C,J13*%
X149090000Y-61590000D03*
D11*
X149090000Y-59050000D03*
X149090000Y-56510000D03*
%TD*%
D10*
%TO.C,J16*%
X133475000Y-71285000D03*
D11*
X133475000Y-73825000D03*
X130935000Y-71285000D03*
X130935000Y-73825000D03*
X128395000Y-71285000D03*
X128395000Y-73825000D03*
%TD*%
D12*
%TO.C,U4*%
X165100000Y-50800000D03*
X167000000Y-50800000D03*
X166050000Y-52675000D03*
%TD*%
D10*
%TO.C,J4*%
X152105000Y-52755000D03*
D11*
X149565000Y-52755000D03*
X147025000Y-52755000D03*
%TD*%
D10*
%TO.C,J10*%
X152105000Y-48755000D03*
D11*
X149565000Y-48755000D03*
X147025000Y-48755000D03*
%TD*%
D13*
%TO.C,J1*%
X171500000Y-67802500D03*
X171500000Y-73802500D03*
D14*
X170225000Y-67602500D03*
X170225000Y-68402500D03*
D15*
X170225000Y-69552500D03*
X170225000Y-70552500D03*
X170225000Y-71052500D03*
D16*
X170225000Y-72052500D03*
D14*
X170225000Y-74002500D03*
D17*
X170225000Y-73202500D03*
D18*
X170225000Y-72552500D03*
D15*
X170225000Y-71552500D03*
X170225000Y-70052500D03*
X170225000Y-69052500D03*
D19*
X170875000Y-65707500D03*
X170875000Y-75897500D03*
D20*
X174800000Y-65707500D03*
X174800000Y-75897500D03*
%TD*%
D21*
%TO.C,J6*%
X115300000Y-66600000D03*
X112800000Y-66600000D03*
X110300000Y-66600000D03*
D22*
X107800000Y-66600000D03*
%TD*%
D23*
%TO.C,J8*%
X115575000Y-34600000D03*
D24*
X114325000Y-34600000D03*
X113075000Y-34600000D03*
X111825000Y-34600000D03*
%TD*%
D23*
%TO.C,J2*%
X106900000Y-34600000D03*
D24*
X105650000Y-34600000D03*
X104400000Y-34600000D03*
X103150000Y-34600000D03*
%TD*%
D11*
%TO.C,Y1*%
X147700000Y-74200000D03*
X147700000Y-71700000D03*
X147700000Y-69200000D03*
%TD*%
D22*
%TO.C,J9*%
X94100000Y-66600000D03*
D21*
X96600000Y-66600000D03*
X99100000Y-66600000D03*
X101600000Y-66600000D03*
%TD*%
D25*
%TO.C,J7*%
X167800000Y-34250000D03*
X162800000Y-34250000D03*
%TD*%
D10*
%TO.C,J11*%
X137420000Y-77200000D03*
D11*
X139960000Y-77200000D03*
X142500000Y-77200000D03*
%TD*%
D10*
%TO.C,J12*%
X147975000Y-77075000D03*
D11*
X150515000Y-77075000D03*
X153055000Y-77075000D03*
%TD*%
D26*
%TO.C,J18*%
X142475000Y-40275000D03*
D21*
X139975000Y-40275000D03*
X137475000Y-40275000D03*
X134975000Y-40275000D03*
%TD*%
D10*
%TO.C,J14*%
X142145000Y-48755000D03*
D11*
X139605000Y-48755000D03*
X137065000Y-48755000D03*
X134525000Y-48755000D03*
X131985000Y-48755000D03*
X129445000Y-48755000D03*
%TD*%
%TO.C,Y2*%
X122105000Y-59602500D03*
X122105000Y-62102500D03*
X122105000Y-64602500D03*
%TD*%
D27*
%TO.C,U7*%
X155500000Y-32600000D03*
D28*
X152960000Y-32600000D03*
X150420000Y-32600000D03*
%TD*%
D29*
%TO.C,C10*%
X168987050Y-44825000D03*
D30*
X158979450Y-44825000D03*
%TD*%
D31*
%TO.C,R14*%
X148815000Y-66367500D03*
X148815000Y-64542500D03*
%TD*%
%TO.C,R7*%
X106590000Y-39462500D03*
X106590000Y-37637500D03*
%TD*%
D32*
%TO.C,C18*%
X78667501Y-63555000D03*
X80392501Y-63555000D03*
%TD*%
D33*
%TO.C,D3*%
X166255000Y-69902500D03*
X162955000Y-69902500D03*
%TD*%
D31*
%TO.C,R16*%
X147245000Y-66387500D03*
X147245000Y-64562500D03*
%TD*%
D34*
%TO.C,C13*%
X145725000Y-65137500D03*
X145725000Y-63412500D03*
%TD*%
D35*
%TO.C,R11*%
X165283250Y-72002500D03*
X163458250Y-72002500D03*
%TD*%
D36*
%TO.C,R13*%
X164705000Y-75302500D03*
X166530000Y-75302500D03*
%TD*%
D34*
%TO.C,C9*%
X119615000Y-33197500D03*
X119615000Y-31472500D03*
%TD*%
D37*
%TO.C,D1*%
X167100000Y-55970800D03*
X167100000Y-59679200D03*
%TD*%
D32*
%TO.C,C6*%
X152042500Y-55402500D03*
X153767500Y-55402500D03*
%TD*%
D38*
%TO.C,C5*%
X151940000Y-73600000D03*
X150215000Y-73600000D03*
%TD*%
D31*
%TO.C,R9*%
X143700000Y-72412500D03*
X143700000Y-70587500D03*
%TD*%
D39*
%TO.C,R28*%
X172750000Y-41962500D03*
X172750000Y-43787500D03*
%TD*%
D36*
%TO.C,R12*%
X164692500Y-73702500D03*
X166517500Y-73702500D03*
%TD*%
D39*
%TO.C,R15*%
X157405000Y-54590000D03*
X157405000Y-56415000D03*
%TD*%
%TO.C,R5*%
X153805000Y-41542500D03*
X153805000Y-43367500D03*
%TD*%
%TO.C,R1*%
X168005000Y-67592500D03*
X168005000Y-69417500D03*
%TD*%
D40*
%TO.C,D6*%
X162125000Y-46975000D03*
X159925000Y-46975000D03*
%TD*%
D41*
%TO.C,U1*%
X105290000Y-42370000D03*
X104790000Y-42370000D03*
X104290000Y-42370000D03*
X103790000Y-42370000D03*
X103790000Y-39570000D03*
X104290000Y-39570000D03*
X104790000Y-39570000D03*
X105290000Y-39570000D03*
%TD*%
D34*
%TO.C,C11*%
X171275000Y-46812500D03*
X171275000Y-45087500D03*
%TD*%
D42*
%TO.C,U6*%
X124150000Y-33250000D03*
X124150000Y-34200000D03*
X124150000Y-35150000D03*
X121450000Y-35150000D03*
X121450000Y-33250000D03*
%TD*%
D43*
%TO.C,C19*%
X120505000Y-70292500D03*
X120505000Y-72017500D03*
%TD*%
D32*
%TO.C,C3*%
X161142500Y-73902500D03*
X162867500Y-73902500D03*
%TD*%
D44*
%TO.C,U11*%
X124592500Y-70255000D03*
X124592500Y-71205000D03*
X124592500Y-72155000D03*
X122317500Y-72155000D03*
X122317500Y-70255000D03*
%TD*%
D10*
%TO.C,U8*%
X80400000Y-47200000D03*
D11*
X80400000Y-44660000D03*
X80400000Y-42120000D03*
X80400000Y-39580000D03*
X80400000Y-37040000D03*
%TD*%
D43*
%TO.C,C17*%
X138000000Y-69637500D03*
X138000000Y-71362500D03*
%TD*%
D31*
%TO.C,R4*%
X168500000Y-75912500D03*
X168500000Y-74087500D03*
%TD*%
D45*
%TO.C,D2*%
X166255000Y-64855000D03*
X166255000Y-61955000D03*
%TD*%
D35*
%TO.C,R24*%
X84712500Y-43600000D03*
X82887500Y-43600000D03*
%TD*%
D46*
%TO.C,FB1*%
X168400000Y-64905000D03*
X168400000Y-62905000D03*
%TD*%
D34*
%TO.C,C4*%
X150305000Y-67967500D03*
X150305000Y-66242500D03*
%TD*%
D41*
%TO.C,U5*%
X113140374Y-41207834D03*
X112640374Y-41207834D03*
X112140374Y-41207834D03*
X111640374Y-41207834D03*
X111640374Y-38407834D03*
X112140374Y-38407834D03*
X112640374Y-38407834D03*
X113140374Y-38407834D03*
%TD*%
D43*
%TO.C,C8*%
X125915000Y-35572500D03*
X125915000Y-37297500D03*
%TD*%
D38*
%TO.C,C2*%
X151062500Y-40730000D03*
X149337500Y-40730000D03*
%TD*%
D43*
%TO.C,C16*%
X139500000Y-69637500D03*
X139500000Y-71362500D03*
%TD*%
D31*
%TO.C,R21*%
X114460374Y-39190334D03*
X114460374Y-37365334D03*
%TD*%
D44*
%TO.C,U2*%
X151595000Y-42760000D03*
X151595000Y-43710000D03*
X151595000Y-44660000D03*
X149320000Y-44660000D03*
X149320000Y-42760000D03*
%TD*%
D43*
%TO.C,C15*%
X141000000Y-69637500D03*
X141000000Y-71362500D03*
%TD*%
D35*
%TO.C,R25*%
X166337500Y-46925000D03*
X164512500Y-46925000D03*
%TD*%
D47*
%TO.C,U3*%
X152242500Y-71555000D03*
X152242500Y-70755000D03*
X152242500Y-69955000D03*
X152242500Y-69155000D03*
X152242500Y-68355000D03*
X152242500Y-67555000D03*
X152242500Y-66755000D03*
X152242500Y-65955000D03*
D48*
X153605000Y-64592500D03*
X154405000Y-64592500D03*
X155205000Y-64592500D03*
X156005000Y-64592500D03*
X156805000Y-64592500D03*
X157605000Y-64592500D03*
X158405000Y-64592500D03*
X159205000Y-64592500D03*
D47*
X160567500Y-65955000D03*
X160567500Y-66755000D03*
X160567500Y-67555000D03*
X160567500Y-68355000D03*
X160567500Y-69155000D03*
X160567500Y-69955000D03*
X160567500Y-70755000D03*
X160567500Y-71555000D03*
D48*
X159205000Y-72917500D03*
X158405000Y-72917500D03*
X157605000Y-72917500D03*
X156805000Y-72917500D03*
X156005000Y-72917500D03*
X155205000Y-72917500D03*
X154405000Y-72917500D03*
X153605000Y-72917500D03*
%TD*%
D49*
%TO.C,U10*%
X142105000Y-67565000D03*
X141605000Y-67565000D03*
X141105000Y-67565000D03*
X140605000Y-67565000D03*
X140105000Y-67565000D03*
X139605000Y-67565000D03*
X139105000Y-67565000D03*
X138605000Y-67565000D03*
X138105000Y-67565000D03*
X137605000Y-67565000D03*
X137105000Y-67565000D03*
X136605000Y-67565000D03*
X136105000Y-67565000D03*
X135605000Y-67565000D03*
X135105000Y-67565000D03*
X134605000Y-67565000D03*
X134105000Y-67565000D03*
X133605000Y-67565000D03*
X133105000Y-67565000D03*
X132605000Y-67565000D03*
X132105000Y-67565000D03*
X131605000Y-67565000D03*
X131105000Y-67565000D03*
X130605000Y-67565000D03*
X130105000Y-67565000D03*
D50*
X128442500Y-65902500D03*
X128442500Y-65402500D03*
X128442500Y-64902500D03*
X128442500Y-64402500D03*
X128442500Y-63902500D03*
X128442500Y-63402500D03*
X128442500Y-62902500D03*
X128442500Y-62402500D03*
X128442500Y-61902500D03*
X128442500Y-61402500D03*
X128442500Y-60902500D03*
X128442500Y-60402500D03*
X128442500Y-59902500D03*
X128442500Y-59402500D03*
X128442500Y-58902500D03*
X128442500Y-58402500D03*
X128442500Y-57902500D03*
X128442500Y-57402500D03*
X128442500Y-56902500D03*
X128442500Y-56402500D03*
X128442500Y-55902500D03*
X128442500Y-55402500D03*
X128442500Y-54902500D03*
X128442500Y-54402500D03*
X128442500Y-53902500D03*
D49*
X130105000Y-52240000D03*
X130605000Y-52240000D03*
X131105000Y-52240000D03*
X131605000Y-52240000D03*
X132105000Y-52240000D03*
X132605000Y-52240000D03*
X133105000Y-52240000D03*
X133605000Y-52240000D03*
X134105000Y-52240000D03*
X134605000Y-52240000D03*
X135105000Y-52240000D03*
X135605000Y-52240000D03*
X136105000Y-52240000D03*
X136605000Y-52240000D03*
X137105000Y-52240000D03*
X137605000Y-52240000D03*
X138105000Y-52240000D03*
X138605000Y-52240000D03*
X139105000Y-52240000D03*
X139605000Y-52240000D03*
X140105000Y-52240000D03*
X140605000Y-52240000D03*
X141105000Y-52240000D03*
X141605000Y-52240000D03*
X142105000Y-52240000D03*
D50*
X143767500Y-53902500D03*
X143767500Y-54402500D03*
X143767500Y-54902500D03*
X143767500Y-55402500D03*
X143767500Y-55902500D03*
X143767500Y-56402500D03*
X143767500Y-56902500D03*
X143767500Y-57402500D03*
X143767500Y-57902500D03*
X143767500Y-58402500D03*
X143767500Y-58902500D03*
X143767500Y-59402500D03*
X143767500Y-59902500D03*
X143767500Y-60402500D03*
X143767500Y-60902500D03*
X143767500Y-61402500D03*
X143767500Y-61902500D03*
X143767500Y-62402500D03*
X143767500Y-62902500D03*
X143767500Y-63402500D03*
X143767500Y-63902500D03*
X143767500Y-64402500D03*
X143767500Y-64902500D03*
X143767500Y-65402500D03*
X143767500Y-65902500D03*
%TD*%
D39*
%TO.C,R30*%
X119105000Y-61190000D03*
X119105000Y-63015000D03*
%TD*%
D35*
%TO.C,R26*%
X84712500Y-42100000D03*
X82887500Y-42100000D03*
%TD*%
D36*
%TO.C,R6*%
X154042500Y-44967500D03*
X155867500Y-44967500D03*
%TD*%
M02*
