%TF.GenerationSoftware,KiCad,Pcbnew,10.0.2*%
%TF.CreationDate,2026-06-10T08:14:39-04:00*%
%TF.ProjectId,MUSTV Motherboard,4d555354-5620-44d6-9f74-686572626f61,rev?*%
%TF.SameCoordinates,Original*%
%TF.FileFunction,Copper,L1,Top*%
%TF.FilePolarity,Positive*%
%FSLAX46Y46*%
G04 Gerber Fmt 4.6, Leading zero omitted, Abs format (unit mm)*
G04 Created by KiCad (PCBNEW 10.0.2) date 2026-06-10 08:14:39*
%MOMM*%
%LPD*%
G01*
G04 APERTURE LIST*
G04 Aperture macros list*
%AMRoundRect*
0 Rectangle with rounded corners*
0 $1 Rounding radius*
0 $2 $3 $4 $5 $6 $7 $8 $9 X,Y pos of 4 corners*
0 Add a 4 corners polygon primitive as box body*
4,1,4,$2,$3,$4,$5,$6,$7,$8,$9,$2,$3,0*
0 Add four circle primitives for the rounded corners*
1,1,$1+$1,$2,$3*
1,1,$1+$1,$4,$5*
1,1,$1+$1,$6,$7*
1,1,$1+$1,$8,$9*
0 Add four rect primitives between the rounded corners*
20,1,$1+$1,$2,$3,$4,$5,0*
20,1,$1+$1,$4,$5,$6,$7,0*
20,1,$1+$1,$6,$7,$8,$9,0*
20,1,$1+$1,$8,$9,$2,$3,0*%
%AMRotRect*
0 Rectangle, with rotation*
0 The origin of the aperture is its center*
0 $1 length*
0 $2 width*
0 $3 Rotation angle, in degrees counterclockwise*
0 Add horizontal line*
21,1,$1,$2,0,0,$3*%
G04 Aperture macros list end*
%TA.AperFunction,SMDPad,CuDef*%
%ADD10RoundRect,0.237500X-0.237500X0.287500X-0.237500X-0.287500X0.237500X-0.287500X0.237500X0.287500X0*%
%TD*%
%TA.AperFunction,SMDPad,CuDef*%
%ADD11RoundRect,0.237500X-0.237500X0.300000X-0.237500X-0.300000X0.237500X-0.300000X0.237500X0.300000X0*%
%TD*%
%TA.AperFunction,ComponentPad*%
%ADD12R,1.700000X1.700000*%
%TD*%
%TA.AperFunction,ComponentPad*%
%ADD13C,1.700000*%
%TD*%
%TA.AperFunction,SMDPad,CuDef*%
%ADD14RoundRect,0.237500X0.237500X-0.287500X0.237500X0.287500X-0.237500X0.287500X-0.237500X-0.287500X0*%
%TD*%
%TA.AperFunction,SMDPad,CuDef*%
%ADD15RoundRect,0.237500X-0.287500X-0.237500X0.287500X-0.237500X0.287500X0.237500X-0.287500X0.237500X0*%
%TD*%
%TA.AperFunction,SMDPad,CuDef*%
%ADD16RoundRect,0.150000X0.150000X-0.825000X0.150000X0.825000X-0.150000X0.825000X-0.150000X-0.825000X0*%
%TD*%
%TA.AperFunction,ComponentPad*%
%ADD17O,1.700000X1.950000*%
%TD*%
%TA.AperFunction,ComponentPad*%
%ADD18RoundRect,0.250000X-0.600000X-0.725000X0.600000X-0.725000X0.600000X0.725000X-0.600000X0.725000X0*%
%TD*%
%TA.AperFunction,SMDPad,CuDef*%
%ADD19RoundRect,0.237500X-0.250000X-0.237500X0.250000X-0.237500X0.250000X0.237500X-0.250000X0.237500X0*%
%TD*%
%TA.AperFunction,SMDPad,CuDef*%
%ADD20RoundRect,0.237500X0.250000X0.237500X-0.250000X0.237500X-0.250000X-0.237500X0.250000X-0.237500X0*%
%TD*%
%TA.AperFunction,ComponentPad*%
%ADD21R,1.000000X1.000000*%
%TD*%
%TA.AperFunction,ComponentPad*%
%ADD22C,1.000000*%
%TD*%
%TA.AperFunction,SMDPad,CuDef*%
%ADD23RoundRect,0.237500X0.237500X-0.250000X0.237500X0.250000X-0.237500X0.250000X-0.237500X-0.250000X0*%
%TD*%
%TA.AperFunction,SMDPad,CuDef*%
%ADD24RoundRect,0.225000X-0.225000X-0.375000X0.225000X-0.375000X0.225000X0.375000X-0.225000X0.375000X0*%
%TD*%
%TA.AperFunction,SMDPad,CuDef*%
%ADD25RoundRect,0.237500X-0.237500X0.250000X-0.237500X-0.250000X0.237500X-0.250000X0.237500X0.250000X0*%
%TD*%
%TA.AperFunction,ComponentPad*%
%ADD26C,1.950000*%
%TD*%
%TA.AperFunction,ComponentPad*%
%ADD27RoundRect,0.250000X0.600000X0.725000X-0.600000X0.725000X-0.600000X-0.725000X0.600000X-0.725000X0*%
%TD*%
%TA.AperFunction,SMDPad,CuDef*%
%ADD28R,0.700000X1.400000*%
%TD*%
%TA.AperFunction,SMDPad,CuDef*%
%ADD29R,0.700000X1.200000*%
%TD*%
%TA.AperFunction,SMDPad,CuDef*%
%ADD30R,1.200000X0.800000*%
%TD*%
%TA.AperFunction,SMDPad,CuDef*%
%ADD31R,1.500000X1.900000*%
%TD*%
%TA.AperFunction,SMDPad,CuDef*%
%ADD32RotRect,0.200000X0.200000X45.000000*%
%TD*%
%TA.AperFunction,SMDPad,CuDef*%
%ADD33R,0.500000X0.500000*%
%TD*%
%TA.AperFunction,SMDPad,CuDef*%
%ADD34R,1.000000X1.400000*%
%TD*%
%TA.AperFunction,SMDPad,CuDef*%
%ADD35R,1.200000X3.200000*%
%TD*%
%TA.AperFunction,SMDPad,CuDef*%
%ADD36R,1.123210X1.123210*%
%TD*%
%TA.AperFunction,ComponentPad*%
%ADD37R,1.905000X2.000000*%
%TD*%
%TA.AperFunction,ComponentPad*%
%ADD38O,1.905000X2.000000*%
%TD*%
%TA.AperFunction,ComponentPad*%
%ADD39R,1.651000X1.651000*%
%TD*%
%TA.AperFunction,ComponentPad*%
%ADD40C,1.651000*%
%TD*%
%TA.AperFunction,ViaPad*%
%ADD41C,0.600000*%
%TD*%
%TA.AperFunction,ViaPad*%
%ADD42C,0.500000*%
%TD*%
%TA.AperFunction,ViaPad*%
%ADD43C,1.000000*%
%TD*%
%TA.AperFunction,Conductor*%
%ADD44C,0.500000*%
%TD*%
%TA.AperFunction,Conductor*%
%ADD45C,0.200000*%
%TD*%
%TA.AperFunction,Conductor*%
%ADD46C,0.350000*%
%TD*%
%TA.AperFunction,Conductor*%
%ADD47C,0.400000*%
%TD*%
%TA.AperFunction,Conductor*%
%ADD48C,0.100000*%
%TD*%
%TA.AperFunction,Conductor*%
%ADD49C,0.700000*%
%TD*%
G04 APERTURE END LIST*
D10*
%TO.P,D11,1,K_1*%
%TO.N,GND*%
X170150000Y-53600000D03*
%TO.P,D11,2,A_2*%
%TO.N,Net-(D11-A)*%
X170150000Y-55350000D03*
%TD*%
D11*
%TO.P,C1,1*%
%TO.N,Net-(U1-EN)*%
X106960000Y-41287500D03*
%TO.P,C1,2*%
%TO.N,GND*%
X106960000Y-43012500D03*
%TD*%
D12*
%TO.P,J15,1,Pin_1_1*%
%TO.N,unconnected-(J15-Pin_1-Pad1)*%
X175335000Y-41785000D03*
D13*
%TO.P,J15,2,Pin_2_2*%
%TO.N,/EN_IN*%
X175335000Y-44325000D03*
%TO.P,J15,3,Pin_3_3*%
%TO.N,Net-(J15-Pin_3)*%
X175335000Y-46865000D03*
%TO.P,J15,4,Pin_4_4*%
%TO.N,/FIX_OUT*%
X175335000Y-49405000D03*
%TO.P,J15,5,Pin_5_5*%
%TO.N,/GPS_TX*%
X175335000Y-51945000D03*
%TO.P,J15,6,Pin_6_6*%
%TO.N,/GPS_RX*%
X175335000Y-54485000D03*
%TO.P,J15,7,Pin_7_7*%
%TO.N,GND*%
X175335000Y-57025000D03*
%TO.P,J15,8,Pin_8_8*%
%TO.N,+5V*%
X175335000Y-59565000D03*
%TO.P,J15,9,Pin_9_9*%
%TO.N,/PPS*%
X175335000Y-62105000D03*
%TD*%
D11*
%TO.P,C14,1*%
%TO.N,/RESET*%
X131205000Y-63940000D03*
%TO.P,C14,2*%
%TO.N,GND*%
X131205000Y-65665000D03*
%TD*%
D12*
%TO.P,J5,1,Pin_1_1*%
%TO.N,GND*%
X115325000Y-52025000D03*
D13*
%TO.P,J5,2,Pin_2_2*%
%TO.N,+5V*%
X115325000Y-54565000D03*
%TO.P,J5,3,Pin_3_3*%
%TO.N,/SCL*%
X115325000Y-57105000D03*
%TO.P,J5,4,Pin_4_4*%
%TO.N,/SDA*%
X115325000Y-59645000D03*
%TD*%
D14*
%TO.P,D4,1,K_1*%
%TO.N,Net-(D4-K)*%
X155758250Y-62630000D03*
%TO.P,D4,2,A_2*%
%TO.N,Net-(D4-A)*%
X155758250Y-60880000D03*
%TD*%
D12*
%TO.P,J3,1,Pin_1_1*%
%TO.N,/MISO2*%
X160095000Y-54055000D03*
D13*
%TO.P,J3,2,Pin_2_2*%
%TO.N,+5V*%
X162635000Y-54055000D03*
%TO.P,J3,3,Pin_3_3*%
%TO.N,/SCK2*%
X160095000Y-56595000D03*
%TO.P,J3,4,Pin_4_4*%
%TO.N,/MOSI2*%
X162635000Y-56595000D03*
%TO.P,J3,5,Pin_5_5*%
%TO.N,/RESET2*%
X160095000Y-59135000D03*
%TO.P,J3,6,Pin_6_6*%
%TO.N,GND*%
X162635000Y-59135000D03*
%TD*%
D11*
%TO.P,C12,1*%
%TO.N,/HALL_EFFECT(SYS)*%
X151665000Y-57092500D03*
%TO.P,C12,2*%
%TO.N,GND*%
X151665000Y-58817500D03*
%TD*%
D12*
%TO.P,J13,1,Pin_1_1*%
%TO.N,+5V*%
X149090000Y-61590000D03*
D13*
%TO.P,J13,2,Pin_2_2*%
%TO.N,GND*%
X149090000Y-59050000D03*
%TO.P,J13,3,Pin_3_3*%
%TO.N,/HALL_EFFECT(SYS)*%
X149090000Y-56510000D03*
%TD*%
D15*
%TO.P,D12,1,K_1*%
%TO.N,GND*%
X119292500Y-74155000D03*
%TO.P,D12,2,A_2*%
%TO.N,Net-(D12-A)*%
X121042500Y-74155000D03*
%TD*%
%TO.P,D7,1,K_1*%
%TO.N,Net-(D7-K)*%
X144055000Y-60855000D03*
%TO.P,D7,2,A_2*%
%TO.N,+5V*%
X145805000Y-60855000D03*
%TD*%
D11*
%TO.P,C7,1*%
%TO.N,Net-(U5-EN)*%
X114480374Y-39195334D03*
%TO.P,C7,2*%
%TO.N,GND*%
X114480374Y-40920334D03*
%TD*%
D12*
%TO.P,J16,1,Pin_1_1*%
%TO.N,/MISO*%
X133475000Y-71285000D03*
D13*
%TO.P,J16,2,Pin_2_2*%
%TO.N,+5V*%
X133475000Y-73825000D03*
%TO.P,J16,3,Pin_3_3*%
%TO.N,/SCK*%
X130935000Y-71285000D03*
%TO.P,J16,4,Pin_4_4*%
%TO.N,/MOSI*%
X130935000Y-73825000D03*
%TO.P,J16,5,Pin_5_5*%
%TO.N,/RESET*%
X128395000Y-71285000D03*
%TO.P,J16,6,Pin_6_6*%
%TO.N,GND*%
X128395000Y-73825000D03*
%TD*%
D16*
%TO.P,U9,1,VCC_1*%
%TO.N,+3V3*%
X87720001Y-57545000D03*
%TO.P,U9,2*%
%TO.N,Net-(J17-CLK)*%
X88990001Y-57545000D03*
%TO.P,U9,3*%
%TO.N,/SCK*%
X90260001Y-57545000D03*
%TO.P,U9,4*%
%TO.N,Net-(J17-CLK)*%
X91530001Y-57545000D03*
%TO.P,U9,5*%
%TO.N,/MOSI*%
X92800001Y-57545000D03*
%TO.P,U9,6*%
%TO.N,Net-(J17-DAT3{slash}CD)*%
X94070001Y-57545000D03*
%TO.P,U9,7*%
%TO.N,/SD_CS*%
X95340001Y-57545000D03*
%TO.P,U9,8,VSS_8*%
%TO.N,GND*%
X96610001Y-57545000D03*
%TO.P,U9,9*%
%TO.N,/SCK*%
X96610001Y-52595000D03*
%TO.P,U9,10*%
%TO.N,Net-(D10-A)*%
X95340001Y-52595000D03*
%TO.P,U9,11*%
%TO.N,GND*%
X94070001Y-52595000D03*
%TO.P,U9,12*%
%TO.N,unconnected-(U9-Pad12)*%
X92800001Y-52595000D03*
%TO.P,U9,13*%
%TO.N,N/C*%
X91530001Y-52595000D03*
%TO.P,U9,14*%
%TO.N,GND*%
X90260001Y-52595000D03*
%TO.P,U9,15*%
%TO.N,unconnected-(U9-Pad15)*%
X88990001Y-52595000D03*
%TO.P,U9,16*%
%TO.N,N/C*%
X87720001Y-52595000D03*
%TD*%
D12*
%TO.P,J4,1,Pin_1_1*%
%TO.N,+5V*%
X152105000Y-52755000D03*
D13*
%TO.P,J4,2,Pin_2_2*%
%TO.N,GND*%
X149565000Y-52755000D03*
%TO.P,J4,3,Pin_3_3*%
%TO.N,/HALL_EFFECT(MOT)*%
X147025000Y-52755000D03*
%TD*%
D12*
%TO.P,J10,1,Pin_1_1*%
%TO.N,+5V*%
X152105000Y-48755000D03*
D13*
%TO.P,J10,2,Pin_2_2*%
%TO.N,GND*%
X149565000Y-48755000D03*
%TO.P,J10,3,Pin_3_3*%
%TO.N,/HALL_EFFECT(MOT)_2*%
X147025000Y-48755000D03*
%TD*%
D17*
%TO.P,J6,4,Pin_4_4*%
%TO.N,GND*%
X115300000Y-66600000D03*
%TO.P,J6,3,Pin_3_3*%
%TO.N,/SDA*%
X112800000Y-66600000D03*
%TO.P,J6,2,Pin_2_2*%
%TO.N,/SCL*%
X110300000Y-66600000D03*
D18*
%TO.P,J6,1,Pin_1_1*%
%TO.N,+5V*%
X107800000Y-66600000D03*
%TD*%
D19*
%TO.P,R31,1*%
%TO.N,+5V*%
X124492500Y-66102500D03*
%TO.P,R31,2*%
%TO.N,/RESET*%
X126317500Y-66102500D03*
%TD*%
D20*
%TO.P,R32,1*%
%TO.N,Net-(D9-A)*%
X131415000Y-60555000D03*
%TO.P,R32,2*%
%TO.N,Net-(U10-PL1)*%
X129590000Y-60555000D03*
%TD*%
D21*
%TO.P,J8,1,Pin_1_1*%
%TO.N,+3V3*%
X115575000Y-34600000D03*
D22*
%TO.P,J8,2,Pin_2_2*%
%TO.N,/SCL_Press*%
X114325000Y-34600000D03*
%TO.P,J8,3,Pin_3_3*%
%TO.N,/SDA_Press*%
X113075000Y-34600000D03*
%TO.P,J8,4,Pin_4_4*%
%TO.N,GND*%
X111825000Y-34600000D03*
%TD*%
D23*
%TO.P,R35,1*%
%TO.N,+5V*%
X124825000Y-59570000D03*
%TO.P,R35,2*%
%TO.N,/SDA*%
X124825000Y-57745000D03*
%TD*%
D21*
%TO.P,J2,1,Pin_1_1*%
%TO.N,+3V3*%
X106900000Y-34600000D03*
D22*
%TO.P,J2,2,Pin_2_2*%
%TO.N,/SCL_Temp*%
X105650000Y-34600000D03*
%TO.P,J2,3,Pin_3_3*%
%TO.N,/SDA_Temp*%
X104400000Y-34600000D03*
%TO.P,J2,4,Pin_4_4*%
%TO.N,GND*%
X103150000Y-34600000D03*
%TD*%
D24*
%TO.P,D8,1,K_1*%
%TO.N,+5V*%
X123055000Y-68202500D03*
%TO.P,D8,2,A_2*%
%TO.N,/RESET*%
X126355000Y-68202500D03*
%TD*%
D23*
%TO.P,R36,1*%
%TO.N,+5V*%
X170150000Y-58862500D03*
%TO.P,R36,2*%
%TO.N,Net-(D11-A)*%
X170150000Y-57037500D03*
%TD*%
D25*
%TO.P,R20,1*%
%TO.N,+5V*%
X153805000Y-57442500D03*
%TO.P,R20,2*%
%TO.N,Net-(D5-A)*%
X153805000Y-59267500D03*
%TD*%
D23*
%TO.P,R17,1*%
%TO.N,+5V*%
X111030374Y-43190334D03*
%TO.P,R17,2*%
%TO.N,/SDA*%
X111030374Y-41365334D03*
%TD*%
%TO.P,R18,1*%
%TO.N,+5V*%
X112520374Y-43240334D03*
%TO.P,R18,2*%
%TO.N,/SCL*%
X112520374Y-41415334D03*
%TD*%
D19*
%TO.P,R23,1*%
%TO.N,+3V3*%
X109857500Y-37600000D03*
%TO.P,R23,2*%
%TO.N,/SDA_Press*%
X111682500Y-37600000D03*
%TD*%
D13*
%TO.P,Y1,1,1_1*%
%TO.N,Net-(U3-XTAL1)*%
X147700000Y-74200000D03*
%TO.P,Y1,2,2_2*%
%TO.N,GND*%
X147700000Y-71700000D03*
%TO.P,Y1,3,3_3*%
%TO.N,Net-(U3-PC0{slash}XTAL2)*%
X147700000Y-69200000D03*
%TD*%
D20*
%TO.P,R37,1*%
%TO.N,Net-(U11--)*%
X124580000Y-74155000D03*
%TO.P,R37,2*%
%TO.N,Net-(D12-A)*%
X122755000Y-74155000D03*
%TD*%
%TO.P,R8,1*%
%TO.N,+3V3*%
X106912500Y-37680000D03*
%TO.P,R8,2*%
%TO.N,/SCL_Temp*%
X105087500Y-37680000D03*
%TD*%
D25*
%TO.P,R33,1*%
%TO.N,Net-(D10-K)*%
X76330001Y-57955000D03*
%TO.P,R33,2*%
%TO.N,Net-(J17-DAT3{slash}CD)*%
X76330001Y-59780000D03*
%TD*%
D18*
%TO.P,J9,1,Pin_1_1*%
%TO.N,+5V*%
X94100000Y-66600000D03*
D17*
%TO.P,J9,2,Pin_2_2*%
%TO.N,/SCL*%
X96600000Y-66600000D03*
%TO.P,J9,3,Pin_3_3*%
%TO.N,/SDA*%
X99100000Y-66600000D03*
%TO.P,J9,4,Pin_4_4*%
%TO.N,GND*%
X101600000Y-66600000D03*
%TD*%
D19*
%TO.P,R10,1*%
%TO.N,+3V3*%
X101660000Y-37750000D03*
%TO.P,R10,2*%
%TO.N,/SDA_Temp*%
X103485000Y-37750000D03*
%TD*%
D26*
%TO.P,J7,1,1_1*%
%TO.N,GND*%
X167800000Y-34250000D03*
%TO.P,J7,2,2_2*%
%TO.N,VIN*%
X162800000Y-34250000D03*
%TD*%
D12*
%TO.P,J11,1,Pin_1_1*%
%TO.N,/TX_Charging*%
X137420000Y-77200000D03*
D13*
%TO.P,J11,2,Pin_2_2*%
%TO.N,/RX_Charging*%
X139960000Y-77200000D03*
%TO.P,J11,3,Pin_3_3*%
%TO.N,GND*%
X142500000Y-77200000D03*
%TD*%
D12*
%TO.P,J12,1,Pin_1_1*%
%TO.N,/MOTOR_STEP*%
X147975000Y-77075000D03*
D13*
%TO.P,J12,2,Pin_2_2*%
%TO.N,/MOTOR_DIR*%
X150515000Y-77075000D03*
%TO.P,J12,3,Pin_3_3*%
%TO.N,GND*%
X153055000Y-77075000D03*
%TD*%
D25*
%TO.P,R29,1*%
%TO.N,/HALL_EFFECT(SYS)*%
X139980000Y-57117500D03*
%TO.P,R29,2*%
%TO.N,Net-(D7-K)*%
X139980000Y-58942500D03*
%TD*%
D23*
%TO.P,R3,1*%
%TO.N,+5V*%
X105210000Y-43292500D03*
%TO.P,R3,2*%
%TO.N,/SCL*%
X105210000Y-41467500D03*
%TD*%
D15*
%TO.P,D10,1,K_1*%
%TO.N,Net-(D10-K)*%
X79375001Y-56042500D03*
%TO.P,D10,2,A_2*%
%TO.N,Net-(D10-A)*%
X81125001Y-56042500D03*
%TD*%
D27*
%TO.P,J18,1,Pin_1_1*%
%TO.N,+5V*%
X142475000Y-40275000D03*
D17*
%TO.P,J18,2,Pin_2_2*%
%TO.N,/SCL*%
X139975000Y-40275000D03*
%TO.P,J18,3,Pin_3_3*%
%TO.N,/SDA*%
X137475000Y-40275000D03*
%TO.P,J18,4,Pin_4_4*%
%TO.N,GND*%
X134975000Y-40275000D03*
%TD*%
D25*
%TO.P,R34,1*%
%TO.N,+5V*%
X124785000Y-54292500D03*
%TO.P,R34,2*%
%TO.N,/SCL*%
X124785000Y-56117500D03*
%TD*%
D12*
%TO.P,J14,1,Pin_1_1*%
%TO.N,/BT_STATE*%
X142145000Y-48755000D03*
D13*
%TO.P,J14,2,Pin_2_2*%
%TO.N,/BT_RX*%
X139605000Y-48755000D03*
%TO.P,J14,3,Pin_3_3*%
%TO.N,/BT_TX*%
X137065000Y-48755000D03*
%TO.P,J14,4,Pin_4_4*%
%TO.N,GND*%
X134525000Y-48755000D03*
%TO.P,J14,5,Pin_5_5*%
%TO.N,+5V*%
X131985000Y-48755000D03*
%TO.P,J14,6,Pin_6_6*%
%TO.N,/BT_EN*%
X129445000Y-48755000D03*
%TD*%
%TO.P,Y2,1,1_1*%
%TO.N,Net-(U10-XTAL1)*%
X122105000Y-59602500D03*
%TO.P,Y2,2,2_2*%
%TO.N,GND*%
X122105000Y-62102500D03*
%TO.P,Y2,3,3_3*%
%TO.N,Net-(U10-XTAL2)*%
X122105000Y-64602500D03*
%TD*%
D28*
%TO.P,J17,1,DAT2_1*%
%TO.N,unconnected-(J17-DAT2-Pad1)*%
X75525000Y-61875000D03*
%TO.P,J17,2,DAT3/CD_2*%
%TO.N,Net-(J17-DAT3{slash}CD)*%
X76625000Y-61875000D03*
%TO.P,J17,3,CMD_3*%
%TO.N,Net-(J17-CLK)*%
X77725000Y-61875000D03*
%TO.P,J17,4,VDD_4*%
%TO.N,+3V3*%
X78825000Y-61875000D03*
%TO.P,J17,5,CLK_5*%
%TO.N,Net-(J17-CLK)*%
X79925000Y-61875000D03*
%TO.P,J17,6,VSS_6*%
%TO.N,GND*%
X81025000Y-61875000D03*
%TO.P,J17,7,DAT0_7*%
%TO.N,/MISO*%
X82125000Y-61875000D03*
%TO.P,J17,8,DAT1_8*%
%TO.N,unconnected-(J17-DAT1-Pad8)*%
X83225000Y-61875000D03*
D29*
%TO.P,J17,9,SHIELD_9*%
%TO.N,GND*%
X84175000Y-61775000D03*
D30*
%TO.P,J17,10*%
%TO.N,N/C*%
X85025000Y-72275000D03*
D31*
%TO.P,J17,11*%
X71725000Y-76875000D03*
D32*
X72475000Y-77325000D03*
D33*
X72725000Y-77575000D03*
D34*
X73625000Y-61875000D03*
D35*
X85025000Y-75875000D03*
D36*
X85225000Y-66075000D03*
%TD*%
D37*
%TO.P,U7,1,VI_1*%
%TO.N,VIN*%
X155500000Y-32600000D03*
D38*
%TO.P,U7,2,GND_2*%
%TO.N,GND*%
X152960000Y-32600000D03*
%TO.P,U7,3,VO_3*%
%TO.N,+5V*%
X150420000Y-32600000D03*
%TD*%
D15*
%TO.P,D9,1,K_1*%
%TO.N,GND*%
X130020000Y-58900000D03*
%TO.P,D9,2,A_2*%
%TO.N,Net-(D9-A)*%
X131770000Y-58900000D03*
%TD*%
D39*
%TO.P,C10,1*%
%TO.N,Net-(J15-Pin_3)*%
X168987050Y-44825000D03*
D40*
%TO.P,C10,2*%
%TO.N,GND*%
X158979450Y-44825000D03*
%TD*%
D14*
%TO.P,D5,1,K_1*%
%TO.N,Net-(D5-K)*%
X153805000Y-62630000D03*
%TO.P,D5,2,A_2*%
%TO.N,Net-(D5-A)*%
X153805000Y-60880000D03*
%TD*%
D23*
%TO.P,R2,1*%
%TO.N,+5V*%
X103010000Y-43142500D03*
%TO.P,R2,2*%
%TO.N,/SDA*%
X103010000Y-41317500D03*
%TD*%
D25*
%TO.P,R19,1*%
%TO.N,+5V*%
X155758250Y-57442500D03*
%TO.P,R19,2*%
%TO.N,Net-(D4-A)*%
X155758250Y-59267500D03*
%TD*%
D20*
%TO.P,R22,1*%
%TO.N,+3V3*%
X115115000Y-37600000D03*
%TO.P,R22,2*%
%TO.N,/SCL_Press*%
X113290000Y-37600000D03*
%TD*%
D25*
%TO.P,R27,1*%
%TO.N,/HALL_EFFECT(SYS)*%
X145365000Y-57182500D03*
%TO.P,R27,2*%
%TO.N,+5V*%
X145365000Y-59007500D03*
%TD*%
D12*
%TO.P,U8,1,VDD_1*%
%TO.N,+3V3*%
X80400000Y-47200000D03*
D13*
%TO.P,U8,2,RST_2*%
%TO.N,unconnected-(U8-RST-Pad2)*%
X80400000Y-44660000D03*
%TO.P,U8,3,RXD_3*%
%TO.N,Net-(U8-RXD)*%
X80400000Y-42120000D03*
%TO.P,U8,4,TXD_4*%
%TO.N,/RF_TX*%
X80400000Y-39580000D03*
%TO.P,U8,5,GND_5*%
%TO.N,GND*%
X80400000Y-37040000D03*
%TD*%
D41*
%TO.N,+5V*%
X143767500Y-67751000D03*
X145805000Y-59805000D03*
X103010000Y-43142500D03*
X105220931Y-43495000D03*
X122255000Y-68255000D03*
X172750000Y-41300000D03*
X124100000Y-59500000D03*
X170190000Y-58780000D03*
X124785000Y-54292500D03*
X112520374Y-43240334D03*
X168005000Y-67592500D03*
X166000000Y-72000000D03*
X139500000Y-69637500D03*
X168500000Y-75912500D03*
X149320000Y-42760000D03*
X150455000Y-65142500D03*
X125815000Y-34235000D03*
X123755000Y-66105000D03*
X165750000Y-53362500D03*
X127200000Y-63402500D03*
X154800000Y-57442500D03*
X145100000Y-55900000D03*
X135100000Y-51000000D03*
D42*
%TO.N,GND*%
X107737500Y-43012500D03*
D41*
X162855000Y-73102500D03*
X120505000Y-72802500D03*
X174800000Y-75897500D03*
X131900000Y-65665000D03*
X90225001Y-51200000D03*
X130105000Y-62902500D03*
X157405000Y-53855000D03*
X97225001Y-57600000D03*
X170800000Y-74600000D03*
X142670000Y-65402500D03*
X124570000Y-34170000D03*
X150280000Y-74300000D03*
X156767500Y-71755000D03*
X114480374Y-40920334D03*
X125930000Y-38037500D03*
X148600000Y-40700000D03*
X153267500Y-69955000D03*
X139500000Y-72100000D03*
X170225000Y-67602500D03*
X150295000Y-66305000D03*
X84100000Y-63400000D03*
X118500000Y-74100000D03*
X145725000Y-63412500D03*
X82887500Y-43600000D03*
X137105000Y-66205000D03*
X130020000Y-58900000D03*
X170215000Y-52775000D03*
X114102946Y-42365843D03*
X138000000Y-72137500D03*
X80392501Y-63555000D03*
X170875000Y-75897500D03*
X166315000Y-61885000D03*
X170875000Y-65707500D03*
X125555000Y-71205000D03*
X174800000Y-65707500D03*
X105779902Y-42379999D03*
X171300000Y-44350000D03*
X142500000Y-56700000D03*
X94025001Y-51100000D03*
X119695000Y-31522500D03*
X141000000Y-72100000D03*
X155905000Y-44255000D03*
X135567500Y-53886750D03*
%TO.N,/RESET*%
X150705000Y-55402500D03*
X130105000Y-63902500D03*
%TO.N,Net-(U10-PL1)*%
X130142500Y-60603963D03*
%TO.N,+3V3*%
X115115000Y-37600000D03*
X108170000Y-34510000D03*
X109680000Y-37600000D03*
X86925001Y-57600000D03*
X116420000Y-34530000D03*
X101620000Y-37750000D03*
X106590000Y-37637500D03*
X107284002Y-37728958D03*
D43*
X118415000Y-33235000D03*
D41*
X78667501Y-63555000D03*
%TO.N,/SCL_Press*%
X113485375Y-37340573D03*
%TO.N,/SDA_Press*%
X111682500Y-37300000D03*
%TO.N,/SCK*%
X119364528Y-77054000D03*
X90260001Y-57545000D03*
X127505000Y-75555000D03*
X96660001Y-53005000D03*
%TO.N,/MOSI*%
X121845000Y-76505000D03*
%TO.N,/SD_CS*%
X133050000Y-69150000D03*
%TO.N,/SDA*%
X112500000Y-54000000D03*
X124825000Y-57745000D03*
X103010000Y-41317500D03*
X109700000Y-39500000D03*
X111030374Y-41365334D03*
%TO.N,/MISO*%
X130725605Y-68995605D03*
X122275000Y-77455000D03*
%TO.N,/SCL_Temp*%
X105087500Y-37680000D03*
%TO.N,/SDA_Temp*%
X103485000Y-37735000D03*
%TO.N,Net-(U5-EN)*%
X115190374Y-39047834D03*
%TO.N,/HALL_EFFECT(SYS)*%
X139980000Y-57117500D03*
%TO.N,/SCL*%
X112605000Y-39955000D03*
X127305612Y-57502500D03*
X104499942Y-41279294D03*
%TO.N,Net-(D4-K)*%
X155758250Y-62630000D03*
%TO.N,Net-(U11--)*%
X124805000Y-73005000D03*
%TO.N,/FIX_OUT*%
X130285000Y-61455000D03*
%TO.N,/GPS_TX*%
X141750000Y-59950000D03*
%TO.N,/GPS_RX*%
X141100000Y-62350000D03*
%TO.N,/PPS*%
X144100000Y-53400000D03*
%TO.N,Net-(U1-EN)*%
X106990000Y-41040000D03*
%TO.N,/TX_Charging*%
X136100000Y-70000000D03*
%TO.N,/RX_Charging*%
X136800000Y-69300000D03*
%TO.N,/BT_EN*%
X137105000Y-53455000D03*
%TO.N,Net-(D5-K)*%
X153805000Y-62630000D03*
%TO.N,/USB_D+*%
X171687801Y-71677196D03*
X172305000Y-70602500D03*
%TO.N,/RF_RX*%
X124500000Y-47100000D03*
X126440000Y-49100000D03*
%TD*%
%TO.N,+5V*%
D44*
X97100000Y-69600000D02*
X94100000Y-66600000D01*
X107800000Y-66600000D02*
X104800000Y-69600000D01*
X104800000Y-69600000D02*
X97100000Y-69600000D01*
%TO.N,/SCL*%
D45*
X113600000Y-63300000D02*
X110300000Y-66600000D01*
X113600000Y-59800000D02*
X113600000Y-63300000D01*
X101200000Y-62000000D02*
X96600000Y-66600000D01*
X113600000Y-59800000D02*
X111400000Y-62000000D01*
X111400000Y-62000000D02*
X101200000Y-62000000D01*
%TO.N,/SDA*%
X112800000Y-65000000D02*
X112800000Y-66600000D01*
X115200000Y-62600000D02*
X112800000Y-65000000D01*
X115200000Y-59770000D02*
X115200000Y-62600000D01*
X115325000Y-59645000D02*
X115200000Y-59770000D01*
%TO.N,/SCL*%
X113600000Y-58800000D02*
X113600000Y-59800000D01*
X115295000Y-57105000D02*
X113600000Y-58800000D01*
X115325000Y-57105000D02*
X115295000Y-57105000D01*
%TO.N,/USB_D+*%
X172305000Y-71059997D02*
X172305000Y-70602500D01*
X171687801Y-71677196D02*
X172305000Y-71059997D01*
%TO.N,+5V*%
X124530000Y-59500000D02*
X124600000Y-59570000D01*
X124600000Y-59570000D02*
X124825000Y-59570000D01*
X105220931Y-43303431D02*
X105210000Y-43292500D01*
D46*
X145805000Y-60855000D02*
X145805000Y-59805000D01*
D45*
X170150000Y-58820000D02*
X170190000Y-58780000D01*
X124750000Y-59645000D02*
X124825000Y-59570000D01*
X155758250Y-57442500D02*
X154800000Y-57442500D01*
X112470374Y-43190334D02*
X112520374Y-43240334D01*
D46*
X154797500Y-57445000D02*
X154800000Y-57442500D01*
D45*
X123055000Y-68202500D02*
X122307500Y-68202500D01*
D46*
X145805000Y-59447500D02*
X145365000Y-59007500D01*
D45*
X153805000Y-57442500D02*
X154800000Y-57442500D01*
D46*
X145805000Y-60855000D02*
X145805000Y-59447500D01*
D45*
X105220931Y-43495000D02*
X105220931Y-43303431D01*
X170150000Y-58862500D02*
X170150000Y-58820000D01*
X111030374Y-43190334D02*
X112470374Y-43190334D01*
D46*
X145805000Y-58905000D02*
X145805000Y-59805000D01*
D45*
X124100000Y-59500000D02*
X124530000Y-59500000D01*
X122307500Y-68202500D02*
X122255000Y-68255000D01*
%TO.N,GND*%
X80392501Y-63092500D02*
X80755001Y-62730000D01*
X90260001Y-52595000D02*
X90260001Y-51235000D01*
X106960000Y-43012500D02*
X106412403Y-43012500D01*
X151665000Y-58817500D02*
X151672500Y-58825000D01*
X84100000Y-63400000D02*
X84100000Y-62024999D01*
X90260001Y-51235000D02*
X90225001Y-51200000D01*
D47*
X149565000Y-48755000D02*
X149565000Y-48265000D01*
D45*
X80755001Y-62730000D02*
X80755001Y-61930000D01*
X119292500Y-74155000D02*
X118555000Y-74155000D01*
X118555000Y-74155000D02*
X118500000Y-74100000D01*
X151665000Y-58817500D02*
X149322500Y-58817500D01*
X94025001Y-52550000D02*
X94070001Y-52595000D01*
X80392501Y-63555000D02*
X80392501Y-63092500D01*
X97225001Y-57600000D02*
X96665001Y-57600000D01*
X106412403Y-43012500D02*
X105779902Y-42379999D01*
X170150000Y-53600000D02*
X170150000Y-52840000D01*
X107737500Y-43012500D02*
X106960000Y-43012500D01*
X170150000Y-52840000D02*
X170215000Y-52775000D01*
X96665001Y-57600000D02*
X96610001Y-57545000D01*
X148890000Y-59050000D02*
X149090000Y-59050000D01*
X149322500Y-58817500D02*
X149090000Y-59050000D01*
X131900000Y-65665000D02*
X131205000Y-65665000D01*
X94025001Y-51100000D02*
X94025001Y-52550000D01*
%TO.N,/RESET*%
X126192500Y-68202500D02*
X126192500Y-66227500D01*
X131167500Y-63902500D02*
X131205000Y-63940000D01*
X128725000Y-71265634D02*
X128725000Y-71062500D01*
X130105000Y-63902500D02*
X131167500Y-63902500D01*
X126317500Y-66102500D02*
X127905000Y-66102500D01*
X150705000Y-55402500D02*
X150452500Y-55150000D01*
X126192500Y-66227500D02*
X126317500Y-66102500D01*
X138857500Y-55150000D02*
X131205000Y-62802500D01*
X150452500Y-55150000D02*
X138857500Y-55150000D01*
X127905000Y-66102500D02*
X130105000Y-63902500D01*
X131205000Y-62802500D02*
X131205000Y-63940000D01*
%TO.N,Net-(D9-A)*%
X130960000Y-60017500D02*
X131832500Y-59145000D01*
X130960000Y-60545000D02*
X130960000Y-60017500D01*
%TO.N,Net-(U10-PL1)*%
X130145000Y-60545000D02*
X130145000Y-60601463D01*
X130145000Y-60601463D02*
X130142500Y-60603963D01*
%TO.N,+3V3*%
X106632500Y-37680000D02*
X106590000Y-37637500D01*
X108110000Y-34570000D02*
X108170000Y-34510000D01*
X78667501Y-63555000D02*
X78667501Y-62032499D01*
X109857500Y-37600000D02*
X109680000Y-37600000D01*
X115575000Y-34500000D02*
X116390000Y-34500000D01*
X87665001Y-57600000D02*
X87720001Y-57545000D01*
X101660000Y-37750000D02*
X101620000Y-37750000D01*
X116390000Y-34500000D02*
X116420000Y-34530000D01*
X86925001Y-57600000D02*
X87665001Y-57600000D01*
X106912500Y-37680000D02*
X106632500Y-37680000D01*
X78667501Y-62032499D02*
X78825000Y-61875000D01*
X106810000Y-34570000D02*
X108110000Y-34570000D01*
%TO.N,/SCL_Press*%
X114325000Y-34500000D02*
X113290000Y-35535000D01*
X113290000Y-35535000D02*
X113290000Y-37600000D01*
X113180000Y-37490000D02*
X113290000Y-37600000D01*
%TO.N,/SDA_Press*%
X113075000Y-34500000D02*
X111682500Y-35892500D01*
X111930000Y-37352500D02*
X111682500Y-37600000D01*
X111682500Y-35892500D02*
X111682500Y-37300000D01*
X111682500Y-37300000D02*
X111682500Y-37600000D01*
%TO.N,Net-(J17-CLK)*%
X84056001Y-55969000D02*
X90300969Y-55969000D01*
X79844001Y-60181000D02*
X84056001Y-55969000D01*
X90600969Y-56269000D02*
X91530001Y-57198032D01*
X91530001Y-57198032D02*
X91530001Y-57545000D01*
X78304001Y-60181000D02*
X79844001Y-60181000D01*
X77725000Y-60760001D02*
X78304001Y-60181000D01*
X80325000Y-59700000D02*
X87810000Y-59700000D01*
X87810000Y-59700000D02*
X88990001Y-58519999D01*
X77725000Y-61660001D02*
X77725000Y-60760001D01*
X88990001Y-58519999D02*
X88990001Y-57545000D01*
X79925000Y-61875000D02*
X79925000Y-60100000D01*
X90300969Y-55969000D02*
X90600969Y-56269000D01*
X79925000Y-60100000D02*
X80325000Y-59700000D01*
%TO.N,/SCK*%
X96610001Y-52595000D02*
X96610001Y-52955000D01*
X88200000Y-61055001D02*
X90260001Y-58995000D01*
X129665000Y-74290260D02*
X129665000Y-72662500D01*
X119364528Y-77054000D02*
X118465528Y-77953000D01*
X90453000Y-77953000D02*
X88200000Y-75700000D01*
X118465528Y-77953000D02*
X90453000Y-77953000D01*
X127505000Y-75555000D02*
X128400260Y-75555000D01*
X88200000Y-75700000D02*
X88200000Y-61055001D01*
X128400260Y-75555000D02*
X129665000Y-74290260D01*
X129665000Y-72662500D02*
X131265000Y-71062500D01*
X119364528Y-77114472D02*
X119226000Y-77253000D01*
X119364528Y-77054000D02*
X119364528Y-77114472D01*
X96610001Y-52955000D02*
X96660001Y-53005000D01*
X90260001Y-58995000D02*
X90260001Y-57545000D01*
%TO.N,/MOSI*%
X89200000Y-62325001D02*
X89200000Y-75600000D01*
X92800001Y-57545000D02*
X92800001Y-56570001D01*
X119117000Y-76453000D02*
X121793000Y-76453000D01*
X92800001Y-57545000D02*
X92800001Y-58725000D01*
X121793000Y-76453000D02*
X121845000Y-76505000D01*
X92800001Y-58725000D02*
X89200000Y-62325001D01*
X89200000Y-75600000D02*
X91152000Y-77552000D01*
X118018000Y-77552000D02*
X119117000Y-76453000D01*
X91152000Y-77552000D02*
X118018000Y-77552000D01*
%TO.N,Net-(J17-DAT3{slash}CD)*%
X94070001Y-56570001D02*
X94070001Y-57545000D01*
X76625000Y-61660001D02*
X76625000Y-60074999D01*
X83375001Y-55200000D02*
X92700000Y-55200000D01*
X92700000Y-55200000D02*
X94070001Y-56570001D01*
X78795001Y-59780000D02*
X83375001Y-55200000D01*
X76625000Y-60074999D02*
X76330001Y-59780000D01*
X76330001Y-59780000D02*
X78795001Y-59780000D01*
%TO.N,/SD_CS*%
X92400000Y-77100000D02*
X116900000Y-77100000D01*
X133642000Y-69150000D02*
X133050000Y-69150000D01*
X132771760Y-76156000D02*
X134626000Y-74301760D01*
X95340001Y-58519999D02*
X89800000Y-64060000D01*
X134626000Y-70134000D02*
X133642000Y-69150000D01*
X121989943Y-75800000D02*
X122345943Y-76156000D01*
X89800000Y-64060000D02*
X89800000Y-74500000D01*
X95340001Y-57545000D02*
X95340001Y-58519999D01*
X122345943Y-76156000D02*
X132771760Y-76156000D01*
X118200000Y-75800000D02*
X121989943Y-75800000D01*
X134626000Y-74301760D02*
X134626000Y-70134000D01*
X116900000Y-77100000D02*
X118200000Y-75800000D01*
X89800000Y-74500000D02*
X92400000Y-77100000D01*
%TO.N,Net-(D10-A)*%
X95340001Y-53569999D02*
X94480000Y-54430000D01*
X94480000Y-54430000D02*
X83235001Y-54430000D01*
X95340001Y-52595000D02*
X95340001Y-53569999D01*
X81622501Y-56042500D02*
X81125001Y-56042500D01*
X83235001Y-54430000D02*
X81622501Y-56042500D01*
%TO.N,/SDA*%
X127554141Y-58102500D02*
X127905612Y-57751029D01*
X131200000Y-43200000D02*
X134800000Y-43200000D01*
X112500000Y-54000000D02*
X112500000Y-46500000D01*
X103010000Y-41317500D02*
X104827500Y-39500000D01*
X115955000Y-59015000D02*
X115325000Y-59645000D01*
X125182500Y-58102500D02*
X127554141Y-58102500D01*
X124825000Y-57745000D02*
X117225000Y-57745000D01*
X117225000Y-57745000D02*
X115955000Y-59015000D01*
D48*
X111030374Y-41365334D02*
X111030374Y-41574626D01*
D45*
X127800000Y-46600000D02*
X131200000Y-43200000D01*
X109900000Y-43900000D02*
X109900000Y-42495708D01*
X137475000Y-40525000D02*
X137475000Y-40275000D01*
X127905612Y-57751029D02*
X127905612Y-57253971D01*
X104827500Y-39500000D02*
X109700000Y-39500000D01*
X134800000Y-43200000D02*
X137475000Y-40525000D01*
X109900000Y-42495708D02*
X111030374Y-41365334D01*
X112500000Y-46500000D02*
X109900000Y-43900000D01*
X127800000Y-57148359D02*
X127800000Y-46600000D01*
X124825000Y-57745000D02*
X125182500Y-58102500D01*
X127905612Y-57253971D02*
X127800000Y-57148359D01*
%TO.N,/MISO*%
X81855001Y-61930000D02*
X81855001Y-76130000D01*
X130725605Y-68995605D02*
X133015000Y-71285000D01*
X121376000Y-78354000D02*
X122275000Y-77455000D01*
X81855001Y-76130000D02*
X81855001Y-77030000D01*
X81855001Y-77030000D02*
X83179001Y-78354000D01*
X133805000Y-71062500D02*
X132965000Y-71062500D01*
X83179001Y-78354000D02*
X121376000Y-78354000D01*
X133015000Y-71285000D02*
X133475000Y-71285000D01*
%TO.N,/SCL_Temp*%
X105560000Y-37207500D02*
X105087500Y-37680000D01*
X105560000Y-34570000D02*
X105560000Y-37207500D01*
%TO.N,/SDA_Temp*%
X104310000Y-36910000D02*
X103485000Y-37735000D01*
X104310000Y-34570000D02*
X104310000Y-36910000D01*
D49*
X103485000Y-37735000D02*
X103540000Y-37680000D01*
X103485000Y-37750000D02*
X103485000Y-37735000D01*
%TO.N,Net-(D7-K)*%
D45*
X143955000Y-60557500D02*
X143955000Y-60755000D01*
X139980000Y-58942500D02*
X142340000Y-58942500D01*
X143955000Y-60755000D02*
X144055000Y-60855000D01*
X142340000Y-58942500D02*
X143955000Y-60557500D01*
%TO.N,Net-(D12-A)*%
X121042500Y-74155000D02*
X122755000Y-74155000D01*
%TO.N,Net-(D11-A)*%
X170150000Y-57037500D02*
X170150000Y-55350000D01*
%TO.N,/HALL_EFFECT(SYS)*%
X151925000Y-57032500D02*
X149612500Y-57032500D01*
X142007500Y-57155000D02*
X142345000Y-57492500D01*
X142345000Y-57492500D02*
X145055000Y-57492500D01*
X148400000Y-55820000D02*
X149090000Y-56510000D01*
X146727500Y-55820000D02*
X148400000Y-55820000D01*
X145055000Y-57492500D02*
X145365000Y-57182500D01*
X139980000Y-57117500D02*
X140017500Y-57155000D01*
X145365000Y-57182500D02*
X146727500Y-55820000D01*
X140017500Y-57155000D02*
X142007500Y-57155000D01*
X149612500Y-57032500D02*
X149090000Y-56510000D01*
%TO.N,Net-(D5-A)*%
X153805000Y-60880000D02*
X153805000Y-59267500D01*
%TO.N,/SCL*%
X116312500Y-56117500D02*
X115325000Y-57105000D01*
X125920612Y-56117500D02*
X124785000Y-56117500D01*
X105021794Y-41279294D02*
X105210000Y-41467500D01*
X127305612Y-42894388D02*
X127305612Y-57502500D01*
X113296374Y-42191334D02*
X112520374Y-41415334D01*
X138600000Y-38900000D02*
X131300000Y-38900000D01*
X112605000Y-41330708D02*
X112520374Y-41415334D01*
X113296374Y-55076374D02*
X113296374Y-42191334D01*
X139975000Y-40275000D02*
X138600000Y-38900000D01*
X115325000Y-57105000D02*
X113296374Y-55076374D01*
X112605000Y-39955000D02*
X112605000Y-41330708D01*
X104499942Y-41279294D02*
X105021794Y-41279294D01*
X106238500Y-40439000D02*
X105210000Y-41467500D01*
X131300000Y-38900000D02*
X127305612Y-42894388D01*
X124785000Y-56117500D02*
X116312500Y-56117500D01*
X127305612Y-57502500D02*
X125920612Y-56117500D01*
X111544040Y-40439000D02*
X106238500Y-40439000D01*
X112520374Y-41415334D02*
X111544040Y-40439000D01*
%TO.N,Net-(D4-A)*%
X155758250Y-60880000D02*
X155758250Y-59267500D01*
%TO.N,Net-(U11--)*%
X124580000Y-74155000D02*
X124580000Y-73230000D01*
X124580000Y-73230000D02*
X124805000Y-73005000D01*
%TO.N,Net-(J15-Pin_3)*%
X175335000Y-46865000D02*
X175300000Y-46900000D01*
%TO.N,/FIX_OUT*%
X155200000Y-46900000D02*
X146280000Y-46900000D01*
X132203500Y-61022134D02*
X131894634Y-61331000D01*
X132203500Y-60976500D02*
X132203500Y-61022134D01*
X131894634Y-61331000D02*
X131849000Y-61331000D01*
X131725000Y-61455000D02*
X130285000Y-61455000D01*
X146280000Y-46900000D02*
X132203500Y-60976500D01*
X175335000Y-49405000D02*
X174705000Y-48775000D01*
X131849000Y-61331000D02*
X131725000Y-61455000D01*
X174705000Y-48775000D02*
X157075000Y-48775000D01*
X157075000Y-48775000D02*
X155200000Y-46900000D01*
%TO.N,/GPS_TX*%
X150699943Y-66750000D02*
X150543943Y-66906000D01*
X172605000Y-58741339D02*
X164596339Y-66750000D01*
X172605000Y-53905000D02*
X172605000Y-58741339D01*
X164596339Y-66750000D02*
X150699943Y-66750000D01*
X150543943Y-66906000D02*
X150046057Y-66906000D01*
X175335000Y-51945000D02*
X174565000Y-51945000D01*
X141750000Y-65332443D02*
X141750000Y-59950000D01*
X150046057Y-66906000D02*
X149890057Y-66750000D01*
X174565000Y-51945000D02*
X172605000Y-53905000D01*
X143167557Y-66750000D02*
X141750000Y-65332443D01*
X149890057Y-66750000D02*
X143167557Y-66750000D01*
%TO.N,/GPS_RX*%
X164762439Y-67151000D02*
X174184000Y-57729439D01*
X141100000Y-62350000D02*
X141100000Y-65300000D01*
X150866043Y-67151000D02*
X164762439Y-67151000D01*
X174184000Y-55636000D02*
X175335000Y-54485000D01*
X142951000Y-67151000D02*
X149723957Y-67151000D01*
X174184000Y-57729439D02*
X174184000Y-55636000D01*
X149879957Y-67307000D02*
X150710043Y-67307000D01*
X149723957Y-67151000D02*
X149879957Y-67307000D01*
X150710043Y-67307000D02*
X150866043Y-67151000D01*
X141100000Y-65300000D02*
X142951000Y-67151000D01*
%TO.N,Net-(D10-K)*%
X77770001Y-56035000D02*
X79367501Y-56035000D01*
X76330001Y-57955000D02*
X76330001Y-57475000D01*
X76330001Y-57475000D02*
X77770001Y-56035000D01*
X79367501Y-56035000D02*
X79375001Y-56042500D01*
%TO.N,Net-(U1-EN)*%
X106960000Y-41287500D02*
X106960000Y-41070000D01*
X106960000Y-41070000D02*
X106990000Y-41040000D01*
%TO.N,VIN*%
D44*
X155500000Y-32600000D02*
X161150000Y-32600000D01*
X161150000Y-32600000D02*
X162800000Y-34250000D01*
%TO.N,/TX_Charging*%
D45*
X136100000Y-75880000D02*
X136100000Y-70000000D01*
X137420000Y-77200000D02*
X136100000Y-75880000D01*
%TO.N,/RX_Charging*%
X139960000Y-77200000D02*
X136800000Y-74040000D01*
X136800000Y-74040000D02*
X136800000Y-69300000D01*
%TO.N,/BT_EN*%
X136072250Y-54487750D02*
X137105000Y-53455000D01*
X135177750Y-54487750D02*
X136072250Y-54487750D01*
X129445000Y-48755000D02*
X135177750Y-54487750D01*
%TO.N,/RF_RX*%
X126440000Y-49040000D02*
X124500000Y-47100000D01*
X126440000Y-49100000D02*
X126440000Y-49040000D01*
%TD*%
M02*
