%TF.GenerationSoftware,KiCad,Pcbnew,10.0.2*%
%TF.CreationDate,2026-06-10T08:14:39-04:00*%
%TF.ProjectId,MUSTV Motherboard,4d555354-5620-44d6-9f74-686572626f61,rev?*%
%TF.SameCoordinates,Original*%
%TF.FileFunction,Legend,Top*%
%TF.FilePolarity,Positive*%
%FSLAX46Y46*%
G04 Gerber Fmt 4.6, Leading zero omitted, Abs format (unit mm)*
G04 Created by KiCad (PCBNEW 10.0.2) date 2026-06-10 08:14:39*
%MOMM*%
%LPD*%
G01*
G04 APERTURE LIST*
%ADD10C,0.200000*%
%ADD11C,0.100000*%
%ADD12C,0.090000*%
%ADD13C,0.125000*%
%ADD14C,0.187500*%
%ADD15C,0.150000*%
%ADD16C,0.120000*%
%ADD17C,0.000000*%
%ADD18C,0.400000*%
%ADD19C,0.152400*%
G04 APERTURE END LIST*
D10*
X171700000Y-34400000D02*
X173700000Y-34400000D01*
X172700000Y-33400000D02*
X172700000Y-35400000D01*
X174400000Y-34400000D02*
X176000000Y-34400000D01*
D11*
X103983020Y-36335200D02*
X103925877Y-36311390D01*
X103925877Y-36311390D02*
X103830639Y-36311390D01*
X103830639Y-36311390D02*
X103792544Y-36335200D01*
X103792544Y-36335200D02*
X103773496Y-36359009D01*
X103773496Y-36359009D02*
X103754449Y-36406628D01*
X103754449Y-36406628D02*
X103754449Y-36454247D01*
X103754449Y-36454247D02*
X103773496Y-36501866D01*
X103773496Y-36501866D02*
X103792544Y-36525676D01*
X103792544Y-36525676D02*
X103830639Y-36549485D01*
X103830639Y-36549485D02*
X103906830Y-36573295D01*
X103906830Y-36573295D02*
X103944925Y-36597104D01*
X103944925Y-36597104D02*
X103963972Y-36620914D01*
X103963972Y-36620914D02*
X103983020Y-36668533D01*
X103983020Y-36668533D02*
X103983020Y-36716152D01*
X103983020Y-36716152D02*
X103963972Y-36763771D01*
X103963972Y-36763771D02*
X103944925Y-36787580D01*
X103944925Y-36787580D02*
X103906830Y-36811390D01*
X103906830Y-36811390D02*
X103811591Y-36811390D01*
X103811591Y-36811390D02*
X103754449Y-36787580D01*
X103583020Y-36311390D02*
X103583020Y-36811390D01*
X103583020Y-36811390D02*
X103487782Y-36811390D01*
X103487782Y-36811390D02*
X103430639Y-36787580D01*
X103430639Y-36787580D02*
X103392544Y-36739961D01*
X103392544Y-36739961D02*
X103373497Y-36692342D01*
X103373497Y-36692342D02*
X103354449Y-36597104D01*
X103354449Y-36597104D02*
X103354449Y-36525676D01*
X103354449Y-36525676D02*
X103373497Y-36430438D01*
X103373497Y-36430438D02*
X103392544Y-36382819D01*
X103392544Y-36382819D02*
X103430639Y-36335200D01*
X103430639Y-36335200D02*
X103487782Y-36311390D01*
X103487782Y-36311390D02*
X103583020Y-36311390D01*
X103202068Y-36454247D02*
X103011592Y-36454247D01*
X103240163Y-36311390D02*
X103106830Y-36811390D01*
X103106830Y-36811390D02*
X102973497Y-36311390D01*
X102935402Y-36263771D02*
X102630640Y-36263771D01*
X102592544Y-36811390D02*
X102363973Y-36811390D01*
X102478259Y-36311390D02*
X102478259Y-36811390D01*
X111283020Y-36235200D02*
X111225877Y-36211390D01*
X111225877Y-36211390D02*
X111130639Y-36211390D01*
X111130639Y-36211390D02*
X111092544Y-36235200D01*
X111092544Y-36235200D02*
X111073496Y-36259009D01*
X111073496Y-36259009D02*
X111054449Y-36306628D01*
X111054449Y-36306628D02*
X111054449Y-36354247D01*
X111054449Y-36354247D02*
X111073496Y-36401866D01*
X111073496Y-36401866D02*
X111092544Y-36425676D01*
X111092544Y-36425676D02*
X111130639Y-36449485D01*
X111130639Y-36449485D02*
X111206830Y-36473295D01*
X111206830Y-36473295D02*
X111244925Y-36497104D01*
X111244925Y-36497104D02*
X111263972Y-36520914D01*
X111263972Y-36520914D02*
X111283020Y-36568533D01*
X111283020Y-36568533D02*
X111283020Y-36616152D01*
X111283020Y-36616152D02*
X111263972Y-36663771D01*
X111263972Y-36663771D02*
X111244925Y-36687580D01*
X111244925Y-36687580D02*
X111206830Y-36711390D01*
X111206830Y-36711390D02*
X111111591Y-36711390D01*
X111111591Y-36711390D02*
X111054449Y-36687580D01*
X110883020Y-36211390D02*
X110883020Y-36711390D01*
X110883020Y-36711390D02*
X110787782Y-36711390D01*
X110787782Y-36711390D02*
X110730639Y-36687580D01*
X110730639Y-36687580D02*
X110692544Y-36639961D01*
X110692544Y-36639961D02*
X110673497Y-36592342D01*
X110673497Y-36592342D02*
X110654449Y-36497104D01*
X110654449Y-36497104D02*
X110654449Y-36425676D01*
X110654449Y-36425676D02*
X110673497Y-36330438D01*
X110673497Y-36330438D02*
X110692544Y-36282819D01*
X110692544Y-36282819D02*
X110730639Y-36235200D01*
X110730639Y-36235200D02*
X110787782Y-36211390D01*
X110787782Y-36211390D02*
X110883020Y-36211390D01*
X110502068Y-36354247D02*
X110311592Y-36354247D01*
X110540163Y-36211390D02*
X110406830Y-36711390D01*
X110406830Y-36711390D02*
X110273497Y-36211390D01*
X110235402Y-36163771D02*
X109930640Y-36163771D01*
X109835401Y-36211390D02*
X109835401Y-36711390D01*
X109835401Y-36711390D02*
X109683020Y-36711390D01*
X109683020Y-36711390D02*
X109644925Y-36687580D01*
X109644925Y-36687580D02*
X109625878Y-36663771D01*
X109625878Y-36663771D02*
X109606830Y-36616152D01*
X109606830Y-36616152D02*
X109606830Y-36544723D01*
X109606830Y-36544723D02*
X109625878Y-36497104D01*
X109625878Y-36497104D02*
X109644925Y-36473295D01*
X109644925Y-36473295D02*
X109683020Y-36449485D01*
X109683020Y-36449485D02*
X109835401Y-36449485D01*
D12*
X113259320Y-64788409D02*
X113297415Y-64674123D01*
X113297415Y-64674123D02*
X113297415Y-64483647D01*
X113297415Y-64483647D02*
X113259320Y-64407456D01*
X113259320Y-64407456D02*
X113221224Y-64369361D01*
X113221224Y-64369361D02*
X113145034Y-64331266D01*
X113145034Y-64331266D02*
X113068843Y-64331266D01*
X113068843Y-64331266D02*
X112992653Y-64369361D01*
X112992653Y-64369361D02*
X112954558Y-64407456D01*
X112954558Y-64407456D02*
X112916462Y-64483647D01*
X112916462Y-64483647D02*
X112878367Y-64636028D01*
X112878367Y-64636028D02*
X112840272Y-64712218D01*
X112840272Y-64712218D02*
X112802177Y-64750313D01*
X112802177Y-64750313D02*
X112725986Y-64788409D01*
X112725986Y-64788409D02*
X112649796Y-64788409D01*
X112649796Y-64788409D02*
X112573605Y-64750313D01*
X112573605Y-64750313D02*
X112535510Y-64712218D01*
X112535510Y-64712218D02*
X112497415Y-64636028D01*
X112497415Y-64636028D02*
X112497415Y-64445551D01*
X112497415Y-64445551D02*
X112535510Y-64331266D01*
X113297415Y-63988408D02*
X112497415Y-63988408D01*
X112497415Y-63988408D02*
X112497415Y-63797932D01*
X112497415Y-63797932D02*
X112535510Y-63683646D01*
X112535510Y-63683646D02*
X112611700Y-63607456D01*
X112611700Y-63607456D02*
X112687891Y-63569361D01*
X112687891Y-63569361D02*
X112840272Y-63531265D01*
X112840272Y-63531265D02*
X112954558Y-63531265D01*
X112954558Y-63531265D02*
X113106939Y-63569361D01*
X113106939Y-63569361D02*
X113183129Y-63607456D01*
X113183129Y-63607456D02*
X113259320Y-63683646D01*
X113259320Y-63683646D02*
X113297415Y-63797932D01*
X113297415Y-63797932D02*
X113297415Y-63988408D01*
X113068843Y-63226504D02*
X113068843Y-62845551D01*
X113297415Y-63302694D02*
X112497415Y-63036027D01*
X112497415Y-63036027D02*
X113297415Y-62769361D01*
D11*
X127847035Y-77524687D02*
X127808940Y-77600877D01*
X127808940Y-77600877D02*
X127808940Y-77715163D01*
X127808940Y-77715163D02*
X127847035Y-77829449D01*
X127847035Y-77829449D02*
X127923225Y-77905639D01*
X127923225Y-77905639D02*
X127999416Y-77943734D01*
X127999416Y-77943734D02*
X128151797Y-77981830D01*
X128151797Y-77981830D02*
X128266083Y-77981830D01*
X128266083Y-77981830D02*
X128418464Y-77943734D01*
X128418464Y-77943734D02*
X128494654Y-77905639D01*
X128494654Y-77905639D02*
X128570845Y-77829449D01*
X128570845Y-77829449D02*
X128608940Y-77715163D01*
X128608940Y-77715163D02*
X128608940Y-77638972D01*
X128608940Y-77638972D02*
X128570845Y-77524687D01*
X128570845Y-77524687D02*
X128532749Y-77486591D01*
X128532749Y-77486591D02*
X128266083Y-77486591D01*
X128266083Y-77486591D02*
X128266083Y-77638972D01*
X128608940Y-77143734D02*
X127808940Y-77143734D01*
X127808940Y-77143734D02*
X128608940Y-76686591D01*
X128608940Y-76686591D02*
X127808940Y-76686591D01*
X128608940Y-76305639D02*
X127808940Y-76305639D01*
X127808940Y-76305639D02*
X127808940Y-76115163D01*
X127808940Y-76115163D02*
X127847035Y-76000877D01*
X127847035Y-76000877D02*
X127923225Y-75924687D01*
X127923225Y-75924687D02*
X127999416Y-75886592D01*
X127999416Y-75886592D02*
X128151797Y-75848496D01*
X128151797Y-75848496D02*
X128266083Y-75848496D01*
X128266083Y-75848496D02*
X128418464Y-75886592D01*
X128418464Y-75886592D02*
X128494654Y-75924687D01*
X128494654Y-75924687D02*
X128570845Y-76000877D01*
X128570845Y-76000877D02*
X128608940Y-76115163D01*
X128608940Y-76115163D02*
X128608940Y-76305639D01*
X131096895Y-77943734D02*
X130296895Y-77943734D01*
X130296895Y-77943734D02*
X130868323Y-77677068D01*
X130868323Y-77677068D02*
X130296895Y-77410401D01*
X130296895Y-77410401D02*
X131096895Y-77410401D01*
X130296895Y-76877067D02*
X130296895Y-76724686D01*
X130296895Y-76724686D02*
X130334990Y-76648496D01*
X130334990Y-76648496D02*
X130411180Y-76572305D01*
X130411180Y-76572305D02*
X130563561Y-76534210D01*
X130563561Y-76534210D02*
X130830228Y-76534210D01*
X130830228Y-76534210D02*
X130982609Y-76572305D01*
X130982609Y-76572305D02*
X131058800Y-76648496D01*
X131058800Y-76648496D02*
X131096895Y-76724686D01*
X131096895Y-76724686D02*
X131096895Y-76877067D01*
X131096895Y-76877067D02*
X131058800Y-76953258D01*
X131058800Y-76953258D02*
X130982609Y-77029448D01*
X130982609Y-77029448D02*
X130830228Y-77067544D01*
X130830228Y-77067544D02*
X130563561Y-77067544D01*
X130563561Y-77067544D02*
X130411180Y-77029448D01*
X130411180Y-77029448D02*
X130334990Y-76953258D01*
X130334990Y-76953258D02*
X130296895Y-76877067D01*
X131058800Y-76229449D02*
X131096895Y-76115163D01*
X131096895Y-76115163D02*
X131096895Y-75924687D01*
X131096895Y-75924687D02*
X131058800Y-75848496D01*
X131058800Y-75848496D02*
X131020704Y-75810401D01*
X131020704Y-75810401D02*
X130944514Y-75772306D01*
X130944514Y-75772306D02*
X130868323Y-75772306D01*
X130868323Y-75772306D02*
X130792133Y-75810401D01*
X130792133Y-75810401D02*
X130754038Y-75848496D01*
X130754038Y-75848496D02*
X130715942Y-75924687D01*
X130715942Y-75924687D02*
X130677847Y-76077068D01*
X130677847Y-76077068D02*
X130639752Y-76153258D01*
X130639752Y-76153258D02*
X130601657Y-76191353D01*
X130601657Y-76191353D02*
X130525466Y-76229449D01*
X130525466Y-76229449D02*
X130449276Y-76229449D01*
X130449276Y-76229449D02*
X130373085Y-76191353D01*
X130373085Y-76191353D02*
X130334990Y-76153258D01*
X130334990Y-76153258D02*
X130296895Y-76077068D01*
X130296895Y-76077068D02*
X130296895Y-75886591D01*
X130296895Y-75886591D02*
X130334990Y-75772306D01*
X131096895Y-75429448D02*
X130296895Y-75429448D01*
X133592133Y-77743734D02*
X133592133Y-77134211D01*
X133896895Y-77438972D02*
X133287371Y-77438972D01*
X133096895Y-76372306D02*
X133096895Y-76753258D01*
X133096895Y-76753258D02*
X133477847Y-76791354D01*
X133477847Y-76791354D02*
X133439752Y-76753258D01*
X133439752Y-76753258D02*
X133401657Y-76677068D01*
X133401657Y-76677068D02*
X133401657Y-76486592D01*
X133401657Y-76486592D02*
X133439752Y-76410401D01*
X133439752Y-76410401D02*
X133477847Y-76372306D01*
X133477847Y-76372306D02*
X133554038Y-76334211D01*
X133554038Y-76334211D02*
X133744514Y-76334211D01*
X133744514Y-76334211D02*
X133820704Y-76372306D01*
X133820704Y-76372306D02*
X133858800Y-76410401D01*
X133858800Y-76410401D02*
X133896895Y-76486592D01*
X133896895Y-76486592D02*
X133896895Y-76677068D01*
X133896895Y-76677068D02*
X133858800Y-76753258D01*
X133858800Y-76753258D02*
X133820704Y-76791354D01*
X133096895Y-76105639D02*
X133896895Y-75838972D01*
X133896895Y-75838972D02*
X133096895Y-75572306D01*
X133585789Y-58353561D02*
X132976265Y-58582133D01*
X132976265Y-58582133D02*
X133585789Y-58810704D01*
X134233407Y-58467847D02*
X133966741Y-58467847D01*
X133966741Y-58886895D02*
X133966741Y-58086895D01*
X133966741Y-58086895D02*
X134347693Y-58086895D01*
X134652455Y-58886895D02*
X134652455Y-58353561D01*
X134652455Y-58086895D02*
X134614359Y-58124990D01*
X134614359Y-58124990D02*
X134652455Y-58163085D01*
X134652455Y-58163085D02*
X134690550Y-58124990D01*
X134690550Y-58124990D02*
X134652455Y-58086895D01*
X134652455Y-58086895D02*
X134652455Y-58163085D01*
X134957216Y-58886895D02*
X135376264Y-58353561D01*
X134957216Y-58353561D02*
X135376264Y-58886895D01*
X135490550Y-58963085D02*
X136100073Y-58963085D01*
X136252454Y-58848800D02*
X136366740Y-58886895D01*
X136366740Y-58886895D02*
X136557216Y-58886895D01*
X136557216Y-58886895D02*
X136633407Y-58848800D01*
X136633407Y-58848800D02*
X136671502Y-58810704D01*
X136671502Y-58810704D02*
X136709597Y-58734514D01*
X136709597Y-58734514D02*
X136709597Y-58658323D01*
X136709597Y-58658323D02*
X136671502Y-58582133D01*
X136671502Y-58582133D02*
X136633407Y-58544038D01*
X136633407Y-58544038D02*
X136557216Y-58505942D01*
X136557216Y-58505942D02*
X136404835Y-58467847D01*
X136404835Y-58467847D02*
X136328645Y-58429752D01*
X136328645Y-58429752D02*
X136290550Y-58391657D01*
X136290550Y-58391657D02*
X136252454Y-58315466D01*
X136252454Y-58315466D02*
X136252454Y-58239276D01*
X136252454Y-58239276D02*
X136290550Y-58163085D01*
X136290550Y-58163085D02*
X136328645Y-58124990D01*
X136328645Y-58124990D02*
X136404835Y-58086895D01*
X136404835Y-58086895D02*
X136595312Y-58086895D01*
X136595312Y-58086895D02*
X136709597Y-58124990D01*
X137395312Y-58886895D02*
X137395312Y-58467847D01*
X137395312Y-58467847D02*
X137357217Y-58391657D01*
X137357217Y-58391657D02*
X137281026Y-58353561D01*
X137281026Y-58353561D02*
X137128645Y-58353561D01*
X137128645Y-58353561D02*
X137052455Y-58391657D01*
X137395312Y-58848800D02*
X137319121Y-58886895D01*
X137319121Y-58886895D02*
X137128645Y-58886895D01*
X137128645Y-58886895D02*
X137052455Y-58848800D01*
X137052455Y-58848800D02*
X137014359Y-58772609D01*
X137014359Y-58772609D02*
X137014359Y-58696419D01*
X137014359Y-58696419D02*
X137052455Y-58620228D01*
X137052455Y-58620228D02*
X137128645Y-58582133D01*
X137128645Y-58582133D02*
X137319121Y-58582133D01*
X137319121Y-58582133D02*
X137395312Y-58544038D01*
X137661979Y-58353561D02*
X137966741Y-58353561D01*
X137776265Y-58086895D02*
X137776265Y-58772609D01*
X137776265Y-58772609D02*
X137814360Y-58848800D01*
X137814360Y-58848800D02*
X137890550Y-58886895D01*
X137890550Y-58886895D02*
X137966741Y-58886895D01*
X161656265Y-51792133D02*
X162265789Y-51792133D01*
X161961027Y-52096895D02*
X161961027Y-51487371D01*
X163027693Y-51296895D02*
X162646741Y-51296895D01*
X162646741Y-51296895D02*
X162608645Y-51677847D01*
X162608645Y-51677847D02*
X162646741Y-51639752D01*
X162646741Y-51639752D02*
X162722931Y-51601657D01*
X162722931Y-51601657D02*
X162913407Y-51601657D01*
X162913407Y-51601657D02*
X162989598Y-51639752D01*
X162989598Y-51639752D02*
X163027693Y-51677847D01*
X163027693Y-51677847D02*
X163065788Y-51754038D01*
X163065788Y-51754038D02*
X163065788Y-51944514D01*
X163065788Y-51944514D02*
X163027693Y-52020704D01*
X163027693Y-52020704D02*
X162989598Y-52058800D01*
X162989598Y-52058800D02*
X162913407Y-52096895D01*
X162913407Y-52096895D02*
X162722931Y-52096895D01*
X162722931Y-52096895D02*
X162646741Y-52058800D01*
X162646741Y-52058800D02*
X162608645Y-52020704D01*
X163294360Y-51296895D02*
X163561027Y-52096895D01*
X163561027Y-52096895D02*
X163827693Y-51296895D01*
X99018169Y-61058800D02*
X99132455Y-61096895D01*
X99132455Y-61096895D02*
X99322931Y-61096895D01*
X99322931Y-61096895D02*
X99399122Y-61058800D01*
X99399122Y-61058800D02*
X99437217Y-61020704D01*
X99437217Y-61020704D02*
X99475312Y-60944514D01*
X99475312Y-60944514D02*
X99475312Y-60868323D01*
X99475312Y-60868323D02*
X99437217Y-60792133D01*
X99437217Y-60792133D02*
X99399122Y-60754038D01*
X99399122Y-60754038D02*
X99322931Y-60715942D01*
X99322931Y-60715942D02*
X99170550Y-60677847D01*
X99170550Y-60677847D02*
X99094360Y-60639752D01*
X99094360Y-60639752D02*
X99056265Y-60601657D01*
X99056265Y-60601657D02*
X99018169Y-60525466D01*
X99018169Y-60525466D02*
X99018169Y-60449276D01*
X99018169Y-60449276D02*
X99056265Y-60373085D01*
X99056265Y-60373085D02*
X99094360Y-60334990D01*
X99094360Y-60334990D02*
X99170550Y-60296895D01*
X99170550Y-60296895D02*
X99361027Y-60296895D01*
X99361027Y-60296895D02*
X99475312Y-60334990D01*
X99818170Y-60563561D02*
X99818170Y-61363561D01*
X99818170Y-60601657D02*
X99894360Y-60563561D01*
X99894360Y-60563561D02*
X100046741Y-60563561D01*
X100046741Y-60563561D02*
X100122932Y-60601657D01*
X100122932Y-60601657D02*
X100161027Y-60639752D01*
X100161027Y-60639752D02*
X100199122Y-60715942D01*
X100199122Y-60715942D02*
X100199122Y-60944514D01*
X100199122Y-60944514D02*
X100161027Y-61020704D01*
X100161027Y-61020704D02*
X100122932Y-61058800D01*
X100122932Y-61058800D02*
X100046741Y-61096895D01*
X100046741Y-61096895D02*
X99894360Y-61096895D01*
X99894360Y-61096895D02*
X99818170Y-61058800D01*
X100884837Y-61096895D02*
X100884837Y-60677847D01*
X100884837Y-60677847D02*
X100846742Y-60601657D01*
X100846742Y-60601657D02*
X100770551Y-60563561D01*
X100770551Y-60563561D02*
X100618170Y-60563561D01*
X100618170Y-60563561D02*
X100541980Y-60601657D01*
X100884837Y-61058800D02*
X100808646Y-61096895D01*
X100808646Y-61096895D02*
X100618170Y-61096895D01*
X100618170Y-61096895D02*
X100541980Y-61058800D01*
X100541980Y-61058800D02*
X100503884Y-60982609D01*
X100503884Y-60982609D02*
X100503884Y-60906419D01*
X100503884Y-60906419D02*
X100541980Y-60830228D01*
X100541980Y-60830228D02*
X100618170Y-60792133D01*
X100618170Y-60792133D02*
X100808646Y-60792133D01*
X100808646Y-60792133D02*
X100884837Y-60754038D01*
X101265790Y-61096895D02*
X101265790Y-60563561D01*
X101265790Y-60715942D02*
X101303885Y-60639752D01*
X101303885Y-60639752D02*
X101341980Y-60601657D01*
X101341980Y-60601657D02*
X101418171Y-60563561D01*
X101418171Y-60563561D02*
X101494361Y-60563561D01*
X102065790Y-61058800D02*
X101989599Y-61096895D01*
X101989599Y-61096895D02*
X101837218Y-61096895D01*
X101837218Y-61096895D02*
X101761028Y-61058800D01*
X101761028Y-61058800D02*
X101722932Y-60982609D01*
X101722932Y-60982609D02*
X101722932Y-60677847D01*
X101722932Y-60677847D02*
X101761028Y-60601657D01*
X101761028Y-60601657D02*
X101837218Y-60563561D01*
X101837218Y-60563561D02*
X101989599Y-60563561D01*
X101989599Y-60563561D02*
X102065790Y-60601657D01*
X102065790Y-60601657D02*
X102103885Y-60677847D01*
X102103885Y-60677847D02*
X102103885Y-60754038D01*
X102103885Y-60754038D02*
X101722932Y-60830228D01*
X103056266Y-61096895D02*
X103056266Y-60296895D01*
X103399122Y-60373085D02*
X103437218Y-60334990D01*
X103437218Y-60334990D02*
X103513408Y-60296895D01*
X103513408Y-60296895D02*
X103703884Y-60296895D01*
X103703884Y-60296895D02*
X103780075Y-60334990D01*
X103780075Y-60334990D02*
X103818170Y-60373085D01*
X103818170Y-60373085D02*
X103856265Y-60449276D01*
X103856265Y-60449276D02*
X103856265Y-60525466D01*
X103856265Y-60525466D02*
X103818170Y-60639752D01*
X103818170Y-60639752D02*
X103361027Y-61096895D01*
X103361027Y-61096895D02*
X103856265Y-61096895D01*
X104656266Y-61020704D02*
X104618170Y-61058800D01*
X104618170Y-61058800D02*
X104503885Y-61096895D01*
X104503885Y-61096895D02*
X104427694Y-61096895D01*
X104427694Y-61096895D02*
X104313408Y-61058800D01*
X104313408Y-61058800D02*
X104237218Y-60982609D01*
X104237218Y-60982609D02*
X104199123Y-60906419D01*
X104199123Y-60906419D02*
X104161027Y-60754038D01*
X104161027Y-60754038D02*
X104161027Y-60639752D01*
X104161027Y-60639752D02*
X104199123Y-60487371D01*
X104199123Y-60487371D02*
X104237218Y-60411180D01*
X104237218Y-60411180D02*
X104313408Y-60334990D01*
X104313408Y-60334990D02*
X104427694Y-60296895D01*
X104427694Y-60296895D02*
X104503885Y-60296895D01*
X104503885Y-60296895D02*
X104618170Y-60334990D01*
X104618170Y-60334990D02*
X104656266Y-60373085D01*
X105608647Y-61096895D02*
X105608647Y-60296895D01*
X105608647Y-60296895D02*
X105913409Y-60296895D01*
X105913409Y-60296895D02*
X105989599Y-60334990D01*
X105989599Y-60334990D02*
X106027694Y-60373085D01*
X106027694Y-60373085D02*
X106065790Y-60449276D01*
X106065790Y-60449276D02*
X106065790Y-60563561D01*
X106065790Y-60563561D02*
X106027694Y-60639752D01*
X106027694Y-60639752D02*
X105989599Y-60677847D01*
X105989599Y-60677847D02*
X105913409Y-60715942D01*
X105913409Y-60715942D02*
X105608647Y-60715942D01*
X106522932Y-61096895D02*
X106446742Y-61058800D01*
X106446742Y-61058800D02*
X106408647Y-61020704D01*
X106408647Y-61020704D02*
X106370551Y-60944514D01*
X106370551Y-60944514D02*
X106370551Y-60715942D01*
X106370551Y-60715942D02*
X106408647Y-60639752D01*
X106408647Y-60639752D02*
X106446742Y-60601657D01*
X106446742Y-60601657D02*
X106522932Y-60563561D01*
X106522932Y-60563561D02*
X106637218Y-60563561D01*
X106637218Y-60563561D02*
X106713409Y-60601657D01*
X106713409Y-60601657D02*
X106751504Y-60639752D01*
X106751504Y-60639752D02*
X106789599Y-60715942D01*
X106789599Y-60715942D02*
X106789599Y-60944514D01*
X106789599Y-60944514D02*
X106751504Y-61020704D01*
X106751504Y-61020704D02*
X106713409Y-61058800D01*
X106713409Y-61058800D02*
X106637218Y-61096895D01*
X106637218Y-61096895D02*
X106522932Y-61096895D01*
X107132457Y-61096895D02*
X107132457Y-60563561D01*
X107132457Y-60715942D02*
X107170552Y-60639752D01*
X107170552Y-60639752D02*
X107208647Y-60601657D01*
X107208647Y-60601657D02*
X107284838Y-60563561D01*
X107284838Y-60563561D02*
X107361028Y-60563561D01*
X107513409Y-60563561D02*
X107818171Y-60563561D01*
X107627695Y-60296895D02*
X107627695Y-60982609D01*
X107627695Y-60982609D02*
X107665790Y-61058800D01*
X107665790Y-61058800D02*
X107741980Y-61096895D01*
X107741980Y-61096895D02*
X107818171Y-61096895D01*
X108046742Y-61058800D02*
X108122933Y-61096895D01*
X108122933Y-61096895D02*
X108275314Y-61096895D01*
X108275314Y-61096895D02*
X108351504Y-61058800D01*
X108351504Y-61058800D02*
X108389600Y-60982609D01*
X108389600Y-60982609D02*
X108389600Y-60944514D01*
X108389600Y-60944514D02*
X108351504Y-60868323D01*
X108351504Y-60868323D02*
X108275314Y-60830228D01*
X108275314Y-60830228D02*
X108161028Y-60830228D01*
X108161028Y-60830228D02*
X108084838Y-60792133D01*
X108084838Y-60792133D02*
X108046742Y-60715942D01*
X108046742Y-60715942D02*
X108046742Y-60677847D01*
X108046742Y-60677847D02*
X108084838Y-60601657D01*
X108084838Y-60601657D02*
X108161028Y-60563561D01*
X108161028Y-60563561D02*
X108275314Y-60563561D01*
X108275314Y-60563561D02*
X108351504Y-60601657D01*
X109341981Y-60792133D02*
X109951505Y-60792133D01*
X109646743Y-61096895D02*
X109646743Y-60487371D01*
X110713409Y-60296895D02*
X110332457Y-60296895D01*
X110332457Y-60296895D02*
X110294361Y-60677847D01*
X110294361Y-60677847D02*
X110332457Y-60639752D01*
X110332457Y-60639752D02*
X110408647Y-60601657D01*
X110408647Y-60601657D02*
X110599123Y-60601657D01*
X110599123Y-60601657D02*
X110675314Y-60639752D01*
X110675314Y-60639752D02*
X110713409Y-60677847D01*
X110713409Y-60677847D02*
X110751504Y-60754038D01*
X110751504Y-60754038D02*
X110751504Y-60944514D01*
X110751504Y-60944514D02*
X110713409Y-61020704D01*
X110713409Y-61020704D02*
X110675314Y-61058800D01*
X110675314Y-61058800D02*
X110599123Y-61096895D01*
X110599123Y-61096895D02*
X110408647Y-61096895D01*
X110408647Y-61096895D02*
X110332457Y-61058800D01*
X110332457Y-61058800D02*
X110294361Y-61020704D01*
X110980076Y-60296895D02*
X111246743Y-61096895D01*
X111246743Y-61096895D02*
X111513409Y-60296895D01*
X101328104Y-31153646D02*
X101328104Y-31306027D01*
X101328104Y-31306027D02*
X101290009Y-31382217D01*
X101290009Y-31382217D02*
X101213819Y-31458408D01*
X101213819Y-31458408D02*
X101061438Y-31496503D01*
X101061438Y-31496503D02*
X100794771Y-31496503D01*
X100794771Y-31496503D02*
X100642390Y-31458408D01*
X100642390Y-31458408D02*
X100566200Y-31382217D01*
X100566200Y-31382217D02*
X100528104Y-31306027D01*
X100528104Y-31306027D02*
X100528104Y-31153646D01*
X100528104Y-31153646D02*
X100566200Y-31077455D01*
X100566200Y-31077455D02*
X100642390Y-31001265D01*
X100642390Y-31001265D02*
X100794771Y-30963169D01*
X100794771Y-30963169D02*
X101061438Y-30963169D01*
X101061438Y-30963169D02*
X101213819Y-31001265D01*
X101213819Y-31001265D02*
X101290009Y-31077455D01*
X101290009Y-31077455D02*
X101328104Y-31153646D01*
X101061438Y-32182217D02*
X100528104Y-32182217D01*
X101061438Y-31839360D02*
X100642390Y-31839360D01*
X100642390Y-31839360D02*
X100566200Y-31877455D01*
X100566200Y-31877455D02*
X100528104Y-31953645D01*
X100528104Y-31953645D02*
X100528104Y-32067931D01*
X100528104Y-32067931D02*
X100566200Y-32144122D01*
X100566200Y-32144122D02*
X100604295Y-32182217D01*
X101061438Y-32448884D02*
X101061438Y-32753646D01*
X101328104Y-32563170D02*
X100642390Y-32563170D01*
X100642390Y-32563170D02*
X100566200Y-32601265D01*
X100566200Y-32601265D02*
X100528104Y-32677455D01*
X100528104Y-32677455D02*
X100528104Y-32753646D01*
X101328104Y-32906027D02*
X101328104Y-33363170D01*
X100528104Y-33134598D02*
X101328104Y-33134598D01*
X100566200Y-33934599D02*
X100528104Y-33858408D01*
X100528104Y-33858408D02*
X100528104Y-33706027D01*
X100528104Y-33706027D02*
X100566200Y-33629837D01*
X100566200Y-33629837D02*
X100642390Y-33591741D01*
X100642390Y-33591741D02*
X100947152Y-33591741D01*
X100947152Y-33591741D02*
X101023342Y-33629837D01*
X101023342Y-33629837D02*
X101061438Y-33706027D01*
X101061438Y-33706027D02*
X101061438Y-33858408D01*
X101061438Y-33858408D02*
X101023342Y-33934599D01*
X101023342Y-33934599D02*
X100947152Y-33972694D01*
X100947152Y-33972694D02*
X100870961Y-33972694D01*
X100870961Y-33972694D02*
X100794771Y-33591741D01*
X100528104Y-34315551D02*
X101061438Y-34315551D01*
X100985247Y-34315551D02*
X101023342Y-34353646D01*
X101023342Y-34353646D02*
X101061438Y-34429836D01*
X101061438Y-34429836D02*
X101061438Y-34544122D01*
X101061438Y-34544122D02*
X101023342Y-34620313D01*
X101023342Y-34620313D02*
X100947152Y-34658408D01*
X100947152Y-34658408D02*
X100528104Y-34658408D01*
X100947152Y-34658408D02*
X101023342Y-34696503D01*
X101023342Y-34696503D02*
X101061438Y-34772694D01*
X101061438Y-34772694D02*
X101061438Y-34886979D01*
X101061438Y-34886979D02*
X101023342Y-34963170D01*
X101023342Y-34963170D02*
X100947152Y-35001265D01*
X100947152Y-35001265D02*
X100528104Y-35001265D01*
X101061438Y-35382218D02*
X100261438Y-35382218D01*
X101023342Y-35382218D02*
X101061438Y-35458408D01*
X101061438Y-35458408D02*
X101061438Y-35610789D01*
X101061438Y-35610789D02*
X101023342Y-35686980D01*
X101023342Y-35686980D02*
X100985247Y-35725075D01*
X100985247Y-35725075D02*
X100909057Y-35763170D01*
X100909057Y-35763170D02*
X100680485Y-35763170D01*
X100680485Y-35763170D02*
X100604295Y-35725075D01*
X100604295Y-35725075D02*
X100566200Y-35686980D01*
X100566200Y-35686980D02*
X100528104Y-35610789D01*
X100528104Y-35610789D02*
X100528104Y-35458408D01*
X100528104Y-35458408D02*
X100566200Y-35382218D01*
X109328104Y-30801265D02*
X110128104Y-30801265D01*
X110128104Y-30801265D02*
X110128104Y-31106027D01*
X110128104Y-31106027D02*
X110090009Y-31182217D01*
X110090009Y-31182217D02*
X110051914Y-31220312D01*
X110051914Y-31220312D02*
X109975723Y-31258408D01*
X109975723Y-31258408D02*
X109861438Y-31258408D01*
X109861438Y-31258408D02*
X109785247Y-31220312D01*
X109785247Y-31220312D02*
X109747152Y-31182217D01*
X109747152Y-31182217D02*
X109709057Y-31106027D01*
X109709057Y-31106027D02*
X109709057Y-30801265D01*
X109328104Y-31601265D02*
X109861438Y-31601265D01*
X109709057Y-31601265D02*
X109785247Y-31639360D01*
X109785247Y-31639360D02*
X109823342Y-31677455D01*
X109823342Y-31677455D02*
X109861438Y-31753646D01*
X109861438Y-31753646D02*
X109861438Y-31829836D01*
X109366200Y-32401265D02*
X109328104Y-32325074D01*
X109328104Y-32325074D02*
X109328104Y-32172693D01*
X109328104Y-32172693D02*
X109366200Y-32096503D01*
X109366200Y-32096503D02*
X109442390Y-32058407D01*
X109442390Y-32058407D02*
X109747152Y-32058407D01*
X109747152Y-32058407D02*
X109823342Y-32096503D01*
X109823342Y-32096503D02*
X109861438Y-32172693D01*
X109861438Y-32172693D02*
X109861438Y-32325074D01*
X109861438Y-32325074D02*
X109823342Y-32401265D01*
X109823342Y-32401265D02*
X109747152Y-32439360D01*
X109747152Y-32439360D02*
X109670961Y-32439360D01*
X109670961Y-32439360D02*
X109594771Y-32058407D01*
X109366200Y-32744121D02*
X109328104Y-32820312D01*
X109328104Y-32820312D02*
X109328104Y-32972693D01*
X109328104Y-32972693D02*
X109366200Y-33048883D01*
X109366200Y-33048883D02*
X109442390Y-33086979D01*
X109442390Y-33086979D02*
X109480485Y-33086979D01*
X109480485Y-33086979D02*
X109556676Y-33048883D01*
X109556676Y-33048883D02*
X109594771Y-32972693D01*
X109594771Y-32972693D02*
X109594771Y-32858407D01*
X109594771Y-32858407D02*
X109632866Y-32782217D01*
X109632866Y-32782217D02*
X109709057Y-32744121D01*
X109709057Y-32744121D02*
X109747152Y-32744121D01*
X109747152Y-32744121D02*
X109823342Y-32782217D01*
X109823342Y-32782217D02*
X109861438Y-32858407D01*
X109861438Y-32858407D02*
X109861438Y-32972693D01*
X109861438Y-32972693D02*
X109823342Y-33048883D01*
X109366200Y-33391740D02*
X109328104Y-33467931D01*
X109328104Y-33467931D02*
X109328104Y-33620312D01*
X109328104Y-33620312D02*
X109366200Y-33696502D01*
X109366200Y-33696502D02*
X109442390Y-33734598D01*
X109442390Y-33734598D02*
X109480485Y-33734598D01*
X109480485Y-33734598D02*
X109556676Y-33696502D01*
X109556676Y-33696502D02*
X109594771Y-33620312D01*
X109594771Y-33620312D02*
X109594771Y-33506026D01*
X109594771Y-33506026D02*
X109632866Y-33429836D01*
X109632866Y-33429836D02*
X109709057Y-33391740D01*
X109709057Y-33391740D02*
X109747152Y-33391740D01*
X109747152Y-33391740D02*
X109823342Y-33429836D01*
X109823342Y-33429836D02*
X109861438Y-33506026D01*
X109861438Y-33506026D02*
X109861438Y-33620312D01*
X109861438Y-33620312D02*
X109823342Y-33696502D01*
X109861438Y-34420312D02*
X109328104Y-34420312D01*
X109861438Y-34077455D02*
X109442390Y-34077455D01*
X109442390Y-34077455D02*
X109366200Y-34115550D01*
X109366200Y-34115550D02*
X109328104Y-34191740D01*
X109328104Y-34191740D02*
X109328104Y-34306026D01*
X109328104Y-34306026D02*
X109366200Y-34382217D01*
X109366200Y-34382217D02*
X109404295Y-34420312D01*
X109328104Y-34801265D02*
X109861438Y-34801265D01*
X109709057Y-34801265D02*
X109785247Y-34839360D01*
X109785247Y-34839360D02*
X109823342Y-34877455D01*
X109823342Y-34877455D02*
X109861438Y-34953646D01*
X109861438Y-34953646D02*
X109861438Y-35029836D01*
X109366200Y-35601265D02*
X109328104Y-35525074D01*
X109328104Y-35525074D02*
X109328104Y-35372693D01*
X109328104Y-35372693D02*
X109366200Y-35296503D01*
X109366200Y-35296503D02*
X109442390Y-35258407D01*
X109442390Y-35258407D02*
X109747152Y-35258407D01*
X109747152Y-35258407D02*
X109823342Y-35296503D01*
X109823342Y-35296503D02*
X109861438Y-35372693D01*
X109861438Y-35372693D02*
X109861438Y-35525074D01*
X109861438Y-35525074D02*
X109823342Y-35601265D01*
X109823342Y-35601265D02*
X109747152Y-35639360D01*
X109747152Y-35639360D02*
X109670961Y-35639360D01*
X109670961Y-35639360D02*
X109594771Y-35258407D01*
D13*
X99657500Y-64765383D02*
X99695595Y-64651097D01*
X99695595Y-64651097D02*
X99695595Y-64460621D01*
X99695595Y-64460621D02*
X99657500Y-64384430D01*
X99657500Y-64384430D02*
X99619404Y-64346335D01*
X99619404Y-64346335D02*
X99543214Y-64308240D01*
X99543214Y-64308240D02*
X99467023Y-64308240D01*
X99467023Y-64308240D02*
X99390833Y-64346335D01*
X99390833Y-64346335D02*
X99352738Y-64384430D01*
X99352738Y-64384430D02*
X99314642Y-64460621D01*
X99314642Y-64460621D02*
X99276547Y-64613002D01*
X99276547Y-64613002D02*
X99238452Y-64689192D01*
X99238452Y-64689192D02*
X99200357Y-64727287D01*
X99200357Y-64727287D02*
X99124166Y-64765383D01*
X99124166Y-64765383D02*
X99047976Y-64765383D01*
X99047976Y-64765383D02*
X98971785Y-64727287D01*
X98971785Y-64727287D02*
X98933690Y-64689192D01*
X98933690Y-64689192D02*
X98895595Y-64613002D01*
X98895595Y-64613002D02*
X98895595Y-64422525D01*
X98895595Y-64422525D02*
X98933690Y-64308240D01*
X99695595Y-63965382D02*
X98895595Y-63965382D01*
X98895595Y-63965382D02*
X98895595Y-63774906D01*
X98895595Y-63774906D02*
X98933690Y-63660620D01*
X98933690Y-63660620D02*
X99009880Y-63584430D01*
X99009880Y-63584430D02*
X99086071Y-63546335D01*
X99086071Y-63546335D02*
X99238452Y-63508239D01*
X99238452Y-63508239D02*
X99352738Y-63508239D01*
X99352738Y-63508239D02*
X99505119Y-63546335D01*
X99505119Y-63546335D02*
X99581309Y-63584430D01*
X99581309Y-63584430D02*
X99657500Y-63660620D01*
X99657500Y-63660620D02*
X99695595Y-63774906D01*
X99695595Y-63774906D02*
X99695595Y-63965382D01*
X99467023Y-63203478D02*
X99467023Y-62822525D01*
X99695595Y-63279668D02*
X98895595Y-63013001D01*
X98895595Y-63013001D02*
X99695595Y-62746335D01*
X97057500Y-64765383D02*
X97095595Y-64651097D01*
X97095595Y-64651097D02*
X97095595Y-64460621D01*
X97095595Y-64460621D02*
X97057500Y-64384430D01*
X97057500Y-64384430D02*
X97019404Y-64346335D01*
X97019404Y-64346335D02*
X96943214Y-64308240D01*
X96943214Y-64308240D02*
X96867023Y-64308240D01*
X96867023Y-64308240D02*
X96790833Y-64346335D01*
X96790833Y-64346335D02*
X96752738Y-64384430D01*
X96752738Y-64384430D02*
X96714642Y-64460621D01*
X96714642Y-64460621D02*
X96676547Y-64613002D01*
X96676547Y-64613002D02*
X96638452Y-64689192D01*
X96638452Y-64689192D02*
X96600357Y-64727287D01*
X96600357Y-64727287D02*
X96524166Y-64765383D01*
X96524166Y-64765383D02*
X96447976Y-64765383D01*
X96447976Y-64765383D02*
X96371785Y-64727287D01*
X96371785Y-64727287D02*
X96333690Y-64689192D01*
X96333690Y-64689192D02*
X96295595Y-64613002D01*
X96295595Y-64613002D02*
X96295595Y-64422525D01*
X96295595Y-64422525D02*
X96333690Y-64308240D01*
X97019404Y-63508239D02*
X97057500Y-63546335D01*
X97057500Y-63546335D02*
X97095595Y-63660620D01*
X97095595Y-63660620D02*
X97095595Y-63736811D01*
X97095595Y-63736811D02*
X97057500Y-63851097D01*
X97057500Y-63851097D02*
X96981309Y-63927287D01*
X96981309Y-63927287D02*
X96905119Y-63965382D01*
X96905119Y-63965382D02*
X96752738Y-64003478D01*
X96752738Y-64003478D02*
X96638452Y-64003478D01*
X96638452Y-64003478D02*
X96486071Y-63965382D01*
X96486071Y-63965382D02*
X96409880Y-63927287D01*
X96409880Y-63927287D02*
X96333690Y-63851097D01*
X96333690Y-63851097D02*
X96295595Y-63736811D01*
X96295595Y-63736811D02*
X96295595Y-63660620D01*
X96295595Y-63660620D02*
X96333690Y-63546335D01*
X96333690Y-63546335D02*
X96371785Y-63508239D01*
X97095595Y-62784430D02*
X97095595Y-63165382D01*
X97095595Y-63165382D02*
X96295595Y-63165382D01*
X94190833Y-64727287D02*
X94190833Y-64117764D01*
X94495595Y-64422525D02*
X93886071Y-64422525D01*
X93695595Y-63355859D02*
X93695595Y-63736811D01*
X93695595Y-63736811D02*
X94076547Y-63774907D01*
X94076547Y-63774907D02*
X94038452Y-63736811D01*
X94038452Y-63736811D02*
X94000357Y-63660621D01*
X94000357Y-63660621D02*
X94000357Y-63470145D01*
X94000357Y-63470145D02*
X94038452Y-63393954D01*
X94038452Y-63393954D02*
X94076547Y-63355859D01*
X94076547Y-63355859D02*
X94152738Y-63317764D01*
X94152738Y-63317764D02*
X94343214Y-63317764D01*
X94343214Y-63317764D02*
X94419404Y-63355859D01*
X94419404Y-63355859D02*
X94457500Y-63393954D01*
X94457500Y-63393954D02*
X94495595Y-63470145D01*
X94495595Y-63470145D02*
X94495595Y-63660621D01*
X94495595Y-63660621D02*
X94457500Y-63736811D01*
X94457500Y-63736811D02*
X94419404Y-63774907D01*
X93695595Y-63089192D02*
X94495595Y-62822525D01*
X94495595Y-62822525D02*
X93695595Y-62555859D01*
X110657500Y-64765383D02*
X110695595Y-64651097D01*
X110695595Y-64651097D02*
X110695595Y-64460621D01*
X110695595Y-64460621D02*
X110657500Y-64384430D01*
X110657500Y-64384430D02*
X110619404Y-64346335D01*
X110619404Y-64346335D02*
X110543214Y-64308240D01*
X110543214Y-64308240D02*
X110467023Y-64308240D01*
X110467023Y-64308240D02*
X110390833Y-64346335D01*
X110390833Y-64346335D02*
X110352738Y-64384430D01*
X110352738Y-64384430D02*
X110314642Y-64460621D01*
X110314642Y-64460621D02*
X110276547Y-64613002D01*
X110276547Y-64613002D02*
X110238452Y-64689192D01*
X110238452Y-64689192D02*
X110200357Y-64727287D01*
X110200357Y-64727287D02*
X110124166Y-64765383D01*
X110124166Y-64765383D02*
X110047976Y-64765383D01*
X110047976Y-64765383D02*
X109971785Y-64727287D01*
X109971785Y-64727287D02*
X109933690Y-64689192D01*
X109933690Y-64689192D02*
X109895595Y-64613002D01*
X109895595Y-64613002D02*
X109895595Y-64422525D01*
X109895595Y-64422525D02*
X109933690Y-64308240D01*
X110619404Y-63508239D02*
X110657500Y-63546335D01*
X110657500Y-63546335D02*
X110695595Y-63660620D01*
X110695595Y-63660620D02*
X110695595Y-63736811D01*
X110695595Y-63736811D02*
X110657500Y-63851097D01*
X110657500Y-63851097D02*
X110581309Y-63927287D01*
X110581309Y-63927287D02*
X110505119Y-63965382D01*
X110505119Y-63965382D02*
X110352738Y-64003478D01*
X110352738Y-64003478D02*
X110238452Y-64003478D01*
X110238452Y-64003478D02*
X110086071Y-63965382D01*
X110086071Y-63965382D02*
X110009880Y-63927287D01*
X110009880Y-63927287D02*
X109933690Y-63851097D01*
X109933690Y-63851097D02*
X109895595Y-63736811D01*
X109895595Y-63736811D02*
X109895595Y-63660620D01*
X109895595Y-63660620D02*
X109933690Y-63546335D01*
X109933690Y-63546335D02*
X109971785Y-63508239D01*
X110695595Y-62784430D02*
X110695595Y-63165382D01*
X110695595Y-63165382D02*
X109895595Y-63165382D01*
X107990833Y-64727287D02*
X107990833Y-64117764D01*
X108295595Y-64422525D02*
X107686071Y-64422525D01*
X107495595Y-63355859D02*
X107495595Y-63736811D01*
X107495595Y-63736811D02*
X107876547Y-63774907D01*
X107876547Y-63774907D02*
X107838452Y-63736811D01*
X107838452Y-63736811D02*
X107800357Y-63660621D01*
X107800357Y-63660621D02*
X107800357Y-63470145D01*
X107800357Y-63470145D02*
X107838452Y-63393954D01*
X107838452Y-63393954D02*
X107876547Y-63355859D01*
X107876547Y-63355859D02*
X107952738Y-63317764D01*
X107952738Y-63317764D02*
X108143214Y-63317764D01*
X108143214Y-63317764D02*
X108219404Y-63355859D01*
X108219404Y-63355859D02*
X108257500Y-63393954D01*
X108257500Y-63393954D02*
X108295595Y-63470145D01*
X108295595Y-63470145D02*
X108295595Y-63660621D01*
X108295595Y-63660621D02*
X108257500Y-63736811D01*
X108257500Y-63736811D02*
X108219404Y-63774907D01*
X107495595Y-63089192D02*
X108295595Y-62822525D01*
X108295595Y-62822525D02*
X107495595Y-62555859D01*
D14*
X169187214Y-55490714D02*
X168437214Y-55490714D01*
X168437214Y-55490714D02*
X168437214Y-55312143D01*
X168437214Y-55312143D02*
X168472928Y-55205000D01*
X168472928Y-55205000D02*
X168544357Y-55133571D01*
X168544357Y-55133571D02*
X168615785Y-55097857D01*
X168615785Y-55097857D02*
X168758642Y-55062143D01*
X168758642Y-55062143D02*
X168865785Y-55062143D01*
X168865785Y-55062143D02*
X169008642Y-55097857D01*
X169008642Y-55097857D02*
X169080071Y-55133571D01*
X169080071Y-55133571D02*
X169151500Y-55205000D01*
X169151500Y-55205000D02*
X169187214Y-55312143D01*
X169187214Y-55312143D02*
X169187214Y-55490714D01*
X169187214Y-54347857D02*
X169187214Y-54776428D01*
X169187214Y-54562143D02*
X168437214Y-54562143D01*
X168437214Y-54562143D02*
X168544357Y-54633571D01*
X168544357Y-54633571D02*
X168615785Y-54705000D01*
X168615785Y-54705000D02*
X168651500Y-54776428D01*
X169187214Y-53633571D02*
X169187214Y-54062142D01*
X169187214Y-53847857D02*
X168437214Y-53847857D01*
X168437214Y-53847857D02*
X168544357Y-53919285D01*
X168544357Y-53919285D02*
X168615785Y-53990714D01*
X168615785Y-53990714D02*
X168651500Y-54062142D01*
X108475785Y-42514666D02*
X108511500Y-42550380D01*
X108511500Y-42550380D02*
X108547214Y-42657523D01*
X108547214Y-42657523D02*
X108547214Y-42728951D01*
X108547214Y-42728951D02*
X108511500Y-42836094D01*
X108511500Y-42836094D02*
X108440071Y-42907523D01*
X108440071Y-42907523D02*
X108368642Y-42943237D01*
X108368642Y-42943237D02*
X108225785Y-42978951D01*
X108225785Y-42978951D02*
X108118642Y-42978951D01*
X108118642Y-42978951D02*
X107975785Y-42943237D01*
X107975785Y-42943237D02*
X107904357Y-42907523D01*
X107904357Y-42907523D02*
X107832928Y-42836094D01*
X107832928Y-42836094D02*
X107797214Y-42728951D01*
X107797214Y-42728951D02*
X107797214Y-42657523D01*
X107797214Y-42657523D02*
X107832928Y-42550380D01*
X107832928Y-42550380D02*
X107868642Y-42514666D01*
X108547214Y-41800380D02*
X108547214Y-42228951D01*
X108547214Y-42014666D02*
X107797214Y-42014666D01*
X107797214Y-42014666D02*
X107904357Y-42086094D01*
X107904357Y-42086094D02*
X107975785Y-42157523D01*
X107975785Y-42157523D02*
X108011500Y-42228951D01*
X172089714Y-50567142D02*
X172625428Y-50567142D01*
X172625428Y-50567142D02*
X172732571Y-50602857D01*
X172732571Y-50602857D02*
X172804000Y-50674285D01*
X172804000Y-50674285D02*
X172839714Y-50781428D01*
X172839714Y-50781428D02*
X172839714Y-50852857D01*
X172839714Y-49817142D02*
X172839714Y-50245713D01*
X172839714Y-50031428D02*
X172089714Y-50031428D01*
X172089714Y-50031428D02*
X172196857Y-50102856D01*
X172196857Y-50102856D02*
X172268285Y-50174285D01*
X172268285Y-50174285D02*
X172304000Y-50245713D01*
X172089714Y-49138570D02*
X172089714Y-49495713D01*
X172089714Y-49495713D02*
X172446857Y-49531427D01*
X172446857Y-49531427D02*
X172411142Y-49495713D01*
X172411142Y-49495713D02*
X172375428Y-49424285D01*
X172375428Y-49424285D02*
X172375428Y-49245713D01*
X172375428Y-49245713D02*
X172411142Y-49174285D01*
X172411142Y-49174285D02*
X172446857Y-49138570D01*
X172446857Y-49138570D02*
X172518285Y-49102856D01*
X172518285Y-49102856D02*
X172696857Y-49102856D01*
X172696857Y-49102856D02*
X172768285Y-49138570D01*
X172768285Y-49138570D02*
X172804000Y-49174285D01*
X172804000Y-49174285D02*
X172839714Y-49245713D01*
X172839714Y-49245713D02*
X172839714Y-49424285D01*
X172839714Y-49424285D02*
X172804000Y-49495713D01*
X172804000Y-49495713D02*
X172768285Y-49531427D01*
X133065785Y-65182143D02*
X133101500Y-65217857D01*
X133101500Y-65217857D02*
X133137214Y-65325000D01*
X133137214Y-65325000D02*
X133137214Y-65396428D01*
X133137214Y-65396428D02*
X133101500Y-65503571D01*
X133101500Y-65503571D02*
X133030071Y-65575000D01*
X133030071Y-65575000D02*
X132958642Y-65610714D01*
X132958642Y-65610714D02*
X132815785Y-65646428D01*
X132815785Y-65646428D02*
X132708642Y-65646428D01*
X132708642Y-65646428D02*
X132565785Y-65610714D01*
X132565785Y-65610714D02*
X132494357Y-65575000D01*
X132494357Y-65575000D02*
X132422928Y-65503571D01*
X132422928Y-65503571D02*
X132387214Y-65396428D01*
X132387214Y-65396428D02*
X132387214Y-65325000D01*
X132387214Y-65325000D02*
X132422928Y-65217857D01*
X132422928Y-65217857D02*
X132458642Y-65182143D01*
X133137214Y-64467857D02*
X133137214Y-64896428D01*
X133137214Y-64682143D02*
X132387214Y-64682143D01*
X132387214Y-64682143D02*
X132494357Y-64753571D01*
X132494357Y-64753571D02*
X132565785Y-64825000D01*
X132565785Y-64825000D02*
X132601500Y-64896428D01*
X132637214Y-63825000D02*
X133137214Y-63825000D01*
X132351500Y-64003571D02*
X132887214Y-64182142D01*
X132887214Y-64182142D02*
X132887214Y-63717857D01*
X115075000Y-48842214D02*
X115075000Y-49377928D01*
X115075000Y-49377928D02*
X115039285Y-49485071D01*
X115039285Y-49485071D02*
X114967857Y-49556500D01*
X114967857Y-49556500D02*
X114860714Y-49592214D01*
X114860714Y-49592214D02*
X114789285Y-49592214D01*
X115789286Y-48842214D02*
X115432143Y-48842214D01*
X115432143Y-48842214D02*
X115396429Y-49199357D01*
X115396429Y-49199357D02*
X115432143Y-49163642D01*
X115432143Y-49163642D02*
X115503572Y-49127928D01*
X115503572Y-49127928D02*
X115682143Y-49127928D01*
X115682143Y-49127928D02*
X115753572Y-49163642D01*
X115753572Y-49163642D02*
X115789286Y-49199357D01*
X115789286Y-49199357D02*
X115825000Y-49270785D01*
X115825000Y-49270785D02*
X115825000Y-49449357D01*
X115825000Y-49449357D02*
X115789286Y-49520785D01*
X115789286Y-49520785D02*
X115753572Y-49556500D01*
X115753572Y-49556500D02*
X115682143Y-49592214D01*
X115682143Y-49592214D02*
X115503572Y-49592214D01*
X115503572Y-49592214D02*
X115432143Y-49556500D01*
X115432143Y-49556500D02*
X115396429Y-49520785D01*
X157637214Y-62653571D02*
X156887214Y-62653571D01*
X156887214Y-62653571D02*
X156887214Y-62475000D01*
X156887214Y-62475000D02*
X156922928Y-62367857D01*
X156922928Y-62367857D02*
X156994357Y-62296428D01*
X156994357Y-62296428D02*
X157065785Y-62260714D01*
X157065785Y-62260714D02*
X157208642Y-62225000D01*
X157208642Y-62225000D02*
X157315785Y-62225000D01*
X157315785Y-62225000D02*
X157458642Y-62260714D01*
X157458642Y-62260714D02*
X157530071Y-62296428D01*
X157530071Y-62296428D02*
X157601500Y-62367857D01*
X157601500Y-62367857D02*
X157637214Y-62475000D01*
X157637214Y-62475000D02*
X157637214Y-62653571D01*
X157137214Y-61582143D02*
X157637214Y-61582143D01*
X156851500Y-61760714D02*
X157387214Y-61939285D01*
X157387214Y-61939285D02*
X157387214Y-61475000D01*
X159750000Y-50837214D02*
X159750000Y-51372928D01*
X159750000Y-51372928D02*
X159714285Y-51480071D01*
X159714285Y-51480071D02*
X159642857Y-51551500D01*
X159642857Y-51551500D02*
X159535714Y-51587214D01*
X159535714Y-51587214D02*
X159464285Y-51587214D01*
X160035714Y-50837214D02*
X160500000Y-50837214D01*
X160500000Y-50837214D02*
X160250000Y-51122928D01*
X160250000Y-51122928D02*
X160357143Y-51122928D01*
X160357143Y-51122928D02*
X160428572Y-51158642D01*
X160428572Y-51158642D02*
X160464286Y-51194357D01*
X160464286Y-51194357D02*
X160500000Y-51265785D01*
X160500000Y-51265785D02*
X160500000Y-51444357D01*
X160500000Y-51444357D02*
X160464286Y-51515785D01*
X160464286Y-51515785D02*
X160428572Y-51551500D01*
X160428572Y-51551500D02*
X160357143Y-51587214D01*
X160357143Y-51587214D02*
X160142857Y-51587214D01*
X160142857Y-51587214D02*
X160071429Y-51551500D01*
X160071429Y-51551500D02*
X160035714Y-51515785D01*
X151665785Y-61082143D02*
X151701500Y-61117857D01*
X151701500Y-61117857D02*
X151737214Y-61225000D01*
X151737214Y-61225000D02*
X151737214Y-61296428D01*
X151737214Y-61296428D02*
X151701500Y-61403571D01*
X151701500Y-61403571D02*
X151630071Y-61475000D01*
X151630071Y-61475000D02*
X151558642Y-61510714D01*
X151558642Y-61510714D02*
X151415785Y-61546428D01*
X151415785Y-61546428D02*
X151308642Y-61546428D01*
X151308642Y-61546428D02*
X151165785Y-61510714D01*
X151165785Y-61510714D02*
X151094357Y-61475000D01*
X151094357Y-61475000D02*
X151022928Y-61403571D01*
X151022928Y-61403571D02*
X150987214Y-61296428D01*
X150987214Y-61296428D02*
X150987214Y-61225000D01*
X150987214Y-61225000D02*
X151022928Y-61117857D01*
X151022928Y-61117857D02*
X151058642Y-61082143D01*
X151737214Y-60367857D02*
X151737214Y-60796428D01*
X151737214Y-60582143D02*
X150987214Y-60582143D01*
X150987214Y-60582143D02*
X151094357Y-60653571D01*
X151094357Y-60653571D02*
X151165785Y-60725000D01*
X151165785Y-60725000D02*
X151201500Y-60796428D01*
X151058642Y-60082142D02*
X151022928Y-60046428D01*
X151022928Y-60046428D02*
X150987214Y-59975000D01*
X150987214Y-59975000D02*
X150987214Y-59796428D01*
X150987214Y-59796428D02*
X151022928Y-59725000D01*
X151022928Y-59725000D02*
X151058642Y-59689285D01*
X151058642Y-59689285D02*
X151130071Y-59653571D01*
X151130071Y-59653571D02*
X151201500Y-59653571D01*
X151201500Y-59653571D02*
X151308642Y-59689285D01*
X151308642Y-59689285D02*
X151737214Y-60117857D01*
X151737214Y-60117857D02*
X151737214Y-59653571D01*
X149242107Y-63799714D02*
X149242107Y-64335428D01*
X149242107Y-64335428D02*
X149206392Y-64442571D01*
X149206392Y-64442571D02*
X149134964Y-64514000D01*
X149134964Y-64514000D02*
X149027821Y-64549714D01*
X149027821Y-64549714D02*
X148956392Y-64549714D01*
X149992107Y-64549714D02*
X149563536Y-64549714D01*
X149777821Y-64549714D02*
X149777821Y-63799714D01*
X149777821Y-63799714D02*
X149706393Y-63906857D01*
X149706393Y-63906857D02*
X149634964Y-63978285D01*
X149634964Y-63978285D02*
X149563536Y-64014000D01*
X150242107Y-63799714D02*
X150706393Y-63799714D01*
X150706393Y-63799714D02*
X150456393Y-64085428D01*
X150456393Y-64085428D02*
X150563536Y-64085428D01*
X150563536Y-64085428D02*
X150634965Y-64121142D01*
X150634965Y-64121142D02*
X150670679Y-64156857D01*
X150670679Y-64156857D02*
X150706393Y-64228285D01*
X150706393Y-64228285D02*
X150706393Y-64406857D01*
X150706393Y-64406857D02*
X150670679Y-64478285D01*
X150670679Y-64478285D02*
X150634965Y-64514000D01*
X150634965Y-64514000D02*
X150563536Y-64549714D01*
X150563536Y-64549714D02*
X150349250Y-64549714D01*
X150349250Y-64549714D02*
X150277822Y-64514000D01*
X150277822Y-64514000D02*
X150242107Y-64478285D01*
X119256785Y-73062214D02*
X119256785Y-72312214D01*
X119256785Y-72312214D02*
X119435356Y-72312214D01*
X119435356Y-72312214D02*
X119542499Y-72347928D01*
X119542499Y-72347928D02*
X119613928Y-72419357D01*
X119613928Y-72419357D02*
X119649642Y-72490785D01*
X119649642Y-72490785D02*
X119685356Y-72633642D01*
X119685356Y-72633642D02*
X119685356Y-72740785D01*
X119685356Y-72740785D02*
X119649642Y-72883642D01*
X119649642Y-72883642D02*
X119613928Y-72955071D01*
X119613928Y-72955071D02*
X119542499Y-73026500D01*
X119542499Y-73026500D02*
X119435356Y-73062214D01*
X119435356Y-73062214D02*
X119256785Y-73062214D01*
X120399642Y-73062214D02*
X119971071Y-73062214D01*
X120185356Y-73062214D02*
X120185356Y-72312214D01*
X120185356Y-72312214D02*
X120113928Y-72419357D01*
X120113928Y-72419357D02*
X120042499Y-72490785D01*
X120042499Y-72490785D02*
X119971071Y-72526500D01*
X120685357Y-72383642D02*
X120721071Y-72347928D01*
X120721071Y-72347928D02*
X120792500Y-72312214D01*
X120792500Y-72312214D02*
X120971071Y-72312214D01*
X120971071Y-72312214D02*
X121042500Y-72347928D01*
X121042500Y-72347928D02*
X121078214Y-72383642D01*
X121078214Y-72383642D02*
X121113928Y-72455071D01*
X121113928Y-72455071D02*
X121113928Y-72526500D01*
X121113928Y-72526500D02*
X121078214Y-72633642D01*
X121078214Y-72633642D02*
X120649642Y-73062214D01*
X120649642Y-73062214D02*
X121113928Y-73062214D01*
X144241428Y-62632214D02*
X144241428Y-61882214D01*
X144241428Y-61882214D02*
X144419999Y-61882214D01*
X144419999Y-61882214D02*
X144527142Y-61917928D01*
X144527142Y-61917928D02*
X144598571Y-61989357D01*
X144598571Y-61989357D02*
X144634285Y-62060785D01*
X144634285Y-62060785D02*
X144669999Y-62203642D01*
X144669999Y-62203642D02*
X144669999Y-62310785D01*
X144669999Y-62310785D02*
X144634285Y-62453642D01*
X144634285Y-62453642D02*
X144598571Y-62525071D01*
X144598571Y-62525071D02*
X144527142Y-62596500D01*
X144527142Y-62596500D02*
X144419999Y-62632214D01*
X144419999Y-62632214D02*
X144241428Y-62632214D01*
X144919999Y-61882214D02*
X145419999Y-61882214D01*
X145419999Y-61882214D02*
X145098571Y-62632214D01*
X116176159Y-40182834D02*
X116211874Y-40218548D01*
X116211874Y-40218548D02*
X116247588Y-40325691D01*
X116247588Y-40325691D02*
X116247588Y-40397119D01*
X116247588Y-40397119D02*
X116211874Y-40504262D01*
X116211874Y-40504262D02*
X116140445Y-40575691D01*
X116140445Y-40575691D02*
X116069016Y-40611405D01*
X116069016Y-40611405D02*
X115926159Y-40647119D01*
X115926159Y-40647119D02*
X115819016Y-40647119D01*
X115819016Y-40647119D02*
X115676159Y-40611405D01*
X115676159Y-40611405D02*
X115604731Y-40575691D01*
X115604731Y-40575691D02*
X115533302Y-40504262D01*
X115533302Y-40504262D02*
X115497588Y-40397119D01*
X115497588Y-40397119D02*
X115497588Y-40325691D01*
X115497588Y-40325691D02*
X115533302Y-40218548D01*
X115533302Y-40218548D02*
X115569016Y-40182834D01*
X115497588Y-39932834D02*
X115497588Y-39432834D01*
X115497588Y-39432834D02*
X116247588Y-39754262D01*
X135442214Y-73162142D02*
X135977928Y-73162142D01*
X135977928Y-73162142D02*
X136085071Y-73197857D01*
X136085071Y-73197857D02*
X136156500Y-73269285D01*
X136156500Y-73269285D02*
X136192214Y-73376428D01*
X136192214Y-73376428D02*
X136192214Y-73447857D01*
X136192214Y-72412142D02*
X136192214Y-72840713D01*
X136192214Y-72626428D02*
X135442214Y-72626428D01*
X135442214Y-72626428D02*
X135549357Y-72697856D01*
X135549357Y-72697856D02*
X135620785Y-72769285D01*
X135620785Y-72769285D02*
X135656500Y-72840713D01*
X135442214Y-71769285D02*
X135442214Y-71912142D01*
X135442214Y-71912142D02*
X135477928Y-71983570D01*
X135477928Y-71983570D02*
X135513642Y-72019285D01*
X135513642Y-72019285D02*
X135620785Y-72090713D01*
X135620785Y-72090713D02*
X135763642Y-72126427D01*
X135763642Y-72126427D02*
X136049357Y-72126427D01*
X136049357Y-72126427D02*
X136120785Y-72090713D01*
X136120785Y-72090713D02*
X136156500Y-72054999D01*
X136156500Y-72054999D02*
X136192214Y-71983570D01*
X136192214Y-71983570D02*
X136192214Y-71840713D01*
X136192214Y-71840713D02*
X136156500Y-71769285D01*
X136156500Y-71769285D02*
X136120785Y-71733570D01*
X136120785Y-71733570D02*
X136049357Y-71697856D01*
X136049357Y-71697856D02*
X135870785Y-71697856D01*
X135870785Y-71697856D02*
X135799357Y-71733570D01*
X135799357Y-71733570D02*
X135763642Y-71769285D01*
X135763642Y-71769285D02*
X135727928Y-71840713D01*
X135727928Y-71840713D02*
X135727928Y-71983570D01*
X135727928Y-71983570D02*
X135763642Y-72054999D01*
X135763642Y-72054999D02*
X135799357Y-72090713D01*
X135799357Y-72090713D02*
X135870785Y-72126427D01*
X85587214Y-53371428D02*
X86194357Y-53371428D01*
X86194357Y-53371428D02*
X86265785Y-53335714D01*
X86265785Y-53335714D02*
X86301500Y-53300000D01*
X86301500Y-53300000D02*
X86337214Y-53228571D01*
X86337214Y-53228571D02*
X86337214Y-53085714D01*
X86337214Y-53085714D02*
X86301500Y-53014285D01*
X86301500Y-53014285D02*
X86265785Y-52978571D01*
X86265785Y-52978571D02*
X86194357Y-52942857D01*
X86194357Y-52942857D02*
X85587214Y-52942857D01*
X86337214Y-52550000D02*
X86337214Y-52407143D01*
X86337214Y-52407143D02*
X86301500Y-52335714D01*
X86301500Y-52335714D02*
X86265785Y-52300000D01*
X86265785Y-52300000D02*
X86158642Y-52228571D01*
X86158642Y-52228571D02*
X86015785Y-52192857D01*
X86015785Y-52192857D02*
X85730071Y-52192857D01*
X85730071Y-52192857D02*
X85658642Y-52228571D01*
X85658642Y-52228571D02*
X85622928Y-52264286D01*
X85622928Y-52264286D02*
X85587214Y-52335714D01*
X85587214Y-52335714D02*
X85587214Y-52478571D01*
X85587214Y-52478571D02*
X85622928Y-52550000D01*
X85622928Y-52550000D02*
X85658642Y-52585714D01*
X85658642Y-52585714D02*
X85730071Y-52621428D01*
X85730071Y-52621428D02*
X85908642Y-52621428D01*
X85908642Y-52621428D02*
X85980071Y-52585714D01*
X85980071Y-52585714D02*
X86015785Y-52550000D01*
X86015785Y-52550000D02*
X86051500Y-52478571D01*
X86051500Y-52478571D02*
X86051500Y-52335714D01*
X86051500Y-52335714D02*
X86015785Y-52264286D01*
X86015785Y-52264286D02*
X85980071Y-52228571D01*
X85980071Y-52228571D02*
X85908642Y-52192857D01*
X154072214Y-53004999D02*
X154607928Y-53004999D01*
X154607928Y-53004999D02*
X154715071Y-53040714D01*
X154715071Y-53040714D02*
X154786500Y-53112142D01*
X154786500Y-53112142D02*
X154822214Y-53219285D01*
X154822214Y-53219285D02*
X154822214Y-53290714D01*
X154322214Y-52326428D02*
X154822214Y-52326428D01*
X154036500Y-52504999D02*
X154572214Y-52683570D01*
X154572214Y-52683570D02*
X154572214Y-52219285D01*
X154072214Y-49362142D02*
X154607928Y-49362142D01*
X154607928Y-49362142D02*
X154715071Y-49397857D01*
X154715071Y-49397857D02*
X154786500Y-49469285D01*
X154786500Y-49469285D02*
X154822214Y-49576428D01*
X154822214Y-49576428D02*
X154822214Y-49647857D01*
X154822214Y-48612142D02*
X154822214Y-49040713D01*
X154822214Y-48826428D02*
X154072214Y-48826428D01*
X154072214Y-48826428D02*
X154179357Y-48897856D01*
X154179357Y-48897856D02*
X154250785Y-48969285D01*
X154250785Y-48969285D02*
X154286500Y-49040713D01*
X154072214Y-48147856D02*
X154072214Y-48076427D01*
X154072214Y-48076427D02*
X154107928Y-48004999D01*
X154107928Y-48004999D02*
X154143642Y-47969285D01*
X154143642Y-47969285D02*
X154215071Y-47933570D01*
X154215071Y-47933570D02*
X154357928Y-47897856D01*
X154357928Y-47897856D02*
X154536500Y-47897856D01*
X154536500Y-47897856D02*
X154679357Y-47933570D01*
X154679357Y-47933570D02*
X154750785Y-47969285D01*
X154750785Y-47969285D02*
X154786500Y-48004999D01*
X154786500Y-48004999D02*
X154822214Y-48076427D01*
X154822214Y-48076427D02*
X154822214Y-48147856D01*
X154822214Y-48147856D02*
X154786500Y-48219285D01*
X154786500Y-48219285D02*
X154750785Y-48254999D01*
X154750785Y-48254999D02*
X154679357Y-48290713D01*
X154679357Y-48290713D02*
X154536500Y-48326427D01*
X154536500Y-48326427D02*
X154357928Y-48326427D01*
X154357928Y-48326427D02*
X154215071Y-48290713D01*
X154215071Y-48290713D02*
X154143642Y-48254999D01*
X154143642Y-48254999D02*
X154107928Y-48219285D01*
X154107928Y-48219285D02*
X154072214Y-48147856D01*
D15*
X111466666Y-61454819D02*
X111466666Y-62169104D01*
X111466666Y-62169104D02*
X111419047Y-62311961D01*
X111419047Y-62311961D02*
X111323809Y-62407200D01*
X111323809Y-62407200D02*
X111180952Y-62454819D01*
X111180952Y-62454819D02*
X111085714Y-62454819D01*
X112371428Y-61454819D02*
X112180952Y-61454819D01*
X112180952Y-61454819D02*
X112085714Y-61502438D01*
X112085714Y-61502438D02*
X112038095Y-61550057D01*
X112038095Y-61550057D02*
X111942857Y-61692914D01*
X111942857Y-61692914D02*
X111895238Y-61883390D01*
X111895238Y-61883390D02*
X111895238Y-62264342D01*
X111895238Y-62264342D02*
X111942857Y-62359580D01*
X111942857Y-62359580D02*
X111990476Y-62407200D01*
X111990476Y-62407200D02*
X112085714Y-62454819D01*
X112085714Y-62454819D02*
X112276190Y-62454819D01*
X112276190Y-62454819D02*
X112371428Y-62407200D01*
X112371428Y-62407200D02*
X112419047Y-62359580D01*
X112419047Y-62359580D02*
X112466666Y-62264342D01*
X112466666Y-62264342D02*
X112466666Y-62026247D01*
X112466666Y-62026247D02*
X112419047Y-61931009D01*
X112419047Y-61931009D02*
X112371428Y-61883390D01*
X112371428Y-61883390D02*
X112276190Y-61835771D01*
X112276190Y-61835771D02*
X112085714Y-61835771D01*
X112085714Y-61835771D02*
X111990476Y-61883390D01*
X111990476Y-61883390D02*
X111942857Y-61931009D01*
X111942857Y-61931009D02*
X111895238Y-62026247D01*
D14*
X125202856Y-65012214D02*
X124952856Y-64655071D01*
X124774285Y-65012214D02*
X124774285Y-64262214D01*
X124774285Y-64262214D02*
X125059999Y-64262214D01*
X125059999Y-64262214D02*
X125131428Y-64297928D01*
X125131428Y-64297928D02*
X125167142Y-64333642D01*
X125167142Y-64333642D02*
X125202856Y-64405071D01*
X125202856Y-64405071D02*
X125202856Y-64512214D01*
X125202856Y-64512214D02*
X125167142Y-64583642D01*
X125167142Y-64583642D02*
X125131428Y-64619357D01*
X125131428Y-64619357D02*
X125059999Y-64655071D01*
X125059999Y-64655071D02*
X124774285Y-64655071D01*
X125452856Y-64262214D02*
X125917142Y-64262214D01*
X125917142Y-64262214D02*
X125667142Y-64547928D01*
X125667142Y-64547928D02*
X125774285Y-64547928D01*
X125774285Y-64547928D02*
X125845714Y-64583642D01*
X125845714Y-64583642D02*
X125881428Y-64619357D01*
X125881428Y-64619357D02*
X125917142Y-64690785D01*
X125917142Y-64690785D02*
X125917142Y-64869357D01*
X125917142Y-64869357D02*
X125881428Y-64940785D01*
X125881428Y-64940785D02*
X125845714Y-64976500D01*
X125845714Y-64976500D02*
X125774285Y-65012214D01*
X125774285Y-65012214D02*
X125559999Y-65012214D01*
X125559999Y-65012214D02*
X125488571Y-64976500D01*
X125488571Y-64976500D02*
X125452856Y-64940785D01*
X126631428Y-65012214D02*
X126202857Y-65012214D01*
X126417142Y-65012214D02*
X126417142Y-64262214D01*
X126417142Y-64262214D02*
X126345714Y-64369357D01*
X126345714Y-64369357D02*
X126274285Y-64440785D01*
X126274285Y-64440785D02*
X126202857Y-64476500D01*
D15*
X129859642Y-62439819D02*
X129526309Y-61963628D01*
X129288214Y-62439819D02*
X129288214Y-61439819D01*
X129288214Y-61439819D02*
X129669166Y-61439819D01*
X129669166Y-61439819D02*
X129764404Y-61487438D01*
X129764404Y-61487438D02*
X129812023Y-61535057D01*
X129812023Y-61535057D02*
X129859642Y-61630295D01*
X129859642Y-61630295D02*
X129859642Y-61773152D01*
X129859642Y-61773152D02*
X129812023Y-61868390D01*
X129812023Y-61868390D02*
X129764404Y-61916009D01*
X129764404Y-61916009D02*
X129669166Y-61963628D01*
X129669166Y-61963628D02*
X129288214Y-61963628D01*
X130192976Y-61439819D02*
X130812023Y-61439819D01*
X130812023Y-61439819D02*
X130478690Y-61820771D01*
X130478690Y-61820771D02*
X130621547Y-61820771D01*
X130621547Y-61820771D02*
X130716785Y-61868390D01*
X130716785Y-61868390D02*
X130764404Y-61916009D01*
X130764404Y-61916009D02*
X130812023Y-62011247D01*
X130812023Y-62011247D02*
X130812023Y-62249342D01*
X130812023Y-62249342D02*
X130764404Y-62344580D01*
X130764404Y-62344580D02*
X130716785Y-62392200D01*
X130716785Y-62392200D02*
X130621547Y-62439819D01*
X130621547Y-62439819D02*
X130335833Y-62439819D01*
X130335833Y-62439819D02*
X130240595Y-62392200D01*
X130240595Y-62392200D02*
X130192976Y-62344580D01*
X131192976Y-61535057D02*
X131240595Y-61487438D01*
X131240595Y-61487438D02*
X131335833Y-61439819D01*
X131335833Y-61439819D02*
X131573928Y-61439819D01*
X131573928Y-61439819D02*
X131669166Y-61487438D01*
X131669166Y-61487438D02*
X131716785Y-61535057D01*
X131716785Y-61535057D02*
X131764404Y-61630295D01*
X131764404Y-61630295D02*
X131764404Y-61725533D01*
X131764404Y-61725533D02*
X131716785Y-61868390D01*
X131716785Y-61868390D02*
X131145357Y-62439819D01*
X131145357Y-62439819D02*
X131764404Y-62439819D01*
D14*
X116275000Y-35832214D02*
X116275000Y-36367928D01*
X116275000Y-36367928D02*
X116239285Y-36475071D01*
X116239285Y-36475071D02*
X116167857Y-36546500D01*
X116167857Y-36546500D02*
X116060714Y-36582214D01*
X116060714Y-36582214D02*
X115989285Y-36582214D01*
X116739286Y-36153642D02*
X116667857Y-36117928D01*
X116667857Y-36117928D02*
X116632143Y-36082214D01*
X116632143Y-36082214D02*
X116596429Y-36010785D01*
X116596429Y-36010785D02*
X116596429Y-35975071D01*
X116596429Y-35975071D02*
X116632143Y-35903642D01*
X116632143Y-35903642D02*
X116667857Y-35867928D01*
X116667857Y-35867928D02*
X116739286Y-35832214D01*
X116739286Y-35832214D02*
X116882143Y-35832214D01*
X116882143Y-35832214D02*
X116953572Y-35867928D01*
X116953572Y-35867928D02*
X116989286Y-35903642D01*
X116989286Y-35903642D02*
X117025000Y-35975071D01*
X117025000Y-35975071D02*
X117025000Y-36010785D01*
X117025000Y-36010785D02*
X116989286Y-36082214D01*
X116989286Y-36082214D02*
X116953572Y-36117928D01*
X116953572Y-36117928D02*
X116882143Y-36153642D01*
X116882143Y-36153642D02*
X116739286Y-36153642D01*
X116739286Y-36153642D02*
X116667857Y-36189357D01*
X116667857Y-36189357D02*
X116632143Y-36225071D01*
X116632143Y-36225071D02*
X116596429Y-36296500D01*
X116596429Y-36296500D02*
X116596429Y-36439357D01*
X116596429Y-36439357D02*
X116632143Y-36510785D01*
X116632143Y-36510785D02*
X116667857Y-36546500D01*
X116667857Y-36546500D02*
X116739286Y-36582214D01*
X116739286Y-36582214D02*
X116882143Y-36582214D01*
X116882143Y-36582214D02*
X116953572Y-36546500D01*
X116953572Y-36546500D02*
X116989286Y-36510785D01*
X116989286Y-36510785D02*
X117025000Y-36439357D01*
X117025000Y-36439357D02*
X117025000Y-36296500D01*
X117025000Y-36296500D02*
X116989286Y-36225071D01*
X116989286Y-36225071D02*
X116953572Y-36189357D01*
X116953572Y-36189357D02*
X116882143Y-36153642D01*
X126962214Y-60307143D02*
X126605071Y-60557143D01*
X126962214Y-60735714D02*
X126212214Y-60735714D01*
X126212214Y-60735714D02*
X126212214Y-60450000D01*
X126212214Y-60450000D02*
X126247928Y-60378571D01*
X126247928Y-60378571D02*
X126283642Y-60342857D01*
X126283642Y-60342857D02*
X126355071Y-60307143D01*
X126355071Y-60307143D02*
X126462214Y-60307143D01*
X126462214Y-60307143D02*
X126533642Y-60342857D01*
X126533642Y-60342857D02*
X126569357Y-60378571D01*
X126569357Y-60378571D02*
X126605071Y-60450000D01*
X126605071Y-60450000D02*
X126605071Y-60735714D01*
X126212214Y-60057143D02*
X126212214Y-59592857D01*
X126212214Y-59592857D02*
X126497928Y-59842857D01*
X126497928Y-59842857D02*
X126497928Y-59735714D01*
X126497928Y-59735714D02*
X126533642Y-59664286D01*
X126533642Y-59664286D02*
X126569357Y-59628571D01*
X126569357Y-59628571D02*
X126640785Y-59592857D01*
X126640785Y-59592857D02*
X126819357Y-59592857D01*
X126819357Y-59592857D02*
X126890785Y-59628571D01*
X126890785Y-59628571D02*
X126926500Y-59664286D01*
X126926500Y-59664286D02*
X126962214Y-59735714D01*
X126962214Y-59735714D02*
X126962214Y-59950000D01*
X126962214Y-59950000D02*
X126926500Y-60021428D01*
X126926500Y-60021428D02*
X126890785Y-60057143D01*
X126212214Y-58914285D02*
X126212214Y-59271428D01*
X126212214Y-59271428D02*
X126569357Y-59307142D01*
X126569357Y-59307142D02*
X126533642Y-59271428D01*
X126533642Y-59271428D02*
X126497928Y-59200000D01*
X126497928Y-59200000D02*
X126497928Y-59021428D01*
X126497928Y-59021428D02*
X126533642Y-58950000D01*
X126533642Y-58950000D02*
X126569357Y-58914285D01*
X126569357Y-58914285D02*
X126640785Y-58878571D01*
X126640785Y-58878571D02*
X126819357Y-58878571D01*
X126819357Y-58878571D02*
X126890785Y-58914285D01*
X126890785Y-58914285D02*
X126926500Y-58950000D01*
X126926500Y-58950000D02*
X126962214Y-59021428D01*
X126962214Y-59021428D02*
X126962214Y-59200000D01*
X126962214Y-59200000D02*
X126926500Y-59271428D01*
X126926500Y-59271428D02*
X126890785Y-59307142D01*
X107565000Y-35962214D02*
X107565000Y-36497928D01*
X107565000Y-36497928D02*
X107529285Y-36605071D01*
X107529285Y-36605071D02*
X107457857Y-36676500D01*
X107457857Y-36676500D02*
X107350714Y-36712214D01*
X107350714Y-36712214D02*
X107279285Y-36712214D01*
X107886429Y-36033642D02*
X107922143Y-35997928D01*
X107922143Y-35997928D02*
X107993572Y-35962214D01*
X107993572Y-35962214D02*
X108172143Y-35962214D01*
X108172143Y-35962214D02*
X108243572Y-35997928D01*
X108243572Y-35997928D02*
X108279286Y-36033642D01*
X108279286Y-36033642D02*
X108315000Y-36105071D01*
X108315000Y-36105071D02*
X108315000Y-36176500D01*
X108315000Y-36176500D02*
X108279286Y-36283642D01*
X108279286Y-36283642D02*
X107850714Y-36712214D01*
X107850714Y-36712214D02*
X108315000Y-36712214D01*
D15*
X120261905Y-68754819D02*
X120261905Y-67754819D01*
X120261905Y-67754819D02*
X120500000Y-67754819D01*
X120500000Y-67754819D02*
X120642857Y-67802438D01*
X120642857Y-67802438D02*
X120738095Y-67897676D01*
X120738095Y-67897676D02*
X120785714Y-67992914D01*
X120785714Y-67992914D02*
X120833333Y-68183390D01*
X120833333Y-68183390D02*
X120833333Y-68326247D01*
X120833333Y-68326247D02*
X120785714Y-68516723D01*
X120785714Y-68516723D02*
X120738095Y-68611961D01*
X120738095Y-68611961D02*
X120642857Y-68707200D01*
X120642857Y-68707200D02*
X120500000Y-68754819D01*
X120500000Y-68754819D02*
X120261905Y-68754819D01*
X121404762Y-68183390D02*
X121309524Y-68135771D01*
X121309524Y-68135771D02*
X121261905Y-68088152D01*
X121261905Y-68088152D02*
X121214286Y-67992914D01*
X121214286Y-67992914D02*
X121214286Y-67945295D01*
X121214286Y-67945295D02*
X121261905Y-67850057D01*
X121261905Y-67850057D02*
X121309524Y-67802438D01*
X121309524Y-67802438D02*
X121404762Y-67754819D01*
X121404762Y-67754819D02*
X121595238Y-67754819D01*
X121595238Y-67754819D02*
X121690476Y-67802438D01*
X121690476Y-67802438D02*
X121738095Y-67850057D01*
X121738095Y-67850057D02*
X121785714Y-67945295D01*
X121785714Y-67945295D02*
X121785714Y-67992914D01*
X121785714Y-67992914D02*
X121738095Y-68088152D01*
X121738095Y-68088152D02*
X121690476Y-68135771D01*
X121690476Y-68135771D02*
X121595238Y-68183390D01*
X121595238Y-68183390D02*
X121404762Y-68183390D01*
X121404762Y-68183390D02*
X121309524Y-68231009D01*
X121309524Y-68231009D02*
X121261905Y-68278628D01*
X121261905Y-68278628D02*
X121214286Y-68373866D01*
X121214286Y-68373866D02*
X121214286Y-68564342D01*
X121214286Y-68564342D02*
X121261905Y-68659580D01*
X121261905Y-68659580D02*
X121309524Y-68707200D01*
X121309524Y-68707200D02*
X121404762Y-68754819D01*
X121404762Y-68754819D02*
X121595238Y-68754819D01*
X121595238Y-68754819D02*
X121690476Y-68707200D01*
X121690476Y-68707200D02*
X121738095Y-68659580D01*
X121738095Y-68659580D02*
X121785714Y-68564342D01*
X121785714Y-68564342D02*
X121785714Y-68373866D01*
X121785714Y-68373866D02*
X121738095Y-68278628D01*
X121738095Y-68278628D02*
X121690476Y-68231009D01*
X121690476Y-68231009D02*
X121595238Y-68183390D01*
D14*
X169057214Y-58432143D02*
X168700071Y-58682143D01*
X169057214Y-58860714D02*
X168307214Y-58860714D01*
X168307214Y-58860714D02*
X168307214Y-58575000D01*
X168307214Y-58575000D02*
X168342928Y-58503571D01*
X168342928Y-58503571D02*
X168378642Y-58467857D01*
X168378642Y-58467857D02*
X168450071Y-58432143D01*
X168450071Y-58432143D02*
X168557214Y-58432143D01*
X168557214Y-58432143D02*
X168628642Y-58467857D01*
X168628642Y-58467857D02*
X168664357Y-58503571D01*
X168664357Y-58503571D02*
X168700071Y-58575000D01*
X168700071Y-58575000D02*
X168700071Y-58860714D01*
X168307214Y-58182143D02*
X168307214Y-57717857D01*
X168307214Y-57717857D02*
X168592928Y-57967857D01*
X168592928Y-57967857D02*
X168592928Y-57860714D01*
X168592928Y-57860714D02*
X168628642Y-57789286D01*
X168628642Y-57789286D02*
X168664357Y-57753571D01*
X168664357Y-57753571D02*
X168735785Y-57717857D01*
X168735785Y-57717857D02*
X168914357Y-57717857D01*
X168914357Y-57717857D02*
X168985785Y-57753571D01*
X168985785Y-57753571D02*
X169021500Y-57789286D01*
X169021500Y-57789286D02*
X169057214Y-57860714D01*
X169057214Y-57860714D02*
X169057214Y-58075000D01*
X169057214Y-58075000D02*
X169021500Y-58146428D01*
X169021500Y-58146428D02*
X168985785Y-58182143D01*
X168307214Y-57075000D02*
X168307214Y-57217857D01*
X168307214Y-57217857D02*
X168342928Y-57289285D01*
X168342928Y-57289285D02*
X168378642Y-57325000D01*
X168378642Y-57325000D02*
X168485785Y-57396428D01*
X168485785Y-57396428D02*
X168628642Y-57432142D01*
X168628642Y-57432142D02*
X168914357Y-57432142D01*
X168914357Y-57432142D02*
X168985785Y-57396428D01*
X168985785Y-57396428D02*
X169021500Y-57360714D01*
X169021500Y-57360714D02*
X169057214Y-57289285D01*
X169057214Y-57289285D02*
X169057214Y-57146428D01*
X169057214Y-57146428D02*
X169021500Y-57075000D01*
X169021500Y-57075000D02*
X168985785Y-57039285D01*
X168985785Y-57039285D02*
X168914357Y-57003571D01*
X168914357Y-57003571D02*
X168735785Y-57003571D01*
X168735785Y-57003571D02*
X168664357Y-57039285D01*
X168664357Y-57039285D02*
X168628642Y-57075000D01*
X168628642Y-57075000D02*
X168592928Y-57146428D01*
X168592928Y-57146428D02*
X168592928Y-57289285D01*
X168592928Y-57289285D02*
X168628642Y-57360714D01*
X168628642Y-57360714D02*
X168664357Y-57396428D01*
X168664357Y-57396428D02*
X168735785Y-57432142D01*
X153117856Y-56637214D02*
X152867856Y-56280071D01*
X152689285Y-56637214D02*
X152689285Y-55887214D01*
X152689285Y-55887214D02*
X152974999Y-55887214D01*
X152974999Y-55887214D02*
X153046428Y-55922928D01*
X153046428Y-55922928D02*
X153082142Y-55958642D01*
X153082142Y-55958642D02*
X153117856Y-56030071D01*
X153117856Y-56030071D02*
X153117856Y-56137214D01*
X153117856Y-56137214D02*
X153082142Y-56208642D01*
X153082142Y-56208642D02*
X153046428Y-56244357D01*
X153046428Y-56244357D02*
X152974999Y-56280071D01*
X152974999Y-56280071D02*
X152689285Y-56280071D01*
X153403571Y-55958642D02*
X153439285Y-55922928D01*
X153439285Y-55922928D02*
X153510714Y-55887214D01*
X153510714Y-55887214D02*
X153689285Y-55887214D01*
X153689285Y-55887214D02*
X153760714Y-55922928D01*
X153760714Y-55922928D02*
X153796428Y-55958642D01*
X153796428Y-55958642D02*
X153832142Y-56030071D01*
X153832142Y-56030071D02*
X153832142Y-56101500D01*
X153832142Y-56101500D02*
X153796428Y-56208642D01*
X153796428Y-56208642D02*
X153367856Y-56637214D01*
X153367856Y-56637214D02*
X153832142Y-56637214D01*
X154296428Y-55887214D02*
X154367857Y-55887214D01*
X154367857Y-55887214D02*
X154439285Y-55922928D01*
X154439285Y-55922928D02*
X154475000Y-55958642D01*
X154475000Y-55958642D02*
X154510714Y-56030071D01*
X154510714Y-56030071D02*
X154546428Y-56172928D01*
X154546428Y-56172928D02*
X154546428Y-56351500D01*
X154546428Y-56351500D02*
X154510714Y-56494357D01*
X154510714Y-56494357D02*
X154475000Y-56565785D01*
X154475000Y-56565785D02*
X154439285Y-56601500D01*
X154439285Y-56601500D02*
X154367857Y-56637214D01*
X154367857Y-56637214D02*
X154296428Y-56637214D01*
X154296428Y-56637214D02*
X154225000Y-56601500D01*
X154225000Y-56601500D02*
X154189285Y-56565785D01*
X154189285Y-56565785D02*
X154153571Y-56494357D01*
X154153571Y-56494357D02*
X154117857Y-56351500D01*
X154117857Y-56351500D02*
X154117857Y-56172928D01*
X154117857Y-56172928D02*
X154153571Y-56030071D01*
X154153571Y-56030071D02*
X154189285Y-55958642D01*
X154189285Y-55958642D02*
X154225000Y-55922928D01*
X154225000Y-55922928D02*
X154296428Y-55887214D01*
X109857214Y-42759977D02*
X109500071Y-43009977D01*
X109857214Y-43188548D02*
X109107214Y-43188548D01*
X109107214Y-43188548D02*
X109107214Y-42902834D01*
X109107214Y-42902834D02*
X109142928Y-42831405D01*
X109142928Y-42831405D02*
X109178642Y-42795691D01*
X109178642Y-42795691D02*
X109250071Y-42759977D01*
X109250071Y-42759977D02*
X109357214Y-42759977D01*
X109357214Y-42759977D02*
X109428642Y-42795691D01*
X109428642Y-42795691D02*
X109464357Y-42831405D01*
X109464357Y-42831405D02*
X109500071Y-42902834D01*
X109500071Y-42902834D02*
X109500071Y-43188548D01*
X109857214Y-42045691D02*
X109857214Y-42474262D01*
X109857214Y-42259977D02*
X109107214Y-42259977D01*
X109107214Y-42259977D02*
X109214357Y-42331405D01*
X109214357Y-42331405D02*
X109285785Y-42402834D01*
X109285785Y-42402834D02*
X109321500Y-42474262D01*
X109107214Y-41795691D02*
X109107214Y-41295691D01*
X109107214Y-41295691D02*
X109857214Y-41617119D01*
X114127214Y-43812143D02*
X113770071Y-44062143D01*
X114127214Y-44240714D02*
X113377214Y-44240714D01*
X113377214Y-44240714D02*
X113377214Y-43955000D01*
X113377214Y-43955000D02*
X113412928Y-43883571D01*
X113412928Y-43883571D02*
X113448642Y-43847857D01*
X113448642Y-43847857D02*
X113520071Y-43812143D01*
X113520071Y-43812143D02*
X113627214Y-43812143D01*
X113627214Y-43812143D02*
X113698642Y-43847857D01*
X113698642Y-43847857D02*
X113734357Y-43883571D01*
X113734357Y-43883571D02*
X113770071Y-43955000D01*
X113770071Y-43955000D02*
X113770071Y-44240714D01*
X114127214Y-43097857D02*
X114127214Y-43526428D01*
X114127214Y-43312143D02*
X113377214Y-43312143D01*
X113377214Y-43312143D02*
X113484357Y-43383571D01*
X113484357Y-43383571D02*
X113555785Y-43455000D01*
X113555785Y-43455000D02*
X113591500Y-43526428D01*
X113698642Y-42669285D02*
X113662928Y-42740714D01*
X113662928Y-42740714D02*
X113627214Y-42776428D01*
X113627214Y-42776428D02*
X113555785Y-42812142D01*
X113555785Y-42812142D02*
X113520071Y-42812142D01*
X113520071Y-42812142D02*
X113448642Y-42776428D01*
X113448642Y-42776428D02*
X113412928Y-42740714D01*
X113412928Y-42740714D02*
X113377214Y-42669285D01*
X113377214Y-42669285D02*
X113377214Y-42526428D01*
X113377214Y-42526428D02*
X113412928Y-42455000D01*
X113412928Y-42455000D02*
X113448642Y-42419285D01*
X113448642Y-42419285D02*
X113520071Y-42383571D01*
X113520071Y-42383571D02*
X113555785Y-42383571D01*
X113555785Y-42383571D02*
X113627214Y-42419285D01*
X113627214Y-42419285D02*
X113662928Y-42455000D01*
X113662928Y-42455000D02*
X113698642Y-42526428D01*
X113698642Y-42526428D02*
X113698642Y-42669285D01*
X113698642Y-42669285D02*
X113734357Y-42740714D01*
X113734357Y-42740714D02*
X113770071Y-42776428D01*
X113770071Y-42776428D02*
X113841500Y-42812142D01*
X113841500Y-42812142D02*
X113984357Y-42812142D01*
X113984357Y-42812142D02*
X114055785Y-42776428D01*
X114055785Y-42776428D02*
X114091500Y-42740714D01*
X114091500Y-42740714D02*
X114127214Y-42669285D01*
X114127214Y-42669285D02*
X114127214Y-42526428D01*
X114127214Y-42526428D02*
X114091500Y-42455000D01*
X114091500Y-42455000D02*
X114055785Y-42419285D01*
X114055785Y-42419285D02*
X113984357Y-42383571D01*
X113984357Y-42383571D02*
X113841500Y-42383571D01*
X113841500Y-42383571D02*
X113770071Y-42419285D01*
X113770071Y-42419285D02*
X113734357Y-42455000D01*
X113734357Y-42455000D02*
X113698642Y-42526428D01*
X110097856Y-39487214D02*
X109847856Y-39130071D01*
X109669285Y-39487214D02*
X109669285Y-38737214D01*
X109669285Y-38737214D02*
X109954999Y-38737214D01*
X109954999Y-38737214D02*
X110026428Y-38772928D01*
X110026428Y-38772928D02*
X110062142Y-38808642D01*
X110062142Y-38808642D02*
X110097856Y-38880071D01*
X110097856Y-38880071D02*
X110097856Y-38987214D01*
X110097856Y-38987214D02*
X110062142Y-39058642D01*
X110062142Y-39058642D02*
X110026428Y-39094357D01*
X110026428Y-39094357D02*
X109954999Y-39130071D01*
X109954999Y-39130071D02*
X109669285Y-39130071D01*
X110383571Y-38808642D02*
X110419285Y-38772928D01*
X110419285Y-38772928D02*
X110490714Y-38737214D01*
X110490714Y-38737214D02*
X110669285Y-38737214D01*
X110669285Y-38737214D02*
X110740714Y-38772928D01*
X110740714Y-38772928D02*
X110776428Y-38808642D01*
X110776428Y-38808642D02*
X110812142Y-38880071D01*
X110812142Y-38880071D02*
X110812142Y-38951500D01*
X110812142Y-38951500D02*
X110776428Y-39058642D01*
X110776428Y-39058642D02*
X110347856Y-39487214D01*
X110347856Y-39487214D02*
X110812142Y-39487214D01*
X111062142Y-38737214D02*
X111526428Y-38737214D01*
X111526428Y-38737214D02*
X111276428Y-39022928D01*
X111276428Y-39022928D02*
X111383571Y-39022928D01*
X111383571Y-39022928D02*
X111455000Y-39058642D01*
X111455000Y-39058642D02*
X111490714Y-39094357D01*
X111490714Y-39094357D02*
X111526428Y-39165785D01*
X111526428Y-39165785D02*
X111526428Y-39344357D01*
X111526428Y-39344357D02*
X111490714Y-39415785D01*
X111490714Y-39415785D02*
X111455000Y-39451500D01*
X111455000Y-39451500D02*
X111383571Y-39487214D01*
X111383571Y-39487214D02*
X111169285Y-39487214D01*
X111169285Y-39487214D02*
X111097857Y-39451500D01*
X111097857Y-39451500D02*
X111062142Y-39415785D01*
X150669321Y-70692142D02*
X151026464Y-70692142D01*
X150276464Y-70942142D02*
X150669321Y-70692142D01*
X150669321Y-70692142D02*
X150276464Y-70442142D01*
X151026464Y-69799285D02*
X151026464Y-70227856D01*
X151026464Y-70013571D02*
X150276464Y-70013571D01*
X150276464Y-70013571D02*
X150383607Y-70084999D01*
X150383607Y-70084999D02*
X150455035Y-70156428D01*
X150455035Y-70156428D02*
X150490750Y-70227856D01*
X123185356Y-75922214D02*
X122935356Y-75565071D01*
X122756785Y-75922214D02*
X122756785Y-75172214D01*
X122756785Y-75172214D02*
X123042499Y-75172214D01*
X123042499Y-75172214D02*
X123113928Y-75207928D01*
X123113928Y-75207928D02*
X123149642Y-75243642D01*
X123149642Y-75243642D02*
X123185356Y-75315071D01*
X123185356Y-75315071D02*
X123185356Y-75422214D01*
X123185356Y-75422214D02*
X123149642Y-75493642D01*
X123149642Y-75493642D02*
X123113928Y-75529357D01*
X123113928Y-75529357D02*
X123042499Y-75565071D01*
X123042499Y-75565071D02*
X122756785Y-75565071D01*
X123435356Y-75172214D02*
X123899642Y-75172214D01*
X123899642Y-75172214D02*
X123649642Y-75457928D01*
X123649642Y-75457928D02*
X123756785Y-75457928D01*
X123756785Y-75457928D02*
X123828214Y-75493642D01*
X123828214Y-75493642D02*
X123863928Y-75529357D01*
X123863928Y-75529357D02*
X123899642Y-75600785D01*
X123899642Y-75600785D02*
X123899642Y-75779357D01*
X123899642Y-75779357D02*
X123863928Y-75850785D01*
X123863928Y-75850785D02*
X123828214Y-75886500D01*
X123828214Y-75886500D02*
X123756785Y-75922214D01*
X123756785Y-75922214D02*
X123542499Y-75922214D01*
X123542499Y-75922214D02*
X123471071Y-75886500D01*
X123471071Y-75886500D02*
X123435356Y-75850785D01*
X124149642Y-75172214D02*
X124649642Y-75172214D01*
X124649642Y-75172214D02*
X124328214Y-75922214D01*
X105554999Y-39747214D02*
X105304999Y-39390071D01*
X105126428Y-39747214D02*
X105126428Y-38997214D01*
X105126428Y-38997214D02*
X105412142Y-38997214D01*
X105412142Y-38997214D02*
X105483571Y-39032928D01*
X105483571Y-39032928D02*
X105519285Y-39068642D01*
X105519285Y-39068642D02*
X105554999Y-39140071D01*
X105554999Y-39140071D02*
X105554999Y-39247214D01*
X105554999Y-39247214D02*
X105519285Y-39318642D01*
X105519285Y-39318642D02*
X105483571Y-39354357D01*
X105483571Y-39354357D02*
X105412142Y-39390071D01*
X105412142Y-39390071D02*
X105126428Y-39390071D01*
X105983571Y-39318642D02*
X105912142Y-39282928D01*
X105912142Y-39282928D02*
X105876428Y-39247214D01*
X105876428Y-39247214D02*
X105840714Y-39175785D01*
X105840714Y-39175785D02*
X105840714Y-39140071D01*
X105840714Y-39140071D02*
X105876428Y-39068642D01*
X105876428Y-39068642D02*
X105912142Y-39032928D01*
X105912142Y-39032928D02*
X105983571Y-38997214D01*
X105983571Y-38997214D02*
X106126428Y-38997214D01*
X106126428Y-38997214D02*
X106197857Y-39032928D01*
X106197857Y-39032928D02*
X106233571Y-39068642D01*
X106233571Y-39068642D02*
X106269285Y-39140071D01*
X106269285Y-39140071D02*
X106269285Y-39175785D01*
X106269285Y-39175785D02*
X106233571Y-39247214D01*
X106233571Y-39247214D02*
X106197857Y-39282928D01*
X106197857Y-39282928D02*
X106126428Y-39318642D01*
X106126428Y-39318642D02*
X105983571Y-39318642D01*
X105983571Y-39318642D02*
X105912142Y-39354357D01*
X105912142Y-39354357D02*
X105876428Y-39390071D01*
X105876428Y-39390071D02*
X105840714Y-39461500D01*
X105840714Y-39461500D02*
X105840714Y-39604357D01*
X105840714Y-39604357D02*
X105876428Y-39675785D01*
X105876428Y-39675785D02*
X105912142Y-39711500D01*
X105912142Y-39711500D02*
X105983571Y-39747214D01*
X105983571Y-39747214D02*
X106126428Y-39747214D01*
X106126428Y-39747214D02*
X106197857Y-39711500D01*
X106197857Y-39711500D02*
X106233571Y-39675785D01*
X106233571Y-39675785D02*
X106269285Y-39604357D01*
X106269285Y-39604357D02*
X106269285Y-39461500D01*
X106269285Y-39461500D02*
X106233571Y-39390071D01*
X106233571Y-39390071D02*
X106197857Y-39354357D01*
X106197857Y-39354357D02*
X106126428Y-39318642D01*
X78097215Y-59349643D02*
X77740072Y-59599643D01*
X78097215Y-59778214D02*
X77347215Y-59778214D01*
X77347215Y-59778214D02*
X77347215Y-59492500D01*
X77347215Y-59492500D02*
X77382929Y-59421071D01*
X77382929Y-59421071D02*
X77418643Y-59385357D01*
X77418643Y-59385357D02*
X77490072Y-59349643D01*
X77490072Y-59349643D02*
X77597215Y-59349643D01*
X77597215Y-59349643D02*
X77668643Y-59385357D01*
X77668643Y-59385357D02*
X77704358Y-59421071D01*
X77704358Y-59421071D02*
X77740072Y-59492500D01*
X77740072Y-59492500D02*
X77740072Y-59778214D01*
X77347215Y-59099643D02*
X77347215Y-58635357D01*
X77347215Y-58635357D02*
X77632929Y-58885357D01*
X77632929Y-58885357D02*
X77632929Y-58778214D01*
X77632929Y-58778214D02*
X77668643Y-58706786D01*
X77668643Y-58706786D02*
X77704358Y-58671071D01*
X77704358Y-58671071D02*
X77775786Y-58635357D01*
X77775786Y-58635357D02*
X77954358Y-58635357D01*
X77954358Y-58635357D02*
X78025786Y-58671071D01*
X78025786Y-58671071D02*
X78061501Y-58706786D01*
X78061501Y-58706786D02*
X78097215Y-58778214D01*
X78097215Y-58778214D02*
X78097215Y-58992500D01*
X78097215Y-58992500D02*
X78061501Y-59063928D01*
X78061501Y-59063928D02*
X78025786Y-59099643D01*
X77347215Y-58385357D02*
X77347215Y-57921071D01*
X77347215Y-57921071D02*
X77632929Y-58171071D01*
X77632929Y-58171071D02*
X77632929Y-58063928D01*
X77632929Y-58063928D02*
X77668643Y-57992500D01*
X77668643Y-57992500D02*
X77704358Y-57956785D01*
X77704358Y-57956785D02*
X77775786Y-57921071D01*
X77775786Y-57921071D02*
X77954358Y-57921071D01*
X77954358Y-57921071D02*
X78025786Y-57956785D01*
X78025786Y-57956785D02*
X78061501Y-57992500D01*
X78061501Y-57992500D02*
X78097215Y-58063928D01*
X78097215Y-58063928D02*
X78097215Y-58278214D01*
X78097215Y-58278214D02*
X78061501Y-58349642D01*
X78061501Y-58349642D02*
X78025786Y-58385357D01*
D15*
X95466666Y-61654819D02*
X95466666Y-62369104D01*
X95466666Y-62369104D02*
X95419047Y-62511961D01*
X95419047Y-62511961D02*
X95323809Y-62607200D01*
X95323809Y-62607200D02*
X95180952Y-62654819D01*
X95180952Y-62654819D02*
X95085714Y-62654819D01*
X95990476Y-62654819D02*
X96180952Y-62654819D01*
X96180952Y-62654819D02*
X96276190Y-62607200D01*
X96276190Y-62607200D02*
X96323809Y-62559580D01*
X96323809Y-62559580D02*
X96419047Y-62416723D01*
X96419047Y-62416723D02*
X96466666Y-62226247D01*
X96466666Y-62226247D02*
X96466666Y-61845295D01*
X96466666Y-61845295D02*
X96419047Y-61750057D01*
X96419047Y-61750057D02*
X96371428Y-61702438D01*
X96371428Y-61702438D02*
X96276190Y-61654819D01*
X96276190Y-61654819D02*
X96085714Y-61654819D01*
X96085714Y-61654819D02*
X95990476Y-61702438D01*
X95990476Y-61702438D02*
X95942857Y-61750057D01*
X95942857Y-61750057D02*
X95895238Y-61845295D01*
X95895238Y-61845295D02*
X95895238Y-62083390D01*
X95895238Y-62083390D02*
X95942857Y-62178628D01*
X95942857Y-62178628D02*
X95990476Y-62226247D01*
X95990476Y-62226247D02*
X96085714Y-62273866D01*
X96085714Y-62273866D02*
X96276190Y-62273866D01*
X96276190Y-62273866D02*
X96371428Y-62226247D01*
X96371428Y-62226247D02*
X96419047Y-62178628D01*
X96419047Y-62178628D02*
X96466666Y-62083390D01*
D14*
X101917856Y-39567214D02*
X101667856Y-39210071D01*
X101489285Y-39567214D02*
X101489285Y-38817214D01*
X101489285Y-38817214D02*
X101774999Y-38817214D01*
X101774999Y-38817214D02*
X101846428Y-38852928D01*
X101846428Y-38852928D02*
X101882142Y-38888642D01*
X101882142Y-38888642D02*
X101917856Y-38960071D01*
X101917856Y-38960071D02*
X101917856Y-39067214D01*
X101917856Y-39067214D02*
X101882142Y-39138642D01*
X101882142Y-39138642D02*
X101846428Y-39174357D01*
X101846428Y-39174357D02*
X101774999Y-39210071D01*
X101774999Y-39210071D02*
X101489285Y-39210071D01*
X102632142Y-39567214D02*
X102203571Y-39567214D01*
X102417856Y-39567214D02*
X102417856Y-38817214D01*
X102417856Y-38817214D02*
X102346428Y-38924357D01*
X102346428Y-38924357D02*
X102274999Y-38995785D01*
X102274999Y-38995785D02*
X102203571Y-39031500D01*
X103096428Y-38817214D02*
X103167857Y-38817214D01*
X103167857Y-38817214D02*
X103239285Y-38852928D01*
X103239285Y-38852928D02*
X103275000Y-38888642D01*
X103275000Y-38888642D02*
X103310714Y-38960071D01*
X103310714Y-38960071D02*
X103346428Y-39102928D01*
X103346428Y-39102928D02*
X103346428Y-39281500D01*
X103346428Y-39281500D02*
X103310714Y-39424357D01*
X103310714Y-39424357D02*
X103275000Y-39495785D01*
X103275000Y-39495785D02*
X103239285Y-39531500D01*
X103239285Y-39531500D02*
X103167857Y-39567214D01*
X103167857Y-39567214D02*
X103096428Y-39567214D01*
X103096428Y-39567214D02*
X103025000Y-39531500D01*
X103025000Y-39531500D02*
X102989285Y-39495785D01*
X102989285Y-39495785D02*
X102953571Y-39424357D01*
X102953571Y-39424357D02*
X102917857Y-39281500D01*
X102917857Y-39281500D02*
X102917857Y-39102928D01*
X102917857Y-39102928D02*
X102953571Y-38960071D01*
X102953571Y-38960071D02*
X102989285Y-38888642D01*
X102989285Y-38888642D02*
X103025000Y-38852928D01*
X103025000Y-38852928D02*
X103096428Y-38817214D01*
X158745000Y-36582214D02*
X158745000Y-37117928D01*
X158745000Y-37117928D02*
X158709285Y-37225071D01*
X158709285Y-37225071D02*
X158637857Y-37296500D01*
X158637857Y-37296500D02*
X158530714Y-37332214D01*
X158530714Y-37332214D02*
X158459285Y-37332214D01*
X159030714Y-36582214D02*
X159530714Y-36582214D01*
X159530714Y-36582214D02*
X159209286Y-37332214D01*
D15*
X134494819Y-78009523D02*
X135209104Y-78009523D01*
X135209104Y-78009523D02*
X135351961Y-78057142D01*
X135351961Y-78057142D02*
X135447200Y-78152380D01*
X135447200Y-78152380D02*
X135494819Y-78295237D01*
X135494819Y-78295237D02*
X135494819Y-78390475D01*
X135494819Y-77009523D02*
X135494819Y-77580951D01*
X135494819Y-77295237D02*
X134494819Y-77295237D01*
X134494819Y-77295237D02*
X134637676Y-77390475D01*
X134637676Y-77390475D02*
X134732914Y-77485713D01*
X134732914Y-77485713D02*
X134780533Y-77580951D01*
X135494819Y-76057142D02*
X135494819Y-76628570D01*
X135494819Y-76342856D02*
X134494819Y-76342856D01*
X134494819Y-76342856D02*
X134637676Y-76438094D01*
X134637676Y-76438094D02*
X134732914Y-76533332D01*
X134732914Y-76533332D02*
X134780533Y-76628570D01*
X145049819Y-77884523D02*
X145764104Y-77884523D01*
X145764104Y-77884523D02*
X145906961Y-77932142D01*
X145906961Y-77932142D02*
X146002200Y-78027380D01*
X146002200Y-78027380D02*
X146049819Y-78170237D01*
X146049819Y-78170237D02*
X146049819Y-78265475D01*
X146049819Y-76884523D02*
X146049819Y-77455951D01*
X146049819Y-77170237D02*
X145049819Y-77170237D01*
X145049819Y-77170237D02*
X145192676Y-77265475D01*
X145192676Y-77265475D02*
X145287914Y-77360713D01*
X145287914Y-77360713D02*
X145335533Y-77455951D01*
X145145057Y-76503570D02*
X145097438Y-76455951D01*
X145097438Y-76455951D02*
X145049819Y-76360713D01*
X145049819Y-76360713D02*
X145049819Y-76122618D01*
X145049819Y-76122618D02*
X145097438Y-76027380D01*
X145097438Y-76027380D02*
X145145057Y-75979761D01*
X145145057Y-75979761D02*
X145240295Y-75932142D01*
X145240295Y-75932142D02*
X145335533Y-75932142D01*
X145335533Y-75932142D02*
X145478390Y-75979761D01*
X145478390Y-75979761D02*
X146049819Y-76551189D01*
X146049819Y-76551189D02*
X146049819Y-75932142D01*
D14*
X139037214Y-59382143D02*
X138680071Y-59632143D01*
X139037214Y-59810714D02*
X138287214Y-59810714D01*
X138287214Y-59810714D02*
X138287214Y-59525000D01*
X138287214Y-59525000D02*
X138322928Y-59453571D01*
X138322928Y-59453571D02*
X138358642Y-59417857D01*
X138358642Y-59417857D02*
X138430071Y-59382143D01*
X138430071Y-59382143D02*
X138537214Y-59382143D01*
X138537214Y-59382143D02*
X138608642Y-59417857D01*
X138608642Y-59417857D02*
X138644357Y-59453571D01*
X138644357Y-59453571D02*
X138680071Y-59525000D01*
X138680071Y-59525000D02*
X138680071Y-59810714D01*
X138358642Y-59096428D02*
X138322928Y-59060714D01*
X138322928Y-59060714D02*
X138287214Y-58989286D01*
X138287214Y-58989286D02*
X138287214Y-58810714D01*
X138287214Y-58810714D02*
X138322928Y-58739286D01*
X138322928Y-58739286D02*
X138358642Y-58703571D01*
X138358642Y-58703571D02*
X138430071Y-58667857D01*
X138430071Y-58667857D02*
X138501500Y-58667857D01*
X138501500Y-58667857D02*
X138608642Y-58703571D01*
X138608642Y-58703571D02*
X139037214Y-59132143D01*
X139037214Y-59132143D02*
X139037214Y-58667857D01*
X139037214Y-58310714D02*
X139037214Y-58167857D01*
X139037214Y-58167857D02*
X139001500Y-58096428D01*
X139001500Y-58096428D02*
X138965785Y-58060714D01*
X138965785Y-58060714D02*
X138858642Y-57989285D01*
X138858642Y-57989285D02*
X138715785Y-57953571D01*
X138715785Y-57953571D02*
X138430071Y-57953571D01*
X138430071Y-57953571D02*
X138358642Y-57989285D01*
X138358642Y-57989285D02*
X138322928Y-58025000D01*
X138322928Y-58025000D02*
X138287214Y-58096428D01*
X138287214Y-58096428D02*
X138287214Y-58239285D01*
X138287214Y-58239285D02*
X138322928Y-58310714D01*
X138322928Y-58310714D02*
X138358642Y-58346428D01*
X138358642Y-58346428D02*
X138430071Y-58382142D01*
X138430071Y-58382142D02*
X138608642Y-58382142D01*
X138608642Y-58382142D02*
X138680071Y-58346428D01*
X138680071Y-58346428D02*
X138715785Y-58310714D01*
X138715785Y-58310714D02*
X138751500Y-58239285D01*
X138751500Y-58239285D02*
X138751500Y-58096428D01*
X138751500Y-58096428D02*
X138715785Y-58025000D01*
X138715785Y-58025000D02*
X138680071Y-57989285D01*
X138680071Y-57989285D02*
X138608642Y-57953571D01*
X105547214Y-45542500D02*
X105190071Y-45792500D01*
X105547214Y-45971071D02*
X104797214Y-45971071D01*
X104797214Y-45971071D02*
X104797214Y-45685357D01*
X104797214Y-45685357D02*
X104832928Y-45613928D01*
X104832928Y-45613928D02*
X104868642Y-45578214D01*
X104868642Y-45578214D02*
X104940071Y-45542500D01*
X104940071Y-45542500D02*
X105047214Y-45542500D01*
X105047214Y-45542500D02*
X105118642Y-45578214D01*
X105118642Y-45578214D02*
X105154357Y-45613928D01*
X105154357Y-45613928D02*
X105190071Y-45685357D01*
X105190071Y-45685357D02*
X105190071Y-45971071D01*
X104797214Y-45292500D02*
X104797214Y-44828214D01*
X104797214Y-44828214D02*
X105082928Y-45078214D01*
X105082928Y-45078214D02*
X105082928Y-44971071D01*
X105082928Y-44971071D02*
X105118642Y-44899643D01*
X105118642Y-44899643D02*
X105154357Y-44863928D01*
X105154357Y-44863928D02*
X105225785Y-44828214D01*
X105225785Y-44828214D02*
X105404357Y-44828214D01*
X105404357Y-44828214D02*
X105475785Y-44863928D01*
X105475785Y-44863928D02*
X105511500Y-44899643D01*
X105511500Y-44899643D02*
X105547214Y-44971071D01*
X105547214Y-44971071D02*
X105547214Y-45185357D01*
X105547214Y-45185357D02*
X105511500Y-45256785D01*
X105511500Y-45256785D02*
X105475785Y-45292500D01*
X79339286Y-54949714D02*
X79339286Y-54199714D01*
X79339286Y-54199714D02*
X79517857Y-54199714D01*
X79517857Y-54199714D02*
X79625000Y-54235428D01*
X79625000Y-54235428D02*
X79696429Y-54306857D01*
X79696429Y-54306857D02*
X79732143Y-54378285D01*
X79732143Y-54378285D02*
X79767857Y-54521142D01*
X79767857Y-54521142D02*
X79767857Y-54628285D01*
X79767857Y-54628285D02*
X79732143Y-54771142D01*
X79732143Y-54771142D02*
X79696429Y-54842571D01*
X79696429Y-54842571D02*
X79625000Y-54914000D01*
X79625000Y-54914000D02*
X79517857Y-54949714D01*
X79517857Y-54949714D02*
X79339286Y-54949714D01*
X80482143Y-54949714D02*
X80053572Y-54949714D01*
X80267857Y-54949714D02*
X80267857Y-54199714D01*
X80267857Y-54199714D02*
X80196429Y-54306857D01*
X80196429Y-54306857D02*
X80125000Y-54378285D01*
X80125000Y-54378285D02*
X80053572Y-54414000D01*
X80946429Y-54199714D02*
X81017858Y-54199714D01*
X81017858Y-54199714D02*
X81089286Y-54235428D01*
X81089286Y-54235428D02*
X81125001Y-54271142D01*
X81125001Y-54271142D02*
X81160715Y-54342571D01*
X81160715Y-54342571D02*
X81196429Y-54485428D01*
X81196429Y-54485428D02*
X81196429Y-54664000D01*
X81196429Y-54664000D02*
X81160715Y-54806857D01*
X81160715Y-54806857D02*
X81125001Y-54878285D01*
X81125001Y-54878285D02*
X81089286Y-54914000D01*
X81089286Y-54914000D02*
X81017858Y-54949714D01*
X81017858Y-54949714D02*
X80946429Y-54949714D01*
X80946429Y-54949714D02*
X80875001Y-54914000D01*
X80875001Y-54914000D02*
X80839286Y-54878285D01*
X80839286Y-54878285D02*
X80803572Y-54806857D01*
X80803572Y-54806857D02*
X80767858Y-54664000D01*
X80767858Y-54664000D02*
X80767858Y-54485428D01*
X80767858Y-54485428D02*
X80803572Y-54342571D01*
X80803572Y-54342571D02*
X80839286Y-54271142D01*
X80839286Y-54271142D02*
X80875001Y-54235428D01*
X80875001Y-54235428D02*
X80946429Y-54199714D01*
D15*
X137915476Y-44329819D02*
X137915476Y-45044104D01*
X137915476Y-45044104D02*
X137867857Y-45186961D01*
X137867857Y-45186961D02*
X137772619Y-45282200D01*
X137772619Y-45282200D02*
X137629762Y-45329819D01*
X137629762Y-45329819D02*
X137534524Y-45329819D01*
X138915476Y-45329819D02*
X138344048Y-45329819D01*
X138629762Y-45329819D02*
X138629762Y-44329819D01*
X138629762Y-44329819D02*
X138534524Y-44472676D01*
X138534524Y-44472676D02*
X138439286Y-44567914D01*
X138439286Y-44567914D02*
X138344048Y-44615533D01*
X139486905Y-44758390D02*
X139391667Y-44710771D01*
X139391667Y-44710771D02*
X139344048Y-44663152D01*
X139344048Y-44663152D02*
X139296429Y-44567914D01*
X139296429Y-44567914D02*
X139296429Y-44520295D01*
X139296429Y-44520295D02*
X139344048Y-44425057D01*
X139344048Y-44425057D02*
X139391667Y-44377438D01*
X139391667Y-44377438D02*
X139486905Y-44329819D01*
X139486905Y-44329819D02*
X139677381Y-44329819D01*
X139677381Y-44329819D02*
X139772619Y-44377438D01*
X139772619Y-44377438D02*
X139820238Y-44425057D01*
X139820238Y-44425057D02*
X139867857Y-44520295D01*
X139867857Y-44520295D02*
X139867857Y-44567914D01*
X139867857Y-44567914D02*
X139820238Y-44663152D01*
X139820238Y-44663152D02*
X139772619Y-44710771D01*
X139772619Y-44710771D02*
X139677381Y-44758390D01*
X139677381Y-44758390D02*
X139486905Y-44758390D01*
X139486905Y-44758390D02*
X139391667Y-44806009D01*
X139391667Y-44806009D02*
X139344048Y-44853628D01*
X139344048Y-44853628D02*
X139296429Y-44948866D01*
X139296429Y-44948866D02*
X139296429Y-45139342D01*
X139296429Y-45139342D02*
X139344048Y-45234580D01*
X139344048Y-45234580D02*
X139391667Y-45282200D01*
X139391667Y-45282200D02*
X139486905Y-45329819D01*
X139486905Y-45329819D02*
X139677381Y-45329819D01*
X139677381Y-45329819D02*
X139772619Y-45282200D01*
X139772619Y-45282200D02*
X139820238Y-45234580D01*
X139820238Y-45234580D02*
X139867857Y-45139342D01*
X139867857Y-45139342D02*
X139867857Y-44948866D01*
X139867857Y-44948866D02*
X139820238Y-44853628D01*
X139820238Y-44853628D02*
X139772619Y-44806009D01*
X139772619Y-44806009D02*
X139677381Y-44758390D01*
D14*
X123697214Y-54962143D02*
X123340071Y-55212143D01*
X123697214Y-55390714D02*
X122947214Y-55390714D01*
X122947214Y-55390714D02*
X122947214Y-55105000D01*
X122947214Y-55105000D02*
X122982928Y-55033571D01*
X122982928Y-55033571D02*
X123018642Y-54997857D01*
X123018642Y-54997857D02*
X123090071Y-54962143D01*
X123090071Y-54962143D02*
X123197214Y-54962143D01*
X123197214Y-54962143D02*
X123268642Y-54997857D01*
X123268642Y-54997857D02*
X123304357Y-55033571D01*
X123304357Y-55033571D02*
X123340071Y-55105000D01*
X123340071Y-55105000D02*
X123340071Y-55390714D01*
X122947214Y-54712143D02*
X122947214Y-54247857D01*
X122947214Y-54247857D02*
X123232928Y-54497857D01*
X123232928Y-54497857D02*
X123232928Y-54390714D01*
X123232928Y-54390714D02*
X123268642Y-54319286D01*
X123268642Y-54319286D02*
X123304357Y-54283571D01*
X123304357Y-54283571D02*
X123375785Y-54247857D01*
X123375785Y-54247857D02*
X123554357Y-54247857D01*
X123554357Y-54247857D02*
X123625785Y-54283571D01*
X123625785Y-54283571D02*
X123661500Y-54319286D01*
X123661500Y-54319286D02*
X123697214Y-54390714D01*
X123697214Y-54390714D02*
X123697214Y-54605000D01*
X123697214Y-54605000D02*
X123661500Y-54676428D01*
X123661500Y-54676428D02*
X123625785Y-54712143D01*
X123197214Y-53605000D02*
X123697214Y-53605000D01*
X122911500Y-53783571D02*
X123447214Y-53962142D01*
X123447214Y-53962142D02*
X123447214Y-53497857D01*
X128492857Y-46287214D02*
X128492857Y-46822928D01*
X128492857Y-46822928D02*
X128457142Y-46930071D01*
X128457142Y-46930071D02*
X128385714Y-47001500D01*
X128385714Y-47001500D02*
X128278571Y-47037214D01*
X128278571Y-47037214D02*
X128207142Y-47037214D01*
X129242857Y-47037214D02*
X128814286Y-47037214D01*
X129028571Y-47037214D02*
X129028571Y-46287214D01*
X129028571Y-46287214D02*
X128957143Y-46394357D01*
X128957143Y-46394357D02*
X128885714Y-46465785D01*
X128885714Y-46465785D02*
X128814286Y-46501500D01*
X129885715Y-46537214D02*
X129885715Y-47037214D01*
X129707143Y-46251500D02*
X129528572Y-46787214D01*
X129528572Y-46787214D02*
X129992857Y-46787214D01*
X119335071Y-62302142D02*
X119692214Y-62302142D01*
X118942214Y-62552142D02*
X119335071Y-62302142D01*
X119335071Y-62302142D02*
X118942214Y-62052142D01*
X119013642Y-61837856D02*
X118977928Y-61802142D01*
X118977928Y-61802142D02*
X118942214Y-61730714D01*
X118942214Y-61730714D02*
X118942214Y-61552142D01*
X118942214Y-61552142D02*
X118977928Y-61480714D01*
X118977928Y-61480714D02*
X119013642Y-61444999D01*
X119013642Y-61444999D02*
X119085071Y-61409285D01*
X119085071Y-61409285D02*
X119156500Y-61409285D01*
X119156500Y-61409285D02*
X119263642Y-61444999D01*
X119263642Y-61444999D02*
X119692214Y-61873571D01*
X119692214Y-61873571D02*
X119692214Y-61409285D01*
X86692857Y-76587214D02*
X86692857Y-77122928D01*
X86692857Y-77122928D02*
X86657142Y-77230071D01*
X86657142Y-77230071D02*
X86585714Y-77301500D01*
X86585714Y-77301500D02*
X86478571Y-77337214D01*
X86478571Y-77337214D02*
X86407142Y-77337214D01*
X87442857Y-77337214D02*
X87014286Y-77337214D01*
X87228571Y-77337214D02*
X87228571Y-76587214D01*
X87228571Y-76587214D02*
X87157143Y-76694357D01*
X87157143Y-76694357D02*
X87085714Y-76765785D01*
X87085714Y-76765785D02*
X87014286Y-76801500D01*
X87692857Y-76587214D02*
X88192857Y-76587214D01*
X88192857Y-76587214D02*
X87871429Y-77337214D01*
X152388571Y-36287214D02*
X152388571Y-36894357D01*
X152388571Y-36894357D02*
X152424285Y-36965785D01*
X152424285Y-36965785D02*
X152460000Y-37001500D01*
X152460000Y-37001500D02*
X152531428Y-37037214D01*
X152531428Y-37037214D02*
X152674285Y-37037214D01*
X152674285Y-37037214D02*
X152745714Y-37001500D01*
X152745714Y-37001500D02*
X152781428Y-36965785D01*
X152781428Y-36965785D02*
X152817142Y-36894357D01*
X152817142Y-36894357D02*
X152817142Y-36287214D01*
X153102856Y-36287214D02*
X153602856Y-36287214D01*
X153602856Y-36287214D02*
X153281428Y-37037214D01*
D15*
X130156905Y-57924819D02*
X130156905Y-56924819D01*
X130156905Y-56924819D02*
X130395000Y-56924819D01*
X130395000Y-56924819D02*
X130537857Y-56972438D01*
X130537857Y-56972438D02*
X130633095Y-57067676D01*
X130633095Y-57067676D02*
X130680714Y-57162914D01*
X130680714Y-57162914D02*
X130728333Y-57353390D01*
X130728333Y-57353390D02*
X130728333Y-57496247D01*
X130728333Y-57496247D02*
X130680714Y-57686723D01*
X130680714Y-57686723D02*
X130633095Y-57781961D01*
X130633095Y-57781961D02*
X130537857Y-57877200D01*
X130537857Y-57877200D02*
X130395000Y-57924819D01*
X130395000Y-57924819D02*
X130156905Y-57924819D01*
X131204524Y-57924819D02*
X131395000Y-57924819D01*
X131395000Y-57924819D02*
X131490238Y-57877200D01*
X131490238Y-57877200D02*
X131537857Y-57829580D01*
X131537857Y-57829580D02*
X131633095Y-57686723D01*
X131633095Y-57686723D02*
X131680714Y-57496247D01*
X131680714Y-57496247D02*
X131680714Y-57115295D01*
X131680714Y-57115295D02*
X131633095Y-57020057D01*
X131633095Y-57020057D02*
X131585476Y-56972438D01*
X131585476Y-56972438D02*
X131490238Y-56924819D01*
X131490238Y-56924819D02*
X131299762Y-56924819D01*
X131299762Y-56924819D02*
X131204524Y-56972438D01*
X131204524Y-56972438D02*
X131156905Y-57020057D01*
X131156905Y-57020057D02*
X131109286Y-57115295D01*
X131109286Y-57115295D02*
X131109286Y-57353390D01*
X131109286Y-57353390D02*
X131156905Y-57448628D01*
X131156905Y-57448628D02*
X131204524Y-57496247D01*
X131204524Y-57496247D02*
X131299762Y-57543866D01*
X131299762Y-57543866D02*
X131490238Y-57543866D01*
X131490238Y-57543866D02*
X131585476Y-57496247D01*
X131585476Y-57496247D02*
X131633095Y-57448628D01*
X131633095Y-57448628D02*
X131680714Y-57353390D01*
D14*
X164465393Y-44559214D02*
X164501107Y-44523500D01*
X164501107Y-44523500D02*
X164608250Y-44487785D01*
X164608250Y-44487785D02*
X164679678Y-44487785D01*
X164679678Y-44487785D02*
X164786821Y-44523500D01*
X164786821Y-44523500D02*
X164858250Y-44594928D01*
X164858250Y-44594928D02*
X164893964Y-44666357D01*
X164893964Y-44666357D02*
X164929678Y-44809214D01*
X164929678Y-44809214D02*
X164929678Y-44916357D01*
X164929678Y-44916357D02*
X164893964Y-45059214D01*
X164893964Y-45059214D02*
X164858250Y-45130642D01*
X164858250Y-45130642D02*
X164786821Y-45202071D01*
X164786821Y-45202071D02*
X164679678Y-45237785D01*
X164679678Y-45237785D02*
X164608250Y-45237785D01*
X164608250Y-45237785D02*
X164501107Y-45202071D01*
X164501107Y-45202071D02*
X164465393Y-45166357D01*
X163751107Y-44487785D02*
X164179678Y-44487785D01*
X163965393Y-44487785D02*
X163965393Y-45237785D01*
X163965393Y-45237785D02*
X164036821Y-45130642D01*
X164036821Y-45130642D02*
X164108250Y-45059214D01*
X164108250Y-45059214D02*
X164179678Y-45023500D01*
X163286821Y-45237785D02*
X163215392Y-45237785D01*
X163215392Y-45237785D02*
X163143964Y-45202071D01*
X163143964Y-45202071D02*
X163108250Y-45166357D01*
X163108250Y-45166357D02*
X163072535Y-45094928D01*
X163072535Y-45094928D02*
X163036821Y-44952071D01*
X163036821Y-44952071D02*
X163036821Y-44773500D01*
X163036821Y-44773500D02*
X163072535Y-44630642D01*
X163072535Y-44630642D02*
X163108250Y-44559214D01*
X163108250Y-44559214D02*
X163143964Y-44523500D01*
X163143964Y-44523500D02*
X163215392Y-44487785D01*
X163215392Y-44487785D02*
X163286821Y-44487785D01*
X163286821Y-44487785D02*
X163358250Y-44523500D01*
X163358250Y-44523500D02*
X163393964Y-44559214D01*
X163393964Y-44559214D02*
X163429678Y-44630642D01*
X163429678Y-44630642D02*
X163465392Y-44773500D01*
X163465392Y-44773500D02*
X163465392Y-44952071D01*
X163465392Y-44952071D02*
X163429678Y-45094928D01*
X163429678Y-45094928D02*
X163393964Y-45166357D01*
X163393964Y-45166357D02*
X163358250Y-45202071D01*
X163358250Y-45202071D02*
X163286821Y-45237785D01*
X152737214Y-62453571D02*
X151987214Y-62453571D01*
X151987214Y-62453571D02*
X151987214Y-62275000D01*
X151987214Y-62275000D02*
X152022928Y-62167857D01*
X152022928Y-62167857D02*
X152094357Y-62096428D01*
X152094357Y-62096428D02*
X152165785Y-62060714D01*
X152165785Y-62060714D02*
X152308642Y-62025000D01*
X152308642Y-62025000D02*
X152415785Y-62025000D01*
X152415785Y-62025000D02*
X152558642Y-62060714D01*
X152558642Y-62060714D02*
X152630071Y-62096428D01*
X152630071Y-62096428D02*
X152701500Y-62167857D01*
X152701500Y-62167857D02*
X152737214Y-62275000D01*
X152737214Y-62275000D02*
X152737214Y-62453571D01*
X151987214Y-61346428D02*
X151987214Y-61703571D01*
X151987214Y-61703571D02*
X152344357Y-61739285D01*
X152344357Y-61739285D02*
X152308642Y-61703571D01*
X152308642Y-61703571D02*
X152272928Y-61632143D01*
X152272928Y-61632143D02*
X152272928Y-61453571D01*
X152272928Y-61453571D02*
X152308642Y-61382143D01*
X152308642Y-61382143D02*
X152344357Y-61346428D01*
X152344357Y-61346428D02*
X152415785Y-61310714D01*
X152415785Y-61310714D02*
X152594357Y-61310714D01*
X152594357Y-61310714D02*
X152665785Y-61346428D01*
X152665785Y-61346428D02*
X152701500Y-61382143D01*
X152701500Y-61382143D02*
X152737214Y-61453571D01*
X152737214Y-61453571D02*
X152737214Y-61632143D01*
X152737214Y-61632143D02*
X152701500Y-61703571D01*
X152701500Y-61703571D02*
X152665785Y-61739285D01*
X101907214Y-43017500D02*
X101550071Y-43267500D01*
X101907214Y-43446071D02*
X101157214Y-43446071D01*
X101157214Y-43446071D02*
X101157214Y-43160357D01*
X101157214Y-43160357D02*
X101192928Y-43088928D01*
X101192928Y-43088928D02*
X101228642Y-43053214D01*
X101228642Y-43053214D02*
X101300071Y-43017500D01*
X101300071Y-43017500D02*
X101407214Y-43017500D01*
X101407214Y-43017500D02*
X101478642Y-43053214D01*
X101478642Y-43053214D02*
X101514357Y-43088928D01*
X101514357Y-43088928D02*
X101550071Y-43160357D01*
X101550071Y-43160357D02*
X101550071Y-43446071D01*
X101228642Y-42731785D02*
X101192928Y-42696071D01*
X101192928Y-42696071D02*
X101157214Y-42624643D01*
X101157214Y-42624643D02*
X101157214Y-42446071D01*
X101157214Y-42446071D02*
X101192928Y-42374643D01*
X101192928Y-42374643D02*
X101228642Y-42338928D01*
X101228642Y-42338928D02*
X101300071Y-42303214D01*
X101300071Y-42303214D02*
X101371500Y-42303214D01*
X101371500Y-42303214D02*
X101478642Y-42338928D01*
X101478642Y-42338928D02*
X101907214Y-42767500D01*
X101907214Y-42767500D02*
X101907214Y-42303214D01*
X155417856Y-56637214D02*
X155167856Y-56280071D01*
X154989285Y-56637214D02*
X154989285Y-55887214D01*
X154989285Y-55887214D02*
X155274999Y-55887214D01*
X155274999Y-55887214D02*
X155346428Y-55922928D01*
X155346428Y-55922928D02*
X155382142Y-55958642D01*
X155382142Y-55958642D02*
X155417856Y-56030071D01*
X155417856Y-56030071D02*
X155417856Y-56137214D01*
X155417856Y-56137214D02*
X155382142Y-56208642D01*
X155382142Y-56208642D02*
X155346428Y-56244357D01*
X155346428Y-56244357D02*
X155274999Y-56280071D01*
X155274999Y-56280071D02*
X154989285Y-56280071D01*
X156132142Y-56637214D02*
X155703571Y-56637214D01*
X155917856Y-56637214D02*
X155917856Y-55887214D01*
X155917856Y-55887214D02*
X155846428Y-55994357D01*
X155846428Y-55994357D02*
X155774999Y-56065785D01*
X155774999Y-56065785D02*
X155703571Y-56101500D01*
X156489285Y-56637214D02*
X156632142Y-56637214D01*
X156632142Y-56637214D02*
X156703571Y-56601500D01*
X156703571Y-56601500D02*
X156739285Y-56565785D01*
X156739285Y-56565785D02*
X156810714Y-56458642D01*
X156810714Y-56458642D02*
X156846428Y-56315785D01*
X156846428Y-56315785D02*
X156846428Y-56030071D01*
X156846428Y-56030071D02*
X156810714Y-55958642D01*
X156810714Y-55958642D02*
X156775000Y-55922928D01*
X156775000Y-55922928D02*
X156703571Y-55887214D01*
X156703571Y-55887214D02*
X156560714Y-55887214D01*
X156560714Y-55887214D02*
X156489285Y-55922928D01*
X156489285Y-55922928D02*
X156453571Y-55958642D01*
X156453571Y-55958642D02*
X156417857Y-56030071D01*
X156417857Y-56030071D02*
X156417857Y-56208642D01*
X156417857Y-56208642D02*
X156453571Y-56280071D01*
X156453571Y-56280071D02*
X156489285Y-56315785D01*
X156489285Y-56315785D02*
X156560714Y-56351500D01*
X156560714Y-56351500D02*
X156703571Y-56351500D01*
X156703571Y-56351500D02*
X156775000Y-56315785D01*
X156775000Y-56315785D02*
X156810714Y-56280071D01*
X156810714Y-56280071D02*
X156846428Y-56208642D01*
X117110356Y-37977214D02*
X116860356Y-37620071D01*
X116681785Y-37977214D02*
X116681785Y-37227214D01*
X116681785Y-37227214D02*
X116967499Y-37227214D01*
X116967499Y-37227214D02*
X117038928Y-37262928D01*
X117038928Y-37262928D02*
X117074642Y-37298642D01*
X117074642Y-37298642D02*
X117110356Y-37370071D01*
X117110356Y-37370071D02*
X117110356Y-37477214D01*
X117110356Y-37477214D02*
X117074642Y-37548642D01*
X117074642Y-37548642D02*
X117038928Y-37584357D01*
X117038928Y-37584357D02*
X116967499Y-37620071D01*
X116967499Y-37620071D02*
X116681785Y-37620071D01*
X117396071Y-37298642D02*
X117431785Y-37262928D01*
X117431785Y-37262928D02*
X117503214Y-37227214D01*
X117503214Y-37227214D02*
X117681785Y-37227214D01*
X117681785Y-37227214D02*
X117753214Y-37262928D01*
X117753214Y-37262928D02*
X117788928Y-37298642D01*
X117788928Y-37298642D02*
X117824642Y-37370071D01*
X117824642Y-37370071D02*
X117824642Y-37441500D01*
X117824642Y-37441500D02*
X117788928Y-37548642D01*
X117788928Y-37548642D02*
X117360356Y-37977214D01*
X117360356Y-37977214D02*
X117824642Y-37977214D01*
X118110357Y-37298642D02*
X118146071Y-37262928D01*
X118146071Y-37262928D02*
X118217500Y-37227214D01*
X118217500Y-37227214D02*
X118396071Y-37227214D01*
X118396071Y-37227214D02*
X118467500Y-37262928D01*
X118467500Y-37262928D02*
X118503214Y-37298642D01*
X118503214Y-37298642D02*
X118538928Y-37370071D01*
X118538928Y-37370071D02*
X118538928Y-37441500D01*
X118538928Y-37441500D02*
X118503214Y-37548642D01*
X118503214Y-37548642D02*
X118074642Y-37977214D01*
X118074642Y-37977214D02*
X118538928Y-37977214D01*
X147337214Y-59382143D02*
X146980071Y-59632143D01*
X147337214Y-59810714D02*
X146587214Y-59810714D01*
X146587214Y-59810714D02*
X146587214Y-59525000D01*
X146587214Y-59525000D02*
X146622928Y-59453571D01*
X146622928Y-59453571D02*
X146658642Y-59417857D01*
X146658642Y-59417857D02*
X146730071Y-59382143D01*
X146730071Y-59382143D02*
X146837214Y-59382143D01*
X146837214Y-59382143D02*
X146908642Y-59417857D01*
X146908642Y-59417857D02*
X146944357Y-59453571D01*
X146944357Y-59453571D02*
X146980071Y-59525000D01*
X146980071Y-59525000D02*
X146980071Y-59810714D01*
X146658642Y-59096428D02*
X146622928Y-59060714D01*
X146622928Y-59060714D02*
X146587214Y-58989286D01*
X146587214Y-58989286D02*
X146587214Y-58810714D01*
X146587214Y-58810714D02*
X146622928Y-58739286D01*
X146622928Y-58739286D02*
X146658642Y-58703571D01*
X146658642Y-58703571D02*
X146730071Y-58667857D01*
X146730071Y-58667857D02*
X146801500Y-58667857D01*
X146801500Y-58667857D02*
X146908642Y-58703571D01*
X146908642Y-58703571D02*
X147337214Y-59132143D01*
X147337214Y-59132143D02*
X147337214Y-58667857D01*
X146587214Y-58417857D02*
X146587214Y-57917857D01*
X146587214Y-57917857D02*
X147337214Y-58239285D01*
%TO.C,D11*%
D16*
X170885000Y-52815000D02*
X169415000Y-52815000D01*
X169415000Y-52815000D02*
X169415000Y-55275000D01*
X170885000Y-55275000D02*
X170885000Y-52815000D01*
%TO.C,C1*%
X107470000Y-42003733D02*
X107470000Y-42296267D01*
X106450000Y-42003733D02*
X106450000Y-42296267D01*
%TO.C,J15*%
X174005000Y-43055000D02*
X174005000Y-63435000D01*
X174005000Y-43055000D02*
X176665000Y-43055000D01*
X174005000Y-63435000D02*
X176665000Y-63435000D01*
X175335000Y-40455000D02*
X176665000Y-40455000D01*
X176665000Y-40455000D02*
X176665000Y-41785000D01*
X176665000Y-43055000D02*
X176665000Y-63435000D01*
%TO.C,C14*%
X131715000Y-64656233D02*
X131715000Y-64948767D01*
X130695000Y-64656233D02*
X130695000Y-64948767D01*
%TO.C,J5*%
X113995000Y-53295000D02*
X113995000Y-60975000D01*
X113995000Y-53295000D02*
X116655000Y-53295000D01*
X113995000Y-60975000D02*
X116655000Y-60975000D01*
X115325000Y-50695000D02*
X116655000Y-50695000D01*
X116655000Y-50695000D02*
X116655000Y-52025000D01*
X116655000Y-53295000D02*
X116655000Y-60975000D01*
%TO.C,D4*%
X155023250Y-63415000D02*
X156493250Y-63415000D01*
X156493250Y-63415000D02*
X156493250Y-60955000D01*
X155023250Y-60955000D02*
X155023250Y-63415000D01*
%TO.C,J3*%
X158715000Y-52675000D02*
X160095000Y-52675000D01*
X158715000Y-54055000D02*
X158715000Y-52675000D01*
X158715000Y-55325000D02*
X158715000Y-60515000D01*
X158715000Y-55325000D02*
X161365000Y-55325000D01*
X158715000Y-60515000D02*
X164015000Y-60515000D01*
X161365000Y-52675000D02*
X164015000Y-52675000D01*
X161365000Y-55325000D02*
X161365000Y-52675000D01*
X164015000Y-52675000D02*
X164015000Y-60515000D01*
%TO.C,C12*%
X152175000Y-57808733D02*
X152175000Y-58101267D01*
X151155000Y-57808733D02*
X151155000Y-58101267D01*
%TO.C,J13*%
X150420000Y-60320000D02*
X150420000Y-55180000D01*
X150420000Y-60320000D02*
X147760000Y-60320000D01*
X150420000Y-55180000D02*
X147760000Y-55180000D01*
X149090000Y-62920000D02*
X147760000Y-62920000D01*
X147760000Y-62920000D02*
X147760000Y-61590000D01*
X147760000Y-60320000D02*
X147760000Y-55180000D01*
%TO.C,D12*%
X118507500Y-73420000D02*
X118507500Y-74890000D01*
X118507500Y-74890000D02*
X120967500Y-74890000D01*
X120967500Y-73420000D02*
X118507500Y-73420000D01*
%TO.C,D7*%
X143270000Y-60120000D02*
X143270000Y-61590000D01*
X143270000Y-61590000D02*
X145730000Y-61590000D01*
X145730000Y-60120000D02*
X143270000Y-60120000D01*
%TO.C,C7*%
X114990374Y-39911567D02*
X114990374Y-40204101D01*
X113970374Y-39911567D02*
X113970374Y-40204101D01*
%TO.C,J16*%
X134855000Y-69905000D02*
X134855000Y-71285000D01*
X133475000Y-69905000D02*
X134855000Y-69905000D01*
X132205000Y-69905000D02*
X127015000Y-69905000D01*
X132205000Y-69905000D02*
X132205000Y-72555000D01*
X127015000Y-69905000D02*
X127015000Y-75205000D01*
X134855000Y-72555000D02*
X134855000Y-75205000D01*
X132205000Y-72555000D02*
X134855000Y-72555000D01*
X134855000Y-75205000D02*
X127015000Y-75205000D01*
%TO.C,U9*%
X87105001Y-57130000D02*
X87105001Y-53010000D01*
X87160001Y-57130000D02*
X87105001Y-57130000D01*
X97225001Y-57130000D02*
X97170001Y-57130000D01*
X87105001Y-53010000D02*
X87160001Y-53010000D01*
X97170001Y-53010000D02*
X97225001Y-53010000D01*
X97225001Y-53010000D02*
X97225001Y-57130000D01*
X87155001Y-57670000D02*
X86825001Y-57910000D01*
X86825001Y-57430000D01*
X87155001Y-57670000D01*
G36*
X87155001Y-57670000D02*
G01*
X86825001Y-57910000D01*
X86825001Y-57430000D01*
X87155001Y-57670000D01*
G37*
%TO.C,J4*%
X153485000Y-51375000D02*
X153485000Y-52755000D01*
X152105000Y-51375000D02*
X153485000Y-51375000D01*
X150835000Y-51375000D02*
X145645000Y-51375000D01*
X150835000Y-51375000D02*
X150835000Y-54135000D01*
X145645000Y-51375000D02*
X145645000Y-54135000D01*
X150835000Y-54135000D02*
X145645000Y-54135000D01*
%TO.C,J10*%
X153485000Y-47375000D02*
X153485000Y-48755000D01*
X152105000Y-47375000D02*
X153485000Y-47375000D01*
X150835000Y-47375000D02*
X145645000Y-47375000D01*
X150835000Y-47375000D02*
X150835000Y-50135000D01*
X145645000Y-47375000D02*
X145645000Y-50135000D01*
X150835000Y-50135000D02*
X145645000Y-50135000D01*
%TO.C,J6*%
X110750000Y-70000000D02*
X112350000Y-70000000D01*
X112350000Y-71800000D01*
X110750000Y-71800000D01*
X110750000Y-70000000D01*
X105190000Y-63090000D02*
X105190000Y-75910000D01*
X105190000Y-75910000D02*
X117910000Y-75910000D01*
X106300000Y-73610000D02*
X116800000Y-73610000D01*
X106300000Y-75910000D02*
X106300000Y-73610000D01*
X106410000Y-63090000D02*
X105190000Y-63090000D01*
X106410000Y-65990000D02*
X106410000Y-63090000D01*
X106690000Y-65990000D02*
X106410000Y-65990000D01*
X107250000Y-68600000D02*
X105190000Y-68600000D01*
X107250000Y-72010000D02*
X107250000Y-68600000D01*
X107400000Y-65000000D02*
X108200000Y-65000000D01*
X107800000Y-65400000D02*
X107400000Y-65000000D01*
X108200000Y-65000000D02*
X107800000Y-65400000D01*
X108350000Y-68600000D02*
X108350000Y-72010000D01*
X108350000Y-72010000D02*
X107250000Y-72010000D01*
X108850000Y-68600000D02*
X108350000Y-68600000D01*
X108850000Y-73610000D02*
X108850000Y-68600000D01*
X114250000Y-68600000D02*
X114750000Y-68600000D01*
X114250000Y-73610000D02*
X114250000Y-68600000D01*
X114750000Y-68600000D02*
X114750000Y-72010000D01*
X114750000Y-72010000D02*
X115850000Y-72010000D01*
X115850000Y-68600000D02*
X117910000Y-68600000D01*
X115850000Y-72010000D02*
X115850000Y-68600000D01*
X116690000Y-63090000D02*
X116690000Y-65990000D01*
X116690000Y-65990000D02*
X116410000Y-65990000D01*
X116800000Y-73610000D02*
X116800000Y-75910000D01*
X117910000Y-63090000D02*
X116690000Y-63090000D01*
X117910000Y-75910000D02*
X117910000Y-63090000D01*
%TO.C,R31*%
X125150276Y-65580000D02*
X125659724Y-65580000D01*
X125150276Y-66625000D02*
X125659724Y-66625000D01*
%TO.C,R32*%
X130757224Y-60032500D02*
X130247776Y-60032500D01*
X130757224Y-61077500D02*
X130247776Y-61077500D01*
%TO.C,J8*%
D10*
X110375000Y-30100000D02*
X117025000Y-30100000D01*
X110375000Y-35500000D02*
X110375000Y-30100000D01*
X117025000Y-30100000D02*
X117025000Y-35500000D01*
X117025000Y-35500000D02*
X110375000Y-35500000D01*
D11*
X117475000Y-34600000D02*
X117475000Y-34600000D01*
X117575000Y-34600000D02*
X117575000Y-34600000D01*
X117475000Y-34600000D02*
G75*
G02*
X117575000Y-34600000I50000J0D01*
G01*
X117575000Y-34600000D02*
G75*
G02*
X117475000Y-34600000I-50000J0D01*
G01*
%TO.C,R35*%
D16*
X124302500Y-58912224D02*
X124302500Y-58402776D01*
X125347500Y-58912224D02*
X125347500Y-58402776D01*
%TO.C,J2*%
D10*
X101700000Y-30100000D02*
X108350000Y-30100000D01*
X101700000Y-35500000D02*
X101700000Y-30100000D01*
X108350000Y-30100000D02*
X108350000Y-35500000D01*
X108350000Y-35500000D02*
X101700000Y-35500000D01*
D11*
X108800000Y-34600000D02*
X108800000Y-34600000D01*
X108900000Y-34600000D02*
X108900000Y-34600000D01*
X108800000Y-34600000D02*
G75*
G02*
X108900000Y-34600000I50000J0D01*
G01*
X108900000Y-34600000D02*
G75*
G02*
X108800000Y-34600000I-50000J0D01*
G01*
%TO.C,D8*%
D16*
X122345000Y-67202500D02*
X122345000Y-69202500D01*
X122345000Y-67202500D02*
X126355000Y-67202500D01*
X122345000Y-69202500D02*
X126355000Y-69202500D01*
%TO.C,R36*%
X169627500Y-58204724D02*
X169627500Y-57695276D01*
X170672500Y-58204724D02*
X170672500Y-57695276D01*
%TO.C,R20*%
X153282500Y-58100276D02*
X153282500Y-58609724D01*
X154327500Y-58100276D02*
X154327500Y-58609724D01*
%TO.C,R17*%
X110507874Y-42532558D02*
X110507874Y-42023110D01*
X111552874Y-42532558D02*
X111552874Y-42023110D01*
%TO.C,R18*%
X111997874Y-42582558D02*
X111997874Y-42073110D01*
X113042874Y-42582558D02*
X113042874Y-42073110D01*
%TO.C,R23*%
X110515276Y-37077500D02*
X111024724Y-37077500D01*
X110515276Y-38122500D02*
X111024724Y-38122500D01*
%TO.C,Y1*%
X146090000Y-72950000D02*
X146090000Y-70450000D01*
X149310000Y-70450000D02*
X149310000Y-72950000D01*
X146090000Y-70450000D02*
G75*
G02*
X146592999Y-69280999I1610450J-230D01*
G01*
X146593000Y-74119000D02*
G75*
G02*
X146090004Y-72950000I1107410J1169210D01*
G01*
X148807000Y-69281000D02*
G75*
G02*
X149310002Y-70450000I-1107440J-1169230D01*
G01*
X149310000Y-72950000D02*
G75*
G02*
X148806998Y-74118998I-1610390J210D01*
G01*
%TO.C,R37*%
X123922224Y-73632500D02*
X123412776Y-73632500D01*
X123922224Y-74677500D02*
X123412776Y-74677500D01*
%TO.C,R8*%
X106254724Y-37157500D02*
X105745276Y-37157500D01*
X106254724Y-38202500D02*
X105745276Y-38202500D01*
%TO.C,R33*%
X75807501Y-58612776D02*
X75807501Y-59122224D01*
X76852501Y-58612776D02*
X76852501Y-59122224D01*
%TO.C,J9*%
X104210000Y-75910000D02*
X104210000Y-63090000D01*
X104210000Y-63090000D02*
X102990000Y-63090000D01*
X103100000Y-73610000D02*
X103100000Y-75910000D01*
X102990000Y-65990000D02*
X102710000Y-65990000D01*
X102990000Y-63090000D02*
X102990000Y-65990000D01*
X102150000Y-72010000D02*
X102150000Y-68600000D01*
X102150000Y-68600000D02*
X104210000Y-68600000D01*
X101050000Y-72010000D02*
X102150000Y-72010000D01*
X101050000Y-68600000D02*
X101050000Y-72010000D01*
X100550000Y-73610000D02*
X100550000Y-68600000D01*
X100550000Y-68600000D02*
X101050000Y-68600000D01*
X95150000Y-73610000D02*
X95150000Y-68600000D01*
X95150000Y-68600000D02*
X94650000Y-68600000D01*
X94650000Y-72010000D02*
X93550000Y-72010000D01*
X94650000Y-68600000D02*
X94650000Y-72010000D01*
X94500000Y-65000000D02*
X94100000Y-65400000D01*
X94100000Y-65400000D02*
X93700000Y-65000000D01*
X93700000Y-65000000D02*
X94500000Y-65000000D01*
X93550000Y-72010000D02*
X93550000Y-68600000D01*
X93550000Y-68600000D02*
X91490000Y-68600000D01*
X92990000Y-65990000D02*
X92710000Y-65990000D01*
X92710000Y-65990000D02*
X92710000Y-63090000D01*
X92710000Y-63090000D02*
X91490000Y-63090000D01*
X92600000Y-75910000D02*
X92600000Y-73610000D01*
X92600000Y-73610000D02*
X103100000Y-73610000D01*
X91490000Y-75910000D02*
X104210000Y-75910000D01*
X91490000Y-63090000D02*
X91490000Y-75910000D01*
X97050000Y-70000000D02*
X98650000Y-70000000D01*
X98650000Y-71800000D01*
X97050000Y-71800000D01*
X97050000Y-70000000D01*
%TO.C,R10*%
X102317776Y-37227500D02*
X102827224Y-37227500D01*
X102317776Y-38272500D02*
X102827224Y-38272500D01*
D17*
%TO.C,G\u002A\u002A\u002A*%
G36*
X90564771Y-33534404D02*
G01*
X90672376Y-33553463D01*
X90763041Y-33593523D01*
X90835651Y-33653908D01*
X90887195Y-33730094D01*
X90918846Y-33818461D01*
X90934159Y-33918238D01*
X90933054Y-34020466D01*
X90915452Y-34116186D01*
X90891220Y-34178621D01*
X90860048Y-34226168D01*
X90818022Y-34272666D01*
X90771713Y-34312418D01*
X90727693Y-34339726D01*
X90694754Y-34348962D01*
X90650546Y-34351035D01*
X90616899Y-34354559D01*
X90580297Y-34355867D01*
X90530258Y-34353096D01*
X90499163Y-34349661D01*
X90453482Y-34342215D01*
X90418366Y-34334170D01*
X90405475Y-34329364D01*
X90400263Y-34316181D01*
X90396164Y-34282751D01*
X90393113Y-34227526D01*
X90391049Y-34148954D01*
X90389908Y-34045485D01*
X90389618Y-33938346D01*
X90389618Y-33557128D01*
X90427787Y-33542208D01*
X90462354Y-33535329D01*
X90513965Y-33532721D01*
X90564771Y-33534404D01*
G37*
G36*
X96595417Y-33871760D02*
G01*
X96612186Y-33906608D01*
X96634886Y-33958698D01*
X96661793Y-34023585D01*
X96691184Y-34096827D01*
X96721335Y-34173981D01*
X96750522Y-34250603D01*
X96777020Y-34322250D01*
X96799107Y-34384479D01*
X96815058Y-34432847D01*
X96823149Y-34462911D01*
X96823579Y-34470168D01*
X96807756Y-34476990D01*
X96769809Y-34482304D01*
X96715297Y-34486106D01*
X96649777Y-34488393D01*
X96578810Y-34489162D01*
X96507955Y-34488412D01*
X96442769Y-34486138D01*
X96388812Y-34482339D01*
X96351643Y-34477011D01*
X96336898Y-34470410D01*
X96339889Y-34452734D01*
X96352017Y-34414573D01*
X96371515Y-34360261D01*
X96396616Y-34294134D01*
X96425553Y-34220526D01*
X96456560Y-34143770D01*
X96487870Y-34068200D01*
X96517715Y-33998153D01*
X96544329Y-33937960D01*
X96565946Y-33891957D01*
X96580797Y-33864478D01*
X96586303Y-33858595D01*
X96595417Y-33871760D01*
G37*
G36*
X86593830Y-33657746D02*
G01*
X86603887Y-33676334D01*
X86620971Y-33716145D01*
X86643557Y-33772941D01*
X86670121Y-33842484D01*
X86699139Y-33920538D01*
X86729087Y-34002864D01*
X86758442Y-34085224D01*
X86785678Y-34163382D01*
X86809273Y-34233099D01*
X86827702Y-34290137D01*
X86839441Y-34330260D01*
X86842966Y-34349229D01*
X86842752Y-34349903D01*
X86826856Y-34354094D01*
X86787477Y-34357693D01*
X86728891Y-34360489D01*
X86655372Y-34362273D01*
X86578363Y-34362842D01*
X86485469Y-34362499D01*
X86416809Y-34361291D01*
X86368866Y-34358950D01*
X86338119Y-34355206D01*
X86321052Y-34349793D01*
X86314240Y-34342695D01*
X86317061Y-34325430D01*
X86328351Y-34286582D01*
X86346549Y-34230449D01*
X86370093Y-34161332D01*
X86397424Y-34083531D01*
X86426978Y-34001346D01*
X86457196Y-33919076D01*
X86486516Y-33841023D01*
X86513377Y-33771485D01*
X86536218Y-33714763D01*
X86553478Y-33675156D01*
X86562911Y-33657746D01*
X86578322Y-33646665D01*
X86593830Y-33657746D01*
G37*
G36*
X91653881Y-31396124D02*
G01*
X91742897Y-31397241D01*
X91983701Y-31401571D01*
X92202522Y-31407517D01*
X92405105Y-31415456D01*
X92597199Y-31425765D01*
X92784550Y-31438821D01*
X92972906Y-31455000D01*
X93168015Y-31474680D01*
X93375623Y-31498237D01*
X93484809Y-31511452D01*
X93930121Y-31573513D01*
X94363243Y-31648309D01*
X94782792Y-31735376D01*
X95187386Y-31834248D01*
X95575645Y-31944459D01*
X95946186Y-32065545D01*
X96297628Y-32197039D01*
X96628590Y-32338476D01*
X96937690Y-32489392D01*
X97223545Y-32649320D01*
X97484775Y-32817795D01*
X97592232Y-32895012D01*
X97661086Y-32949905D01*
X97740221Y-33019042D01*
X97825184Y-33097962D01*
X97911520Y-33182203D01*
X97994775Y-33267304D01*
X98070493Y-33348803D01*
X98134222Y-33422239D01*
X98181506Y-33483150D01*
X98186283Y-33490019D01*
X98296772Y-33671779D01*
X98379693Y-33853631D01*
X98435234Y-34036130D01*
X98463582Y-34219832D01*
X98467651Y-34321515D01*
X98454253Y-34506902D01*
X98413952Y-34689284D01*
X98346588Y-34869007D01*
X98251999Y-35046415D01*
X98130024Y-35221855D01*
X97980503Y-35395672D01*
X97954588Y-35422761D01*
X97790445Y-35580407D01*
X97611355Y-35729647D01*
X97415078Y-35871927D01*
X97199374Y-36008693D01*
X96962003Y-36141394D01*
X96700725Y-36271474D01*
X96496722Y-36364243D01*
X96339275Y-36430093D01*
X96161146Y-36498916D01*
X95968919Y-36568467D01*
X95769176Y-36636497D01*
X95568500Y-36700759D01*
X95373474Y-36759007D01*
X95204145Y-36805496D01*
X95084410Y-36836743D01*
X95077307Y-37116158D01*
X95072192Y-37256726D01*
X95063981Y-37377383D01*
X95051697Y-37485900D01*
X95034360Y-37590044D01*
X95010995Y-37697584D01*
X94997052Y-37753856D01*
X94923000Y-37991452D01*
X94826634Y-38212957D01*
X94708160Y-38417964D01*
X94567786Y-38606067D01*
X94559343Y-38616021D01*
X94469897Y-38710266D01*
X94363126Y-38805745D01*
X94245932Y-38897321D01*
X94125216Y-38979852D01*
X94007879Y-39048201D01*
X93927513Y-39086529D01*
X93859563Y-39115237D01*
X93859563Y-40394220D01*
X93744331Y-40508854D01*
X93698569Y-40552835D01*
X93659699Y-40587308D01*
X93631893Y-40608765D01*
X93619413Y-40613802D01*
X93617501Y-40598410D01*
X93615715Y-40557955D01*
X93614091Y-40495133D01*
X93612668Y-40412640D01*
X93611483Y-40313172D01*
X93610573Y-40199426D01*
X93609977Y-40074098D01*
X93609731Y-39939884D01*
X93609727Y-39919606D01*
X93609727Y-39235094D01*
X93512569Y-39281426D01*
X93512569Y-40741296D01*
X93411197Y-40841991D01*
X93368332Y-40882829D01*
X93332465Y-40913753D01*
X93308095Y-40931075D01*
X93300159Y-40933019D01*
X93298349Y-40917709D01*
X93296649Y-40877190D01*
X93295091Y-40814012D01*
X93293707Y-40730724D01*
X93292530Y-40629878D01*
X93291591Y-40514022D01*
X93290921Y-40385708D01*
X93290554Y-40247485D01*
X93290492Y-40161121D01*
X93290304Y-40018731D01*
X93289764Y-39885158D01*
X93288907Y-39762888D01*
X93287766Y-39654409D01*
X93286379Y-39562207D01*
X93284779Y-39488771D01*
X93283001Y-39436587D01*
X93281081Y-39408142D01*
X93279842Y-39403516D01*
X93263647Y-39411765D01*
X93229069Y-39430044D01*
X93182130Y-39455155D01*
X93154924Y-39469805D01*
X93040656Y-39531467D01*
X93040656Y-41213127D01*
X92925424Y-41327761D01*
X92879662Y-41371743D01*
X92840792Y-41406215D01*
X92812986Y-41427672D01*
X92800506Y-41432710D01*
X92798800Y-41417484D01*
X92797191Y-41376887D01*
X92795703Y-41313309D01*
X92794364Y-41229138D01*
X92793201Y-41126763D01*
X92792238Y-41008573D01*
X92791504Y-40876957D01*
X92791024Y-40734304D01*
X92790824Y-40583003D01*
X92790820Y-40557851D01*
X92790691Y-40405710D01*
X92790320Y-40262091D01*
X92789728Y-40129348D01*
X92788938Y-40009835D01*
X92787973Y-39905906D01*
X92786855Y-39819913D01*
X92785607Y-39754211D01*
X92784251Y-39711153D01*
X92782810Y-39693093D01*
X92782553Y-39692678D01*
X92766801Y-39699982D01*
X92738911Y-39717911D01*
X92733974Y-39721383D01*
X92693662Y-39750087D01*
X92693662Y-41560203D01*
X92590115Y-41663059D01*
X92539019Y-41711900D01*
X92504280Y-41740435D01*
X92484508Y-41749704D01*
X92479060Y-41745990D01*
X92477715Y-41728996D01*
X92476343Y-41686609D01*
X92474972Y-41621196D01*
X92473630Y-41535122D01*
X92472345Y-41430756D01*
X92471146Y-41310462D01*
X92470059Y-41176608D01*
X92469113Y-41031561D01*
X92468337Y-40877686D01*
X92468098Y-40819071D01*
X92464645Y-39912075D01*
X92221749Y-40139335D01*
X92221749Y-42032034D01*
X92106517Y-42146668D01*
X92060755Y-42190650D01*
X92021885Y-42225122D01*
X91994079Y-42246579D01*
X91981598Y-42251617D01*
X91980585Y-42236943D01*
X91979601Y-42195903D01*
X91978652Y-42129888D01*
X91977743Y-42040293D01*
X91976880Y-41928510D01*
X91976067Y-41795931D01*
X91975311Y-41643951D01*
X91974616Y-41473960D01*
X91973988Y-41287353D01*
X91973433Y-41085523D01*
X91972955Y-40869861D01*
X91972561Y-40641762D01*
X91972255Y-40402617D01*
X91972043Y-40153820D01*
X91971931Y-39896764D01*
X91971913Y-39745884D01*
X91971913Y-37249837D01*
X91874755Y-37249837D01*
X91874755Y-42379111D01*
X91773383Y-42479805D01*
X91730518Y-42520643D01*
X91694651Y-42551567D01*
X91670281Y-42568889D01*
X91662345Y-42570833D01*
X91661364Y-42556186D01*
X91660411Y-42515128D01*
X91659490Y-42449011D01*
X91658606Y-42359185D01*
X91657764Y-42246998D01*
X91656969Y-42113801D01*
X91656226Y-41960945D01*
X91655539Y-41789779D01*
X91654914Y-41601652D01*
X91654356Y-41397915D01*
X91653869Y-41179918D01*
X91653459Y-40949011D01*
X91653130Y-40706543D01*
X91652887Y-40453864D01*
X91652734Y-40192326D01*
X91652678Y-39923276D01*
X91652678Y-37249837D01*
X91402842Y-37249837D01*
X91402842Y-39898561D01*
X91402792Y-40167698D01*
X91402645Y-40429410D01*
X91402407Y-40682347D01*
X91402082Y-40925156D01*
X91401675Y-41156486D01*
X91401191Y-41374985D01*
X91400635Y-41579302D01*
X91400011Y-41768084D01*
X91399326Y-41939980D01*
X91398583Y-42093639D01*
X91397788Y-42227708D01*
X91396946Y-42340836D01*
X91396061Y-42431671D01*
X91395139Y-42498861D01*
X91394183Y-42541055D01*
X91393201Y-42556901D01*
X91393157Y-42556972D01*
X91380178Y-42551604D01*
X91352062Y-42529798D01*
X91312981Y-42495061D01*
X91268239Y-42452023D01*
X91153006Y-42337389D01*
X91153006Y-37249837D01*
X91055847Y-37249837D01*
X91055847Y-39725064D01*
X91055794Y-39985131D01*
X91055638Y-40237733D01*
X91055384Y-40481472D01*
X91055037Y-40714949D01*
X91054604Y-40936765D01*
X91054090Y-41145522D01*
X91053500Y-41339821D01*
X91052840Y-41518263D01*
X91052114Y-41679449D01*
X91051329Y-41821980D01*
X91050490Y-41944459D01*
X91049602Y-42045485D01*
X91048671Y-42123660D01*
X91047702Y-42177587D01*
X91046701Y-42205864D01*
X91046181Y-42209959D01*
X91033015Y-42204863D01*
X91005075Y-42183479D01*
X90966861Y-42149495D01*
X90935142Y-42118931D01*
X90833771Y-42018236D01*
X90833771Y-40174901D01*
X90712323Y-40055238D01*
X90590875Y-39935574D01*
X90587421Y-40823880D01*
X90586705Y-40978775D01*
X90585806Y-41125703D01*
X90584753Y-41262272D01*
X90583574Y-41386090D01*
X90582299Y-41494764D01*
X90580957Y-41585900D01*
X90579576Y-41657106D01*
X90578185Y-41705988D01*
X90576813Y-41730155D01*
X90576448Y-41732139D01*
X90565463Y-41734011D01*
X90539921Y-41717258D01*
X90498639Y-41680967D01*
X90451514Y-41635287D01*
X90334099Y-41518482D01*
X90334099Y-39750087D01*
X90293787Y-39721383D01*
X90264889Y-39702304D01*
X90246503Y-39692888D01*
X90245208Y-39692678D01*
X90243736Y-39706161D01*
X90242349Y-39745020D01*
X90241069Y-39806875D01*
X90239919Y-39889341D01*
X90238922Y-39990037D01*
X90238103Y-40106580D01*
X90237484Y-40236587D01*
X90237089Y-40377677D01*
X90236941Y-40527467D01*
X90236940Y-40537031D01*
X90236786Y-40687625D01*
X90236340Y-40829934D01*
X90235630Y-40961539D01*
X90234683Y-41080022D01*
X90233528Y-41182962D01*
X90232191Y-41267942D01*
X90230699Y-41332542D01*
X90229081Y-41374343D01*
X90227363Y-41390927D01*
X90227273Y-41391052D01*
X90214108Y-41385956D01*
X90186168Y-41364572D01*
X90147953Y-41330588D01*
X90116235Y-41300024D01*
X90014864Y-41199329D01*
X90014864Y-39546572D01*
X89889946Y-39479823D01*
X89765028Y-39413075D01*
X89765028Y-40161274D01*
X89764853Y-40302856D01*
X89764351Y-40436037D01*
X89763554Y-40558242D01*
X89762496Y-40666897D01*
X89761209Y-40759427D01*
X89759725Y-40833256D01*
X89758079Y-40885810D01*
X89756303Y-40914514D01*
X89755342Y-40919158D01*
X89742364Y-40913789D01*
X89714248Y-40891984D01*
X89675166Y-40857246D01*
X89630424Y-40814209D01*
X89515192Y-40699575D01*
X89515192Y-39281426D01*
X89466613Y-39258260D01*
X89418033Y-39235094D01*
X89418033Y-39898786D01*
X89417837Y-40031957D01*
X89417274Y-40156606D01*
X89416385Y-40269992D01*
X89415208Y-40369375D01*
X89413782Y-40452017D01*
X89412148Y-40515178D01*
X89410344Y-40556117D01*
X89408409Y-40572095D01*
X89408366Y-40572145D01*
X89395201Y-40567049D01*
X89367261Y-40545665D01*
X89329046Y-40511681D01*
X89297328Y-40481117D01*
X89195957Y-40380422D01*
X89195957Y-39226384D01*
X89195957Y-39128152D01*
X89113258Y-39092469D01*
X88935499Y-39001723D01*
X88781953Y-38898745D01*
X89765028Y-38898745D01*
X90007924Y-39049669D01*
X90011492Y-38119778D01*
X90012047Y-37961799D01*
X90012470Y-37812176D01*
X90012764Y-37673189D01*
X90012927Y-37547119D01*
X90012960Y-37436249D01*
X90012863Y-37342858D01*
X90012635Y-37269228D01*
X90012277Y-37217640D01*
X90012108Y-37208197D01*
X90236940Y-37208197D01*
X90236940Y-39226384D01*
X90281302Y-39272154D01*
X90308491Y-39299349D01*
X90326487Y-39315745D01*
X90329882Y-39317924D01*
X90330555Y-39304399D01*
X90331195Y-39265247D01*
X90331793Y-39202598D01*
X90332341Y-39118584D01*
X90332831Y-39015337D01*
X90333253Y-38894988D01*
X90333599Y-38759668D01*
X90333861Y-38611510D01*
X90334030Y-38452645D01*
X90334098Y-38285204D01*
X90334099Y-38263061D01*
X90334099Y-37229017D01*
X90583931Y-37229017D01*
X90583933Y-38411359D01*
X90583935Y-39593700D01*
X90665716Y-39716058D01*
X90705426Y-39777656D01*
X90743971Y-39841186D01*
X90775499Y-39896849D01*
X90787164Y-39919407D01*
X90826831Y-40000398D01*
X90830369Y-38622871D01*
X90830830Y-38429823D01*
X90831203Y-38244751D01*
X90831490Y-38069529D01*
X90831689Y-37906026D01*
X90831801Y-37756113D01*
X90831826Y-37621663D01*
X90831764Y-37504546D01*
X90831614Y-37406633D01*
X90831378Y-37329795D01*
X90831054Y-37275905D01*
X90830643Y-37246832D01*
X90830369Y-37242081D01*
X90815881Y-37240100D01*
X90780173Y-37237586D01*
X90748856Y-37235957D01*
X92221749Y-37235957D01*
X92222001Y-38592705D01*
X92222252Y-39949454D01*
X92260889Y-39880055D01*
X92291674Y-39826487D01*
X92325309Y-39770446D01*
X92339176Y-39748197D01*
X92372733Y-39697820D01*
X92410865Y-39644013D01*
X92425206Y-39624753D01*
X92471585Y-39563768D01*
X92471585Y-39323369D01*
X92471585Y-37218304D01*
X92407189Y-37227130D01*
X92351280Y-37232824D01*
X92293822Y-37235821D01*
X92282271Y-37235957D01*
X92221749Y-37235957D01*
X90748856Y-37235957D01*
X90729766Y-37234964D01*
X90705381Y-37233917D01*
X90583931Y-37229017D01*
X90334099Y-37229017D01*
X90334099Y-37208197D01*
X92693662Y-37208197D01*
X92693662Y-39323369D01*
X92742241Y-39276285D01*
X92790820Y-39229200D01*
X92790820Y-38104442D01*
X92790820Y-37208197D01*
X92693662Y-37208197D01*
X90334099Y-37208197D01*
X90236940Y-37208197D01*
X90012108Y-37208197D01*
X90011789Y-37190374D01*
X90011492Y-37186571D01*
X89997021Y-37184030D01*
X89982706Y-37182435D01*
X93040656Y-37182435D01*
X93040656Y-38104442D01*
X93040771Y-38261625D01*
X93041102Y-38410360D01*
X93041631Y-38548366D01*
X93042337Y-38673364D01*
X93043202Y-38783073D01*
X93044206Y-38875213D01*
X93045330Y-38947505D01*
X93046554Y-38997669D01*
X93047859Y-39023424D01*
X93048495Y-39026449D01*
X93062938Y-39019654D01*
X93095501Y-39001359D01*
X93140716Y-38974696D01*
X93173413Y-38954903D01*
X93290492Y-38883358D01*
X93290492Y-38775676D01*
X93290492Y-37151420D01*
X93245383Y-37158406D01*
X93205528Y-37163893D01*
X93152775Y-37170312D01*
X93120465Y-37173913D01*
X93040656Y-37182435D01*
X89982706Y-37182435D01*
X89961372Y-37180058D01*
X89911049Y-37175348D01*
X89886476Y-37173264D01*
X89765028Y-37163275D01*
X89765028Y-38898745D01*
X88781953Y-38898745D01*
X88764133Y-38886794D01*
X88603217Y-38751157D01*
X88571976Y-38718538D01*
X88456810Y-38598291D01*
X88328969Y-38431673D01*
X88311374Y-38405296D01*
X88201153Y-38215989D01*
X88111724Y-38016062D01*
X88042467Y-37803296D01*
X88024189Y-37719527D01*
X88888936Y-37719527D01*
X88899906Y-37901251D01*
X88933491Y-38068686D01*
X88990699Y-38224974D01*
X89072541Y-38373258D01*
X89121606Y-38443498D01*
X89189017Y-38533716D01*
X89192613Y-37813250D01*
X89193233Y-37674605D01*
X89193674Y-37544585D01*
X89193938Y-37425788D01*
X89194025Y-37320811D01*
X89193937Y-37232252D01*
X89193674Y-37162707D01*
X89193329Y-37124919D01*
X89418033Y-37124919D01*
X89418033Y-38718538D01*
X89463143Y-38746425D01*
X89492935Y-38764610D01*
X89510339Y-38774789D01*
X89511722Y-38775463D01*
X89512346Y-38762195D01*
X89512934Y-38723573D01*
X89513476Y-38662000D01*
X89513961Y-38579882D01*
X89514381Y-38479622D01*
X89514724Y-38363625D01*
X89514980Y-38234296D01*
X89515139Y-38094040D01*
X89515192Y-37950765D01*
X89515192Y-37163275D01*
X89515192Y-37127956D01*
X93512569Y-37127956D01*
X93512569Y-38775676D01*
X93561148Y-38747014D01*
X93609727Y-38718351D01*
X93609727Y-37578835D01*
X93859484Y-37578835D01*
X93859552Y-37729424D01*
X93859563Y-37792633D01*
X93859676Y-37929728D01*
X93860001Y-38058050D01*
X93860515Y-38174994D01*
X93861196Y-38277954D01*
X93862023Y-38364327D01*
X93862974Y-38431506D01*
X93864027Y-38476889D01*
X93865160Y-38497869D01*
X93865499Y-38499017D01*
X93875319Y-38488284D01*
X93896555Y-38459580D01*
X93925397Y-38418144D01*
X93939690Y-38396968D01*
X94026880Y-38244288D01*
X94088629Y-38084060D01*
X94125682Y-37913750D01*
X94138784Y-37730823D01*
X94138825Y-37719527D01*
X94133483Y-37574218D01*
X94116096Y-37445009D01*
X94084617Y-37322105D01*
X94037002Y-37195711D01*
X94022638Y-37163088D01*
X93999482Y-37114324D01*
X93981779Y-37086043D01*
X93964897Y-37072867D01*
X93944202Y-37069417D01*
X93941922Y-37069399D01*
X93923655Y-37068892D01*
X93908297Y-37068841D01*
X93895598Y-37071453D01*
X93885306Y-37078935D01*
X93877170Y-37093491D01*
X93870939Y-37117330D01*
X93866361Y-37152657D01*
X93863186Y-37201678D01*
X93861162Y-37266600D01*
X93860038Y-37349629D01*
X93859562Y-37452972D01*
X93859484Y-37578835D01*
X93609727Y-37578835D01*
X93609727Y-37116613D01*
X93561148Y-37122284D01*
X93512569Y-37127956D01*
X89515192Y-37127956D01*
X89515192Y-37124919D01*
X89418033Y-37124919D01*
X89193329Y-37124919D01*
X89193237Y-37114776D01*
X89192628Y-37091055D01*
X89192361Y-37088937D01*
X89177609Y-37085077D01*
X89144103Y-37079424D01*
X89118609Y-37075816D01*
X89048705Y-37066543D01*
X89005781Y-37161660D01*
X88953796Y-37290351D01*
X88918433Y-37412736D01*
X88897625Y-37538670D01*
X88889308Y-37678013D01*
X88888936Y-37719527D01*
X88024189Y-37719527D01*
X87992757Y-37575470D01*
X87961974Y-37330362D01*
X87950481Y-37117474D01*
X87943405Y-36839374D01*
X87788943Y-36799627D01*
X87590461Y-36745145D01*
X87378132Y-36680742D01*
X87160077Y-36609185D01*
X86944420Y-36533248D01*
X86739283Y-36455698D01*
X86552788Y-36379308D01*
X86538244Y-36373038D01*
X86247954Y-36240438D01*
X85983516Y-36104927D01*
X85743079Y-35965313D01*
X85524787Y-35820405D01*
X85326789Y-35669010D01*
X85147230Y-35509939D01*
X85058864Y-35422067D01*
X84943830Y-35296960D01*
X84848931Y-35179493D01*
X84848105Y-35178279D01*
X85535081Y-35178279D01*
X85539009Y-35183846D01*
X85556591Y-35188166D01*
X85590377Y-35191366D01*
X85642916Y-35193578D01*
X85716759Y-35194929D01*
X85814456Y-35195551D01*
X85876713Y-35195629D01*
X85972127Y-35195152D01*
X86058134Y-35193811D01*
X86130909Y-35191741D01*
X86186627Y-35189073D01*
X86221464Y-35185944D01*
X86231725Y-35183203D01*
X86228490Y-35168847D01*
X86201563Y-35158724D01*
X86154854Y-35154131D01*
X86143421Y-35153990D01*
X86091752Y-35145552D01*
X86060138Y-35119181D01*
X86047334Y-35073290D01*
X86048438Y-35032926D01*
X86055270Y-35001676D01*
X86070378Y-34951038D01*
X86091749Y-34886465D01*
X86117371Y-34813410D01*
X86145231Y-34737327D01*
X86173317Y-34663669D01*
X86199615Y-34597889D01*
X86222112Y-34545440D01*
X86238797Y-34511776D01*
X86243336Y-34504863D01*
X86254568Y-34499029D01*
X86279582Y-34494743D01*
X86321113Y-34491893D01*
X86381899Y-34490368D01*
X86464678Y-34490057D01*
X86572188Y-34490848D01*
X86584424Y-34490983D01*
X86911597Y-34494700D01*
X87025707Y-34786175D01*
X87058843Y-34872073D01*
X87088284Y-34950793D01*
X87112545Y-35018165D01*
X87130141Y-35070022D01*
X87139585Y-35102192D01*
X87140783Y-35109224D01*
X87130555Y-35139108D01*
X87103580Y-35156453D01*
X87082042Y-35166075D01*
X87079555Y-35172278D01*
X87099103Y-35178070D01*
X87131072Y-35184146D01*
X87166593Y-35188065D01*
X87220758Y-35190829D01*
X87288922Y-35192504D01*
X87366438Y-35193158D01*
X87448659Y-35192857D01*
X87530939Y-35191668D01*
X87608633Y-35189658D01*
X87677093Y-35186894D01*
X87731674Y-35183442D01*
X87767729Y-35179370D01*
X87780613Y-35174809D01*
X87768211Y-35166293D01*
X87735572Y-35158020D01*
X87696519Y-35152559D01*
X87644978Y-35145281D01*
X87608907Y-35132355D01*
X87576017Y-35108291D01*
X87556649Y-35090099D01*
X87539292Y-35073101D01*
X87523650Y-35056991D01*
X87508891Y-35039951D01*
X87494183Y-35020163D01*
X87478694Y-34995810D01*
X87461590Y-34965073D01*
X87442041Y-34926135D01*
X87419214Y-34877177D01*
X87392276Y-34816382D01*
X87360396Y-34741932D01*
X87322740Y-34652009D01*
X87278477Y-34544795D01*
X87226775Y-34418471D01*
X87166800Y-34271221D01*
X87097722Y-34101227D01*
X87048959Y-33981154D01*
X86978289Y-33807235D01*
X86917249Y-33657279D01*
X86865076Y-33529511D01*
X86826757Y-33436152D01*
X87685979Y-33436152D01*
X87686944Y-33444021D01*
X87704130Y-33452758D01*
X87732243Y-33459199D01*
X87753968Y-33460656D01*
X87821144Y-33471082D01*
X87879220Y-33499552D01*
X87906148Y-33524306D01*
X87911256Y-33534833D01*
X87915599Y-33554692D01*
X87919285Y-33586251D01*
X87922423Y-33631877D01*
X87925121Y-33693939D01*
X87927485Y-33774804D01*
X87929624Y-33876841D01*
X87931645Y-34002417D01*
X87933215Y-34118582D01*
X87940473Y-34689017D01*
X87978768Y-34798199D01*
X88031063Y-34918009D01*
X88097179Y-35015355D01*
X88179617Y-35092440D01*
X88280879Y-35151463D01*
X88403467Y-35194627D01*
X88439509Y-35203609D01*
X88507023Y-35214026D01*
X88591607Y-35219385D01*
X88685583Y-35219966D01*
X88781277Y-35216050D01*
X88871010Y-35207917D01*
X88947107Y-35195848D01*
X88993579Y-35183344D01*
X89110940Y-35128951D01*
X89213009Y-35056718D01*
X89296063Y-34969861D01*
X89356374Y-34871594D01*
X89357296Y-34869592D01*
X89375484Y-34827845D01*
X89390645Y-34787106D01*
X89403110Y-34744306D01*
X89413210Y-34696381D01*
X89421277Y-34640262D01*
X89427640Y-34572883D01*
X89432631Y-34491176D01*
X89436580Y-34392077D01*
X89439818Y-34272516D01*
X89442676Y-34129428D01*
X89443731Y-34068257D01*
X89446056Y-33931940D01*
X89448141Y-33820658D01*
X89450170Y-33731693D01*
X89452328Y-33662323D01*
X89454802Y-33609829D01*
X89457777Y-33571489D01*
X89461438Y-33544585D01*
X89465972Y-33526395D01*
X89471562Y-33514200D01*
X89478396Y-33505279D01*
X89482408Y-33501126D01*
X89521901Y-33477288D01*
X89576415Y-33464225D01*
X89613685Y-33457531D01*
X89640937Y-33448397D01*
X89645180Y-33445349D01*
X89847683Y-33445349D01*
X89863719Y-33454525D01*
X89892793Y-33460219D01*
X89904271Y-33460656D01*
X89965388Y-33467825D01*
X90019902Y-33486983D01*
X90059256Y-33514603D01*
X90069722Y-33528820D01*
X90073415Y-33545954D01*
X90076437Y-33583015D01*
X90078805Y-33641096D01*
X90080535Y-33721295D01*
X90081642Y-33824708D01*
X90082143Y-33952429D01*
X90082054Y-34105555D01*
X90081390Y-34285182D01*
X90081249Y-34313198D01*
X90080373Y-34477173D01*
X90079528Y-34615675D01*
X90078618Y-34730993D01*
X90077548Y-34825412D01*
X90076223Y-34901220D01*
X90074548Y-34960704D01*
X90072427Y-35006151D01*
X90069765Y-35039847D01*
X90066468Y-35064081D01*
X90062440Y-35081138D01*
X90057586Y-35093306D01*
X90051811Y-35102872D01*
X90048191Y-35107876D01*
X90010386Y-35140936D01*
X89978792Y-35150856D01*
X89920391Y-35158911D01*
X89888339Y-35169442D01*
X89883257Y-35182156D01*
X89899443Y-35186236D01*
X89941041Y-35189687D01*
X90005708Y-35192427D01*
X90091101Y-35194373D01*
X90194879Y-35195442D01*
X90266676Y-35195629D01*
X90382863Y-35195366D01*
X90473764Y-35194499D01*
X90541851Y-35192913D01*
X90589591Y-35190491D01*
X90619456Y-35187118D01*
X90633915Y-35182677D01*
X90636051Y-35178279D01*
X90619389Y-35167305D01*
X90580881Y-35158293D01*
X90543399Y-35153928D01*
X90489664Y-35147276D01*
X90455537Y-35136152D01*
X90432922Y-35117796D01*
X90431157Y-35115673D01*
X90415220Y-35083967D01*
X90403405Y-35032295D01*
X90395564Y-34958959D01*
X90391545Y-34862262D01*
X90391199Y-34740505D01*
X90392242Y-34675137D01*
X90396558Y-34466940D01*
X90507550Y-34462825D01*
X90563899Y-34461731D01*
X90612249Y-34462573D01*
X90643609Y-34465157D01*
X90646952Y-34465840D01*
X90666978Y-34479942D01*
X90696983Y-34511801D01*
X90731950Y-34555812D01*
X90749984Y-34580994D01*
X90850890Y-34724179D01*
X90940183Y-34844474D01*
X91019290Y-34943492D01*
X91089641Y-35022848D01*
X91152664Y-35084157D01*
X91209788Y-35129033D01*
X91261029Y-35158441D01*
X91275231Y-35164758D01*
X91289841Y-35170140D01*
X91307111Y-35174674D01*
X91329293Y-35178444D01*
X91358639Y-35181538D01*
X91397401Y-35184042D01*
X91447831Y-35186041D01*
X91512182Y-35187623D01*
X91592704Y-35188873D01*
X91691651Y-35189877D01*
X91811274Y-35190723D01*
X91953825Y-35191495D01*
X92121555Y-35192281D01*
X92148161Y-35192401D01*
X92969819Y-35196113D01*
X92985023Y-35143822D01*
X92993394Y-35105351D01*
X93000556Y-35054954D01*
X93006148Y-34998789D01*
X93009808Y-34943018D01*
X93011175Y-34893799D01*
X93009888Y-34857294D01*
X93005584Y-34839661D01*
X93002892Y-34839299D01*
X92991006Y-34857234D01*
X92977975Y-34891942D01*
X92973364Y-34908478D01*
X92954413Y-34965630D01*
X92927739Y-35008792D01*
X92889715Y-35039714D01*
X92836711Y-35060146D01*
X92765098Y-35071838D01*
X92671248Y-35076541D01*
X92624263Y-35076853D01*
X92535563Y-35075149D01*
X92469215Y-35069458D01*
X92419918Y-35058238D01*
X92382373Y-35039950D01*
X92351280Y-35013055D01*
X92333762Y-34992459D01*
X92324425Y-34979414D01*
X92317379Y-34964665D01*
X92312358Y-34944475D01*
X92309095Y-34915103D01*
X92307324Y-34872811D01*
X92306777Y-34813859D01*
X92307188Y-34734508D01*
X92308247Y-34634778D01*
X92311968Y-34314263D01*
X92521310Y-34315086D01*
X92620239Y-34316551D01*
X92695321Y-34320743D01*
X92750417Y-34328680D01*
X92789388Y-34341383D01*
X92816093Y-34359869D01*
X92834393Y-34385158D01*
X92841107Y-34399487D01*
X92854437Y-34441411D01*
X92860212Y-34479432D01*
X92860219Y-34480374D01*
X92864214Y-34506682D01*
X92872015Y-34515520D01*
X92877230Y-34502684D01*
X92883697Y-34468226D01*
X92890789Y-34418221D01*
X92897880Y-34358742D01*
X92904344Y-34295863D01*
X92909557Y-34235659D01*
X92912892Y-34184204D01*
X92913723Y-34147571D01*
X92911531Y-34131931D01*
X92896803Y-34134494D01*
X92869547Y-34150182D01*
X92861269Y-34156064D01*
X92844712Y-34167294D01*
X92826975Y-34175518D01*
X92803631Y-34181220D01*
X92770254Y-34184885D01*
X92722416Y-34186999D01*
X92655690Y-34188047D01*
X92565649Y-34188514D01*
X92565233Y-34188515D01*
X92311968Y-34189345D01*
X92308226Y-33878016D01*
X92307602Y-33787653D01*
X92307923Y-33706674D01*
X92309102Y-33639175D01*
X92311050Y-33589255D01*
X92313678Y-33561011D01*
X92315165Y-33556348D01*
X92331944Y-33553504D01*
X92371631Y-33552175D01*
X92429418Y-33552362D01*
X92500494Y-33554067D01*
X92558538Y-33556294D01*
X92658135Y-33561337D01*
X92733796Y-33567810D01*
X92789338Y-33577695D01*
X92828577Y-33592973D01*
X92855331Y-33615622D01*
X92873418Y-33647625D01*
X92886654Y-33690962D01*
X92895493Y-33731116D01*
X92903911Y-33757277D01*
X92912650Y-33755830D01*
X92921664Y-33726925D01*
X92930908Y-33670709D01*
X92940339Y-33587332D01*
X92941149Y-33578986D01*
X92946792Y-33517803D01*
X92950925Y-33468283D01*
X92952382Y-33446776D01*
X93318252Y-33446776D01*
X93330461Y-33455917D01*
X93360517Y-33460524D01*
X93367277Y-33460656D01*
X93424283Y-33468040D01*
X93476816Y-33487477D01*
X93515433Y-33514899D01*
X93525893Y-33529018D01*
X93529595Y-33545831D01*
X93532625Y-33581940D01*
X93534999Y-33638515D01*
X93536736Y-33716726D01*
X93537851Y-33817743D01*
X93538363Y-33942736D01*
X93538289Y-34092876D01*
X93537645Y-34269333D01*
X93537420Y-34313397D01*
X93536522Y-34477350D01*
X93535657Y-34615831D01*
X93534730Y-34731128D01*
X93533646Y-34825527D01*
X93532310Y-34901316D01*
X93530625Y-34960783D01*
X93528497Y-35006215D01*
X93525829Y-35039898D01*
X93522527Y-35064122D01*
X93518494Y-35081172D01*
X93513636Y-35093336D01*
X93507857Y-35102902D01*
X93504256Y-35107877D01*
X93466453Y-35140936D01*
X93434857Y-35150856D01*
X93377775Y-35158649D01*
X93345032Y-35168695D01*
X93338298Y-35180473D01*
X93338535Y-35180881D01*
X93353656Y-35183673D01*
X93393428Y-35186301D01*
X93454744Y-35188688D01*
X93534494Y-35190752D01*
X93629571Y-35192416D01*
X93736866Y-35193599D01*
X93853273Y-35194223D01*
X93861797Y-35194243D01*
X93978766Y-35194725D01*
X94086873Y-35195588D01*
X94183006Y-35196776D01*
X94264052Y-35198233D01*
X94326896Y-35199901D01*
X94368425Y-35201725D01*
X94385526Y-35203647D01*
X94385728Y-35203783D01*
X94403298Y-35207159D01*
X94437921Y-35205831D01*
X94454861Y-35203894D01*
X94498881Y-35198720D01*
X94534796Y-35195841D01*
X94542318Y-35195629D01*
X94568633Y-35182071D01*
X94590047Y-35141900D01*
X94606310Y-35075870D01*
X94617173Y-34984735D01*
X94618511Y-34966085D01*
X94621219Y-34898892D01*
X94619311Y-34855330D01*
X94613251Y-34836300D01*
X94603502Y-34842708D01*
X94590528Y-34875454D01*
X94583874Y-34898598D01*
X94551571Y-34970236D01*
X94499102Y-35023835D01*
X94429134Y-35056695D01*
X94427358Y-35057180D01*
X94380396Y-35065011D01*
X94315991Y-35069286D01*
X94240890Y-35070267D01*
X94161841Y-35068213D01*
X94085592Y-35063386D01*
X94018890Y-35056044D01*
X93968482Y-35046448D01*
X93946723Y-35038646D01*
X93929318Y-35029389D01*
X93914630Y-35020107D01*
X93902429Y-35008509D01*
X93892485Y-34992307D01*
X93884567Y-34969210D01*
X93878444Y-34936929D01*
X93873887Y-34893174D01*
X93870665Y-34835654D01*
X93868546Y-34762080D01*
X93867301Y-34670163D01*
X93866699Y-34557612D01*
X93866510Y-34422138D01*
X93866503Y-34261450D01*
X93866503Y-33530839D01*
X93896908Y-33500428D01*
X93931173Y-33478220D01*
X93982841Y-33465897D01*
X94004732Y-33463596D01*
X94048506Y-33458060D01*
X94079828Y-33450547D01*
X94089655Y-33445036D01*
X94089647Y-33445011D01*
X94858908Y-33445011D01*
X94871408Y-33453010D01*
X94903485Y-33460487D01*
X94930960Y-33464048D01*
X94981894Y-33472757D01*
X95016134Y-33489857D01*
X95035058Y-33508227D01*
X95067104Y-33545483D01*
X95067027Y-34283807D01*
X95066726Y-34462189D01*
X95065878Y-34620235D01*
X95064504Y-34756795D01*
X95062624Y-34870720D01*
X95060260Y-34960860D01*
X95057432Y-35026064D01*
X95054163Y-35065184D01*
X95052540Y-35074017D01*
X95030150Y-35121607D01*
X94993245Y-35147175D01*
X94944234Y-35153990D01*
X94899909Y-35157731D01*
X94872032Y-35167610D01*
X94865926Y-35181606D01*
X94866839Y-35183353D01*
X94882033Y-35185980D01*
X94922730Y-35188363D01*
X94986673Y-35190463D01*
X95071605Y-35192240D01*
X95175269Y-35193657D01*
X95295409Y-35194675D01*
X95429768Y-35195255D01*
X95568707Y-35195366D01*
X95732242Y-35195091D01*
X95869819Y-35194523D01*
X95983240Y-35193615D01*
X96074305Y-35192323D01*
X96144815Y-35190599D01*
X96196572Y-35188399D01*
X96231376Y-35185677D01*
X96251027Y-35182387D01*
X96257328Y-35178482D01*
X96257242Y-35177867D01*
X96241113Y-35166029D01*
X96207929Y-35157633D01*
X96197234Y-35156435D01*
X96141770Y-35144771D01*
X96109784Y-35119659D01*
X96099475Y-35079126D01*
X96101967Y-35051987D01*
X96110390Y-35020575D01*
X96127179Y-34971126D01*
X96149966Y-34909534D01*
X96176382Y-34841696D01*
X96204059Y-34773506D01*
X96230629Y-34710858D01*
X96253725Y-34659648D01*
X96270978Y-34625771D01*
X96276600Y-34617263D01*
X96288398Y-34610714D01*
X96313484Y-34605801D01*
X96354891Y-34602340D01*
X96415655Y-34600146D01*
X96498810Y-34599034D01*
X96579549Y-34598798D01*
X96677055Y-34599007D01*
X96750562Y-34599830D01*
X96803826Y-34601566D01*
X96840606Y-34604513D01*
X96864659Y-34608969D01*
X96879743Y-34615231D01*
X96889397Y-34623355D01*
X96900307Y-34642427D01*
X96918904Y-34682137D01*
X96943099Y-34737344D01*
X96970799Y-34802905D01*
X96999915Y-34873679D01*
X97028356Y-34944523D01*
X97054030Y-35010294D01*
X97074846Y-35065851D01*
X97088715Y-35106051D01*
X97093552Y-35125467D01*
X97082714Y-35141788D01*
X97062323Y-35156395D01*
X97042096Y-35168784D01*
X97044482Y-35175686D01*
X97071699Y-35182769D01*
X97072733Y-35183001D01*
X97099276Y-35185980D01*
X97148523Y-35188738D01*
X97215416Y-35191101D01*
X97294900Y-35192892D01*
X97381916Y-35193937D01*
X97389654Y-35193987D01*
X97487388Y-35194198D01*
X97560194Y-35193398D01*
X97610889Y-35191421D01*
X97642292Y-35188103D01*
X97657220Y-35183281D01*
X97659212Y-35178279D01*
X97643236Y-35167081D01*
X97608669Y-35157479D01*
X97582868Y-35153713D01*
X97532460Y-35144448D01*
X97492131Y-35125214D01*
X97455384Y-35091186D01*
X97415721Y-35037542D01*
X97405639Y-35022132D01*
X97391972Y-34996728D01*
X97368558Y-34948315D01*
X97336533Y-34879422D01*
X97297032Y-34792578D01*
X97251190Y-34690311D01*
X97200142Y-34575151D01*
X97145024Y-34449626D01*
X97086971Y-34316265D01*
X97040969Y-34209796D01*
X96982207Y-34073381D01*
X96926339Y-33943756D01*
X96874397Y-33823314D01*
X96827415Y-33714447D01*
X96786428Y-33619548D01*
X96752467Y-33541010D01*
X96726567Y-33481227D01*
X96709762Y-33442591D01*
X96703497Y-33428381D01*
X96683963Y-33400160D01*
X96656578Y-33393553D01*
X96651208Y-33394050D01*
X96643544Y-33396443D01*
X96635003Y-33403038D01*
X96624728Y-33415651D01*
X96611860Y-33436097D01*
X96595539Y-33466192D01*
X96574906Y-33507750D01*
X96549102Y-33562587D01*
X96517269Y-33632518D01*
X96478547Y-33719358D01*
X96432077Y-33824923D01*
X96377000Y-33951027D01*
X96312457Y-34099486D01*
X96258426Y-34224044D01*
X96185719Y-34391563D01*
X96123029Y-34535481D01*
X96069454Y-34657718D01*
X96024089Y-34760192D01*
X95986030Y-34844824D01*
X95954374Y-34913534D01*
X95928218Y-34968240D01*
X95906657Y-35010863D01*
X95888787Y-35043322D01*
X95873707Y-35067538D01*
X95860510Y-35085429D01*
X95848295Y-35098915D01*
X95845164Y-35101940D01*
X95819855Y-35124389D01*
X95795886Y-35140092D01*
X95767917Y-35150058D01*
X95730609Y-35155294D01*
X95678622Y-35156806D01*
X95606618Y-35155603D01*
X95566776Y-35154459D01*
X95497476Y-35148070D01*
X95450044Y-35131892D01*
X95419447Y-35102995D01*
X95400656Y-35058447D01*
X95400408Y-35057532D01*
X95396595Y-35028131D01*
X95393527Y-34971081D01*
X95391205Y-34886480D01*
X95389632Y-34774429D01*
X95388808Y-34635027D01*
X95388734Y-34468375D01*
X95389413Y-34274571D01*
X95389453Y-34266724D01*
X95390312Y-34105142D01*
X95391134Y-33969029D01*
X95392021Y-33856094D01*
X95393072Y-33764046D01*
X95394388Y-33690596D01*
X95396068Y-33633452D01*
X95398213Y-33590323D01*
X95400924Y-33558921D01*
X95404300Y-33536953D01*
X95408441Y-33522129D01*
X95413449Y-33512159D01*
X95419423Y-33504752D01*
X95422954Y-33501143D01*
X95462494Y-33477269D01*
X95516961Y-33464225D01*
X95554171Y-33457541D01*
X95581431Y-33448417D01*
X95593886Y-33439528D01*
X95586682Y-33433551D01*
X95574535Y-33432496D01*
X95554966Y-33432383D01*
X95511817Y-33432282D01*
X95449267Y-33432198D01*
X95371497Y-33432136D01*
X95282686Y-33432102D01*
X95226722Y-33432096D01*
X95133411Y-33432112D01*
X95048726Y-33432159D01*
X94976834Y-33432230D01*
X94921901Y-33432321D01*
X94888093Y-33432428D01*
X94879727Y-33432496D01*
X94861231Y-33439421D01*
X94858908Y-33445011D01*
X94089647Y-33445011D01*
X94086134Y-33433947D01*
X94078989Y-33432608D01*
X94057227Y-33432471D01*
X94013045Y-33432349D01*
X93950978Y-33432243D01*
X93875562Y-33432155D01*
X93791331Y-33432087D01*
X93702823Y-33432041D01*
X93614572Y-33432018D01*
X93531114Y-33432020D01*
X93456985Y-33432049D01*
X93396720Y-33432107D01*
X93354854Y-33432195D01*
X93335924Y-33432315D01*
X93335602Y-33432323D01*
X93319458Y-33441664D01*
X93318252Y-33446776D01*
X92952382Y-33446776D01*
X92953111Y-33436010D01*
X92953102Y-33426308D01*
X92939121Y-33426330D01*
X92900223Y-33426535D01*
X92839251Y-33426906D01*
X92759046Y-33427422D01*
X92662451Y-33428066D01*
X92552309Y-33428820D01*
X92431461Y-33429664D01*
X92350137Y-33430241D01*
X92205749Y-33431567D01*
X92077883Y-33433339D01*
X91968361Y-33435506D01*
X91879009Y-33438013D01*
X91811648Y-33440809D01*
X91768104Y-33443841D01*
X91750200Y-33447056D01*
X91749837Y-33447591D01*
X91762158Y-33455746D01*
X91792967Y-33460307D01*
X91805801Y-33460656D01*
X91866186Y-33467684D01*
X91920394Y-33486415D01*
X91959772Y-33513318D01*
X91970796Y-33527968D01*
X91973883Y-33547411D01*
X91976621Y-33591439D01*
X91979006Y-33656880D01*
X91981035Y-33740562D01*
X91982702Y-33839312D01*
X91984006Y-33949959D01*
X91984941Y-34069329D01*
X91985505Y-34194251D01*
X91985694Y-34321553D01*
X91985504Y-34448061D01*
X91984931Y-34570605D01*
X91983971Y-34686012D01*
X91982622Y-34791109D01*
X91980879Y-34882724D01*
X91978738Y-34957685D01*
X91976196Y-35012820D01*
X91973249Y-35044957D01*
X91972571Y-35048516D01*
X91957651Y-35096320D01*
X91935760Y-35127908D01*
X91901572Y-35146414D01*
X91849757Y-35154972D01*
X91788510Y-35156765D01*
X91712863Y-35153031D01*
X91647635Y-35139942D01*
X91587239Y-35114673D01*
X91526092Y-35074396D01*
X91458608Y-35016286D01*
X91402592Y-34961444D01*
X91369008Y-34925985D01*
X91324674Y-34877059D01*
X91272393Y-34817971D01*
X91214968Y-34752025D01*
X91155203Y-34682525D01*
X91095901Y-34612777D01*
X91039866Y-34546085D01*
X90989901Y-34485752D01*
X90948811Y-34435085D01*
X90919397Y-34397386D01*
X90904464Y-34375961D01*
X90903170Y-34372777D01*
X90912406Y-34361077D01*
X90937561Y-34333901D01*
X90974809Y-34295283D01*
X91020323Y-34249259D01*
X91020949Y-34248632D01*
X91105309Y-34156398D01*
X91166050Y-34070767D01*
X91205227Y-33987783D01*
X91224895Y-33903493D01*
X91228190Y-33849729D01*
X91216246Y-33745260D01*
X91180223Y-33653858D01*
X91121055Y-33576549D01*
X91039674Y-33514359D01*
X90937015Y-33468312D01*
X90862883Y-33448277D01*
X90833133Y-33444849D01*
X90779426Y-33441647D01*
X90705560Y-33438731D01*
X90615337Y-33436163D01*
X90512558Y-33434002D01*
X90401023Y-33432310D01*
X90284532Y-33431147D01*
X90166887Y-33430574D01*
X90051888Y-33430651D01*
X89943336Y-33431440D01*
X89872596Y-33432460D01*
X89849153Y-33436668D01*
X89847683Y-33445349D01*
X89645180Y-33445349D01*
X89653323Y-33439499D01*
X89645997Y-33433511D01*
X89633989Y-33432454D01*
X89614092Y-33432321D01*
X89570901Y-33432204D01*
X89508884Y-33432110D01*
X89432504Y-33432044D01*
X89346230Y-33432012D01*
X89320875Y-33432011D01*
X89232628Y-33432031D01*
X89153024Y-33432088D01*
X89086529Y-33432175D01*
X89037609Y-33432286D01*
X89010731Y-33432415D01*
X89007761Y-33432454D01*
X88990197Y-33436616D01*
X88993326Y-33445252D01*
X89011385Y-33454420D01*
X89038615Y-33460177D01*
X89048967Y-33460656D01*
X89096641Y-33465602D01*
X89138788Y-33476041D01*
X89159220Y-33483770D01*
X89176082Y-33493088D01*
X89189713Y-33506549D01*
X89200456Y-33526704D01*
X89208653Y-33556106D01*
X89214646Y-33597308D01*
X89218775Y-33652861D01*
X89221382Y-33725319D01*
X89222809Y-33817234D01*
X89223398Y-33931158D01*
X89223490Y-34069644D01*
X89223475Y-34108847D01*
X89223095Y-34271622D01*
X89221824Y-34409299D01*
X89219233Y-34524539D01*
X89214889Y-34619998D01*
X89208363Y-34698336D01*
X89199224Y-34762211D01*
X89187041Y-34814282D01*
X89171383Y-34857207D01*
X89151819Y-34893646D01*
X89127919Y-34926256D01*
X89099252Y-34957696D01*
X89083393Y-34973424D01*
X89028214Y-35021728D01*
X88974394Y-35055312D01*
X88914989Y-35076551D01*
X88843055Y-35087819D01*
X88751650Y-35091488D01*
X88737924Y-35091531D01*
X88648124Y-35089172D01*
X88578747Y-35080427D01*
X88522729Y-35062796D01*
X88473009Y-35033776D01*
X88422521Y-34990866D01*
X88404809Y-34973552D01*
X88370832Y-34937301D01*
X88342278Y-34900431D01*
X88318682Y-34860239D01*
X88299578Y-34814021D01*
X88284503Y-34759075D01*
X88272992Y-34692697D01*
X88264579Y-34612183D01*
X88258801Y-34514832D01*
X88255191Y-34397939D01*
X88253287Y-34258801D01*
X88252623Y-34094715D01*
X88252616Y-34088271D01*
X88252671Y-33950761D01*
X88253190Y-33838309D01*
X88254269Y-33748213D01*
X88256005Y-33677772D01*
X88258494Y-33624287D01*
X88261831Y-33585057D01*
X88266114Y-33557382D01*
X88271439Y-33538560D01*
X88272280Y-33536461D01*
X88304373Y-33491121D01*
X88354653Y-33466216D01*
X88404894Y-33460656D01*
X88436609Y-33456285D01*
X88453388Y-33446776D01*
X88450934Y-33434168D01*
X88443798Y-33432602D01*
X88421748Y-33432460D01*
X88377083Y-33432334D01*
X88314437Y-33432225D01*
X88238442Y-33432136D01*
X88153734Y-33432067D01*
X88064944Y-33432022D01*
X87976706Y-33432001D01*
X87893654Y-33432007D01*
X87820421Y-33432041D01*
X87761640Y-33432106D01*
X87721946Y-33432202D01*
X87706531Y-33432314D01*
X87685979Y-33436152D01*
X86826757Y-33436152D01*
X86821011Y-33422154D01*
X86784291Y-33333429D01*
X86754155Y-33261560D01*
X86729843Y-33204770D01*
X86710592Y-33161281D01*
X86695641Y-33129317D01*
X86684230Y-33107100D01*
X86675597Y-33092854D01*
X86668980Y-33084800D01*
X86663619Y-33081162D01*
X86663396Y-33081074D01*
X86640408Y-33084559D01*
X86623975Y-33097248D01*
X86615448Y-33113719D01*
X86597452Y-33153832D01*
X86570866Y-33215473D01*
X86536574Y-33296525D01*
X86495456Y-33394874D01*
X86448392Y-33508404D01*
X86396265Y-33635000D01*
X86339956Y-33772547D01*
X86280345Y-33918930D01*
X86232870Y-34036039D01*
X86171066Y-34188606D01*
X86111772Y-34334623D01*
X86055890Y-34471893D01*
X86004320Y-34598219D01*
X85957964Y-34711405D01*
X85917722Y-34809254D01*
X85884495Y-34889570D01*
X85859184Y-34950156D01*
X85842691Y-34988815D01*
X85836700Y-35001998D01*
X85806211Y-35047664D01*
X85764895Y-35091918D01*
X85720814Y-35127284D01*
X85682032Y-35146292D01*
X85680648Y-35146619D01*
X85646032Y-35152176D01*
X85601687Y-35156759D01*
X85595226Y-35157230D01*
X85559186Y-35163601D01*
X85537222Y-35174842D01*
X85535081Y-35178279D01*
X84848105Y-35178279D01*
X84770129Y-35063660D01*
X84703385Y-34943456D01*
X84644659Y-34812875D01*
X84637973Y-34796259D01*
X84580456Y-34615600D01*
X84550437Y-34432627D01*
X84547856Y-34248375D01*
X84572654Y-34063881D01*
X84624772Y-33880180D01*
X84700312Y-33705812D01*
X84797560Y-33540232D01*
X84920392Y-33374517D01*
X85066725Y-33210802D01*
X85234474Y-33051225D01*
X85421556Y-32897921D01*
X85625890Y-32753027D01*
X85635793Y-32746518D01*
X85918050Y-32574920D01*
X86225165Y-32413299D01*
X86555956Y-32262021D01*
X86909239Y-32121451D01*
X87283830Y-31991956D01*
X87678546Y-31873899D01*
X88092203Y-31767648D01*
X88523618Y-31673568D01*
X88971608Y-31592023D01*
X89434988Y-31523381D01*
X89702569Y-31490506D01*
X90022718Y-31457211D01*
X90336334Y-31431333D01*
X90649837Y-31412579D01*
X90969649Y-31400655D01*
X91302190Y-31395268D01*
X91653881Y-31396124D01*
G37*
%TO.C,J7*%
D10*
X160200000Y-30150000D02*
X170400000Y-30150000D01*
X160200000Y-37850000D02*
X160200000Y-30150000D01*
X170400000Y-30150000D02*
X170400000Y-37850000D01*
X170400000Y-37850000D02*
X160200000Y-37850000D01*
D18*
X168800000Y-35650000D02*
G75*
G02*
X168600000Y-35650000I-100000J0D01*
G01*
X168600000Y-35650000D02*
G75*
G02*
X168800000Y-35650000I100000J0D01*
G01*
%TO.C,J11*%
D16*
X136040000Y-78580000D02*
X136040000Y-77200000D01*
X137420000Y-78580000D02*
X136040000Y-78580000D01*
X138690000Y-75820000D02*
X143880000Y-75820000D01*
X138690000Y-78580000D02*
X138690000Y-75820000D01*
X138690000Y-78580000D02*
X143880000Y-78580000D01*
X143880000Y-78580000D02*
X143880000Y-75820000D01*
%TO.C,J12*%
X146595000Y-78455000D02*
X146595000Y-77075000D01*
X147975000Y-78455000D02*
X146595000Y-78455000D01*
X149245000Y-75695000D02*
X154435000Y-75695000D01*
X149245000Y-78455000D02*
X149245000Y-75695000D01*
X149245000Y-78455000D02*
X154435000Y-78455000D01*
X154435000Y-78455000D02*
X154435000Y-75695000D01*
%TO.C,R29*%
X139457500Y-57775276D02*
X139457500Y-58284724D01*
X140502500Y-57775276D02*
X140502500Y-58284724D01*
%TO.C,R3*%
X104687500Y-42634724D02*
X104687500Y-42125276D01*
X105732500Y-42634724D02*
X105732500Y-42125276D01*
%TO.C,D10*%
X78590001Y-55307500D02*
X78590001Y-56777500D01*
X78590001Y-56777500D02*
X81050001Y-56777500D01*
X81050001Y-55307500D02*
X78590001Y-55307500D01*
%TO.C,J18*%
X132365000Y-30965000D02*
X132365000Y-43785000D01*
X132365000Y-43785000D02*
X133585000Y-43785000D01*
X133475000Y-33265000D02*
X133475000Y-30965000D01*
X133585000Y-40885000D02*
X133865000Y-40885000D01*
X133585000Y-43785000D02*
X133585000Y-40885000D01*
X134425000Y-34865000D02*
X134425000Y-38275000D01*
X134425000Y-38275000D02*
X132365000Y-38275000D01*
X135525000Y-34865000D02*
X134425000Y-34865000D01*
X135525000Y-38275000D02*
X135525000Y-34865000D01*
X136025000Y-33265000D02*
X136025000Y-38275000D01*
X136025000Y-38275000D02*
X135525000Y-38275000D01*
X141425000Y-33265000D02*
X141425000Y-38275000D01*
X141425000Y-38275000D02*
X141925000Y-38275000D01*
X141925000Y-34865000D02*
X143025000Y-34865000D01*
X141925000Y-38275000D02*
X141925000Y-34865000D01*
X142075000Y-41875000D02*
X142475000Y-41475000D01*
X142475000Y-41475000D02*
X142875000Y-41875000D01*
X142875000Y-41875000D02*
X142075000Y-41875000D01*
X143025000Y-34865000D02*
X143025000Y-38275000D01*
X143025000Y-38275000D02*
X145085000Y-38275000D01*
X143585000Y-40885000D02*
X143865000Y-40885000D01*
X143865000Y-40885000D02*
X143865000Y-43785000D01*
X143865000Y-43785000D02*
X145085000Y-43785000D01*
X143975000Y-30965000D02*
X143975000Y-33265000D01*
X143975000Y-33265000D02*
X133475000Y-33265000D01*
X145085000Y-30965000D02*
X132365000Y-30965000D01*
X145085000Y-43785000D02*
X145085000Y-30965000D01*
X137925000Y-35075000D02*
X139525000Y-35075000D01*
X139525000Y-36875000D01*
X137925000Y-36875000D01*
X137925000Y-35075000D01*
%TO.C,R34*%
X124262500Y-54950276D02*
X124262500Y-55459724D01*
X125307500Y-54950276D02*
X125307500Y-55459724D01*
%TO.C,J14*%
X128115000Y-47425000D02*
X128115000Y-50085000D01*
X140875000Y-47425000D02*
X128115000Y-47425000D01*
X140875000Y-47425000D02*
X140875000Y-50085000D01*
X140875000Y-50085000D02*
X128115000Y-50085000D01*
X143475000Y-48755000D02*
X143475000Y-50085000D01*
X143475000Y-50085000D02*
X142145000Y-50085000D01*
%TO.C,Y2*%
X120495000Y-63352500D02*
X120495000Y-60852500D01*
X123715000Y-60852500D02*
X123715000Y-63352500D01*
X120495000Y-60852500D02*
G75*
G02*
X120998002Y-59683502I1610390J-210D01*
G01*
X120998000Y-64521500D02*
G75*
G02*
X120494998Y-63352500I1107440J1169230D01*
G01*
X123212000Y-59683500D02*
G75*
G02*
X123714996Y-60852500I-1107410J-1169210D01*
G01*
X123715000Y-63352500D02*
G75*
G02*
X123212001Y-64521501I-1610450J230D01*
G01*
%TO.C,J17*%
X71315000Y-61615000D02*
X71315000Y-75675000D01*
X71315000Y-61615000D02*
X72875000Y-61615000D01*
X73225000Y-77785000D02*
X75625000Y-77785000D01*
X74925000Y-61615000D02*
X74375000Y-61615000D01*
X75635000Y-77775000D02*
X76135000Y-77285000D01*
X76135000Y-76835000D02*
X76135000Y-77285000D01*
X84165000Y-76835000D02*
X76135000Y-76835000D01*
X84165000Y-76835000D02*
X84165000Y-77285000D01*
X84775000Y-61615000D02*
X85285000Y-61615000D01*
X85285000Y-61615000D02*
X85285000Y-65225000D01*
X85285000Y-66925000D02*
X85285000Y-71625000D01*
X85285000Y-72925000D02*
X85285000Y-74025000D01*
%TO.C,U7*%
X147850000Y-31240000D02*
X158070000Y-31240000D01*
X147850000Y-35860000D02*
X147850000Y-31240000D01*
X151110000Y-35860000D02*
X151110000Y-34480000D01*
X154810000Y-35860000D02*
X154810000Y-34480000D01*
X158070000Y-31240000D02*
X158070000Y-35860000D01*
X158070000Y-34480000D02*
X147850000Y-34480000D01*
X158070000Y-35860000D02*
X147850000Y-35860000D01*
%TO.C,D9*%
X129235000Y-58165000D02*
X129235000Y-59635000D01*
X129235000Y-59635000D02*
X131695000Y-59635000D01*
X131695000Y-58165000D02*
X129235000Y-58165000D01*
%TO.C,C10*%
D19*
X170701550Y-45460000D02*
X170701550Y-44190000D01*
X171336550Y-44825000D02*
X170145290Y-44825000D01*
X158160468Y-44005988D02*
G75*
G02*
X169748148Y-43666759I5822782J-819012D01*
G01*
X169748149Y-45983236D02*
G75*
G02*
X158160469Y-45644017I-5764899J1158236D01*
G01*
%TO.C,D5*%
D16*
X153070000Y-60955000D02*
X153070000Y-63415000D01*
X153070000Y-63415000D02*
X154540000Y-63415000D01*
X154540000Y-63415000D02*
X154540000Y-60955000D01*
%TO.C,R2*%
X102487500Y-42484724D02*
X102487500Y-41975276D01*
X103532500Y-42484724D02*
X103532500Y-41975276D01*
%TO.C,R19*%
X155235750Y-58100276D02*
X155235750Y-58609724D01*
X156280750Y-58100276D02*
X156280750Y-58609724D01*
%TO.C,R22*%
X114457224Y-37077500D02*
X113947776Y-37077500D01*
X114457224Y-38122500D02*
X113947776Y-38122500D01*
%TO.C,R27*%
X144842500Y-57840276D02*
X144842500Y-58349724D01*
X145887500Y-57840276D02*
X145887500Y-58349724D01*
%TD*%
M02*
