%TF.GenerationSoftware,KiCad,Pcbnew,10.0.2*%
%TF.CreationDate,2026-06-10T08:14:39-04:00*%
%TF.ProjectId,MUSTV Motherboard,4d555354-5620-44d6-9f74-686572626f61,rev?*%
%TF.SameCoordinates,Original*%
%TF.FileFunction,Soldermask,Top*%
%TF.FilePolarity,Negative*%
%FSLAX46Y46*%
G04 Gerber Fmt 4.6, Leading zero omitted, Abs format (unit mm)*
G04 Created by KiCad (PCBNEW 10.0.2) date 2026-06-10 08:14:39*
%MOMM*%
%LPD*%
G01*
G04 APERTURE LIST*
G04 Aperture macros list*
%AMRoundRect*
0 Rectangle with rounded corners*
0 $1 Rounding radius*
0 $2 $3 $4 $5 $6 $7 $8 $9 X,Y pos of 4 corners*
0 Add a 4 corners polygon primitive as box body*
4,1,4,$2,$3,$4,$5,$6,$7,$8,$9,$2,$3,0*
0 Add four circle primitives for the rounded corners*
1,1,$1+$1,$2,$3*
1,1,$1+$1,$4,$5*
1,1,$1+$1,$6,$7*
1,1,$1+$1,$8,$9*
0 Add four rect primitives between the rounded corners*
20,1,$1+$1,$2,$3,$4,$5,0*
20,1,$1+$1,$4,$5,$6,$7,0*
20,1,$1+$1,$6,$7,$8,$9,0*
20,1,$1+$1,$8,$9,$2,$3,0*%
%AMRotRect*
0 Rectangle, with rotation*
0 The origin of the aperture is its center*
0 $1 length*
0 $2 width*
0 $3 Rotation angle, in degrees counterclockwise*
0 Add horizontal line*
21,1,$1,$2,0,0,$3*%
G04 Aperture macros list end*
%ADD10RoundRect,0.237500X-0.237500X0.287500X-0.237500X-0.287500X0.237500X-0.287500X0.237500X0.287500X0*%
%ADD11RoundRect,0.237500X-0.237500X0.300000X-0.237500X-0.300000X0.237500X-0.300000X0.237500X0.300000X0*%
%ADD12R,1.700000X1.700000*%
%ADD13C,1.700000*%
%ADD14RoundRect,0.237500X0.237500X-0.287500X0.237500X0.287500X-0.237500X0.287500X-0.237500X-0.287500X0*%
%ADD15RoundRect,0.237500X-0.287500X-0.237500X0.287500X-0.237500X0.287500X0.237500X-0.287500X0.237500X0*%
%ADD16RoundRect,0.150000X0.150000X-0.825000X0.150000X0.825000X-0.150000X0.825000X-0.150000X-0.825000X0*%
%ADD17C,0.650000*%
%ADD18O,1.700000X1.950000*%
%ADD19RoundRect,0.250000X-0.600000X-0.725000X0.600000X-0.725000X0.600000X0.725000X-0.600000X0.725000X0*%
%ADD20RoundRect,0.237500X-0.250000X-0.237500X0.250000X-0.237500X0.250000X0.237500X-0.250000X0.237500X0*%
%ADD21RoundRect,0.237500X0.250000X0.237500X-0.250000X0.237500X-0.250000X-0.237500X0.250000X-0.237500X0*%
%ADD22R,1.000000X1.000000*%
%ADD23C,1.000000*%
%ADD24RoundRect,0.237500X0.237500X-0.250000X0.237500X0.250000X-0.237500X0.250000X-0.237500X-0.250000X0*%
%ADD25RoundRect,0.225000X-0.225000X-0.375000X0.225000X-0.375000X0.225000X0.375000X-0.225000X0.375000X0*%
%ADD26RoundRect,0.237500X-0.237500X0.250000X-0.237500X-0.250000X0.237500X-0.250000X0.237500X0.250000X0*%
%ADD27C,2.154000*%
%ADD28RoundRect,0.250000X0.600000X0.725000X-0.600000X0.725000X-0.600000X-0.725000X0.600000X-0.725000X0*%
%ADD29R,0.700000X1.400000*%
%ADD30R,0.700000X1.200000*%
%ADD31R,1.200000X0.800000*%
%ADD32R,1.500000X1.900000*%
%ADD33RotRect,0.200000X0.200000X45.000000*%
%ADD34R,0.500000X0.500000*%
%ADD35R,1.000000X1.400000*%
%ADD36R,1.200000X3.200000*%
%ADD37R,1.123210X1.123210*%
%ADD38R,1.905000X2.000000*%
%ADD39O,1.905000X2.000000*%
%ADD40R,1.651000X1.651000*%
%ADD41C,1.651000*%
G04 APERTURE END LIST*
D10*
%TO.C,D11*%
X170150000Y-53600000D03*
X170150000Y-55350000D03*
%TD*%
D11*
%TO.C,C1*%
X106960000Y-41287500D03*
X106960000Y-43012500D03*
%TD*%
D12*
%TO.C,J15*%
X175335000Y-41785000D03*
D13*
X175335000Y-44325000D03*
X175335000Y-46865000D03*
X175335000Y-49405000D03*
X175335000Y-51945000D03*
X175335000Y-54485000D03*
X175335000Y-57025000D03*
X175335000Y-59565000D03*
X175335000Y-62105000D03*
%TD*%
D11*
%TO.C,C14*%
X131205000Y-63940000D03*
X131205000Y-65665000D03*
%TD*%
D12*
%TO.C,J5*%
X115325000Y-52025000D03*
D13*
X115325000Y-54565000D03*
X115325000Y-57105000D03*
X115325000Y-59645000D03*
%TD*%
D14*
%TO.C,D4*%
X155758250Y-62630000D03*
X155758250Y-60880000D03*
%TD*%
D12*
%TO.C,J3*%
X160095000Y-54055000D03*
D13*
X162635000Y-54055000D03*
X160095000Y-56595000D03*
X162635000Y-56595000D03*
X160095000Y-59135000D03*
X162635000Y-59135000D03*
%TD*%
D11*
%TO.C,C12*%
X151665000Y-57092500D03*
X151665000Y-58817500D03*
%TD*%
D12*
%TO.C,J13*%
X149090000Y-61590000D03*
D13*
X149090000Y-59050000D03*
X149090000Y-56510000D03*
%TD*%
D15*
%TO.C,D12*%
X119292500Y-74155000D03*
X121042500Y-74155000D03*
%TD*%
%TO.C,D7*%
X144055000Y-60855000D03*
X145805000Y-60855000D03*
%TD*%
D11*
%TO.C,C7*%
X114480374Y-39195334D03*
X114480374Y-40920334D03*
%TD*%
D12*
%TO.C,J16*%
X133475000Y-71285000D03*
D13*
X133475000Y-73825000D03*
X130935000Y-71285000D03*
X130935000Y-73825000D03*
X128395000Y-71285000D03*
X128395000Y-73825000D03*
%TD*%
D16*
%TO.C,U9*%
X87720001Y-57545000D03*
X88990001Y-57545000D03*
X90260001Y-57545000D03*
X91530001Y-57545000D03*
X92800001Y-57545000D03*
X94070001Y-57545000D03*
X95340001Y-57545000D03*
X96610001Y-57545000D03*
X96610001Y-52595000D03*
X95340001Y-52595000D03*
X94070001Y-52595000D03*
X92800001Y-52595000D03*
X91530001Y-52595000D03*
X90260001Y-52595000D03*
X88990001Y-52595000D03*
X87720001Y-52595000D03*
%TD*%
D12*
%TO.C,J4*%
X152105000Y-52755000D03*
D13*
X149565000Y-52755000D03*
X147025000Y-52755000D03*
%TD*%
D12*
%TO.C,J10*%
X152105000Y-48755000D03*
D13*
X149565000Y-48755000D03*
X147025000Y-48755000D03*
%TD*%
D17*
%TO.C,J1*%
X171500000Y-67802500D03*
X171500000Y-73802500D03*
%TD*%
D18*
%TO.C,J6*%
X115300000Y-66600000D03*
X112800000Y-66600000D03*
X110300000Y-66600000D03*
D19*
X107800000Y-66600000D03*
%TD*%
D20*
%TO.C,R31*%
X124492500Y-66102500D03*
X126317500Y-66102500D03*
%TD*%
D21*
%TO.C,R32*%
X131415000Y-60555000D03*
X129590000Y-60555000D03*
%TD*%
D22*
%TO.C,J8*%
X115575000Y-34600000D03*
D23*
X114325000Y-34600000D03*
X113075000Y-34600000D03*
X111825000Y-34600000D03*
%TD*%
D24*
%TO.C,R35*%
X124825000Y-59570000D03*
X124825000Y-57745000D03*
%TD*%
D22*
%TO.C,J2*%
X106900000Y-34600000D03*
D23*
X105650000Y-34600000D03*
X104400000Y-34600000D03*
X103150000Y-34600000D03*
%TD*%
D25*
%TO.C,D8*%
X123055000Y-68202500D03*
X126355000Y-68202500D03*
%TD*%
D24*
%TO.C,R36*%
X170150000Y-58862500D03*
X170150000Y-57037500D03*
%TD*%
D26*
%TO.C,R20*%
X153805000Y-57442500D03*
X153805000Y-59267500D03*
%TD*%
D24*
%TO.C,R17*%
X111030374Y-43190334D03*
X111030374Y-41365334D03*
%TD*%
%TO.C,R18*%
X112520374Y-43240334D03*
X112520374Y-41415334D03*
%TD*%
D20*
%TO.C,R23*%
X109857500Y-37600000D03*
X111682500Y-37600000D03*
%TD*%
D13*
%TO.C,Y1*%
X147700000Y-74200000D03*
X147700000Y-71700000D03*
X147700000Y-69200000D03*
%TD*%
D21*
%TO.C,R37*%
X124580000Y-74155000D03*
X122755000Y-74155000D03*
%TD*%
%TO.C,R8*%
X106912500Y-37680000D03*
X105087500Y-37680000D03*
%TD*%
D26*
%TO.C,R33*%
X76330001Y-57955000D03*
X76330001Y-59780000D03*
%TD*%
D19*
%TO.C,J9*%
X94100000Y-66600000D03*
D18*
X96600000Y-66600000D03*
X99100000Y-66600000D03*
X101600000Y-66600000D03*
%TD*%
D20*
%TO.C,R10*%
X101660000Y-37750000D03*
X103485000Y-37750000D03*
%TD*%
D27*
%TO.C,J7*%
X167800000Y-34250000D03*
X162800000Y-34250000D03*
%TD*%
D12*
%TO.C,J11*%
X137420000Y-77200000D03*
D13*
X139960000Y-77200000D03*
X142500000Y-77200000D03*
%TD*%
D12*
%TO.C,J12*%
X147975000Y-77075000D03*
D13*
X150515000Y-77075000D03*
X153055000Y-77075000D03*
%TD*%
D26*
%TO.C,R29*%
X139980000Y-57117500D03*
X139980000Y-58942500D03*
%TD*%
D24*
%TO.C,R3*%
X105210000Y-43292500D03*
X105210000Y-41467500D03*
%TD*%
D15*
%TO.C,D10*%
X79375001Y-56042500D03*
X81125001Y-56042500D03*
%TD*%
D28*
%TO.C,J18*%
X142475000Y-40275000D03*
D18*
X139975000Y-40275000D03*
X137475000Y-40275000D03*
X134975000Y-40275000D03*
%TD*%
D26*
%TO.C,R34*%
X124785000Y-54292500D03*
X124785000Y-56117500D03*
%TD*%
D12*
%TO.C,J14*%
X142145000Y-48755000D03*
D13*
X139605000Y-48755000D03*
X137065000Y-48755000D03*
X134525000Y-48755000D03*
X131985000Y-48755000D03*
X129445000Y-48755000D03*
%TD*%
%TO.C,Y2*%
X122105000Y-59602500D03*
X122105000Y-62102500D03*
X122105000Y-64602500D03*
%TD*%
D29*
%TO.C,J17*%
X75525000Y-61875000D03*
X76625000Y-61875000D03*
X77725000Y-61875000D03*
X78825000Y-61875000D03*
X79925000Y-61875000D03*
X81025000Y-61875000D03*
X82125000Y-61875000D03*
X83225000Y-61875000D03*
D30*
X84175000Y-61775000D03*
D31*
X85025000Y-72275000D03*
D32*
X71725000Y-76875000D03*
D33*
X72475000Y-77325000D03*
D34*
X72725000Y-77575000D03*
D35*
X73625000Y-61875000D03*
D36*
X85025000Y-75875000D03*
D37*
X85225000Y-66075000D03*
%TD*%
D38*
%TO.C,U7*%
X155500000Y-32600000D03*
D39*
X152960000Y-32600000D03*
X150420000Y-32600000D03*
%TD*%
D15*
%TO.C,D9*%
X130020000Y-58900000D03*
X131770000Y-58900000D03*
%TD*%
D40*
%TO.C,C10*%
X168987050Y-44825000D03*
D41*
X158979450Y-44825000D03*
%TD*%
D14*
%TO.C,D5*%
X153805000Y-62630000D03*
X153805000Y-60880000D03*
%TD*%
D24*
%TO.C,R2*%
X103010000Y-43142500D03*
X103010000Y-41317500D03*
%TD*%
D26*
%TO.C,R19*%
X155758250Y-57442500D03*
X155758250Y-59267500D03*
%TD*%
D21*
%TO.C,R22*%
X115115000Y-37600000D03*
X113290000Y-37600000D03*
%TD*%
D26*
%TO.C,R27*%
X145365000Y-57182500D03*
X145365000Y-59007500D03*
%TD*%
D12*
%TO.C,U8*%
X80400000Y-47200000D03*
D13*
X80400000Y-44660000D03*
X80400000Y-42120000D03*
X80400000Y-39580000D03*
X80400000Y-37040000D03*
%TD*%
M02*
