M48
; DRILL file KiCad 10.0.2 date 2026-06-10T08:14:36
; FORMAT={-:-/ absolute / metric / decimal}
; #@! TF.CreationDate,2026-06-10T08:14:36-04:00
; #@! TF.GenerationSoftware,Kicad,Pcbnew,10.0.2
; #@! TF.FileFunction,Plated,1,4,PTH
FMAT,2
METRIC
; #@! TA.AperFunction,Plated,PTH,ViaDrill
T1C0.300
; #@! TA.AperFunction,Plated,PTH,ComponentDrill
T2C0.600
; #@! TA.AperFunction,Plated,PTH,ComponentDrill
T3C0.950
; #@! TA.AperFunction,Plated,PTH,ComponentDrill
T4C1.000
; #@! TA.AperFunction,Plated,PTH,ComponentDrill
T5C1.100
; #@! TA.AperFunction,Plated,PTH,ComponentDrill
T6C1.143
; #@! TA.AperFunction,Plated,PTH,ComponentDrill
T7C1.300
%
G90
G05
T1
X78.668Y-63.555
X80.393Y-63.555
X82.888Y-43.6
X84.1Y-63.4
X86.925Y-57.6
X90.225Y-51.2
X90.26Y-57.545
X94.025Y-51.1
X96.66Y-53.005
X97.225Y-57.6
X101.62Y-37.75
X103.01Y-41.317
X103.01Y-43.142
X103.485Y-37.735
X104.5Y-41.279
X105.087Y-37.68
X105.221Y-43.495
X105.78Y-42.38
X106.59Y-37.637
X106.99Y-41.04
X107.284Y-37.729
X107.737Y-43.012
X108.17Y-34.51
X109.68Y-37.6
X109.7Y-39.5
X111.03Y-41.365
X111.682Y-37.3
X112.5Y-54.0
X112.52Y-43.24
X112.605Y-39.955
X113.485Y-37.341
X114.103Y-42.366
X114.48Y-40.92
X115.115Y-37.6
X115.19Y-39.048
X116.42Y-34.53
X118.415Y-33.235
X118.5Y-74.1
X119.365Y-77.054
X119.695Y-31.522
X120.505Y-72.802
X121.845Y-76.505
X122.255Y-68.255
X122.275Y-77.455
X123.755Y-66.105
X124.1Y-59.5
X124.5Y-47.1
X124.57Y-34.17
X124.785Y-54.292
X124.805Y-73.005
X124.825Y-57.745
X125.555Y-71.205
X125.815Y-34.235
X125.93Y-38.038
X126.44Y-49.1
X127.2Y-63.402
X127.306Y-57.502
X127.505Y-75.555
X130.02Y-58.9
X130.105Y-62.902
X130.105Y-63.902
X130.142Y-60.604
X130.285Y-61.455
X130.726Y-68.996
X131.9Y-65.665
X133.05Y-69.15
X135.1Y-51.0
X135.567Y-53.887
X136.1Y-70.0
X136.8Y-69.3
X137.105Y-53.455
X137.105Y-66.205
X138.0Y-72.138
X139.5Y-69.638
X139.5Y-72.1
X139.98Y-57.117
X141.0Y-72.1
X141.1Y-62.35
X141.75Y-59.95
X142.5Y-56.7
X142.67Y-65.403
X143.767Y-67.751
X144.1Y-53.4
X145.1Y-55.9
X145.725Y-63.412
X145.805Y-59.805
X148.6Y-40.7
X149.32Y-42.76
X150.28Y-74.3
X150.295Y-66.305
X150.455Y-65.142
X150.705Y-55.402
X153.267Y-69.955
X153.805Y-62.63
X154.8Y-57.442
X155.758Y-62.63
X155.905Y-44.255
X156.767Y-71.755
X157.405Y-53.855
X162.855Y-73.102
X165.75Y-53.362
X166.0Y-72.0
X166.315Y-61.885
X168.005Y-67.593
X168.5Y-75.912
X170.19Y-58.78
X170.215Y-52.775
X170.225Y-67.602
X170.8Y-74.6
X170.875Y-65.707
X170.875Y-75.897
X171.3Y-44.35
X171.688Y-71.677
X172.305Y-70.602
X172.75Y-41.3
X174.8Y-65.707
X174.8Y-75.897
T2
X103.15Y-34.6
X104.4Y-34.6
X105.65Y-34.6
X106.9Y-34.6
X111.825Y-34.6
X113.075Y-34.6
X114.325Y-34.6
X115.575Y-34.6
T3
X94.1Y-66.6
X96.6Y-66.6
X99.1Y-66.6
X101.6Y-66.6
X107.8Y-66.6
X110.3Y-66.6
X112.8Y-66.6
X115.3Y-66.6
X134.975Y-40.275
X137.475Y-40.275
X139.975Y-40.275
X142.475Y-40.275
T4
X80.4Y-37.04
X80.4Y-39.58
X80.4Y-42.12
X80.4Y-44.66
X80.4Y-47.2
X115.325Y-52.025
X115.325Y-54.565
X115.325Y-57.105
X115.325Y-59.645
X122.105Y-59.602
X122.105Y-62.102
X122.105Y-64.602
X128.395Y-71.285
X128.395Y-73.825
X129.445Y-48.755
X130.935Y-71.285
X130.935Y-73.825
X131.985Y-48.755
X133.475Y-71.285
X133.475Y-73.825
X134.525Y-48.755
X137.065Y-48.755
X137.42Y-77.2
X139.605Y-48.755
X139.96Y-77.2
X142.145Y-48.755
X142.5Y-77.2
X147.025Y-48.755
X147.025Y-52.755
X147.7Y-69.2
X147.7Y-71.7
X147.7Y-74.2
X147.975Y-77.075
X149.09Y-56.51
X149.09Y-59.05
X149.09Y-61.59
X149.565Y-48.755
X149.565Y-52.755
X150.515Y-77.075
X152.105Y-48.755
X152.105Y-52.755
X153.055Y-77.075
X160.095Y-54.055
X160.095Y-56.595
X160.095Y-59.135
X162.635Y-54.055
X162.635Y-56.595
X162.635Y-59.135
X175.335Y-41.785
X175.335Y-44.325
X175.335Y-46.865
X175.335Y-49.405
X175.335Y-51.945
X175.335Y-54.485
X175.335Y-57.025
X175.335Y-59.565
X175.335Y-62.105
T5
X150.42Y-32.6
X152.96Y-32.6
X155.5Y-32.6
T6
X158.979Y-44.825
X168.987Y-44.825
T7
X162.8Y-34.25
X167.8Y-34.25
M30
